<svg width="1280" height="835" viewBox="0 0 1280 835" fill="none" xmlns="http://www.w3.org/2000/svg">
<path d="M70.0703 -116.555V142.619H148.255V186.925H21.4453V-116.555H70.0703ZM269.403 -116.555L269.479 -116.089L318.722 186.281L318.827 186.925H270.178L270.109 186.449L261.663 127.747H208.505L199.936 186.45L199.866 186.925H154.674L154.778 186.281L204.021 -116.089L204.098 -116.555H269.403ZM405.207 -116.555L405.273 -116.077L435.393 99.4912L465.513 -116.077L465.579 -116.555H534.435V186.925H488.4V-40.8936L454.084 186.453L454.013 186.925H413.317L413.246 186.453L378.93 -40.8936V186.925H336.352V-116.555H405.207ZM666.567 -116.555L666.644 -116.089L715.887 186.281L715.991 186.925H667.342L667.273 186.449L658.827 127.747H605.669L597.1 186.45L597.03 186.925H551.838L551.942 186.281L601.186 -116.089L601.262 -116.555H666.567ZM804.48 -116.555C829.177 -116.555 846.952 -110.815 858.545 -99.1123C870.137 -87.4107 875.444 -69.8529 875.444 -46.4551V-27.8809C875.444 -12.2772 872.953 0.562429 867.77 10.6025C862.635 20.547 854.871 27.7149 844.344 32.0977V32.1885C856.165 35.9521 864.048 43.4704 868.969 54.2852C873.931 65.1908 875.876 79.4309 875.876 96.5225V149.653C875.876 164.34 876.313 175.037 881.016 186.153L881.342 186.925H831.726L831.599 186.546C830.302 182.656 829.208 179.483 828.444 174.192C827.683 168.915 827.251 161.541 827.251 149.222V93.9316C827.251 79.9146 825.195 70.7993 820.574 65.1807C815.98 59.595 808.739 57.3379 798.001 57.3379H782.142V186.925H733.517V-116.555H804.48ZM611.442 85.6006H652.929L631.972 -62.3848L611.442 85.6006ZM214.278 85.6006H255.765L234.807 -62.3848L214.278 85.6006ZM782.142 13.0322H798.865C807.651 13.0322 814.602 11.1017 819.366 6.28516C824.133 1.46593 826.819 -6.35217 826.819 -18.3779V-41.7031C826.819 -52.4608 824.986 -60.0839 821.158 -65.0127C817.356 -69.9087 811.501 -72.249 803.185 -72.249H782.142V13.0322Z" stroke="#F4E046" stroke-width="1.11008"/>
<path d="M988.574 -116.555V142.619H1066.76V186.925H939.949V-116.555H988.574ZM1187.91 -116.555L1187.98 -116.089L1237.23 186.281L1237.33 186.925H1188.68L1188.61 186.449L1180.17 127.747H1127.01L1118.44 186.45L1118.37 186.925H1073.18L1073.28 186.281L1122.53 -116.089L1122.6 -116.555H1187.91ZM1323.71 -116.555L1323.78 -116.077L1353.9 99.4912L1384.02 -116.077L1384.08 -116.555H1452.94V186.925H1406.9V-40.8936L1372.59 186.453L1372.52 186.925H1331.82L1331.75 186.453L1297.43 -40.8936V186.925H1254.86V-116.555H1323.71ZM1585.07 -116.555L1585.15 -116.089L1634.39 186.281L1634.5 186.925H1585.85L1585.78 186.449L1577.33 127.747H1524.17L1515.6 186.45L1515.53 186.925H1470.34L1470.45 186.281L1519.69 -116.089L1519.77 -116.555H1585.07ZM1722.98 -116.555C1747.68 -116.555 1765.46 -110.815 1777.05 -99.1123C1788.64 -87.4107 1793.95 -69.8529 1793.95 -46.4551V-27.8809C1793.95 -12.2772 1791.46 0.562429 1786.27 10.6025C1781.14 20.547 1773.38 27.7149 1762.85 32.0977V32.1885C1774.67 35.9521 1782.55 43.4704 1787.47 54.2852C1792.43 65.1908 1794.38 79.4309 1794.38 96.5225V149.653C1794.38 164.34 1794.82 175.037 1799.52 186.153L1799.85 186.925H1750.23L1750.1 186.546C1748.81 182.656 1747.71 179.483 1746.95 174.192C1746.19 168.915 1745.75 161.541 1745.75 149.222V93.9316C1745.75 79.9146 1743.7 70.7993 1739.08 65.1807C1734.48 59.595 1727.24 57.3379 1716.5 57.3379H1700.65V186.925H1652.02V-116.555H1722.98ZM1529.95 85.6006H1571.43L1550.48 -62.3848L1529.95 85.6006ZM1132.78 85.6006H1174.27L1153.31 -62.3848L1132.78 85.6006ZM1700.65 13.0322H1717.37C1726.16 13.0322 1733.11 11.1017 1737.87 6.28516C1742.64 1.46593 1745.32 -6.35217 1745.32 -18.3779V-41.7031C1745.32 -52.4608 1743.49 -60.0839 1739.66 -65.0127C1735.86 -69.9087 1730 -72.249 1721.69 -72.249H1700.65V13.0322Z" stroke="#F4E046" stroke-width="1.11008"/>
<path d="M-461.93 207.445V466.619H-383.745V510.925H-510.555V207.445H-461.93ZM-262.597 207.445L-262.521 207.911L-213.278 510.281L-213.173 510.925H-261.822L-261.891 510.449L-270.337 451.747H-323.495L-332.064 510.45L-332.134 510.925H-377.326L-377.222 510.281L-327.979 207.911L-327.902 207.445H-262.597ZM-126.793 207.445L-126.727 207.923L-96.6074 423.491L-66.4873 207.923L-66.4209 207.445H2.43457V510.925H-43.5996V283.106L-77.916 510.453L-77.9873 510.925H-118.683L-118.754 510.453L-153.07 283.106V510.925H-195.648V207.445H-126.793ZM134.567 207.445L134.644 207.911L183.887 510.281L183.991 510.925H135.342L135.273 510.449L126.827 451.747H73.6689L65.0996 510.45L65.0303 510.925H19.8379L19.9424 510.281L69.1855 207.911L69.2617 207.445H134.567ZM272.48 207.445C297.177 207.445 314.952 213.185 326.545 224.888C338.137 236.589 343.444 254.147 343.444 277.545V296.119C343.444 311.723 340.953 324.562 335.77 334.603C330.635 344.547 322.871 351.715 312.344 356.098V356.188C324.165 359.952 332.048 367.47 336.969 378.285C341.931 389.191 343.876 403.431 343.876 420.522V473.653C343.876 488.34 344.313 499.037 349.016 510.153L349.342 510.925H299.726L299.599 510.546C298.302 506.656 297.208 503.483 296.444 498.192C295.683 492.915 295.251 485.541 295.251 473.222V417.932C295.251 403.915 293.195 394.799 288.574 389.181C283.98 383.595 276.739 381.338 266.001 381.338H250.142V510.925H201.517V207.445H272.48ZM79.4424 409.601H120.929L99.9717 261.615L79.4424 409.601ZM-317.722 409.601H-276.235L-297.193 261.615L-317.722 409.601ZM250.142 337.032H266.865C275.651 337.032 282.602 335.102 287.366 330.285C292.133 325.466 294.819 317.648 294.819 305.622V282.297C294.819 271.539 292.986 263.916 289.158 258.987C285.356 254.091 279.501 251.751 271.185 251.751H250.142V337.032Z" stroke="#F4E046" stroke-width="1.11008"/>
<path d="M456.574 207.445V466.619H534.759V510.925H407.949V207.445H456.574ZM655.907 207.445L655.982 207.911L705.226 510.281L705.331 510.925H656.682L656.613 510.449L648.167 451.747H595.009L586.439 510.45L586.37 510.925H541.178L541.282 510.281L590.525 207.911L590.602 207.445H655.907ZM791.711 207.445L791.777 207.923L821.896 423.491L852.017 207.923L852.083 207.445H920.938V510.925H874.904V283.106L840.588 510.453L840.517 510.925H799.821L799.75 510.453L765.434 283.106V510.925H722.855V207.445H791.711ZM1053.07 207.445L1053.15 207.911L1102.39 510.281L1102.5 510.925H1053.85L1053.78 510.449L1045.33 451.747H992.173L983.604 510.45L983.534 510.925H938.342L938.446 510.281L987.689 207.911L987.766 207.445H1053.07ZM1190.98 207.445C1215.68 207.445 1233.46 213.185 1245.05 224.888C1256.64 236.589 1261.95 254.147 1261.95 277.545V296.119C1261.95 311.723 1259.46 324.562 1254.27 334.603C1249.14 344.547 1241.38 351.715 1230.85 356.098V356.188C1242.67 359.952 1250.55 367.47 1255.47 378.285C1260.43 389.191 1262.38 403.431 1262.38 420.522V473.653C1262.38 488.34 1262.82 499.037 1267.52 510.153L1267.85 510.925H1218.23L1218.1 510.546C1216.81 506.656 1215.71 503.483 1214.95 498.192C1214.19 492.915 1213.75 485.541 1213.75 473.222V417.932C1213.75 403.915 1211.7 394.799 1207.08 389.181C1202.48 383.595 1195.24 381.338 1184.5 381.338H1168.65V510.925H1120.02V207.445H1190.98ZM997.946 409.601H1039.43L1018.48 261.615L997.946 409.601ZM600.782 409.601H642.269L621.311 261.615L600.782 409.601ZM1168.65 337.032H1185.37C1194.16 337.032 1201.11 335.102 1205.87 330.285C1210.64 325.466 1213.32 317.648 1213.32 305.622V282.297C1213.32 271.539 1211.49 263.916 1207.66 258.987C1203.86 254.091 1198 251.751 1189.69 251.751H1168.65V337.032Z" stroke="#F4E046" stroke-width="1.11008"/>
<path d="M104 833.11V530.74H151.515V789.915H229.7V833.11H104Z" fill="#F4E046"/>
<path d="M237.326 833.11L286.569 530.74H350.931L400.174 833.11H352.659L344.02 773.068V773.932H290.025L281.386 833.11H237.326ZM295.64 732.896H338.404L317.238 583.439H316.374L295.64 732.896Z" fill="#F4E046"/>
<path d="M418.907 833.11V530.74H486.724L516.961 747.151H517.825L548.062 530.74H615.879V833.11H570.956V604.173H570.092L535.535 833.11H495.795L461.239 604.173H460.375V833.11H418.907Z" fill="#F4E046"/>
<path d="M634.491 833.11L683.734 530.74H748.095L797.338 833.11H749.823L741.184 773.068V773.932H687.189L678.55 833.11H634.491ZM692.805 732.896H735.569L714.403 583.439H713.539L692.805 732.896Z" fill="#F4E046"/>
<path d="M816.071 833.11V530.74H886.48C935.723 530.74 956.889 553.634 956.889 600.285V618.859C956.889 649.96 946.954 669.83 925.788 678.47V679.333C949.546 686.677 957.321 709.139 957.321 743.263V796.394C957.321 811.08 957.753 821.879 962.505 833.11H914.125C911.534 825.335 909.806 820.583 909.806 795.962V740.671C909.806 712.594 901.599 703.523 880.001 703.523H863.586V833.11H816.071ZM863.586 660.327H880.865C898.575 660.327 909.374 652.552 909.374 628.363V605.037C909.374 583.439 902.031 573.936 885.184 573.936H863.586V660.327Z" fill="#F4E046"/>
<path d="M1070.57 530.186V789.359H1148.76V833.665H1021.95V530.186H1070.57ZM1269.91 530.186L1269.98 530.651L1319.23 833.021L1319.33 833.665H1270.68L1270.61 833.189L1262.17 774.487H1209.01L1200.44 833.19L1200.37 833.665H1155.18L1155.28 833.021L1204.53 530.651L1204.6 530.186H1269.91ZM1405.71 530.186L1405.78 530.663L1435.9 746.231L1466.02 530.663L1466.08 530.186H1534.94V833.665H1488.9V605.847L1454.59 833.193L1454.52 833.665H1413.82L1413.75 833.193L1379.43 605.847V833.665H1336.86V530.186H1405.71ZM1667.07 530.186L1667.15 530.651L1716.39 833.021L1716.5 833.665H1667.85L1667.78 833.189L1659.33 774.487H1606.17L1597.6 833.19L1597.53 833.665H1552.34L1552.45 833.021L1601.69 530.651L1601.77 530.186H1667.07ZM1804.98 530.186C1829.68 530.186 1847.46 535.926 1859.05 547.628C1870.64 559.33 1875.95 576.887 1875.95 600.285V618.859C1875.95 634.463 1873.46 647.303 1868.27 657.343C1863.14 667.287 1855.38 674.455 1844.85 678.838V678.929C1856.67 682.692 1864.55 690.211 1869.47 701.025C1874.43 711.931 1876.38 726.171 1876.38 743.263V796.394C1876.38 811.081 1876.82 821.777 1881.52 832.894L1881.85 833.665H1832.23L1832.1 833.286C1830.81 829.396 1829.71 826.223 1828.95 820.933C1828.19 815.655 1827.75 808.281 1827.75 795.962V740.672C1827.75 726.655 1825.7 717.54 1821.08 711.921C1816.48 706.335 1809.24 704.078 1798.5 704.078H1782.65V833.665H1734.02V530.186H1804.98ZM1611.95 732.341H1653.43L1632.48 584.355L1611.95 732.341ZM1214.78 732.341H1256.27L1235.31 584.355L1214.78 732.341ZM1782.65 659.772H1799.37C1808.16 659.772 1815.11 657.842 1819.87 653.025C1824.64 648.206 1827.32 640.388 1827.32 628.362V605.037C1827.32 594.279 1825.49 586.656 1821.66 581.728C1817.86 576.832 1812 574.491 1803.69 574.491H1782.65V659.772Z" stroke="#F4E046" stroke-width="1.11008"/>
<path d="M-753.93 530.186V789.359H-675.745V833.665H-802.555V530.186H-753.93ZM-554.597 530.186L-554.521 530.651L-505.278 833.021L-505.173 833.665H-553.822L-553.891 833.189L-562.337 774.487H-615.495L-624.064 833.19L-624.134 833.665H-669.326L-669.222 833.021L-619.979 530.651L-619.902 530.186H-554.597ZM-418.793 530.186L-418.727 530.663L-388.607 746.231L-358.487 530.663L-358.421 530.186H-289.565V833.665H-335.6V605.847L-369.916 833.193L-369.987 833.665H-410.683L-410.754 833.193L-445.07 605.847V833.665H-487.648V530.186H-418.793ZM-157.433 530.186L-157.356 530.651L-108.113 833.021L-108.009 833.665H-156.658L-156.727 833.189L-165.173 774.487H-218.331L-226.9 833.19L-226.97 833.665H-272.162L-272.058 833.021L-222.814 530.651L-222.738 530.186H-157.433ZM-19.5195 530.186C5.17692 530.186 22.9518 535.926 34.5449 547.628C46.1372 559.33 51.4443 576.887 51.4443 600.285V618.859C51.4443 634.463 48.9533 647.303 43.7695 657.343C38.6351 667.287 30.8713 674.455 20.3438 678.838V678.929C32.1651 682.692 40.048 690.211 44.9688 701.025C49.9308 711.931 51.8759 726.171 51.876 743.263V796.394C51.876 811.081 52.3125 821.777 57.0156 832.894L57.3418 833.665H7.72559L7.59863 833.286C6.30202 829.396 5.20794 826.223 4.44434 820.933C3.68269 815.655 3.25098 808.281 3.25098 795.962V740.672C3.25098 726.655 1.19502 717.54 -3.42578 711.921C-8.01957 706.335 -15.2611 704.078 -25.999 704.078H-41.8584V833.665H-90.4834V530.186H-19.5195ZM-212.558 732.341H-171.071L-192.028 584.355L-212.558 732.341ZM-609.722 732.341H-568.235L-589.193 584.355L-609.722 732.341ZM-41.8584 659.772H-25.1348C-16.3489 659.772 -9.39801 657.842 -4.63379 653.025C0.132864 648.206 2.81934 640.388 2.81934 628.362V605.037C2.81934 594.279 0.985866 586.656 -2.8418 581.728C-6.64402 576.832 -12.4991 574.491 -20.8154 574.491H-41.8584V659.772Z" stroke="#F4E046" stroke-width="1.11008"/>
</svg>
