<svg width="235" height="74" viewBox="0 0 235 74" fill="none" xmlns="http://www.w3.org/2000/svg">
<path d="M24.47 69.808C20.5878 69.1609 21.774 45.8139 22.8524 34.2213L56.8217 33.4125V35.8389L81.8941 37.4564C84.4823 41.9856 86.2077 38.2652 86.7469 35.8389H149.024H175.714V42.3092H182.184V33.4125H212.109C212.379 45.5443 212.433 70.2932 210.491 72.2343C208.065 74.6607 29.3227 70.6168 24.47 69.808Z" fill="#3C1F1F"/>
<path d="M20.4263 56.8674V34.2213L56.8217 31.7949V29.3686H40.6464L39.0288 25.3246L23.6619 26.1334V31.7949C25.549 31.7949 27.2205 31.9567 18.8091 32.6037C10.3977 33.2507 8.29459 38.2652 8.29443 40.6916C-5.2941 47.8089 3.17248 54.441 9.10435 56.8674L10.7208 55.2498C12.3384 56.3282 14.1177 57.3526 8.29443 52.8234C2.47116 48.2942 7.48565 43.3876 10.7208 41.5004C24.3084 43.4415 17.4607 52.5538 12.3384 56.8674H20.4263Z" fill="#3C1F1F"/>
<path d="M86.7469 33.4125L88.3649 31.7949C88.3649 22.0895 94.0264 2.35503 116.673 1.06097C139.319 -0.233091 145.519 19.3935 145.789 29.3686L149.024 34.2213L86.7469 33.4125Z" fill="#3C1F1F"/>
<path d="M222.624 56.8664H214.536L212.918 34.2203L210.491 31.794H197.551L195.934 30.1764L194.316 31.794H181.376L179.758 40.6906H177.332L176.523 32.6028H178.949V30.9852L178.14 29.3676H176.523V27.75H178.14L178.949 26.1325L179.758 29.3676H193.507C196.095 22.8973 197.282 26.6717 197.551 29.3676H211.301L212.109 26.9412L212.918 33.4125C224.565 32.1192 226.937 37.7257 226.668 40.6906L225.05 43.117C222.624 42.5778 217.771 42.6317 217.771 47.1609C217.771 51.6902 222.085 53.3617 224.241 53.6313C232.006 49.7491 228.555 45.0042 225.859 43.117L226.668 41.4994L229.094 43.117C239.447 49.5873 231.79 54.9792 226.668 56.8664C226.021 60.1016 223.702 58.2144 222.624 56.8664Z" fill="#3C1F1F"/>
<path d="M148.215 29.3686L147.406 26.9412H150.642V29.3686H148.215Z" fill="#3C1F1F"/>
<path d="M84.321 29.3686V26.9412H87.5561V29.3686H84.321Z" fill="#3C1F1F"/>
<path d="M85.1298 32.6028C84.4827 27.4265 83.7818 30.9852 83.5122 33.4116L57.631 32.6028V34.2203L83.5122 35.8379V38.2643C84.321 38.5339 85.7768 37.779 85.1298 32.6028Z" fill="#3C1F1F"/>
<path d="M58.4398 23.7061C58.1702 26.1321 57.7927 30.8227 58.4398 30.1764C59.0868 29.5301 58.7094 25.5936 58.4398 23.7061Z" fill="#3C1F1F"/>
<path d="M59.2485 23.7061C59.2485 30.1764 59.2485 30.9852 60.0573 30.1764C60.7044 29.5294 59.7877 25.5933 59.2485 23.7061Z" fill="#3C1F1F"/>
<path d="M60.0573 23.7061C60.7044 27.5883 61.4053 29.6372 61.6749 30.1764C61.6749 28.0196 61.3514 23.7061 60.0573 23.7061Z" fill="#3C1F1F"/>
<path d="M62.4837 23.7061C62.4837 28.8823 63.0229 30.1764 63.2925 30.1764C63.5621 28.0196 63.7778 23.7061 62.4837 23.7061Z" fill="#3C1F1F"/>
<path d="M64.1013 30.1764C63.4542 30.1764 63.8317 28.0196 64.1013 26.9412C64.1013 25.5933 64.263 22.8973 64.9101 22.8973C65.7188 22.8973 64.9101 30.1764 64.1013 30.1764Z" fill="#3C1F1F"/>
<path d="M151.45 30.9852V25.3237C152.259 25.3237 152.259 30.1764 152.259 30.9852C152.259 31.6322 151.72 31.2548 151.45 30.9852Z" fill="#3C1F1F"/>
<path d="M153.068 24.5149C153.338 26.6717 153.715 30.9852 153.068 30.9852C152.429 30.9852 152.263 26.7803 152.259 24.5979C152.562 23.5131 152.924 24.0906 153.068 24.5149Z" fill="#3C1F1F"/>
<path d="M153.877 24.5149C153.607 26.6717 153.391 30.9852 154.686 30.9852C154.955 28.5588 155.171 23.8679 153.877 24.5149Z" fill="#3C1F1F"/>
<path d="M155.494 30.9852C155.494 30.1764 155.333 27.75 154.686 24.5149C155.547 24.0602 156.303 27.75 156.303 29.3676C156.303 30.6617 155.764 30.9852 155.494 30.9852Z" fill="#3C1F1F"/>
<path d="M157.112 30.9852C157.759 30.9852 156.303 26.6717 155.494 24.5149C157.112 23.7061 157.112 28.5588 157.921 30.1764C158.729 31.794 156.303 30.9852 157.112 30.9852Z" fill="#3C1F1F"/>
<path d="M157.112 24.5149C157.382 26.6717 158.082 30.9852 158.729 30.9852C159.538 30.9852 157.112 22.8973 157.112 24.5149Z" fill="#3C1F1F"/>
<path d="M152.259 24.5149C152.259 24.5422 152.259 24.5699 152.259 24.5979M152.259 24.5979C152.263 26.7803 152.429 30.9852 153.068 30.9852C153.715 30.9852 153.338 26.6717 153.068 24.5149C152.924 24.0906 152.562 23.5131 152.259 24.5979ZM22.8524 34.2213C21.774 45.8139 20.5878 69.1609 24.47 69.808C29.3227 70.6167 208.065 74.6607 210.491 72.2343C212.433 70.2932 212.379 45.5443 212.109 33.4125H182.184V42.3092H175.714V35.8389H149.024H86.7469C86.2077 38.2652 84.4823 41.9857 81.8942 37.4564L56.8217 35.8389V33.4125L22.8524 34.2213ZM20.4263 34.2213V56.8674H12.3384C17.4607 52.5538 24.3084 43.4415 10.7208 41.5004C7.48565 43.3875 2.47116 48.2942 8.29443 52.8234C14.1177 57.3526 12.3384 56.3282 10.7208 55.2498L9.10435 56.8674C3.17248 54.441 -5.2941 47.8089 8.29443 40.6916C8.29459 38.2652 10.3977 33.2507 18.8091 32.6037C27.2205 31.9567 25.549 31.7949 23.6619 31.7949V26.1334L39.0288 25.3246L40.6464 29.3686H56.8217V31.7949L20.4263 34.2213ZM88.3649 31.7949L86.7469 33.4125L149.024 34.2213L145.789 29.3686C145.519 19.3935 139.319 -0.233091 116.672 1.06097C94.0264 2.35503 88.3649 22.0895 88.3649 31.7949ZM214.536 56.8664H222.624C223.702 58.2144 226.021 60.1016 226.668 56.8664C231.79 54.9792 239.447 49.5873 229.094 43.117L226.668 41.4994L225.859 43.117C228.555 45.0042 232.006 49.7491 224.241 53.6313C222.085 53.3617 217.771 51.6902 217.771 47.161C217.771 42.6317 222.624 42.5778 225.05 43.117L226.668 40.6906C226.937 37.7257 224.565 32.1192 212.918 33.4125L212.109 26.9412L211.301 29.3676H197.551C197.282 26.6717 196.095 22.8973 193.507 29.3676H179.758L178.949 26.1325L178.14 27.75H176.523V29.3676H178.14L178.949 30.9852V32.6028H176.523L177.332 40.6906H179.758L181.376 31.794H194.316L195.934 30.1764L197.551 31.794H210.491L212.918 34.2203L214.536 56.8664ZM147.406 26.9412L148.215 29.3686H150.642V26.9412H147.406ZM84.321 26.9412V29.3686H87.5561V26.9412H84.321ZM83.5122 33.4116C83.7818 30.9852 84.4827 27.4265 85.1298 32.6028C85.7768 37.779 84.321 38.5339 83.5122 38.2643V35.8379L57.631 34.2203V32.6028L83.5122 33.4116ZM58.4398 23.7061C58.1702 26.1321 57.7927 30.8227 58.4398 30.1764C59.0868 29.5301 58.7093 25.5936 58.4398 23.7061ZM59.2485 23.7061C59.2485 30.1764 59.2485 30.9852 60.0573 30.1764C60.7044 29.5294 59.7877 25.5933 59.2485 23.7061ZM60.0573 23.7061C60.7044 27.5883 61.4053 29.6372 61.6749 30.1764C61.6749 28.0196 61.3514 23.7061 60.0573 23.7061ZM62.4837 23.7061C62.4837 28.8823 63.0229 30.1764 63.2925 30.1764C63.5621 28.0196 63.7778 23.7061 62.4837 23.7061ZM64.1013 26.9412C63.8317 28.0196 63.4542 30.1764 64.1013 30.1764C64.9101 30.1764 65.7188 22.8973 64.9101 22.8973C64.263 22.8973 64.1013 25.5933 64.1013 26.9412ZM151.45 25.3237V30.9852C151.72 31.2548 152.259 31.6322 152.259 30.9852C152.259 30.1764 152.259 25.3237 151.45 25.3237ZM153.877 24.5149C153.607 26.6717 153.391 30.9852 154.686 30.9852C154.955 28.5588 155.171 23.8679 153.877 24.5149ZM154.686 24.5149C155.333 27.75 155.494 30.1764 155.494 30.9852C155.764 30.9852 156.303 30.6617 156.303 29.3676C156.303 27.75 155.547 24.0602 154.686 24.5149ZM155.494 24.5149C156.303 26.6717 157.759 30.9852 157.112 30.9852C156.303 30.9852 158.729 31.794 157.921 30.1764C157.112 28.5588 157.112 23.7061 155.494 24.5149ZM157.112 24.5149C157.381 26.6717 158.082 30.9852 158.729 30.9852C159.538 30.9852 157.112 22.8973 157.112 24.5149Z" stroke="#FFFEF1"/>
<path d="M158.727 31.5237V25.8622C159.535 25.8622 159.535 30.7149 159.535 31.5237C159.535 32.1707 158.996 31.7933 158.727 31.5237Z" fill="#3C1F1F"/>
<path d="M160.344 25.0534C160.614 27.2101 160.991 31.5237 160.344 31.5237C159.705 31.5237 159.54 27.3188 159.535 25.1364C159.838 24.0516 160.201 24.6291 160.344 25.0534Z" fill="#3C1F1F"/>
<path d="M161.153 25.0534C160.883 27.2101 160.668 31.5237 161.962 31.5237C162.231 29.0973 162.447 24.4063 161.153 25.0534Z" fill="#3C1F1F"/>
<path d="M162.771 31.5237C162.771 30.7149 162.609 28.2885 161.962 25.0534C162.823 24.5987 163.579 28.2885 163.579 29.9061C163.579 31.2002 163.04 31.5237 162.771 31.5237Z" fill="#3C1F1F"/>
<path d="M164.388 31.5237C165.035 31.5237 163.579 27.2101 162.771 25.0534C164.388 24.2446 164.388 29.0973 165.197 30.7149C166.006 32.3325 163.579 31.5237 164.388 31.5237Z" fill="#3C1F1F"/>
<path d="M164.388 25.0534C164.658 27.2101 165.359 31.5237 166.006 31.5237C166.814 31.5237 164.388 23.4358 164.388 25.0534Z" fill="#3C1F1F"/>
<path d="M159.535 25.0534C159.535 25.0807 159.535 25.1084 159.535 25.1364M159.535 25.1364C159.54 27.3188 159.705 31.5237 160.344 31.5237C160.991 31.5237 160.614 27.2101 160.344 25.0534C160.201 24.6291 159.838 24.0516 159.535 25.1364ZM158.727 25.8622V31.5237C158.996 31.7933 159.535 32.1707 159.535 31.5237C159.535 30.7149 159.535 25.8622 158.727 25.8622ZM161.153 25.0534C160.883 27.2101 160.668 31.5237 161.962 31.5237C162.231 29.0973 162.447 24.4063 161.153 25.0534ZM161.962 25.0534C162.609 28.2885 162.771 30.7149 162.771 31.5237C163.04 31.5237 163.579 31.2002 163.579 29.9061C163.579 28.2885 162.823 24.5987 161.962 25.0534ZM162.771 25.0534C163.579 27.2101 165.035 31.5237 164.388 31.5237C163.579 31.5237 166.006 32.3325 165.197 30.7149C164.388 29.0973 164.388 24.2446 162.771 25.0534ZM164.388 25.0534C164.658 27.2101 165.359 31.5237 166.006 31.5237C166.814 31.5237 164.388 23.4358 164.388 25.0534Z" stroke="#FFFEF1"/>
<path d="M165.195 31.5237V25.8622C166.004 25.8622 166.004 30.7149 166.004 31.5237C166.004 32.1707 165.465 31.7933 165.195 31.5237Z" fill="#3C1F1F"/>
<path d="M166.813 25.0534C167.082 27.2101 167.46 31.5237 166.813 31.5237C166.174 31.5237 166.008 27.3188 166.004 25.1364C166.307 24.0516 166.669 24.6291 166.813 25.0534Z" fill="#3C1F1F"/>
<path d="M167.622 25.0534C167.352 27.2101 167.136 31.5237 168.43 31.5237C168.7 29.0973 168.916 24.4063 167.622 25.0534Z" fill="#3C1F1F"/>
<path d="M169.239 31.5237C169.239 30.7149 169.077 28.2885 168.43 25.0534C169.292 24.5987 170.048 28.2885 170.048 29.9061C170.048 31.2002 169.509 31.5237 169.239 31.5237Z" fill="#3C1F1F"/>
<path d="M170.857 31.5237C171.504 31.5237 170.048 27.2101 169.239 25.0534C170.857 24.2446 170.857 29.0973 171.666 30.7149C172.474 32.3325 170.048 31.5237 170.857 31.5237Z" fill="#3C1F1F"/>
<path d="M170.857 25.0534C171.126 27.2101 171.827 31.5237 172.474 31.5237C173.283 31.5237 170.857 23.4358 170.857 25.0534Z" fill="#3C1F1F"/>
<path d="M166.004 25.0534C166.004 25.0807 166.004 25.1084 166.004 25.1364M166.004 25.1364C166.008 27.3188 166.174 31.5237 166.813 31.5237C167.46 31.5237 167.082 27.2101 166.813 25.0534C166.669 24.6291 166.307 24.0516 166.004 25.1364ZM165.195 25.8622V31.5237C165.465 31.7933 166.004 32.1707 166.004 31.5237C166.004 30.7149 166.004 25.8622 165.195 25.8622ZM167.622 25.0534C167.352 27.2101 167.136 31.5237 168.43 31.5237C168.7 29.0973 168.916 24.4063 167.622 25.0534ZM168.43 25.0534C169.077 28.2885 169.239 30.7149 169.239 31.5237C169.509 31.5237 170.048 31.2002 170.048 29.9061C170.048 28.2885 169.292 24.5987 168.43 25.0534ZM169.239 25.0534C170.048 27.2101 171.504 31.5237 170.857 31.5237C170.048 31.5237 172.474 32.3325 171.666 30.7149C170.857 29.0973 170.857 24.2446 169.239 25.0534ZM170.857 25.0534C171.126 27.2101 171.827 31.5237 172.474 31.5237C173.283 31.5237 170.857 23.4358 170.857 25.0534Z" stroke="#FFFEF1"/>
<path d="M170.051 31.5237V25.8622C170.86 25.8622 170.86 30.7149 170.86 31.5237C170.86 32.1707 170.32 31.7933 170.051 31.5237Z" fill="#3C1F1F"/>
<path d="M171.668 25.0534C171.938 27.2101 172.315 31.5237 171.668 31.5237C171.03 31.5237 170.864 27.3188 170.86 25.1364C171.162 24.0516 171.525 24.6291 171.668 25.0534Z" fill="#3C1F1F"/>
<path d="M172.477 25.0534C172.208 27.2101 171.992 31.5237 173.286 31.5237C173.556 29.0973 173.771 24.4063 172.477 25.0534Z" fill="#3C1F1F"/>
<path d="M174.095 31.5237C174.095 30.7149 173.933 28.2885 173.286 25.0534C174.147 24.5987 174.904 28.2885 174.904 29.9061C174.904 31.2002 174.364 31.5237 174.095 31.5237Z" fill="#3C1F1F"/>
<path d="M175.712 31.5237C176.359 31.5237 174.904 27.2101 174.095 25.0534C175.712 24.2446 175.712 29.0973 176.521 30.7149C177.33 32.3325 174.904 31.5237 175.712 31.5237Z" fill="#3C1F1F"/>
<path d="M175.712 25.0534C175.982 27.2101 176.683 31.5237 177.33 31.5237C178.139 31.5237 175.712 23.4358 175.712 25.0534Z" fill="#3C1F1F"/>
<path d="M170.86 25.0534C170.86 25.0807 170.86 25.1084 170.86 25.1364M170.86 25.1364C170.864 27.3188 171.03 31.5237 171.668 31.5237C172.315 31.5237 171.938 27.2101 171.668 25.0534C171.525 24.6291 171.162 24.0516 170.86 25.1364ZM170.051 25.8622V31.5237C170.32 31.7933 170.86 32.1707 170.86 31.5237C170.86 30.7149 170.86 25.8622 170.051 25.8622ZM172.477 25.0534C172.208 27.2101 171.992 31.5237 173.286 31.5237C173.556 29.0973 173.771 24.4063 172.477 25.0534ZM173.286 25.0534C173.933 28.2885 174.095 30.7149 174.095 31.5237C174.364 31.5237 174.904 31.2002 174.904 29.9061C174.904 28.2885 174.147 24.5987 173.286 25.0534ZM174.095 25.0534C174.904 27.2101 176.359 31.5237 175.712 31.5237C174.904 31.5237 177.33 32.3325 176.521 30.7149C175.712 29.0973 175.712 24.2446 174.095 25.0534ZM175.712 25.0534C175.982 27.2101 176.683 31.5237 177.33 31.5237C178.139 31.5237 175.712 23.4358 175.712 25.0534Z" stroke="#FFFEF1"/>
<path d="M66.9268 23.7653C66.6224 26.3683 66.1962 31.4011 66.9268 30.7076C67.6575 30.0142 67.2313 25.7905 66.9268 23.7653Z" fill="#3C1F1F"/>
<path d="M67.8401 23.7653C67.8401 30.7076 67.8401 31.5754 68.7534 30.7076C69.484 30.0134 68.449 25.7901 67.8401 23.7653Z" fill="#3C1F1F"/>
<path d="M68.7534 23.7653C69.484 27.9307 70.2755 30.1291 70.5799 30.7076C70.5799 28.3935 70.2146 23.7653 68.7534 23.7653Z" fill="#3C1F1F"/>
<path d="M71.4932 23.7653C71.4932 29.3192 72.1021 30.7076 72.4065 30.7076C72.7109 28.3935 72.9544 23.7653 71.4932 23.7653Z" fill="#3C1F1F"/>
<path d="M73.3198 30.7076C72.5891 30.7076 73.0153 28.3935 73.3198 27.2365C73.3198 25.7901 73.5024 22.8975 74.233 22.8975C75.1463 22.8975 74.233 30.7076 73.3198 30.7076Z" fill="#3C1F1F"/>
<path d="M66.9268 23.7653C66.6224 26.3683 66.1962 31.4011 66.9268 30.7076C67.6575 30.0142 67.2313 25.7905 66.9268 23.7653Z" stroke="#FFFEF1"/>
<path d="M67.8401 23.7653C67.8401 30.7076 67.8401 31.5754 68.7534 30.7076C69.484 30.0134 68.449 25.7901 67.8401 23.7653Z" stroke="#FFFEF1"/>
<path d="M68.7534 23.7653C69.484 27.9307 70.2755 30.1291 70.5799 30.7076C70.5799 28.3935 70.2146 23.7653 68.7534 23.7653Z" stroke="#FFFEF1"/>
<path d="M71.4932 23.7653C71.4932 29.3192 72.1021 30.7076 72.4065 30.7076C72.7109 28.3935 72.9544 23.7653 71.4932 23.7653Z" stroke="#FFFEF1"/>
<path d="M73.3198 30.7076C72.5891 30.7076 73.0153 28.3935 73.3198 27.2365C73.3198 25.7901 73.5024 22.8975 74.233 22.8975C75.1463 22.8975 74.233 30.7076 73.3198 30.7076Z" stroke="#FFFEF1"/>
<path d="M76.6339 23.7653C76.3295 26.3683 75.9033 31.4011 76.6339 30.7076C77.3645 30.0142 76.9383 25.7905 76.6339 23.7653Z" fill="#3C1F1F"/>
<path d="M77.5472 23.7653C77.5472 30.7076 77.5472 31.5754 78.4604 30.7076C79.191 30.0134 78.156 25.7901 77.5472 23.7653Z" fill="#3C1F1F"/>
<path d="M78.4604 23.7653C79.191 27.9307 79.9825 30.1291 80.287 30.7076C80.287 28.3935 79.9217 23.7653 78.4604 23.7653Z" fill="#3C1F1F"/>
<path d="M81.2002 23.7653C81.2002 29.3192 81.8091 30.7076 82.1135 30.7076C82.4179 28.3935 82.6615 23.7653 81.2002 23.7653Z" fill="#3C1F1F"/>
<path d="M83.0268 30.7076C82.2962 30.7076 82.7224 28.3935 83.0268 27.2365C83.0268 25.7901 83.2094 22.8975 83.9401 22.8975C84.8533 22.8975 83.9401 30.7076 83.0268 30.7076Z" fill="#3C1F1F"/>
<path d="M76.6339 23.7653C76.3295 26.3683 75.9033 31.4011 76.6339 30.7076C77.3645 30.0142 76.9383 25.7905 76.6339 23.7653Z" stroke="#FFFEF1"/>
<path d="M77.5472 23.7653C77.5472 30.7076 77.5472 31.5754 78.4604 30.7076C79.191 30.0134 78.156 25.7901 77.5472 23.7653Z" stroke="#FFFEF1"/>
<path d="M78.4604 23.7653C79.191 27.9307 79.9825 30.1291 80.287 30.7076C80.287 28.3935 79.9217 23.7653 78.4604 23.7653Z" stroke="#FFFEF1"/>
<path d="M81.2002 23.7653C81.2002 29.3192 81.8091 30.7076 82.1135 30.7076C82.4179 28.3935 82.6615 23.7653 81.2002 23.7653Z" stroke="#FFFEF1"/>
<path d="M83.0268 30.7076C82.2962 30.7076 82.7224 28.3935 83.0268 27.2365C83.0268 25.7901 83.2094 22.8975 83.9401 22.8975C84.8533 22.8975 83.9401 30.7076 83.0268 30.7076Z" stroke="#FFFEF1"/>
</svg>
