<svg width="518" height="322" viewBox="0 0 518 322" fill="none" xmlns="http://www.w3.org/2000/svg">
<g clip-path="url(#clip0_1655_7677)">
<path d="M195.008 170.59C189.511 170.59 170.665 172.165 169.488 185.946C169.488 185.946 123.944 209.963 119.625 213.113C115.306 216.263 124.729 217.05 124.729 217.05C124.729 217.05 170.273 189.489 171.451 189.489C172.628 189.489 187.941 195.789 196.186 182.402C204.431 169.015 195.008 170.59 195.008 170.59Z" stroke="#3C1F1F" stroke-miterlimit="10"/>
<path d="M142.395 152.085C142.395 152.085 146.321 152.085 147.106 150.116C147.106 150.116 143.18 148.935 142.395 152.085Z" stroke="#3C1F1F" stroke-miterlimit="10"/>
<path d="M200.504 156.023C192.856 154.196 185.977 159.566 185.977 159.566C185.977 159.566 181.266 164.685 191.866 163.897C202.467 163.11 208.749 157.991 200.504 156.023Z" stroke="#3C1F1F" stroke-miterlimit="10"/>
<path d="M202.466 152.873C197.362 150.51 184.406 156.81 184.406 156.81C184.406 156.81 175.376 164.291 185.976 165.866C195.25 167.244 211.139 162.291 208.391 157.338C207.998 156.629 207.225 155.924 206 155.235L202.466 152.873Z" stroke="#3C1F1F" stroke-miterlimit="10"/>
<path d="M208.394 157.339C208.394 157.339 220.137 154.449 215.033 166.654C215.033 166.654 208.351 178.395 199.324 175.674" stroke="#3C1F1F" stroke-miterlimit="10"/>
<path d="M194.763 165.673C194.763 165.673 193.044 169.803 195.007 170.591" stroke="#3C1F1F" stroke-miterlimit="10"/>
<path d="M207.819 160.483C207.819 160.483 217.14 157.605 212.943 165.673C208.746 173.74 202.162 174.732 199.566 173.055" stroke="#3C1F1F" stroke-miterlimit="10"/>
<path d="M196.669 170.535C196.669 170.535 194.87 167.614 197.489 165.165" stroke="#3C1F1F" stroke-miterlimit="10"/>
<path d="M115.142 159.811C115.142 159.811 114.997 163.271 117.31 163.98C117.31 163.98 118.138 167.469 121.04 167.85C121.04 167.85 120.407 172.559 129.83 171.378C129.83 171.378 122.445 162.027 115.146 159.811H115.142Z" fill="#3C1F1F" stroke="#3C1F1F" stroke-miterlimit="10"/>
<path d="M119.23 159.566L119.623 161.141C119.623 161.141 128.261 166.26 129.046 169.41C129.831 172.559 128.653 163.11 128.653 163.11C128.653 163.11 124.028 163.996 123.004 159.811L119.23 159.566Z" fill="#3C1F1F"/>
<path d="M123.73 159.567C123.73 159.567 124.088 163.083 129.317 162.311C129.317 162.311 136.392 165.079 138.999 159.567C138.999 159.567 143.444 160.145 143.507 163.004C143.507 163.004 145.929 156.023 136.506 156.023C136.506 156.023 130.224 150.117 126.691 158.385C126.691 158.385 125.089 157.992 123.73 159.567Z" stroke="#3C1F1F" stroke-miterlimit="10"/>
<path d="M129.312 163.003C129.312 163.003 134.146 170.59 141.998 161.535C141.998 161.535 141.605 160.354 139.642 160.354C139.642 160.354 134.687 166.444 129.312 163.003Z" fill="#3C1F1F"/>
<path d="M136.506 166.259C136.506 166.259 135.329 166.653 134.543 166.653C133.758 166.653 132.188 171.976 135.525 171.283C138.862 170.59 143.966 167.047 145.537 162.716H144.359C144.359 162.716 140.228 169.516 135.423 170.051C135.423 170.051 133.758 168.622 136.506 166.259Z" stroke="#3C1F1F" stroke-miterlimit="10"/>
<path d="M136.883 167.031C136.883 167.031 136.502 168.622 137.68 168.622C137.68 168.622 140.428 167.047 142.784 163.897C142.784 163.897 143.569 162.322 142.391 161.929C142.391 161.929 140.793 165.307 137.664 165.98C137.664 165.98 136.867 166.622 136.879 167.031H136.883Z" fill="#3C1F1F"/>
<path d="M140.078 170.05C140.078 170.05 147.526 170.196 147.903 165.275C147.903 165.275 149.85 164.29 149.85 163.503C149.85 163.503 152.681 164.29 154.209 162.715C155.736 161.14 148.28 161.14 148.28 161.14C148.28 161.14 147.412 158.483 144.507 159.81L144.456 161.928H146.427L151.814 162.322C151.814 162.322 148.625 162.322 146.293 162.715C146.293 162.715 144.044 168.728 140.074 170.05H140.078Z" fill="#3C1F1F"/>
<path d="M150.445 202.286L159.027 197.777C159.027 197.777 188.25 199.726 204.288 188.407C220.327 177.087 218.427 163.7 217.217 161.928C217.217 161.928 218.364 158.188 214.438 156.613C214.438 156.613 200.696 136.927 163.004 138.895C163.004 138.895 146.244 140.612 143.04 142.707L140.045 143.737L137.48 144.801C137.48 144.801 119.216 154.349 117.944 159.81L114.316 158.582C114.316 158.582 114.316 163.7 115.886 164.094C115.886 164.094 111.32 182.603 129.31 189.69C129.31 189.69 141.014 195.986 148.081 196.38L139.502 201.183C139.502 201.183 89.3845 190.934 106.169 157.042C106.169 157.042 124.131 129.843 168.497 131.418C212.863 132.993 221.034 147.29 225.784 152.345C230.535 157.401 241.524 184.966 191.269 199.927C191.269 199.927 168.89 206.227 150.437 202.29L150.445 202.286Z" fill="#3C1F1F"/>
<path d="M150.053 164.747C150.053 164.747 149.778 172.122 143.045 171.063C143.045 171.063 140.238 170.791 143.379 175.516C146.52 180.24 145.342 181.028 152.802 181.028C160.261 181.028 161.844 170.003 158.502 168.625C158.502 168.625 159.099 165.795 158.502 164.751C157.906 163.708 163.01 163.31 161.832 161.735C160.654 160.16 159.869 159.373 159.476 159.373C159.083 159.373 161.047 157.404 161.047 157.404C161.047 157.404 163.053 158.404 164.403 158.495C165.754 158.585 164.973 155.436 162.617 154.648C160.261 153.861 155.943 157.798 155.943 157.798L152.802 160.948C152.802 160.948 156.437 162.365 154.423 163.428C152.409 164.491 150.446 164.491 150.446 164.491L150.053 164.751V164.747Z" stroke="#3C1F1F" stroke-miterlimit="10"/>
<path d="M175.695 186.544C175.695 186.544 184.804 192.639 196.775 175.118" stroke="#3C1F1F" stroke-miterlimit="10"/>
<path d="M104.612 63.209C104.612 63.209 115.974 101.401 109.673 110.606C103.371 119.808 102.44 123.009 93.7126 128.068C93.7126 128.068 89.3938 133.966 89.3938 139.486C89.3938 145.006 90.2026 167.437 92.1421 170.197C94.0816 172.957 95.6757 173.347 95.6757 173.347C95.6757 173.347 89.3781 181.237 81.934 172.953C81.934 172.953 86.7357 171.26 86.2528 163.897C85.7699 156.535 85.8602 138.699 85.8602 138.699C85.8602 138.699 86.0644 131.356 78.7931 127.674C71.5218 123.993 59.2524 111.067 60.2222 101.861C61.1919 92.6599 66.0486 63.9177 66.0486 63.9177" stroke="#3C1F1F" stroke-miterlimit="10"/>
<path d="M86.2537 160.354C86.2537 160.354 67.4983 164.472 67.0154 174.134C66.5324 183.796 89.3946 184.765 89.3946 184.765C89.3946 184.765 117.659 182.891 109.418 165.866C109.418 165.866 103.996 160.814 90.5725 160.354" stroke="#3C1F1F" stroke-miterlimit="10"/>
<path d="M78.793 127.675C78.793 127.675 83.9755 133.152 92.2205 129.013" stroke="#3C1F1F" stroke-miterlimit="10"/>
<path d="M60.9414 102.466C60.9414 102.466 60.9283 111.745 70.5392 120.2C75.9543 124.965 80.8135 126.783 84.0233 127.461C86.2879 127.941 88.66 127.714 90.6801 126.734C94.7979 124.731 102.033 121.738 106.863 113.155C107.545 111.942 109.688 108.852 109.825 107.514C110.007 105.738 111.145 103.877 110.585 102.466C110.867 101.973 83.1613 117.312 61.5339 98.9033L60.9414 102.466Z" fill="#3C1F1F"/>
<path d="M70.7649 103.006C70.7649 103.006 52.3432 96.1041 71.2479 91.0408C94.0001 84.9498 109.548 95.1828 109.548 95.1828C109.548 95.1828 116.819 99.7855 95.975 105.306C95.975 105.306 82.8851 108.987 70.7649 103.006Z" fill="#3C1F1F"/>
<path d="M85.187 57C85.187 57 115.729 59.76 100.216 67.5834C84.704 75.4068 66.7653 66.6621 66.7653 66.6621C66.7653 66.6621 60.4637 59.2994 85.187 57Z" stroke="#3C1F1F" stroke-miterlimit="10"/>
<path d="M481.909 113.16C481.909 113.16 470.637 151.049 476.888 160.181C483.14 169.309 484.063 172.485 492.722 177.504C492.722 177.504 497.006 183.355 497.006 188.832C497.006 194.308 496.204 216.561 494.28 219.299C492.356 222.037 490.774 222.424 490.774 222.424C490.774 222.424 497.022 230.251 504.407 222.033C504.407 222.033 499.643 220.353 500.122 213.049C500.601 205.745 500.512 188.05 500.512 188.05C500.512 188.05 500.309 180.766 507.523 177.114C514.736 173.461 526.908 160.638 525.946 151.506C524.984 142.377 520.166 113.863 520.166 113.863" stroke="#3C1F1F" stroke-miterlimit="10"/>
<path d="M500.122 209.533C500.122 209.533 518.728 213.619 519.207 223.204C519.686 232.79 497.006 233.751 497.006 233.751C497.006 233.751 468.966 231.891 477.141 215.002C477.141 215.002 482.52 209.99 495.837 209.533" stroke="#3C1F1F" stroke-miterlimit="10"/>
<path d="M507.523 177.113C507.523 177.113 502.382 182.547 494.202 178.441" stroke="#3C1F1F" stroke-miterlimit="10"/>
<path d="M525.234 152.105C525.234 152.105 525.247 161.31 515.713 169.698C510.341 174.425 505.52 176.229 502.336 176.901C500.089 177.377 497.736 177.152 495.732 176.18C491.647 174.193 484.469 171.224 479.678 162.709C479.001 161.505 476.875 158.44 476.739 157.112C476.558 155.351 475.429 153.505 475.985 152.105C475.705 151.616 503.191 166.833 524.647 148.57L525.234 152.105Z" fill="#3C1F1F"/>
<path d="M515.486 152.641C515.486 152.641 533.762 145.794 515.007 140.771C492.436 134.728 477.011 144.88 477.011 144.88C477.011 144.88 469.798 149.446 490.477 154.922C490.477 154.922 503.463 158.574 515.486 152.641Z" fill="#3C1F1F"/>
<path d="M501.18 107C501.18 107 470.88 109.738 486.27 117.499C501.659 125.261 519.455 116.585 519.455 116.585C519.455 116.585 525.707 109.281 501.18 107Z" stroke="#3C1F1F" stroke-miterlimit="10"/>
<path d="M188.356 232.845L196.321 227.198M196.321 227.198C196.321 227.198 185.173 217.919 183.599 217.393L182.026 216.867L167.511 223.724L166.525 224.19L165.533 224.658L154.748 229.753L129.438 242.775C129.438 242.775 151.076 259.214 150.945 259.083C150.882 259.02 161.258 268.525 162.223 268.815C163.312 269.144 151.207 259.346 151.207 259.346L166.026 268.683L193.435 250.14L209.264 237.163L196.321 227.198Z" stroke="#3C1F1F" stroke-miterlimit="10"/>
<path d="M162.223 268.815L164.583 267.763" stroke="#3C1F1F" stroke-miterlimit="10"/>
<path d="M160.27 265.01L190.679 233.842L165.53 224.661" stroke="#3C1F1F" stroke-miterlimit="10"/>
<path d="M299.444 36.209C299.444 36.209 310.806 74.4007 304.505 83.6061C298.203 92.8075 297.273 96.0085 288.545 101.068C288.545 101.068 284.226 106.966 284.226 112.486C284.226 118.006 285.035 140.437 286.974 143.197C288.914 145.957 290.508 146.347 290.508 146.347C290.508 146.347 284.21 154.237 276.766 145.953C276.766 145.953 281.568 144.26 281.085 136.897C280.602 129.535 280.692 111.699 280.692 111.699C280.692 111.699 280.896 104.356 273.625 100.674C266.354 96.9929 254.084 84.0667 255.054 74.8614C256.024 65.6599 260.881 36.9177 260.881 36.9177" stroke="#3C1F1F" stroke-miterlimit="10"/>
<path d="M281.086 133.354C281.086 133.354 262.33 137.472 261.847 147.134C261.364 156.796 284.227 157.765 284.227 157.765C284.227 157.765 312.491 155.891 304.25 138.866C304.25 138.866 298.828 133.814 285.405 133.354" stroke="#3C1F1F" stroke-miterlimit="10"/>
<path d="M273.625 100.675C273.625 100.675 278.808 106.152 287.053 102.013" stroke="#3C1F1F" stroke-miterlimit="10"/>
<path d="M255.773 75.4662C255.773 75.4662 255.76 84.7449 265.371 93.1997C270.786 97.9648 275.645 99.7834 278.855 100.461C281.12 100.941 283.492 100.714 285.512 99.734C289.63 97.7313 296.865 94.7381 301.695 86.155C302.377 84.9416 304.52 81.8522 304.657 80.5137C304.839 78.7379 305.977 76.877 305.417 75.4662C305.699 74.973 277.993 90.3118 256.366 71.9033L255.773 75.4662Z" fill="#3C1F1F"/>
<path d="M265.597 76.0062C265.597 76.0062 247.175 69.1041 266.08 64.0408C288.832 57.9498 304.38 68.1828 304.38 68.1828C304.38 68.1828 311.651 72.7855 290.807 78.3056C290.807 78.3056 277.717 81.9869 265.597 76.0062Z" fill="#3C1F1F"/>
<path d="M280.019 30C280.019 30 310.561 32.76 295.048 40.5834C279.536 48.4068 261.597 39.6621 261.597 39.6621C261.597 39.6621 255.296 32.2994 280.019 30Z" stroke="#3C1F1F" stroke-miterlimit="10"/>
<path d="M463.07 184.815L472.948 177.812M472.948 177.812C472.948 177.812 459.122 166.305 457.17 165.652L455.219 165L437.218 173.504L435.995 174.081L434.765 174.662L421.5 179.5C421.5 179.5 430.5 183 429.5 185.5C428.5 188 423 188 423 188L415 183.5L390 197.131C390 197.131 416.836 217.518 416.673 217.355C416.595 217.277 429.463 229.066 430.66 229.425C432.01 229.832 416.998 217.681 416.998 217.681L435.377 229.261L469.368 206.264L489 190.171L472.948 177.812Z" stroke="#3C1F1F" stroke-miterlimit="10"/>
<path d="M430.66 229.425L433.588 228.12" stroke="#3C1F1F" stroke-miterlimit="10"/>
<path d="M428.238 224.706L465.952 186.052L434.763 174.666" stroke="#3C1F1F" stroke-miterlimit="10"/>
<path d="M371.28 189.176C371.28 189.178 347.197 201.245 344.314 203.637C341.432 206.03 339.13 206.71 337.33 210.213C335.53 213.716 336.138 212.838 335.65 214.509C335.163 216.18 320.424 215.449 318.232 223.668C316.041 231.887 318.216 225.051 318.061 225.919C317.907 226.787 288.621 228.233 297.206 218.403C305.791 208.574 315.36 208.342 319.419 208.036C323.477 207.731 322.05 208.236 329.811 208.825C337.572 209.414 333.928 209.662 336.803 206.211C339.678 202.761 368.002 187.617 368.002 187.617L378.217 181.735C378.217 181.735 388.421 175.431 389.642 176.585C390.863 177.739 391.291 178.688 391.87 180.264C392.449 181.841 371.281 189.169 371.281 189.171C371.28 189.173 371.28 189.174 371.28 189.176Z" stroke="#3C1F1F" stroke-miterlimit="10"/>
<path d="M305.894 214.76C305.894 214.76 312.201 213.536 311.462 216.462C310.722 219.387 306.859 222.5 306.859 222.5C306.859 222.5 301.442 223.368 300.852 222.044C300.263 220.721 299.39 218.527 305.894 214.76Z" fill="#3C1F1F"/>
<path d="M318.064 225.919C319.581 240.352 346.061 235.738 346.061 235.738C346.061 235.738 352.415 234.648 365.19 224.686C373.917 217.886 363.665 209.954 354.59 205.99C350.377 204.15 344.317 203.637 344.317 203.637" stroke="#3C1F1F" stroke-miterlimit="10"/>
<path d="M361.718 222.252C361.718 222.252 363.118 224.455 355.567 227.55C348.016 230.645 337.027 232.829 327.176 230.834C317.325 228.839 328.751 229.707 328.751 229.707L321.472 222.341C321.472 222.341 330.861 230.071 335.937 228.255C335.937 228.255 340.654 229.52 340.433 226.38C340.211 223.24 336.416 221.951 336.416 221.951C336.416 221.951 337.258 220.914 340.217 223.235L337.416 218.83C337.416 218.83 340.934 220.669 341.375 221.751C341.375 221.751 341.733 218.067 346.732 220.564L347.192 217.402C347.192 217.402 351.524 218.853 351.925 220.455L356.324 221.292C356.324 221.292 348.931 225.469 355.844 223.897C362.757 222.326 361.718 222.247 361.718 222.247L361.718 222.252Z" fill="#3C1F1F"/>
<path d="M356.715 230.678C356.715 230.678 361.774 235.359 355.222 239.055C348.671 242.75 327.328 241.654 327.328 241.654L329.525 240.248L322.978 239.542L326.842 236.355L321.282 235.383C321.282 235.383 320.771 231.644 317.73 230.402C314.689 229.159 312.39 228.471 315.316 226.068L318.071 225.915C318.071 225.915 318.688 236.716 336.537 236.541C336.537 236.541 348.233 236.742 356.72 230.678L356.715 230.678Z" fill="#3C1F1F"/>
<path d="M317.723 230.406C317.723 230.406 314.49 230.726 313.549 233.275C312.609 235.824 307.531 233.866 313.608 236.424C319.685 238.982 304.318 239.639 304.318 239.639C304.318 239.639 297.388 240.957 293.708 239.106C290.029 237.254 286.392 236.978 292.271 242.141C298.15 247.304 297.63 247.265 307.582 246.972C307.582 246.972 317.815 249.845 323.768 247.153C329.721 244.46 337.334 247.569 337.334 247.569L345.388 244.601C345.388 244.601 340.012 241.961 333.669 241.809" stroke="#3C1F1F" stroke-miterlimit="10"/>
<path d="M364.074 193.042C364.074 193.042 390.652 207.165 379.547 222.039C368.441 236.913 367.283 238.397 348.544 244.311C329.804 250.225 303.412 250.114 290.507 246.357C277.602 242.599 249.257 230.485 263.948 209.066C278.638 187.646 327.11 181.295 359.834 191.415L368.003 187.617C368.003 187.617 369.473 186.148 371.623 184.744C371.623 184.744 326.984 170.354 287.268 184.109C247.553 197.864 245.378 212.876 245.378 212.876C245.378 212.876 236.055 240.619 282.213 251.392C328.37 262.165 367.668 248.273 389.268 228.217C389.268 228.217 397.622 219.224 396.869 211.038C396.869 211.038 399.48 198.893 385.308 191.032L376.842 186.644L371.287 189.171L364.08 193.037L364.074 193.042Z" fill="#3C1F1F" stroke="#3C1F1F" stroke-miterlimit="10"/>
<path d="M396.872 211.039C396.872 211.039 400.103 226.089 386.077 235.306C377.86 240.704 365.632 248.14 349.376 252.927C337.889 256.311 324.391 258.368 308.883 257.447C271.425 255.227 245.244 245.724 244.423 220.334" stroke="#3C1F1F" stroke-miterlimit="10"/>
<path d="M349.375 252.928C349.375 252.928 341.168 258.95 323.903 259.211C306.637 259.473 299.176 257.533 298.089 256.565" stroke="#3C1F1F" stroke-miterlimit="10"/>
<path d="M337.332 210.214C337.332 210.214 333.213 212.228 332.495 214.794" stroke="#3C1F1F" stroke-miterlimit="10"/>
<path d="M319.152 221.578C319.152 221.578 315.559 224.513 306.686 224.363" stroke="#3C1F1F" stroke-miterlimit="10"/>
<path d="M11.6974 212.991C11.6974 212.993 35.3305 225.918 38.1252 228.413C40.9199 230.908 43.196 231.671 44.8684 235.237C46.5409 238.802 45.9653 237.902 46.3923 239.59C46.8193 241.278 61.575 241.078 63.4694 249.37C65.3638 257.662 63.4359 250.753 63.5592 251.626C63.6825 252.499 92.8973 254.998 84.6717 244.866C76.4461 234.733 66.891 234.157 62.8462 233.706C58.8014 233.254 60.2097 233.81 52.4327 234.12C44.6556 234.429 48.2881 234.808 45.5393 231.256C42.7905 227.705 15.0298 211.551 15.0298 211.551L5.03291 205.305C5.03291 205.305 -4.93765 198.638 -6.19913 199.747C-7.4606 200.856 -7.92272 201.789 -8.55801 203.344C-9.1933 204.899 11.6971 212.984 11.6971 212.986C11.6972 212.988 11.6973 212.989 11.6974 212.991Z" stroke="#3C1F1F" stroke-miterlimit="10"/>
<path d="M76.1235 240.912C76.1235 240.912 69.8651 239.461 70.4988 242.412C71.1325 245.362 74.881 248.612 74.881 248.612C74.881 248.612 80.2634 249.674 80.9 248.373C81.5366 247.071 82.4884 244.91 76.1235 240.912Z" fill="#3C1F1F"/>
<path d="M63.5601 251.625C61.5243 265.994 35.2279 260.43 35.2279 260.43C35.2279 260.43 28.9175 259.112 16.5086 248.696C8.03299 241.586 18.5639 234.029 27.7749 230.394C32.0519 228.707 38.1261 228.413 38.1261 228.413" stroke="#3C1F1F" stroke-miterlimit="10"/>
<path d="M20.0665 246.39C20.0665 246.39 18.5875 248.541 26.0224 251.906C33.4573 255.271 44.3601 257.849 54.2764 256.21C64.1927 254.571 52.743 255.026 52.743 255.026L60.2831 247.928C60.2831 247.928 50.6216 255.315 45.614 253.317C45.614 253.317 40.8545 254.412 41.1888 251.281C41.5232 248.151 45.3626 246.999 45.3626 246.999C45.3626 246.999 44.5588 245.933 41.5178 248.146L44.4757 243.845C44.4757 243.845 40.8933 245.556 40.4141 246.621C40.4141 246.621 40.189 242.927 35.1026 245.243L34.7572 242.066C34.7572 242.066 30.3759 243.36 29.9175 244.947L25.4909 245.625C25.4909 245.625 32.7287 250.065 25.8768 248.245C19.0249 246.426 20.0663 246.385 20.0663 246.385L20.0665 246.39Z" fill="#3C1F1F"/>
<path d="M24.763 254.99C24.763 254.99 19.5391 259.486 25.9534 263.415C32.3677 267.344 53.7362 267.016 53.7362 267.016L51.5911 265.533L58.159 265.062L54.4128 261.739L60.0038 260.967C60.0038 260.967 60.6486 257.249 63.7325 256.117C66.8165 254.985 69.1392 254.38 66.3016 251.873L63.5537 251.622C63.5537 251.622 62.5481 262.393 44.7168 261.575C44.7168 261.575 33.0213 261.356 24.7578 254.99L24.763 254.99Z" fill="#3C1F1F"/>
<path d="M63.7387 256.121C63.7387 256.121 66.9581 256.558 67.8065 259.139C68.655 261.72 73.7994 259.947 67.6344 262.284C61.4694 264.621 76.8027 265.831 76.8027 265.831C76.8027 265.831 83.681 267.398 87.4248 265.68C91.1687 263.962 94.8134 263.817 88.7522 268.765C82.6911 273.713 83.2118 273.693 73.2774 273.042C73.2774 273.042 62.947 275.545 57.0949 272.64C51.2428 269.735 43.5226 272.568 43.5226 272.568L35.581 269.312C35.581 269.312 41.0481 266.867 47.3926 266.944" stroke="#3C1F1F" stroke-miterlimit="10"/>
<path d="M18.7632 217.114C18.7632 217.114 -8.30588 230.272 2.25683 245.536C12.8195 260.799 13.9232 262.324 32.4377 268.909C50.9522 275.494 77.3317 276.333 90.3634 273.043C103.395 269.752 132.158 258.666 118.248 236.732C104.338 214.797 56.1265 206.706 23.0591 215.641L15.0322 211.552C15.0322 211.552 13.6158 210.03 11.5178 208.55C11.5178 208.55 56.646 195.776 95.8408 210.952C135.036 226.127 136.668 241.208 136.668 241.208C136.668 241.208 144.986 269.269 98.471 278.373C51.9557 287.478 13.1837 272.18 -7.68071 251.359C-7.68071 251.359 -15.7058 242.072 -14.6587 233.919C-14.6587 233.919 -16.8305 221.687 -2.38439 214.342L6.23346 210.261L11.6943 212.987L18.7578 217.109L18.7632 217.114Z" fill="#3C1F1F" stroke="#3C1F1F" stroke-miterlimit="10"/>
<path d="M-14.6593 233.918C-14.6593 233.918 -18.4305 248.842 -4.74566 258.558C3.27192 264.248 15.2249 272.12 31.2974 277.489C42.6554 281.284 56.0704 283.825 71.6019 283.463C109.115 282.593 135.622 274.039 137.356 248.695" stroke="#3C1F1F" stroke-miterlimit="10"/>
<path d="M31.2969 277.489C31.2969 277.489 39.2819 283.803 56.5265 284.686C73.7711 285.569 81.2978 283.899 82.4186 282.971" stroke="#3C1F1F" stroke-miterlimit="10"/>
<path d="M44.8711 235.237C44.8711 235.237 48.9153 237.398 49.5398 239.988" stroke="#3C1F1F" stroke-miterlimit="10"/>
<path d="M62.6289 247.249C62.6289 247.249 66.1144 250.311 74.9867 250.481" stroke="#3C1F1F" stroke-miterlimit="10"/>
<path d="M352.411 141.342C357.941 141.342 376.901 142.922 378.086 156.739C378.086 156.739 423.906 180.82 428.251 183.979C432.596 187.137 423.116 187.926 423.116 187.926C423.116 187.926 377.296 160.292 376.111 160.292C374.926 160.292 359.521 166.608 351.226 153.186C342.931 139.763 352.411 141.342 352.411 141.342Z" stroke="#3C1F1F" stroke-miterlimit="10"/>
<path d="M407.712 112.523C409.292 114.497 413.637 121.998 409.687 125.946L408.107 126.341C408.107 126.341 403.762 125.551 403.762 123.182L406.132 123.577C406.132 123.577 406.132 120.419 402.577 120.024C402.577 120.024 401.822 115.093 406.937 112.823L407.712 112.523Z" fill="#3C1F1F" stroke="#3C1F1F" stroke-miterlimit="10"/>
<path d="M405.34 122.788C405.34 122.788 401.39 122.788 400.6 120.814C400.6 120.814 404.55 119.63 405.34 122.788Z" stroke="#3C1F1F" stroke-miterlimit="10"/>
<path d="M346.882 126.736C354.577 124.904 361.497 130.289 361.497 130.289C361.497 130.289 366.237 135.421 355.572 134.631C344.907 133.842 338.587 128.709 346.882 126.736Z" stroke="#3C1F1F" stroke-miterlimit="10"/>
<path d="M344.906 123.577C350.041 121.209 363.076 127.525 363.076 127.525C363.076 127.525 372.161 135.026 361.496 136.605C352.166 137.987 336.181 133.021 338.946 128.054C339.341 127.344 340.119 126.637 341.351 125.946L344.906 123.577Z" stroke="#3C1F1F" stroke-miterlimit="10"/>
<path d="M338.946 128.054C338.946 128.054 327.131 125.156 332.266 137.395C332.266 137.395 338.989 149.167 348.07 146.439" stroke="#3C1F1F" stroke-miterlimit="10"/>
<path d="M352.654 136.412C352.654 136.412 354.384 140.553 352.409 141.343" stroke="#3C1F1F" stroke-miterlimit="10"/>
<path d="M339.521 131.208C339.521 131.208 330.144 128.323 334.367 136.412C338.589 144.501 345.213 145.495 347.824 143.814" stroke="#3C1F1F" stroke-miterlimit="10"/>
<path d="M350.738 141.287C350.738 141.287 352.547 138.358 349.912 135.902" stroke="#3C1F1F" stroke-miterlimit="10"/>
<path d="M432.756 130.533C432.756 130.533 432.902 134.003 430.576 134.714C430.576 134.714 429.742 138.212 426.823 138.595C426.823 138.595 427.459 143.316 417.979 142.132C417.979 142.132 425.409 132.756 432.752 130.533H432.756Z" fill="#3C1F1F" stroke="#3C1F1F" stroke-miterlimit="10"/>
<path d="M428.645 130.289L428.25 131.868C428.25 131.868 419.56 137 418.77 140.159C417.98 143.317 419.165 133.842 419.165 133.842C419.165 133.842 423.818 134.73 424.849 130.534L428.645 130.289Z" fill="#3C1F1F"/>
<path d="M424.117 130.289C424.117 130.289 423.758 133.814 418.496 133.04C418.496 133.04 411.378 135.815 408.756 130.289C408.756 130.289 404.284 130.869 404.221 133.735C404.221 133.735 401.784 126.736 411.264 126.736C411.264 126.736 417.584 120.814 421.139 129.104C421.139 129.104 422.75 128.709 424.117 130.289Z" stroke="#3C1F1F" stroke-miterlimit="10"/>
<path d="M418.5 133.735C418.5 133.735 413.638 141.342 405.738 132.262C405.738 132.262 406.133 131.078 408.108 131.078C408.108 131.078 413.092 137.185 418.5 133.735Z" fill="#3C1F1F"/>
<path d="M411.264 137C411.264 137 412.449 137.395 413.239 137.395C414.029 137.395 415.609 142.732 412.252 142.038C408.894 141.343 403.759 137.79 402.179 133.447H403.364C403.364 133.447 407.52 140.265 412.355 140.802C412.355 140.802 414.029 139.369 411.264 137Z" stroke="#3C1F1F" stroke-miterlimit="10"/>
<path d="M410.886 137.774C410.886 137.774 411.269 139.368 410.084 139.368C410.084 139.368 407.319 137.789 404.949 134.631C404.949 134.631 404.159 133.052 405.344 132.657C405.344 132.657 406.952 136.044 410.1 136.72C410.1 136.72 410.902 137.363 410.89 137.774H410.886Z" fill="#3C1F1F"/>
<path d="M407.672 140.801C407.672 140.801 400.179 140.948 399.8 136.013C399.8 136.013 397.84 135.026 397.84 134.236C397.84 134.236 394.992 135.026 393.456 133.447C391.919 131.868 399.42 131.868 399.42 131.868C399.42 131.868 400.293 129.203 403.216 130.533L403.268 132.657H401.285L395.865 133.052C395.865 133.052 399.073 133.052 401.419 133.447C401.419 133.447 403.682 139.475 407.676 140.801H407.672Z" fill="#3C1F1F"/>
<path d="M397.243 173.122L388.608 168.602C388.608 168.602 359.208 170.556 343.073 159.206C326.937 147.857 328.849 134.434 330.065 132.658C330.065 132.658 328.912 128.907 332.862 127.328C332.862 127.328 346.687 107.589 384.607 109.563C384.607 109.563 401.469 111.284 404.692 113.384L407.675 111.485L410.286 115.485C410.286 115.485 428.661 125.058 429.941 130.534L433.591 129.302C433.591 129.302 433.591 134.434 432.011 134.829C432.011 134.829 436.604 153.387 418.506 160.493C418.506 160.493 406.731 166.806 399.621 167.201L408.251 172.017C408.251 172.017 458.673 161.741 441.787 127.758C441.787 127.758 423.716 100.487 379.081 102.066C334.446 103.645 326.226 117.98 321.446 123.049C316.667 128.118 305.611 155.756 356.171 170.758C356.171 170.758 378.686 177.074 397.251 173.126L397.243 173.122Z" fill="#3C1F1F"/>
<path d="M397.639 135.484C397.639 135.484 397.916 142.879 404.69 141.817C404.69 141.817 407.514 141.544 404.354 146.282C401.194 151.019 402.379 151.809 394.874 151.809C387.37 151.809 385.778 140.755 389.139 139.373C389.139 139.373 388.539 136.535 389.139 135.488C389.74 134.442 384.605 134.043 385.79 132.464C386.975 130.885 387.765 130.096 388.16 130.096C388.555 130.096 386.58 128.122 386.58 128.122C386.58 128.122 384.561 129.125 383.202 129.215C381.843 129.306 382.63 126.148 385 125.358C387.37 124.569 391.714 128.517 391.714 128.517L394.874 131.675C394.874 131.675 391.217 133.096 393.243 134.162C395.269 135.228 397.244 135.228 397.244 135.228L397.639 135.488V135.484Z" stroke="#3C1F1F" stroke-miterlimit="10"/>
<path d="M371.836 157.339C371.836 157.339 362.672 163.451 350.628 145.883" stroke="#3C1F1F" stroke-miterlimit="10"/>
</g>
<defs>
<clipPath id="clip0_1655_7677">
<rect width="518" height="322" fill="white"/>
</clipPath>
</defs>
</svg>
