<svg width="464" height="425" viewBox="0 0 464 425" fill="none" xmlns="http://www.w3.org/2000/svg">
<g clip-path="url(#clip0_899_1213)">
<path d="M41.6923 396.591L69.7554 414.223L121.66 379.206L112.471 366.044L109.987 355.613L116.444 348.163L109.987 345.182L112.948 337.325L117.915 328.384C117.915 328.384 106.014 318.361 103.034 317.367L100.054 316.374L72.5666 329.323L70.6991 330.202L68.8216 331.086L48.3976 340.707L0.466797 365.299C0.466797 365.299 41.4439 396.342 41.1956 396.094C41.0764 395.975 60.7255 413.925 62.5533 414.472C64.6146 415.092 41.6923 396.591 41.6923 396.591Z" stroke="#3C1F1F" stroke-miterlimit="10"/>
<path d="M62.5527 414.471L67.023 412.484" stroke="#3C1F1F" stroke-miterlimit="10"/>
<path d="M109.987 345.182L68.8164 331.091" stroke="#3C1F1F" stroke-miterlimit="10"/>
<path d="M109.988 355.613L58.8535 407.285" stroke="#3C1F1F" stroke-miterlimit="10"/>
<path d="M254.524 305.446C232.173 293.526 231.676 290.049 192.934 289.055C154.828 288.077 127.291 314.973 126.402 315.852C119.409 319.88 111.973 336.242 111.973 336.242C111.973 336.242 100.053 359.586 125.136 383.179C150.219 406.772 179.027 405.779 203.613 405.531C228.199 405.282 258.001 387.898 268.183 375.232C268.253 375.148 268.312 375.063 268.382 374.979C268.372 374.974 268.362 374.969 268.357 374.964C268.357 374.964 268.357 374.964 268.352 374.964C268.337 374.964 268.198 374.934 268.168 374.919C268.158 374.919 268.153 374.919 268.143 374.919C268.104 374.919 268.064 374.919 268.019 374.919C267.945 374.919 267.87 374.924 267.796 374.929C267.786 374.929 267.781 374.929 267.771 374.929C267.771 374.929 267.771 374.929 267.761 374.929C267.716 374.939 267.672 374.944 267.627 374.954C267.458 374.989 267.289 375.033 267.125 375.088C267.036 375.118 266.951 375.148 266.862 375.183C266.857 375.183 266.817 375.202 266.792 375.212C266.633 375.312 266.47 375.401 266.301 375.5C266.266 375.52 266.241 375.55 266.206 375.57C266.122 375.659 266.032 375.739 265.938 375.813C265.794 375.967 265.66 376.136 265.501 376.28C264.969 376.772 264.359 377.234 263.748 377.616C263.569 377.731 263.375 377.835 263.181 377.934C263.052 378.039 262.918 378.133 262.764 378.207C262.387 378.396 261.999 378.61 261.577 378.674C261.095 378.749 260.628 378.664 260.147 378.654C259.873 378.654 259.59 378.649 259.322 378.58C259.248 378.56 259.178 378.535 259.109 378.51C258.865 378.495 258.632 378.451 258.428 378.351C257.703 377.984 257.817 377.02 258.478 376.648C259.084 376.305 259.819 376.385 260.479 376.255C260.812 376.191 261.165 376.116 261.503 376.012C262.123 375.679 262.67 375.212 262.864 374.537C262.973 374.144 262.963 373.712 263.057 373.235C263.107 372.992 263.196 372.749 263.33 372.535C263.311 372.535 263.296 372.525 263.276 372.52C262.809 372.446 262.332 372.446 261.87 372.326C260.867 372.058 259.759 371.726 259.332 370.677C258.999 369.858 259.178 368.974 259.983 368.576C260.092 368.472 260.236 368.413 260.42 368.442C260.912 368.537 261.527 368.8 261.965 369.023C262.958 369.52 263.852 370.876 264.945 370.017C265.268 369.764 265.531 369.52 265.938 369.52H266.435C267.428 369.52 267.234 369.023 268.422 369.023C268.496 369.023 269.34 369.023 269.415 369.023C269.912 369.023 270.185 369.038 270.408 369.023C270.984 368.949 271.898 369.023 272.335 369.004C278.494 357.902 278.852 346.672 278.852 346.672C278.852 346.672 276.865 317.367 254.514 305.446H254.524ZM267.721 335.243L266.44 336.738L263.956 341.208L264.304 343.29C264.731 345.858 264.746 348.48 264.354 351.053L263.897 354.028C263.112 359.114 261.219 363.977 258.279 368.204C253.138 375.605 243.319 386.413 226.704 393.362C199.386 404.786 176.538 398.825 156.174 392.368C135.81 385.911 126.869 366.54 124.386 353.129C121.902 339.718 139.286 321.837 139.286 321.837C157.167 304.95 181.565 300.206 204.85 301.969C237.632 304.453 251.042 320.844 251.042 320.844C251.042 320.844 254.519 319.354 258.493 319.354C262.466 319.354 260.976 324.321 260.976 324.321L261.83 324.152C262.883 323.943 263.971 324.117 264.905 324.649L265.317 324.887C266.36 325.483 267.15 326.442 267.527 327.584L268.595 330.788C269.107 332.323 268.774 334.016 267.721 335.248V335.243Z" fill="#3C1F1F"/>
<path d="M274.203 369.863C277.158 363.287 278.604 356.006 278.629 348.803C278.634 347.08 278.226 345.818 277.124 344.438" stroke="#3C1F1F" stroke-miterlimit="10"/>
<path d="M119.211 380.855C121.953 384.382 125.38 387.456 128.847 390.243C137.484 397.181 147.512 402.347 158.112 405.531C173.465 410.145 189.771 410.18 205.621 408.824C217.844 407.781 230.078 405.347 241.159 399.928C250.323 395.448 259.561 388.956 266.525 381.476C267.811 380.095 269.003 378.625 270.091 377.08" stroke="#3C1F1F" stroke-miterlimit="10"/>
<path d="M257.008 364.057L260.981 361.076C262.968 359.586 261.975 352.633 261.478 351.639C260.981 350.646 261.478 348.162 261.975 346.672C262.471 345.182 260.485 346.176 258.498 345.679C256.511 345.182 257.008 341.209 258.498 341.209C259.988 341.209 258.995 338.228 260.485 336.738C261.975 335.248 261.975 340.215 263.465 339.718C264.955 339.222 267.438 334.255 267.935 333.261C268.432 332.268 266.942 325.811 264.955 325.314C262.968 324.818 261.478 325.811 259.988 325.314C258.498 324.818 260.485 322.334 259.491 320.844C258.498 319.354 252.041 322.334 252.041 322.334C252.041 322.334 251.047 322.334 246.081 320.844C241.114 319.354 242.107 322.334 241.114 323.824C240.12 325.314 234.657 324.818 234.657 324.818C234.657 324.818 227.703 330.778 225.716 327.301C223.729 323.824 222.736 323.824 218.266 323.824C213.796 323.824 216.279 326.308 214.292 326.308C212.305 326.308 211.809 328.791 211.809 328.791C211.809 328.791 215.782 329.785 214.789 331.771C213.796 333.758 214.789 332.268 216.776 334.255C218.762 336.242 214.789 335.248 212.802 334.255C210.815 333.261 212.802 331.275 212.802 331.275C212.802 331.275 210.815 328.791 208.332 328.791C205.848 328.791 207.835 333.261 207.835 333.261C207.835 333.261 202.868 337.732 203.365 343.195C203.862 348.659 206.34 343.697 207.786 346.613C209.231 349.528 209.822 348.162 210.319 350.149C210.815 352.136 210.319 351.142 208.332 355.116C206.345 359.09 210.319 356.606 211.809 358.593C213.299 360.58 209.325 360.083 208.332 361.076C207.339 362.07 209.325 362.566 208.829 364.553C208.332 366.54 210.319 366.043 211.809 368.03C213.299 370.017 211.312 371.507 212.802 373.991C214.292 376.474 217.272 373.991 217.272 373.991C217.272 373.991 216.279 375.977 219.259 376.474C222.239 376.971 219.259 378.957 220.749 381.938C222.239 384.918 224.723 381.441 226.213 381.441C227.703 381.441 229.193 384.421 233.167 384.918C237.14 385.415 234.657 385.415 235.65 387.401C236.643 389.388 237.632 385.911 237.066 384.918C236.499 383.924 239.624 384.918 240.617 384.918C241.61 384.918 240.12 383.428 240.617 382.434C241.114 381.441 244.099 381.441 245.157 381.178C246.215 380.914 245.087 380.448 244.094 378.461C243.1 376.474 245.087 378.461 246.577 375.481C248.067 372.5 244.094 372.5 244.094 372.5C244.094 372.5 242.107 374.487 242.107 375.977C242.107 377.467 239.127 376.474 236.643 378.461C234.16 380.448 233.663 380.944 231.18 378.461C228.696 375.977 226.213 379.956 223.491 379.827C220.769 379.698 223.491 377.373 223.491 377.373C223.491 377.373 228.696 376.474 231.18 373.494C233.663 370.514 232.665 367.533 234.066 365.298C235.466 363.063 237.14 369.024 240.617 367.533C244.094 366.043 244.59 363.56 248.067 362.07C251.544 360.58 249.061 367.037 249.061 367.037C249.061 367.037 247.074 369.024 244.094 369.024C241.417 369.024 245.087 371.507 247.074 370.514C249.061 369.52 247.571 372.004 249.061 372.5C250.551 372.997 250.054 370.017 250.551 369.386C251.047 368.755 249.965 371.07 250.551 373.991C251.047 376.474 252.041 372.004 253.531 371.507C255.021 371.01 255.021 370.017 255.021 368.527C255.021 367.037 256.511 367.037 257.008 367.037C257.504 367.037 257.008 364.057 257.008 364.057ZM257.008 364.057L255.518 364.553C255.518 364.553 255.518 361.573 254.028 361.573C252.538 361.573 250.054 361.648 252.041 363.103C254.028 364.558 253.034 367.037 254.524 366.043C255.269 365.547 255.394 365.174 255.329 364.926C255.279 364.732 255.448 364.553 255.647 364.057H257.008Z" stroke="#3C1F1F" stroke-miterlimit="10"/>
<path d="M264.705 370.762C266.692 369.272 271.51 369.307 272.652 370.265C273.795 371.224 276.994 371.845 274.883 373.593C272.772 375.336 273.83 378.664 272.191 377.144C270.666 375.734 267.686 372.754 266.195 374.74C263.528 378.297 257.459 378.58 258.745 377.721C260.235 376.727 263.623 376.524 263.712 374.244C263.801 371.964 265.252 372.317 262.719 371.76C260.185 371.204 259.674 370.628 260.235 369.277C260.796 367.926 263.479 371.686 264.705 370.767V370.762Z" stroke="#3C1F1F" stroke-miterlimit="10"/>
<path d="M417.936 229.452C417.936 229.452 394.591 244.849 390.121 248.823C385.651 252.797 369.757 266.207 369.757 266.207C369.757 266.207 365.287 269.684 361.81 275.148C361.81 275.148 359.823 276.638 354.359 277.631C354.359 277.631 347.902 280.115 342.439 283.592L338.962 285.579L330.021 289.055V289.994C330.021 289.994 342.935 288.062 346.909 285.082C346.909 285.082 349.392 284.585 347.406 286.572C345.419 288.559 335.982 291.539 333.498 291.539C333.498 291.539 331.512 292.532 334.492 292.532C337.472 292.532 346.412 289.552 346.412 289.552C346.412 289.552 349.889 288.559 350.386 286.572C350.386 286.572 353.366 288.062 350.386 289.552C347.406 291.042 343.929 292.532 336.478 293.526C336.478 293.526 334.988 294.519 337.472 294.519C339.955 294.519 353.863 291.042 354.359 290.049C354.856 289.055 355.353 289.552 355.353 289.552C355.353 289.552 355.849 291.539 352.373 292.532C348.896 293.526 346.412 295.016 340.452 295.512C340.452 295.512 337.969 296.506 342.439 296.506C346.909 296.506 350.883 295.512 350.883 295.512L365.287 284.088C365.287 284.088 364.79 277.135 366.777 275.645C368.763 274.155 383.664 261.24 383.664 261.24C383.664 261.24 409.492 244.849 415.949 238.889C422.406 232.929 423.896 232.432 422.406 229.949C422.406 229.949 419.426 228.458 417.936 229.452Z" stroke="#3C1F1F" stroke-miterlimit="10"/>
<path d="M431.347 232.432C431.347 232.432 408.499 249.319 405.022 253.293C401.545 257.266 385.154 270.181 385.154 270.181L366.777 284.088L349.889 297.499C349.889 297.499 336.975 308.426 337.969 309.916C338.962 311.406 347.406 311.903 353.366 307.93C359.326 303.956 368.267 298.492 373.73 291.042C379.194 283.591 386.148 276.638 386.148 276.638L408.002 258.26C408.002 258.26 420.419 251.803 435.817 238.889C435.817 238.889 438.797 235.909 436.81 234.418C434.824 232.928 432.837 232.432 431.347 232.432Z" stroke="#3C1F1F" stroke-miterlimit="10"/>
<path d="M392.109 256.77L397.573 258.26L407.507 250.313C407.507 250.313 407.507 249.817 404.03 248.823L392.109 256.77Z" fill="#3C1F1F"/>
<path d="M417.247 253.542L406.514 260.744C406.514 260.744 428.368 270.678 434.825 278.625C441.282 286.572 456.556 303.783 437.493 321.996C437.493 321.996 421.41 337.429 392.105 335.343C362.8 333.256 348.396 326.804 332.005 313.394C315.614 299.983 319.588 272.664 326.542 270.181C326.542 270.181 342.436 251.307 380.184 255.28H381.674L392.105 246.061C392.105 246.061 356.343 236.406 326.542 254.783C296.74 273.161 311.144 299.486 311.144 299.486C311.144 299.486 325.051 327.798 366.277 336.738C366.277 336.738 377.204 341.209 397.569 341.209C417.933 341.209 431.84 339.222 451.708 323.824C451.708 323.824 465.993 305.119 458.85 292.368C451.708 279.618 447.352 267.201 417.242 253.542H417.247Z" fill="#3C1F1F"/>
<path d="M460.851 300.266C460.851 300.266 465.118 335.745 417.435 342.699C369.753 349.652 336.474 327.713 330.017 322.791C323.56 317.869 305.679 303.956 306.176 286.572C306.673 269.187 317.848 261.464 317.848 261.464" stroke="#3C1F1F" stroke-miterlimit="10"/>
<path d="M258.578 307.945L298.731 288.062L307.353 295.046" stroke="#3C1F1F" stroke-miterlimit="10"/>
<path d="M367.484 339.997L413.219 383.677C413.219 383.677 412.052 384.397 410.045 385.643M410.045 385.643C397.827 393.208 354.47 420.079 353.616 420.929C353.119 421.425 350.944 423.164 350.745 423.909C350.546 424.654 352.31 424.406 359.7 420.929C374.477 413.975 389.875 401.558 389.875 401.558L412.226 387.153M410.045 385.643L412.226 387.153M412.226 387.153L409.246 391.127L394.663 398.473" stroke="#3C1F1F" stroke-miterlimit="10"/>
<path d="M350.739 423.909C350.739 423.909 289.939 371.919 288.25 368.86C286.562 365.8 278.197 356.74 278.197 356.74" stroke="#3C1F1F" stroke-miterlimit="10"/>
<path d="M257.506 215.049C257.506 215.049 256.016 245.909 257.506 248.357C258.996 250.806 260.486 251.308 260.486 251.308L259.989 270.182C259.989 270.182 259.493 284.586 280.354 286.573C301.215 288.56 303.698 273.162 303.698 273.162L306.172 253.727C306.172 253.727 309.659 252.798 311.149 238.89C312.639 224.983 313.136 221.506 313.136 221.506C313.136 221.506 313.369 234.316 285.817 233.427C262.721 232.682 256.761 223.741 257.506 215.049Z" stroke="#3C1F1F" stroke-miterlimit="10"/>
<path d="M257.506 215.049C257.506 215.049 262.969 203.128 276.877 202.631C290.784 202.134 302.248 204.822 307.667 209.207C310.9 211.82 312.887 211.323 313.135 221.506" stroke="#3C1F1F" stroke-miterlimit="10"/>
<path d="M285.817 204.121C285.817 204.121 309.161 203.127 311.148 219.022C313.135 234.916 279.857 230.942 279.857 230.942C279.857 230.942 257.039 227.962 259.507 215.048C261.976 202.134 285.817 204.121 285.817 204.121Z" stroke="#3C1F1F" stroke-miterlimit="10"/>
<path d="M306.172 253.727C283.811 269.556 260.486 251.308 260.486 251.308" stroke="#3C1F1F" stroke-miterlimit="10"/>
<path d="M259.646 223.92C259.646 223.92 258.399 245.164 259.318 248.109L260.237 251.054" stroke="#3C1F1F" stroke-miterlimit="10"/>
<path d="M262.646 227.158C262.646 227.158 261.087 244.781 262.646 249.41L264.206 254.039" stroke="#3C1F1F" stroke-miterlimit="10"/>
<path d="M267.286 229.935C267.286 229.935 265.701 246.589 266.695 250.066C267.688 253.543 267.971 255.748 267.971 255.748V282.937" stroke="#3C1F1F" stroke-miterlimit="10"/>
<path d="M280.84 233.118V259.776L278.863 286.404" stroke="#3C1F1F" stroke-miterlimit="10"/>
<path d="M287.561 233.466L286.016 260.183L282.967 286.737" stroke="#3C1F1F" stroke-miterlimit="10"/>
<path d="M275.371 232.358L275.937 258.738L275.371 285.788" stroke="#3C1F1F" stroke-miterlimit="10"/>
<path d="M271.668 231.499C271.668 231.499 269.691 251.203 271.668 257.342V284.695" stroke="#3C1F1F" stroke-miterlimit="10"/>
<path d="M294.053 233.118C294.053 233.118 292.519 254.536 292.022 256.026C291.525 257.516 290.88 259.88 290.88 259.88L287.557 286.543" stroke="#3C1F1F" stroke-miterlimit="10"/>
<path d="M298.772 232.616C298.772 232.616 297.982 252.549 297.485 254.535C296.989 256.522 296.085 258.737 296.085 258.737L292.588 285.385" stroke="#3C1F1F" stroke-miterlimit="10"/>
<path d="M304.935 230.818C304.935 230.818 301.955 252.052 301.955 253.046C301.955 254.039 300.942 256.825 300.942 256.825L297.271 282.937" stroke="#3C1F1F" stroke-miterlimit="10"/>
<path d="M309.327 228.216C309.327 228.216 306.908 249.569 306.173 251.059C305.438 252.549 304.941 254.566 304.941 254.566L301.111 279.018" stroke="#3C1F1F" stroke-miterlimit="10"/>
<path d="M263.083 253.075L262.785 278.273" stroke="#3C1F1F" stroke-miterlimit="10"/>
<path d="M265.646 254.565L265.189 280.925" stroke="#3C1F1F" stroke-miterlimit="10"/>
<path d="M262.785 209.307V223.919" stroke="#3C1F1F" stroke-miterlimit="10"/>
<path d="M269.129 205.845V227.997" stroke="#3C1F1F" stroke-miterlimit="10"/>
<path d="M276.857 204.012V230.391" stroke="#3C1F1F" stroke-miterlimit="10"/>
<path d="M285.818 204.121L284.988 231.315" stroke="#3C1F1F" stroke-miterlimit="10"/>
<path d="M295.682 205.095L292.588 231.266" stroke="#3C1F1F" stroke-miterlimit="10"/>
<path d="M303.494 207.98L299.625 230.391" stroke="#3C1F1F" stroke-miterlimit="10"/>
<path d="M308.308 212.038L304.936 228.752" stroke="#3C1F1F" stroke-miterlimit="10"/>
<path d="M263.715 263.973L264.708 264.469V274.716C264.708 274.716 263.715 274.557 263.715 273.986C263.715 273.415 263.715 263.973 263.715 263.973Z" fill="#3C1F1F"/>
<path d="M261.231 262.483C261.231 262.483 260.734 268.3 261.231 270.113C261.727 271.926 261.956 272.815 261.956 272.815L262.224 263.477L261.231 262.483Z" fill="#3C1F1F"/>
<path d="M266.197 265.463V276.887L267.166 277.975L267.191 265.96L266.197 265.463Z" fill="#3C1F1F"/>
<path d="M268.682 266.953L270.793 268.408V279.872C270.793 279.872 270.172 279.902 268.682 278.894V266.958V266.953Z" fill="#3C1F1F"/>
<path d="M272.158 268.94C272.158 268.94 273.648 269.934 274.642 269.934V281.83C274.642 281.83 273.648 281.984 272.158 280.677V268.94Z" fill="#3C1F1F"/>
<path d="M276.381 270.679V282.147C276.381 282.147 277.374 283.096 278.368 282.599L279.361 271.175C279.361 271.175 278.368 271.672 276.381 270.679Z" fill="#3C1F1F"/>
<path d="M280.84 271.354L279.852 282.744C279.852 282.744 281.282 283.28 282.559 282.937L284.168 271.354C284.168 271.354 283.318 272.03 280.845 271.354H280.84Z" fill="#3C1F1F"/>
<path d="M285.267 271.354L284.164 283.051C284.164 283.051 285.108 283.279 286.702 282.937L287.472 282.743L288.793 271.175C288.793 271.175 286.201 271.532 285.262 271.354H285.267Z" fill="#3C1F1F"/>
<path d="M290.312 271.176L288.797 282.744C288.797 282.744 291.28 283.096 292.274 282.103L294.057 270.088C294.057 270.088 291.832 271.176 290.317 271.176H290.312Z" fill="#3C1F1F"/>
<path d="M295.373 270.087L293.799 281.834C293.799 281.834 296.019 281.114 296.878 279.872L297.276 279.435L298.776 269.158C298.776 269.158 296.988 269.998 295.378 270.092L295.373 270.087Z" fill="#3C1F1F"/>
<path d="M300.082 269.154C300.082 269.154 302.208 268.195 302.704 266.705L300.678 277.151C300.678 277.151 300.802 277.92 298.775 279.018L300.082 269.154Z" fill="#3C1F1F"/>
<path d="M303.699 266.208L304.196 265.215L303.202 273.162C303.202 273.162 302.706 275.149 302.209 275.149L303.699 266.208Z" fill="#3C1F1F"/>
<path d="M261.613 261.48L262.224 262.111L262.472 259.255L261.976 259.752L261.479 260.248L260.982 261.242L261.613 261.48Z" fill="#3C1F1F"/>
<path d="M272.158 250.9L274.641 247.925V255.748V257.208L272.158 256.438L271.666 253.617L272.158 250.9Z" fill="#3C1F1F"/>
<path d="M276.381 247.17V254.039L276.878 257.764L279.853 258.574L280.354 245.347L276.381 247.17Z" fill="#3C1F1F"/>
<path d="M281.641 245.347V256.438V259.001L285.266 259.339L286.205 245.347H281.641Z" fill="#3C1F1F"/>
<path d="M287.561 245.774L287.094 256.881V259.339L290.412 259.071L291.425 255.326L292.125 245.774H287.561Z" fill="#3C1F1F"/>
<path d="M293.799 247.205L293.203 255.748L291.832 259.002L295.681 258.098L296.968 253.106V251.308L293.799 247.205Z" fill="#3C1F1F"/>
<path d="M264.708 255.748L263.715 258.574V262.483L264.708 263.397V255.748Z" fill="#3C1F1F"/>
<path d="M266.366 256.18L266.197 264.36L267.191 265.175L267.439 256.274L266.366 256.18Z" fill="#3C1F1F"/>
<path d="M268.681 256.796L268.518 265.672C268.518 265.672 269.675 267.097 270.792 267.644L270.986 258.092C270.986 258.092 268.93 257.317 268.681 256.796Z" fill="#3C1F1F"/>
<path d="M272.158 258.341L272.407 268.195C272.407 268.195 273.4 269.035 274.642 269.114L275.228 259.339C275.228 259.339 272.903 258.917 272.158 258.341Z" fill="#3C1F1F"/>
<path d="M276.559 259.761L276.375 269.72C276.375 269.72 277.865 270.882 279.355 270.286L280.155 260.68C280.155 260.68 278.233 260.769 276.559 259.766V259.761Z" fill="#3C1F1F"/>
<path d="M281.64 260.675L281.004 270.678C281.004 270.678 283.502 271.175 284.163 270.678L285.266 260.948C285.266 260.948 282.434 261.102 281.645 260.675H281.64Z" fill="#3C1F1F"/>
<path d="M297.678 259.07C297.678 259.07 299.372 259.612 299.546 260.675L298.612 268.572C298.612 268.572 296.739 269.188 295.746 269.188L296.764 259.07H297.678Z" fill="#3C1F1F"/>
<path d="M291.425 260.446L290.516 270.455C290.516 270.455 293.352 269.998 294.052 269.347L295.289 259.572C295.289 259.572 292.065 260.645 291.425 260.446Z" fill="#3C1F1F"/>
<path d="M286.478 261.022L285.455 270.897C285.455 270.897 288.296 271.175 288.793 270.678L290.035 260.675C290.035 260.675 288.634 261.301 286.478 261.022Z" fill="#3C1F1F"/>
<path d="M301.105 262.22L300.33 267.743C300.33 267.743 301.706 267.862 302.699 266.039V264.127L301.105 262.22Z" fill="#3C1F1F"/>
<path d="M307.671 96.3374C307.671 96.3374 285.32 96.8341 285.32 104.781C285.32 112.728 304.691 115.709 304.691 115.709C304.691 115.709 331.513 117.695 329.029 106.768C326.546 95.8407 307.671 96.3374 307.671 96.3374Z" stroke="#3C1F1F" stroke-miterlimit="10"/>
<path d="M285.743 102.979C285.743 102.979 274.388 137.563 274.885 151.968C275.297 163.973 281.923 174.249 289.006 179.644C292.205 182.077 294.708 185.311 296.427 188.947C297.286 190.765 297.733 192.751 297.733 194.758V204.647L295.677 230.823" stroke="#3C1F1F" stroke-miterlimit="10"/>
<path d="M329.03 106.768C329.03 106.768 335.736 144.765 332.756 157.679C329.776 170.593 322.822 177.05 314.875 182.017C306.928 186.984 304.941 191.951 304.444 194.931C303.948 197.911 303.5 206.688 303.5 206.688L301.568 229.933" stroke="#3C1F1F" stroke-miterlimit="10"/>
<path d="M276.629 155.693C276.629 155.693 281.799 180.041 301.563 182.519C321.326 184.998 331.762 157.679 331.762 157.679C331.841 156.994 304.767 175.282 276.877 153.954L276.629 155.693Z" fill="#3C1F1F"/>
<path d="M277.691 153.08C276.912 152.464 276.489 151.505 276.594 150.517C276.991 146.837 280.612 138.527 305.432 139.302C337.22 140.295 335.233 155.196 328.28 158.176C321.445 161.107 298.289 169.317 277.687 153.08H277.691Z" fill="#3C1F1F"/>
<path d="M296.223 223.919C296.223 223.919 271.284 221.475 269.735 237.489C268.185 253.502 302.457 255.032 302.457 255.032C302.457 255.032 318.848 254.038 322.324 244.601C325.801 235.164 315.237 229.214 312.326 228.215" stroke="#3C1F1F" stroke-miterlimit="10"/>
<path d="M295.681 233.083C295.681 233.083 293.714 237.826 292.125 237.488C290.536 237.151 299.228 243.772 303.946 238.144C303.946 238.144 301.12 236.42 301.463 232.184" stroke="#3C1F1F" stroke-miterlimit="10"/>
<path d="M208.581 239.635C201.627 239.635 177.786 241.621 176.296 259.006C176.296 259.006 118.68 289.304 113.216 293.278C107.753 297.251 119.673 298.245 119.673 298.245C119.673 298.245 177.29 263.476 178.78 263.476C180.27 263.476 199.641 271.423 210.071 254.535C220.502 237.648 208.581 239.635 208.581 239.635Z" stroke="#3C1F1F" stroke-miterlimit="10"/>
<path d="M139.042 203.375C137.056 205.858 131.592 215.296 136.559 220.263L138.546 220.759C138.546 220.759 144.009 219.766 144.009 216.786L141.029 217.283C141.029 217.283 141.029 213.309 145.499 212.812C145.499 212.812 146.448 206.608 140.016 203.752L139.042 203.375Z" fill="#3C1F1F" stroke="#3C1F1F" stroke-miterlimit="10"/>
<path d="M142.023 216.289C142.023 216.289 146.99 216.289 147.984 213.806C147.984 213.806 143.017 212.316 142.023 216.289Z" stroke="#3C1F1F" stroke-miterlimit="10"/>
<path d="M215.533 221.256C205.858 218.952 197.156 225.727 197.156 225.727C197.156 225.727 191.196 232.184 204.606 231.19C218.017 230.197 225.964 223.74 215.533 221.256Z" stroke="#3C1F1F" stroke-miterlimit="10"/>
<path d="M218.017 217.283C211.56 214.303 195.169 222.25 195.169 222.25C195.169 222.25 183.745 231.687 197.156 233.674C208.888 235.412 228.989 229.164 225.512 222.915C225.015 222.021 224.037 221.132 222.487 220.263L218.017 217.283Z" stroke="#3C1F1F" stroke-miterlimit="10"/>
<path d="M225.513 222.916C225.513 222.916 240.369 219.27 233.912 234.667C233.912 234.667 225.458 249.479 214.039 246.047" stroke="#3C1F1F" stroke-miterlimit="10"/>
<path d="M208.272 233.431C208.272 233.431 206.097 238.641 208.58 239.634" stroke="#3C1F1F" stroke-miterlimit="10"/>
<path d="M224.788 226.884C224.788 226.884 236.58 223.254 231.27 233.431C225.96 243.608 217.631 244.86 214.348 242.744" stroke="#3C1F1F" stroke-miterlimit="10"/>
<path d="M210.682 239.565C210.682 239.565 208.407 235.879 211.72 232.79" stroke="#3C1F1F" stroke-miterlimit="10"/>
<path d="M107.547 226.034C107.547 226.034 107.363 230.4 110.289 231.294C110.289 231.294 111.337 235.695 115.008 236.177C115.008 236.177 114.208 242.117 126.128 240.627C126.128 240.627 116.786 228.831 107.552 226.034H107.547Z" fill="#3C1F1F" stroke="#3C1F1F" stroke-miterlimit="10"/>
<path d="M112.719 225.727L113.215 227.713C113.215 227.713 124.143 234.17 125.136 238.144C126.129 242.118 124.639 230.197 124.639 230.197C124.639 230.197 118.788 231.314 117.492 226.035L112.719 225.727Z" fill="#3C1F1F"/>
<path d="M118.41 225.727C118.41 225.727 118.862 230.162 125.478 229.189C125.478 229.189 134.428 232.681 137.727 225.727C137.727 225.727 143.349 226.457 143.429 230.063C143.429 230.063 146.493 221.257 134.573 221.257C134.573 221.257 126.625 213.806 122.155 224.237C122.155 224.237 120.129 223.74 118.41 225.727Z" stroke="#3C1F1F" stroke-miterlimit="10"/>
<path d="M125.475 230.062C125.475 230.062 131.589 239.634 141.523 228.21C141.523 228.21 141.026 226.72 138.543 226.72C138.543 226.72 132.274 234.404 125.475 230.062Z" fill="#3C1F1F"/>
<path d="M134.574 234.17C134.574 234.17 133.084 234.667 132.091 234.667C131.097 234.667 129.11 241.382 133.332 240.508C137.554 239.634 144.011 235.164 145.998 229.7H144.508C144.508 229.7 139.283 238.278 133.203 238.954C133.203 238.954 131.097 237.151 134.574 234.17Z" stroke="#3C1F1F" stroke-miterlimit="10"/>
<path d="M135.051 235.144C135.051 235.144 134.569 237.151 136.059 237.151C136.059 237.151 139.536 235.164 142.516 231.191C142.516 231.191 143.51 229.204 142.019 228.707C142.019 228.707 139.998 232.969 136.039 233.818C136.039 233.818 135.031 234.628 135.046 235.144H135.051Z" fill="#3C1F1F"/>
<path d="M139.093 238.954C139.093 238.954 148.515 239.137 148.992 232.929C148.992 232.929 151.456 231.687 151.456 230.694C151.456 230.694 155.037 231.687 156.969 229.7C158.901 227.713 149.469 227.713 149.469 227.713C149.469 227.713 148.371 224.361 144.696 226.035L144.631 228.707H147.124L153.939 229.203C153.939 229.203 149.906 229.203 146.955 229.7C146.955 229.7 144.109 237.285 139.088 238.954H139.093Z" fill="#3C1F1F"/>
<path d="M152.206 279.618L163.063 273.931C163.063 273.931 200.032 276.39 220.322 262.11C240.612 247.83 238.208 230.942 236.678 228.707C236.678 228.707 238.128 223.988 233.162 222.001C233.162 222.001 215.777 197.167 168.095 199.65C168.095 199.65 146.891 201.816 142.838 204.458L139.088 202.069L135.805 207.101C135.805 207.101 112.699 219.145 111.09 226.035L106.5 224.485C106.5 224.485 106.5 230.942 108.487 231.439C108.487 231.439 102.71 254.788 125.469 263.729C125.469 263.729 140.275 271.671 149.216 272.168L138.363 278.227C138.363 278.227 74.9601 265.298 96.1937 222.543C96.1937 222.543 118.917 188.231 175.044 190.218C231.17 192.205 241.506 210.24 247.516 216.617C253.526 222.995 267.428 257.769 203.852 276.643C203.852 276.643 175.54 284.59 152.196 279.623L152.206 279.618Z" fill="#3C1F1F"/>
<path d="M151.709 232.263C151.709 232.263 151.361 241.566 142.843 240.23C142.843 240.23 139.292 239.888 143.265 245.848C147.239 251.808 145.749 252.802 155.186 252.802C164.623 252.802 166.625 238.894 162.398 237.156C162.398 237.156 163.153 233.584 162.398 232.268C161.643 230.952 168.1 230.45 166.61 228.463C165.12 226.477 164.126 225.483 163.63 225.483C163.133 225.483 165.617 223 165.617 223C165.617 223 168.155 224.261 169.863 224.376C171.572 224.49 170.583 220.516 167.603 219.523C164.623 218.53 159.16 223.497 159.16 223.497L155.186 227.47C155.186 227.47 159.785 229.258 157.237 230.599C154.689 231.94 152.206 231.94 152.206 231.94L151.709 232.268V232.263Z" stroke="#3C1F1F" stroke-miterlimit="10"/>
<path d="M184.152 259.76C184.152 259.76 195.676 267.449 210.82 245.346" stroke="#3C1F1F" stroke-miterlimit="10"/>
<path d="M155.216 41.4521C155.216 41.4521 166.854 82.678 160.397 92.6119C153.94 102.546 151.456 107.016 142.516 112.48C142.516 112.48 138.542 118.44 138.542 124.4C138.542 130.361 138.046 153.706 140.033 156.686C142.019 159.666 143.509 161.156 143.509 161.156C143.509 161.156 137.902 170.097 130.278 161.156C130.278 161.156 135.066 158.176 134.569 150.229C134.072 142.282 133.576 123.904 133.576 123.904C133.576 123.904 132.085 112.976 124.635 109.003C117.185 105.029 108.741 93.1086 109.734 83.1747C110.728 73.2407 115.705 42.2121 115.705 42.2121" stroke="#3C1F1F" stroke-miterlimit="10"/>
<path d="M134.574 150.229C134.574 150.229 113.713 153.21 113.216 163.64C112.72 174.071 132.091 174.568 132.091 174.568C132.091 174.568 167.356 175.561 158.912 157.183C158.912 157.183 152.639 150.726 138.89 150.229" stroke="#3C1F1F" stroke-miterlimit="10"/>
<path d="M127.088 110.722C127.088 110.722 134.076 116.95 142.52 112.48" stroke="#3C1F1F" stroke-miterlimit="10"/>
<path d="M111.726 77.7109C111.726 77.7109 108.746 91.6184 119.176 102.546C125.057 108.705 130.327 111.054 133.809 111.928C136.268 112.549 138.841 112.256 141.031 110.99C145.501 108.402 154.079 102.208 159.319 91.1168C160.059 89.5472 160.526 87.8584 160.675 86.1299C160.874 83.8352 161.008 80.5272 160.402 78.7043C160.71 78.0686 136.198 96.7592 111.726 77.7109Z" fill="#3C1F1F"/>
<path d="M119.673 81.6845C119.673 81.6845 100.799 74.234 120.17 68.7704C143.479 62.1941 159.408 73.2406 159.408 73.2406C159.408 73.2406 166.859 78.2076 145.501 84.168C145.501 84.168 132.09 88.1415 119.673 81.6845Z" fill="#3C1F1F"/>
<path d="M135.319 34.7471C135.319 34.7471 166.611 37.7272 150.717 46.1711C134.823 54.6149 116.445 45.1777 116.445 45.1777C116.445 45.1777 109.988 37.2306 135.319 34.7471Z" stroke="#3C1F1F" stroke-miterlimit="10"/>
<path d="M94.2227 104.171C94.2227 104.171 108.597 152.35 100.625 163.963C92.6531 175.571 91.4759 179.609 80.4345 185.992C80.4345 185.992 74.9709 193.432 74.9709 200.396C74.9709 207.36 75.9941 235.656 78.4477 239.138C80.9014 242.62 82.9179 243.112 82.9179 243.112C82.9179 243.112 74.951 253.066 65.5337 242.615C65.5337 242.615 71.6083 240.479 70.9973 231.191C70.3864 221.903 70.5006 199.403 70.5006 199.403C70.5006 199.403 70.7589 190.139 61.5602 185.495C52.3614 180.851 36.8398 164.544 38.0666 152.932C39.2935 141.324 45.4375 105.065 45.4375 105.065" stroke="#3C1F1F" stroke-miterlimit="10"/>
<path d="M70.9979 226.721C70.9979 226.721 47.2709 231.916 46.6599 244.105C46.049 256.294 74.9714 257.516 74.9714 257.516C74.9714 257.516 110.728 255.152 100.303 233.674C100.303 233.674 93.4434 227.302 76.4615 226.721" stroke="#3C1F1F" stroke-miterlimit="10"/>
<path d="M61.5605 185.495C61.5605 185.495 68.1169 192.404 78.5474 187.184" stroke="#3C1F1F" stroke-miterlimit="10"/>
<path d="M40.5161 146.549C40.5161 146.549 36.8356 162.801 49.7148 175.571C56.9715 182.768 63.4831 185.515 67.7845 186.538C70.8193 187.263 73.9981 186.92 76.7051 185.44C82.2233 182.415 92.8178 175.178 99.2897 162.215C100.204 160.382 100.78 158.405 100.964 156.384C101.207 153.701 101.376 149.837 100.626 147.706C101.003 146.961 70.7398 168.806 40.5211 146.544L40.5161 146.549Z" fill="#3C1F1F"/>
<path d="M50.3294 151.193C50.3294 151.193 27.0246 142.486 50.9403 136.099C79.7237 128.415 99.3927 141.324 99.3927 141.324C99.3927 141.324 108.591 147.13 82.222 154.094C82.222 154.094 65.6623 158.738 50.3294 151.193Z" fill="#3C1F1F"/>
<path d="M69.6511 96.3379C69.6511 96.3379 108.289 99.8197 88.6645 109.689C69.0402 119.558 46.3463 108.527 46.3463 108.527C46.3463 108.527 38.3744 99.2386 69.6511 96.3379Z" stroke="#3C1F1F" stroke-miterlimit="10"/>
<path d="M129.358 2.95821C125.072 7.2447 125.136 11.6504 124.888 15.3756C124.754 17.3723 125.871 16.7366 127.024 15.5991C128.544 14.0991 130.098 10.7414 130.6 8.67022C131.524 4.86055 132.179 0.13697 129.358 2.95821Z" stroke="#3C1F1F" stroke-miterlimit="10"/>
<path d="M125.137 7.67727C125.137 7.67727 120.493 21.6891 127.536 16.6675C127.536 16.6675 130.198 14.0996 131.395 10.3892C132.255 7.71701 133.268 2.85435 131.917 1.26492C131.39 0.644047 130.506 0.52484 129.115 1.22022C129.115 1.22022 126.632 3.7037 125.142 7.67727H125.137Z" stroke="#3C1F1F" stroke-miterlimit="10"/>
<path d="M131.912 1.26539C131.912 1.26539 133.586 0.3167 133.829 1.26539C134.073 2.21408 135.071 6.18765 132.091 11.6513" stroke="#3C1F1F" stroke-miterlimit="10"/>
<path d="M125.191 17.7549C125.191 17.7549 126.1 20.3824 128.102 17.7549" stroke="#3C1F1F" stroke-miterlimit="10"/>
<path d="M131.39 13.1211L129.428 16.6675" stroke="#3C1F1F" stroke-miterlimit="10"/>
<path d="M134.188 1.81119C134.188 1.81119 136.055 0.996608 136.06 2.09927C136.065 3.20194 136.169 6.55961 135.126 8.606" stroke="#3C1F1F" stroke-miterlimit="10"/>
<path d="M133.049 13.7373L134.574 10.1611" stroke="#3C1F1F" stroke-miterlimit="10"/>
<path d="M132.572 15.1279C132.572 15.1279 130.893 18.5402 129.214 19.4989C128.449 19.936 127.684 19.8664 127.078 18.7389" stroke="#3C1F1F" stroke-miterlimit="10"/>
<path d="M132.225 18.9229C132.225 18.9229 130.313 21.8832 129.215 19.499" stroke="#3C1F1F" stroke-miterlimit="10"/>
<path d="M130.721 20.3379C130.721 20.3379 132.092 22.8263 134.575 19.4736" stroke="#3C1F1F" stroke-miterlimit="10"/>
<path d="M132.572 21.1576C132.572 21.1576 133.695 22.7172 135.125 21.1576C136.556 19.598 138.051 16.1211 138.051 16.1211" stroke="#3C1F1F" stroke-miterlimit="10"/>
<path d="M136.059 2.09896C136.059 2.09896 137.822 1.27444 138.085 3.02778C138.135 3.3556 138.13 3.77282 138.05 4.30429C137.554 7.67189 136.56 10.6521 136.56 10.6521" stroke="#3C1F1F" stroke-miterlimit="10"/>
<path d="M139.541 6.68408C139.541 6.68408 141.101 1.36446 138.086 3.02839" stroke="#3C1F1F" stroke-miterlimit="10"/>
<path d="M141.244 8.61149C141.244 8.61149 143.32 2.33325 139.938 3.51539" stroke="#3C1F1F" stroke-miterlimit="10"/>
<path d="M139.014 8.61133C139.014 8.61133 138.339 15.0336 135.463 18.0635" stroke="#3C1F1F" stroke-miterlimit="10"/>
<path d="M140.911 10.1611C140.911 10.1611 140.474 12.6496 139.014 15.1281" stroke="#3C1F1F" stroke-miterlimit="10"/>
<path d="M170.837 13.5281L166.531 11.9238C166.461 11.9238 166.396 11.9039 166.347 11.8791C166.297 11.8691 166.247 11.8691 166.208 11.8493C166.123 11.8344 166.044 11.8095 165.959 11.7847C165.86 11.7499 165.756 11.7251 165.651 11.7002C165.473 11.6506 165.294 11.6208 165.12 11.5512V11.5612L156.179 8.42205V8.45682L141.686 4.03125C142.446 4.3094 143.216 6.08757 143.27 7.49322C143.365 9.77803 142.873 12.0479 141.939 14.1341C140.752 16.7814 138.348 20.2633 137.082 21.4752C135.984 22.5282 135.065 22.0812 134.568 22.0812L137.549 23.5713L149.966 28.5383L144.502 26.0548H146.489V24.5647L155.926 27.5449V28.5383L154.436 29.035V29.5316L149.966 28.5383L154.436 30.0283L158.906 31.0217H159.403V30.525H160.396V29.035H162.383L161.39 28.0416L162.88 26.5515L165.363 27.0482L164.37 28.5383H162.88L163.873 29.035L162.88 30.525H161.39L162.383 31.5184L158.161 30.7734L163.873 33.0085C172.317 26.5515 170.832 13.5281 170.832 13.5281H170.837ZM161.261 15.1274L159.403 14.6308C162.383 18.1076 160.53 17.4371 160.53 17.4371C160.53 17.4371 155.429 15.6241 152.449 14.1341C149.469 12.644 153.443 12.1473 153.443 12.1473C153.443 12.1473 154.436 12.1473 152.449 11.1539C150.463 10.1605 151.456 9.66379 151.456 9.66379C155.926 10.1605 151.953 7.677 151.953 7.677L156.174 8.91378L160.893 10.6572C161.39 11.6506 159.9 11.6506 159.9 11.6506L161.519 11.9486L161.261 15.1274ZM167.852 15.6241H166.858L167.852 16.1208V19.5977L166.858 19.101L166.362 21.0878L167.146 21.2219L166.744 21.8527L166.948 23.0746H163.883L163.386 22.5779L165.08 21.8527L163.883 21.5845V21.0878H165.373L164.32 20.3477L164.38 19.101L166.367 20.0944V19.101L165.373 18.6043V17.1142L167.36 18.1076V17.1142L165.87 16.6175V15.1274L165.458 12.2367L167.857 12.8923V15.6192L167.852 15.6241Z" fill="#3C1F1F"/>
<path d="M263.574 84.2326C273.394 86.8999 282.334 91.3701 292.268 94.3503C295.248 95.3437 297.732 95.8404 300.712 96.3371C306.176 96.3371 312.136 98.3239 317.599 95.8404C330.017 90.3768 332.997 73.9858 330.017 61.5684M330.017 61.5684C326.143 62.7604 330.896 64.5187 330.017 61.5684ZM330.017 61.5684C325.596 63.0386 320.818 63.0137 316.268 62.2091" stroke="#3C1F1F" stroke-miterlimit="10"/>
<path d="M258.121 82.4746C258.876 82.7081 259.636 82.9465 260.391 83.1849" stroke="#3C1F1F" stroke-miterlimit="10"/>
<path d="M260.734 82.6785C258.444 82.6437 257.009 80.4434 257.505 77.9599C258.995 74.483 260.982 71.0061 264.459 68.5227C271.909 62.5623 282.34 58.092 281.347 47.1647C280.353 41.701 277.373 36.2374 272.406 33.7539C251.048 22.3299 227.207 22.3299 203.366 19.8464C201.876 19.8464 198.151 20.0947 196.661 20.0947C187.223 19.5981 183.493 17.9689 174.309 15.1278C174.309 15.1278 171.26 14.2089 169.839 13.6377C169.998 20.2835 169.611 28.777 163.879 33.0089C170.49 35.8649 176.699 39.4063 183.18 42.4908C189.662 45.5753 195.126 49.8419 200.743 53.8999C206.361 57.9579 212.192 62.4679 218.306 66.1186C223.84 69.4217 229.755 71.9598 235.835 74.0708C239.312 75.2777 242.927 76.0873 246.151 77.9003C249.375 79.7132 253.204 81.253 256.8 82.0328" stroke="#3C1F1F" stroke-miterlimit="10"/>
<path d="M440.04 118.937C424.891 114.218 411.977 105.774 398.07 97.3306C396.58 96.3372 395.09 96.3372 393.6 95.3439C391.613 93.8538 389.626 92.8604 387.639 91.3703C386.149 90.3769 384.659 90.3769 383.169 89.3835C365.785 78.4562 348.897 70.0123 331.016 61.5685C328.036 60.5751 325.056 59.5817 322.076 60.0784C319.096 60.0784 316.612 62.5619 313.632 63.5553C305.685 66.0388 297.241 64.5487 288.797 66.0388C287.804 66.5355 286.811 67.0322 285.321 67.5289L283.831 69.0189C282.837 69.5156 281.347 70.0123 280.354 71.0057C274.393 75.9727 265.701 84.1682 260.734 83.1748" stroke="#3C1F1F" stroke-miterlimit="10"/>
<path d="M261.479 29.1045C261.479 29.1045 269.177 35.492 264.707 46.4193L280.631 51.9376C280.631 51.9376 286.065 35.6311 261.479 29.1045Z" fill="#3C1F1F" stroke="#3C1F1F" stroke-miterlimit="10"/>
<path d="M258.121 82.4256L260.381 83.1855C260.848 83.0663 261.3 82.8428 261.727 82.6193C261.097 82.664 260.58 82.669 260.227 82.664C259.115 82.6541 258.305 80.7269 257.963 79.7285C257.66 80.6921 257.595 81.6954 258.126 82.4206L258.121 82.4256Z" fill="#3C1F1F" stroke="#3C1F1F" stroke-miterlimit="10"/>
<path d="M256.498 80.0459L254.734 81.2827L256.791 81.978C256.582 81.3721 256.513 80.7115 256.498 80.0459Z" fill="#3C1F1F" stroke="#3C1F1F" stroke-miterlimit="10"/>
<path d="M271.264 79.8174C270.132 80.7164 269.044 81.6353 267.723 82.276C266.973 82.6386 266.198 82.9466 265.408 83.2048C264.623 83.4631 263.814 83.7363 262.999 83.8704C262.92 83.9102 262.845 83.9549 262.766 83.9896L298.89 96.1637C303.773 95.2448 305.928 92.1156 305.928 92.1156L271.264 79.8174Z" fill="#3C1F1F" stroke="#3C1F1F" stroke-miterlimit="10"/>
<path d="M312.24 63.7994L321.325 66.7845V62.6918C321.325 62.6918 319.651 63.5957 316.268 62.21L312.24 63.7994Z" fill="#3C1F1F" stroke="#3C1F1F" stroke-miterlimit="10"/>
<path d="M247.193 24.8534C247.193 24.8534 257.008 16.8665 268.432 19.8467C276.881 22.052 286.964 21.8086 291.637 21.5355C293.425 21.4312 295.204 21.7441 296.853 22.4494L318.598 31.7674C318.598 31.7674 330.518 37.2311 337.472 37.7278C344.426 38.2245 397.9 51.9383 397.9 51.9383C397.9 51.9383 430.85 53.6221 437.307 55.6088" stroke="#3C1F1F" stroke-miterlimit="10"/>
<path d="M284.963 21.7041C284.963 21.7041 287.556 23.075 292.523 23.5717C297.489 24.0684 301.463 26.0552 301.463 26.0552" stroke="#3C1F1F" stroke-miterlimit="10"/>
<path d="M280.631 51.9375C280.631 51.9375 286.065 47.9093 286.065 45.4258" stroke="#3C1F1F" stroke-miterlimit="10"/>
<path d="M281.143 49.772C281.143 49.772 283.859 47.5369 283.969 40.5186" stroke="#3C1F1F" stroke-miterlimit="10"/>
<path d="M283.348 23.457C283.348 23.457 288.051 27.0481 291.528 26.5515" stroke="#3C1F1F" stroke-miterlimit="10"/>
<path d="M338.715 65.2939C338.715 65.2939 361.751 68.6615 376.806 79.1468" stroke="#3C1F1F" stroke-miterlimit="10"/>
<path d="M262.721 73.7379C262.721 73.7379 268.563 71.9398 267.852 77.319C267.783 77.8555 266.829 79.0674 266.447 79.4499L263.546 82.3853C263.546 82.3853 255.812 86.5427 257.779 79.1469C257.779 79.1469 260.238 75.2279 262.721 73.7379Z" fill="#3C1F1F"/>
<path d="M345.419 159.914L370.006 175.56C370.006 175.56 373.756 176.584 376.17 182.296C376.671 183.483 377.113 184.869 377.456 186.488C377.456 186.488 391.86 188.475 393.35 196.422V198.567C393.35 198.567 421.165 202.879 413.715 192.945C406.264 183.011 393.35 181.521 393.35 181.521C393.35 181.521 390.37 180.031 383.416 181.521C383.416 181.521 379.443 182.017 376.959 178.541C376.959 178.541 368.516 169.103 348.648 158.673C348.648 158.673 352.969 155.881 350.148 154.406C349.492 154.063 348.732 153.969 347.997 154.083L333.007 156.368L331.959 160.664L345.419 159.909V159.914Z" stroke="#3C1F1F" stroke-miterlimit="10"/>
<path d="M333.514 153.954L336.861 155.782" stroke="#3C1F1F" stroke-miterlimit="10"/>
<path d="M333.504 149.985L342.862 154.868" stroke="#3C1F1F" stroke-miterlimit="10"/>
<path d="M405.718 188.867C405.718 188.867 399.813 187.253 400.304 190.079C400.796 192.905 404.243 196.134 404.243 196.134C404.243 196.134 409.329 197.346 409.985 196.134C410.641 194.922 411.629 192.905 405.718 188.867Z" fill="#3C1F1F"/>
<path d="M393.351 198.568C390.868 212.137 366.033 205.859 366.033 205.859C366.033 205.859 360.073 204.369 348.649 194.008C340.846 186.935 351.162 180.155 360.073 177.051C364.21 175.61 370.006 175.561 370.006 175.561" stroke="#3C1F1F" stroke-miterlimit="10"/>
<path d="M352.124 191.951C352.124 191.951 350.634 193.938 357.588 197.414C364.542 200.891 374.828 203.752 384.335 202.57C393.842 201.388 382.919 201.388 382.919 201.388L390.37 194.931C390.37 194.931 380.888 201.582 376.194 199.496C376.194 199.496 371.62 200.355 372.057 197.395C372.494 194.434 376.194 193.486 376.194 193.486C376.194 193.486 375.469 192.443 372.489 194.429L375.469 190.456C375.469 190.456 371.992 191.946 371.495 192.939C371.495 192.939 371.421 189.423 366.489 191.429L366.28 188.399C366.28 188.399 362.058 189.462 361.561 190.952L357.32 191.429C357.32 191.429 364.045 195.919 357.588 193.933C351.131 191.946 352.124 191.946 352.124 191.946V191.951Z" fill="#3C1F1F"/>
<path d="M356.272 200.296C356.272 200.296 351.127 204.369 357.087 208.342C363.047 212.316 383.412 212.813 383.412 212.813L381.425 211.323L387.698 211.124L384.256 207.826L389.61 207.304C389.61 207.304 390.365 203.798 393.346 202.839C396.326 201.88 398.561 201.394 395.953 198.905L393.346 198.562C393.346 198.562 391.98 208.755 375.028 207.304C375.028 207.304 363.897 206.654 356.268 200.296H356.272Z" fill="#3C1F1F"/>
<path d="M393.351 202.844C393.351 202.844 396.401 203.38 397.111 205.864C397.822 208.347 402.788 206.857 396.828 208.844C390.868 210.831 405.426 212.559 405.426 212.559C405.426 212.559 411.918 214.307 415.548 212.817C419.179 211.327 422.656 211.327 416.696 215.798C410.736 220.268 411.232 220.268 401.795 219.274C401.795 219.274 391.861 221.261 386.398 218.281C380.934 215.301 373.474 217.7 373.474 217.7L366.033 214.307C366.033 214.307 371.333 212.192 377.373 212.504" stroke="#3C1F1F" stroke-miterlimit="10"/>
<path d="M351.991 164.097C351.991 164.097 325.711 175.57 335.193 190.466C344.674 205.362 345.668 206.852 363.052 213.806C380.436 220.76 405.529 222.553 418.066 219.92C430.602 217.288 458.417 207.846 446 186.488C433.582 165.13 387.971 155.623 356.138 162.86L348.648 158.673C348.648 158.673 352.532 156.179 350.59 154.694C350.59 154.694 388.88 145.262 425.635 161.156C462.39 177.051 463.374 191.435 463.374 191.435C463.374 191.435 470.233 218.401 425.586 225.29C380.938 232.179 344.59 216.185 325.507 195.622C325.507 195.622 318.216 186.498 319.522 178.794C319.522 178.794 329.178 170.608 331.954 160.665L345.414 159.91L351.986 164.092L351.991 164.097Z" fill="#3C1F1F" stroke="#3C1F1F" stroke-miterlimit="10"/>
<path d="M345.42 159.915L348.648 158.673" stroke="#3C1F1F" stroke-miterlimit="10"/>
<path d="M319.522 178.794C319.522 178.794 315.365 192.826 328.03 202.571C335.451 208.278 346.537 216.205 361.642 221.912C372.316 225.945 384.996 228.866 399.802 229.109C435.564 229.7 461.134 222.578 463.747 198.572" stroke="#3C1F1F" stroke-miterlimit="10"/>
<path d="M361.641 221.912C361.641 221.912 369.007 228.21 385.397 229.7C401.788 231.19 409.02 229.889 410.123 229.05" stroke="#3C1F1F" stroke-miterlimit="10"/>
<path d="M376.17 182.296C376.17 182.296 379.94 184.501 380.437 186.985" stroke="#3C1F1F" stroke-miterlimit="10"/>
<path d="M392.631 194.375C392.631 194.375 395.835 197.415 404.278 197.911" stroke="#3C1F1F" stroke-miterlimit="10"/>
<path d="M248.813 166.123C248.813 166.123 247.11 168.591 244.482 168.348C241.855 168.104 254.928 170.742 253.11 172.902C251.292 175.063 240.98 177.556 245.143 178.793C247.686 179.548 252.514 178.977 255.886 178.421C258.196 178.038 260.416 177.244 262.442 176.066L268.353 172.639L276.573 171.745C276.573 171.745 285.395 175.232 284.982 177.383C284.57 179.533 279.464 178.555 273.325 178.798C267.186 179.042 261.697 191.851 253.76 189.418C245.823 186.984 227.083 193.133 224.783 185.836C222.484 178.54 225.608 185.677 220.318 184.843C215.028 184.009 205.094 178.54 207.081 175.063C209.068 171.586 218.505 177.05 218.008 173.076C217.512 169.103 209.068 171.586 209.068 170.096C209.068 168.606 224.778 157.321 224.778 157.321C224.778 157.321 217.541 165.427 223.487 164.285C229.432 163.142 238.373 164.136 240.36 161.652C242.346 159.169 248.803 162.646 251.287 161.156C253.77 159.666 256.254 155.97 260.724 157.321C265.194 158.672 266.684 163.142 268.174 164.632C269.664 166.123 268.174 169.599 268.174 169.599C268.174 169.599 266.322 171.075 262.775 168.348C259.229 165.621 258.231 166.897 258.231 166.897C258.231 166.897 257.555 168.591 254.913 168.348C252.27 168.104 248.798 166.123 248.798 166.123H248.813Z" fill="#3C1F1F" stroke="#3C1F1F" stroke-miterlimit="10"/>
<path d="M268.352 172.64L279.156 167.738L277.954 165.244L268.184 169.6" stroke="#3C1F1F" stroke-miterlimit="10"/>
<path d="M241.791 153.954C241.791 153.954 239.874 157.679 243.351 157.679C246.827 157.679 249.674 151.222 241.791 153.954Z" fill="#3C1F1F" stroke="#3C1F1F" stroke-miterlimit="10"/>
<path d="M250.303 155.692C248.132 155.21 247.819 159.169 249.806 159.169C251.793 159.169 254.773 156.685 250.303 155.692Z" fill="#3C1F1F" stroke="#3C1F1F" stroke-miterlimit="10"/>
<path d="M277.318 133.609C277.318 133.609 215.793 120.442 187.352 149.985C187.352 149.985 187.064 150.363 186.637 151.053C182.783 157.272 167.634 188.872 250.562 198.562C250.562 198.562 281.669 199.019 297.28 191.261C297.28 191.261 296.252 186.984 294.141 184.997C294.141 184.997 262.755 201.677 223.502 188.618C184.248 175.56 198.379 155.479 198.379 155.479C198.379 155.479 218.565 128.652 275.664 142.421L277.328 133.609H277.318Z" fill="#3C1F1F" stroke="#3C1F1F" stroke-miterlimit="10"/>
<path d="M187.353 149.985C187.353 149.985 165.185 172.411 203.277 190.128C209.351 192.955 215.545 195.09 221.664 196.69C253.924 205.119 284.168 198.562 284.168 198.562L297.738 194.753" stroke="#3C1F1F" stroke-miterlimit="10"/>
<path d="M221.658 196.694C221.658 196.694 227.867 201.815 244.049 202.843C260.231 203.872 271.253 202.317 273.687 200.117" stroke="#3C1F1F" stroke-miterlimit="10"/>
</g>
<defs>
<clipPath id="clip0_899_1213">
<rect width="464" height="424" fill="white" transform="translate(0 0.5)"/>
</clipPath>
</defs>
</svg>
