<svg width="420" height="675" viewBox="0 0 420 675" fill="none" xmlns="http://www.w3.org/2000/svg">
<path d="M22.9555 31.6034L1.07812 1.00004L1.07806 673L22.9555 642.397L22.9555 31.6034Z" fill="#3C1F1F"/>
<path d="M26.204 30.3283L1.07812 1.00004L419.078 1.00008L398.389 31.0348L26.204 30.3283Z" fill="#3C1F1F"/>
<path d="M24.9936 642.397L2.64186 667.433L416.999 667.433L398.839 642.397L24.9936 642.397Z" fill="#3C1F1F"/>
<path d="M419.078 670.45L399.738 642.397L399.738 31.0348L419.078 1.00008L419.078 670.45Z" fill="#3C1F1F"/>
<path d="M419.078 1.00008L399.738 31.0348L399.738 642.397L419.078 670.45L419.078 1.00008ZM419.078 1.00008L398.389 31.0348L26.204 30.3283L1.07812 1.00004M419.078 1.00008L1.07812 1.00004M1.07812 1.00004L22.9555 31.6034L22.9555 642.397L1.07806 673L1.07812 1.00004ZM2.64186 667.433L24.9936 642.397L398.839 642.397L416.999 667.433L2.64186 667.433Z" stroke="#FFFEF1"/>
</svg>
