<svg width="606" height="466" viewBox="0 0 606 466" fill="none" xmlns="http://www.w3.org/2000/svg">
<path d="M28.7878 440.367L1.15155 464.688H608L580.364 440.367H28.7878Z" fill="#3C1F1F"/>
<path d="M27.6364 436.756L1.15155 464.688V0L28.2744 23L27.6364 436.756Z" fill="#3C1F1F"/>
<path d="M580.364 438.101L602.973 462.95V2.31188L580.364 22.5V438.101Z" fill="#3C1F1F"/>
<path d="M605.697 0L580.364 21.5H28.2744L1.15155 0H605.697Z" fill="#3C1F1F"/>
<path d="M1.15155 0L28.2744 21.5H580.364L605.697 0H1.15155ZM1.15155 0L28.2744 23L27.6364 436.756L1.15155 464.688M1.15155 0V464.688M1.15155 464.688L28.7878 440.367H580.364L608 464.688H1.15155ZM602.973 462.95L580.364 438.101V22.5L602.973 2.31188V462.95Z" stroke="#FFFEF1"/>
</svg>
