<svg width="614" height="605" viewBox="0 0 614 605" fill="none" xmlns="http://www.w3.org/2000/svg">
<g clip-path="url(#clip0_1466_15923)">
<path d="M54.6199 568.744L92.0576 592.282L161.301 545.537L149.042 527.966L145.729 514.043L154.343 504.097L145.729 500.119L149.678 489.629L156.305 477.694C156.305 477.694 140.428 464.314 136.453 462.988L132.477 461.662L95.808 478.948L93.3166 480.121L90.8119 481.301L63.5652 494.145L-0.376953 526.972C-0.376953 526.972 54.2886 568.412 53.9573 568.081C53.7983 567.921 80.0113 591.884 82.4497 592.613C85.1995 593.442 54.6199 568.744 54.6199 568.744Z" stroke="#3C1F1F" stroke-miterlimit="10"/>
<path d="M82.4492 592.613L88.4127 589.961" stroke="#3C1F1F" stroke-miterlimit="10"/>
<path d="M145.729 500.118L90.8047 481.308" stroke="#3C1F1F" stroke-miterlimit="10"/>
<path d="M145.73 514.043L77.5137 583.019" stroke="#3C1F1F" stroke-miterlimit="10"/>
<path d="M338.55 447.075C308.732 431.162 308.07 426.521 256.386 425.195C205.55 423.889 168.815 459.793 167.629 460.966C158.299 466.343 148.38 488.184 148.38 488.184C148.38 488.184 132.477 519.347 165.939 550.842C199.401 582.336 237.833 581.01 270.632 580.679C303.431 580.347 343.188 557.14 356.772 540.233C356.865 540.12 356.944 540.007 357.037 539.895C357.024 539.888 357.01 539.881 357.004 539.875C357.004 539.875 357.004 539.875 356.997 539.875C356.977 539.875 356.792 539.835 356.752 539.815C356.739 539.815 356.732 539.815 356.719 539.815C356.666 539.815 356.613 539.815 356.553 539.815C356.454 539.815 356.354 539.822 356.255 539.828C356.242 539.828 356.235 539.828 356.222 539.828C356.222 539.828 356.222 539.828 356.209 539.828C356.149 539.842 356.089 539.848 356.03 539.862C355.804 539.908 355.579 539.968 355.36 540.041C355.241 540.08 355.129 540.12 355.009 540.167C355.003 540.167 354.95 540.193 354.917 540.206C354.704 540.339 354.486 540.458 354.261 540.591C354.214 540.617 354.181 540.657 354.135 540.684C354.022 540.803 353.903 540.909 353.777 541.009C353.585 541.214 353.406 541.44 353.194 541.632C352.485 542.288 351.67 542.905 350.855 543.415C350.616 543.568 350.358 543.707 350.099 543.84C349.927 543.979 349.748 544.105 349.543 544.205C349.039 544.456 348.522 544.742 347.959 544.828C347.316 544.927 346.693 544.815 346.051 544.801C345.686 544.801 345.309 544.795 344.951 544.702C344.851 544.675 344.759 544.642 344.666 544.609C344.341 544.589 344.03 544.529 343.758 544.397C342.791 543.906 342.943 542.62 343.824 542.123C344.633 541.665 345.613 541.771 346.495 541.599C346.939 541.513 347.409 541.413 347.86 541.274C348.688 540.83 349.417 540.206 349.675 539.305C349.821 538.781 349.808 538.204 349.934 537.567C350 537.243 350.119 536.918 350.298 536.633C350.272 536.633 350.252 536.619 350.225 536.613C349.602 536.513 348.966 536.513 348.35 536.354C347.012 535.996 345.534 535.552 344.964 534.153C344.52 533.059 344.759 531.879 345.832 531.348C345.978 531.209 346.17 531.129 346.415 531.169C347.071 531.295 347.893 531.646 348.476 531.945C349.801 532.608 350.994 534.418 352.452 533.271C352.882 532.933 353.233 532.608 353.777 532.608H354.439C355.765 532.608 355.506 531.945 357.09 531.945C357.189 531.945 358.316 531.945 358.415 531.945C359.078 531.945 359.442 531.965 359.74 531.945C360.509 531.845 361.728 531.945 362.311 531.918C370.528 517.099 371.005 502.108 371.005 502.108C371.005 502.108 368.354 462.988 338.537 447.075H338.55ZM356.156 486.851L354.446 488.847L351.133 494.814L351.597 497.593C352.167 501.021 352.187 504.521 351.663 507.956L351.053 511.928C350.007 518.717 347.482 525.208 343.559 530.851C336.701 540.73 323.601 555.158 301.437 564.434C264.993 579.684 234.513 571.727 207.346 563.108C180.179 554.488 168.252 528.63 164.939 510.727C161.626 492.825 184.817 468.956 184.817 468.956C208.671 446.412 241.219 440.08 272.282 442.434C316.014 445.749 333.905 467.63 333.905 467.63C333.905 467.63 338.543 465.641 343.844 465.641C349.145 465.641 347.157 472.271 347.157 472.271L348.297 472.046C349.702 471.767 351.153 471.999 352.399 472.709L352.949 473.027C354.34 473.823 355.394 475.102 355.897 476.627L357.322 480.904C358.004 482.953 357.56 485.214 356.156 486.858V486.851Z" fill="#3C1F1F"/>
<path d="M364.803 533.065C368.745 524.287 370.673 514.566 370.707 504.952C370.713 502.651 370.17 500.967 368.699 499.124" stroke="#3C1F1F" stroke-miterlimit="10"/>
<path d="M158.035 547.738C161.693 552.446 166.265 556.55 170.89 560.27C182.413 569.533 195.791 576.428 209.931 580.678C230.412 586.838 252.166 586.884 273.31 585.074C289.617 583.682 305.937 580.433 320.72 573.199C332.945 567.219 345.27 558.553 354.56 548.567C356.276 546.724 357.866 544.761 359.317 542.699" stroke="#3C1F1F" stroke-miterlimit="10"/>
<path d="M341.862 525.314L347.163 521.336C349.814 519.347 348.488 510.064 347.826 508.738C347.163 507.412 347.826 504.097 348.488 502.107C349.151 500.118 346.501 501.444 343.85 500.781C341.2 500.118 341.862 494.814 343.85 494.814C345.838 494.814 344.513 490.836 346.501 488.847C348.488 486.857 348.488 493.488 350.476 492.825C352.464 492.162 355.777 485.531 356.44 484.205C357.102 482.879 355.115 474.26 352.464 473.597C349.814 472.934 347.826 474.26 345.838 473.597C343.85 472.934 346.501 469.618 345.175 467.629C343.85 465.64 335.236 469.618 335.236 469.618C335.236 469.618 333.911 469.618 327.285 467.629C320.659 465.64 321.984 469.618 320.659 471.607C319.333 473.597 312.045 472.934 312.045 472.934C312.045 472.934 310.333 484.315 307.683 479.673C305.033 475.032 303.707 475.032 297.744 475.032C291.78 475.032 295.093 478.347 292.443 478.347C289.792 478.347 289.13 481.663 289.13 481.663C289.13 481.663 294.431 482.989 293.105 485.641C291.78 488.293 293.105 486.304 295.756 488.956C298.406 491.608 293.105 490.282 290.455 488.956C287.805 487.63 290.455 484.978 290.455 484.978C290.455 484.978 287.805 481.663 284.492 481.663C281.178 481.663 283.829 487.63 283.829 487.63C283.829 487.63 277.203 493.597 277.865 500.891C278.528 508.184 281.834 501.561 283.763 505.453C285.691 509.345 286.479 507.521 287.142 510.173C287.805 512.826 291.78 510.62 281.564 512.5C278.914 517.804 279.577 515.368 281.564 518.02C283.552 520.673 278.251 520.01 276.926 521.336C275.601 522.662 297.812 519.347 297.149 521.999C296.487 524.651 289.516 526.64 291.504 529.292C293.492 531.944 282.504 530.618 284.492 533.934C286.479 537.249 288.853 538.575 288.853 538.575C288.853 538.575 287.528 541.227 291.504 541.89C295.479 542.553 291.504 545.205 293.492 549.184C295.479 553.162 298.792 548.52 300.78 548.52C302.768 548.52 304.756 552.499 310.057 553.162C315.358 553.825 312.045 553.825 313.37 556.477C314.695 559.129 316.014 554.488 315.258 553.162C314.503 551.836 318.671 553.162 319.996 553.162C321.321 553.162 319.333 551.173 319.996 549.847C320.659 548.52 324.641 548.52 326.052 548.169C327.464 547.818 325.96 547.194 324.634 544.542C323.309 541.89 325.96 544.542 327.947 540.564C329.935 536.586 324.634 536.586 324.634 536.586C324.634 536.586 321.984 539.238 321.984 541.227C321.984 543.216 318.008 541.89 314.695 544.542C311.382 547.194 310.719 547.857 307.406 544.542C304.093 541.227 300.78 546.538 297.149 546.366C293.518 546.193 297.149 543.09 297.149 543.09C297.149 543.09 304.093 541.89 307.406 537.912C310.719 533.934 309.388 529.955 311.256 526.972C313.125 523.988 315.358 531.944 319.996 529.955C324.634 527.966 325.297 524.651 329.935 522.662C334.574 520.673 331.26 529.292 331.26 529.292C331.26 529.292 328.61 531.944 324.634 531.944C321.063 531.944 325.96 535.26 328.61 533.934C331.26 532.607 329.273 535.923 331.26 536.586C333.248 537.249 332.586 533.27 333.248 532.428C333.911 531.586 332.466 534.676 333.248 538.575C333.911 541.89 335.236 535.923 337.224 535.26C339.212 534.597 339.212 533.27 339.212 531.281C339.212 529.292 341.2 529.292 341.862 529.292C342.525 529.292 341.862 525.314 341.862 525.314ZM341.862 525.314L339.874 525.977C339.874 525.977 339.874 521.999 337.887 521.999C335.899 521.999 332.586 522.098 335.236 524.041C337.887 525.984 336.561 529.292 338.549 527.966C339.543 527.303 339.709 526.806 339.623 526.474C339.556 526.216 339.782 525.977 340.047 525.314H341.862Z" stroke="#3C1F1F" stroke-miterlimit="10"/>
<path d="M352.134 534.266C354.785 532.277 361.212 532.323 362.736 533.603C364.26 534.882 368.527 535.711 365.711 538.045C362.895 540.372 364.307 544.815 362.12 542.786C360.086 540.903 356.11 536.925 354.122 539.577C350.564 544.324 342.467 544.702 344.183 543.555C346.171 542.229 350.69 541.957 350.809 538.914C350.928 535.87 352.863 536.341 349.484 535.598C346.105 534.856 345.422 534.087 346.171 532.283C346.92 530.48 350.498 535.499 352.134 534.272V534.266Z" stroke="#3C1F1F" stroke-miterlimit="10"/>
<path d="M551.296 339.796C551.296 339.796 522.612 363.663 517.271 369.593C511.929 375.523 492.832 395.657 492.832 395.657C492.832 395.657 487.417 400.928 483.613 408.689C483.613 408.689 481.198 410.959 474.1 413.082C474.1 413.082 465.905 417.327 459.173 422.745L454.856 425.893L443.514 431.823L443.653 433.068C443.653 433.068 460.49 428.603 465.32 424.064C465.32 424.064 468.539 423.039 466.198 425.968C463.856 428.896 451.783 434.24 448.49 434.606C448.49 434.606 446.002 436.216 449.954 435.777C453.905 435.338 465.32 430.068 465.32 430.068C465.32 430.068 469.783 428.238 470.149 425.529C470.149 425.529 474.32 427.067 470.588 429.483C466.857 431.898 462.466 434.387 452.734 436.803C452.734 436.803 450.905 438.34 454.198 437.974C457.491 437.609 475.418 430.947 475.93 429.556C476.442 428.165 477.174 428.751 477.174 428.751C477.174 428.751 478.125 431.314 473.662 433.144C469.198 434.974 466.125 437.317 458.296 438.853C458.296 438.853 455.149 440.537 461.076 439.879C467.003 439.22 472.125 437.317 472.125 437.317L484.17 429.217C487.156 427.208 488.81 423.752 488.745 420.154C488.664 415.644 488.86 409.943 490.271 408.617C492.686 406.347 510.54 387.019 510.54 387.019C510.54 387.019 542.369 361.468 550.052 352.609C557.735 343.75 559.638 342.872 557.296 339.796C557.296 339.796 553.125 338.258 551.296 339.796Z" stroke="#3C1F1F" stroke-miterlimit="10"/>
<path d="M587.805 360.193C587.805 360.193 555.583 380.168 550.527 385.076C545.47 389.983 522.267 405.376 522.267 405.376L496.314 421.874L472.397 437.874C472.397 437.874 454.034 451.003 455.192 453.094C456.35 455.185 467.523 456.767 475.881 452.131C484.24 447.494 496.723 441.201 504.801 431.884C512.879 422.568 522.883 414.075 522.883 414.075L553.947 392.009C553.947 392.009 571.161 384.773 593.043 369.271C593.043 369.271 597.331 365.631 594.852 363.432C592.373 361.233 589.786 360.355 587.805 360.193Z" stroke="#3C1F1F" stroke-miterlimit="10"/>
<path d="M518 382.097L542.634 388L555.887 377.391C555.887 377.391 538.541 372.814 533.903 371.488L518 382.097Z" fill="#3C1F1F"/>
<path d="M571.501 385L554.501 393.5C554.501 393.5 570.465 400.662 579.079 411.271C587.693 421.879 608.069 444.854 582.637 469.168C582.637 469.168 561.182 489.768 522.088 486.984C482.994 484.199 463.778 475.586 441.912 457.684C420.045 439.782 425.346 403.314 434.623 399.999C434.623 399.999 453.728 373.889 504.086 379.193L517.001 366.5C517.001 366.5 474.38 354.912 434.623 379.445C394.866 403.977 414.082 439.119 414.082 439.119C414.082 439.119 432.635 476.912 487.632 488.847C487.632 488.847 502.209 494.814 529.377 494.814C556.544 494.814 575.097 492.162 601.601 471.608C601.601 471.608 620.658 446.637 611.13 429.617C601.601 412.597 611.669 403.234 571.501 385Z" fill="#3C1F1F"/>
<path d="M613.799 440.16C613.799 440.16 619.491 487.521 555.88 496.804C492.269 506.087 447.874 476.8 439.26 470.229C430.646 463.658 406.792 445.087 407.455 421.88C408.118 398.674 423.026 388.363 423.026 388.363" stroke="#3C1F1F" stroke-miterlimit="10"/>
<path d="M343.957 450.411L397.523 423.869L409.026 433.192" stroke="#3C1F1F" stroke-miterlimit="10"/>
<path d="M489.242 493.197L550.256 551.505C550.256 551.505 548.698 552.467 546.022 554.131M546.022 554.131C529.721 564.229 471.882 600.1 470.742 601.233C470.079 601.897 467.177 604.217 466.912 605.212C466.647 606.206 468.999 605.875 478.859 601.233C498.572 591.951 519.113 575.375 519.113 575.375L548.93 556.147M546.022 554.131L548.93 556.147M548.93 556.147L544.955 561.451L525.5 571.257" stroke="#3C1F1F" stroke-miterlimit="10"/>
<path d="M466.906 605.211C466.906 605.211 385.795 535.81 383.542 531.726C381.289 527.642 370.131 515.548 370.131 515.548" stroke="#3C1F1F" stroke-miterlimit="10"/>
<path d="M342.526 326.401C342.526 326.401 340.538 367.596 342.526 370.865C344.514 374.134 346.502 374.804 346.502 374.804L345.839 399.999C345.839 399.999 345.177 419.227 373.006 421.88C400.836 424.532 404.149 403.977 404.149 403.977L407.449 378.033C407.449 378.033 412.1 376.793 414.088 358.227C416.076 339.662 416.739 335.021 416.739 335.021C416.739 335.021 417.05 352.121 380.295 350.934C349.484 349.939 341.532 338.005 342.526 326.401Z" stroke="#3C1F1F" stroke-miterlimit="10"/>
<path d="M342.525 326.402C342.525 326.402 349.814 310.489 368.367 309.826C386.92 309.163 402.214 312.75 409.443 318.604C413.756 322.092 416.407 321.429 416.738 335.021" stroke="#3C1F1F" stroke-miterlimit="10"/>
<path d="M380.295 311.815C380.295 311.815 411.438 310.489 414.088 331.706C416.739 352.923 372.344 347.619 372.344 347.619C372.344 347.619 341.903 343.641 345.196 326.402C348.49 309.163 380.295 311.815 380.295 311.815Z" stroke="#3C1F1F" stroke-miterlimit="10"/>
<path d="M407.449 378.033C377.618 399.164 346.502 374.804 346.502 374.804" stroke="#3C1F1F" stroke-miterlimit="10"/>
<path d="M345.382 338.243C345.382 338.243 343.719 366.602 344.945 370.533L346.171 374.465" stroke="#3C1F1F" stroke-miterlimit="10"/>
<path d="M349.384 342.566C349.384 342.566 347.303 366.091 349.384 372.271L351.464 378.45" stroke="#3C1F1F" stroke-miterlimit="10"/>
<path d="M355.573 346.273C355.573 346.273 353.459 368.505 354.784 373.147C356.11 377.788 356.487 380.732 356.487 380.732V417.027" stroke="#3C1F1F" stroke-miterlimit="10"/>
<path d="M373.655 350.523V386.109L371.018 421.655" stroke="#3C1F1F" stroke-miterlimit="10"/>
<path d="M382.621 350.987L380.561 386.652L376.492 422.099" stroke="#3C1F1F" stroke-miterlimit="10"/>
<path d="M366.359 349.509L367.115 384.723L366.359 420.832" stroke="#3C1F1F" stroke-miterlimit="10"/>
<path d="M361.416 348.361C361.416 348.361 358.779 374.664 361.416 382.859V419.373" stroke="#3C1F1F" stroke-miterlimit="10"/>
<path d="M391.28 350.523C391.28 350.523 389.233 379.114 388.57 381.103C387.908 383.092 387.046 386.248 387.046 386.248L382.613 421.84" stroke="#3C1F1F" stroke-miterlimit="10"/>
<path d="M397.576 349.854C397.576 349.854 396.522 376.461 395.86 379.114C395.197 381.766 393.991 384.723 393.991 384.723L389.326 420.295" stroke="#3C1F1F" stroke-miterlimit="10"/>
<path d="M405.798 347.453C405.798 347.453 401.823 375.798 401.823 377.124C401.823 378.45 400.471 382.17 400.471 382.17L395.574 417.026" stroke="#3C1F1F" stroke-miterlimit="10"/>
<path d="M411.657 343.979C411.657 343.979 408.43 372.483 407.449 374.472C406.469 376.461 405.806 379.153 405.806 379.153L400.697 411.795" stroke="#3C1F1F" stroke-miterlimit="10"/>
<path d="M349.968 377.164L349.57 410.8" stroke="#3C1F1F" stroke-miterlimit="10"/>
<path d="M353.387 379.153L352.777 414.341" stroke="#3C1F1F" stroke-miterlimit="10"/>
<path d="M349.57 318.737V338.244" stroke="#3C1F1F" stroke-miterlimit="10"/>
<path d="M358.031 314.115V343.687" stroke="#3C1F1F" stroke-miterlimit="10"/>
<path d="M368.342 311.669V346.883" stroke="#3C1F1F" stroke-miterlimit="10"/>
<path d="M380.294 311.814L379.188 348.116" stroke="#3C1F1F" stroke-miterlimit="10"/>
<path d="M393.454 313.114L389.326 348.05" stroke="#3C1F1F" stroke-miterlimit="10"/>
<path d="M403.877 316.967L398.715 346.883" stroke="#3C1F1F" stroke-miterlimit="10"/>
<path d="M410.298 322.384L405.799 344.695" stroke="#3C1F1F" stroke-miterlimit="10"/>
<path d="M350.809 391.711L352.134 392.374V406.053C352.134 406.053 350.809 405.84 350.809 405.078C350.809 404.315 350.809 391.711 350.809 391.711Z" fill="#3C1F1F"/>
<path d="M347.496 389.723C347.496 389.723 346.833 397.487 347.496 399.907C348.158 402.327 348.463 403.514 348.463 403.514L348.821 391.049L347.496 389.723Z" fill="#3C1F1F"/>
<path d="M354.121 393.7V408.95L355.413 410.402L355.446 394.363L354.121 393.7Z" fill="#3C1F1F"/>
<path d="M357.436 395.689L360.252 397.632V412.935C360.252 412.935 359.423 412.975 357.436 411.629V395.696V395.689Z" fill="#3C1F1F"/>
<path d="M362.072 398.342C362.072 398.342 364.06 399.668 365.385 399.668V415.548C365.385 415.548 364.06 415.753 362.072 414.01V398.342Z" fill="#3C1F1F"/>
<path d="M367.705 400.662V415.972C367.705 415.972 369.03 417.238 370.356 416.575L371.681 401.325C371.681 401.325 370.356 401.988 367.705 400.662Z" fill="#3C1F1F"/>
<path d="M373.656 401.564L372.338 416.768C372.338 416.768 374.246 417.484 375.949 417.027L378.096 401.564C378.096 401.564 376.963 402.466 373.663 401.564H373.656Z" fill="#3C1F1F"/>
<path d="M379.559 401.564L378.088 417.179C378.088 417.179 379.347 417.484 381.474 417.026L382.501 416.767L384.263 401.325C384.263 401.325 380.805 401.803 379.552 401.564H379.559Z" fill="#3C1F1F"/>
<path d="M386.292 401.325L384.271 416.767C384.271 416.767 387.585 417.238 388.91 415.912L391.289 399.873C391.289 399.873 388.32 401.325 386.299 401.325H386.292Z" fill="#3C1F1F"/>
<path d="M393.044 399.874L390.943 415.555C390.943 415.555 393.905 414.593 395.052 412.936L395.582 412.352L397.583 398.634C397.583 398.634 395.197 399.754 393.05 399.88L393.044 399.874Z" fill="#3C1F1F"/>
<path d="M399.325 398.627C399.325 398.627 402.161 397.348 402.823 395.358L400.12 409.302C400.12 409.302 400.285 410.33 397.582 411.795L399.325 398.627Z" fill="#3C1F1F"/>
<path d="M404.15 394.695L404.813 393.369L403.487 403.978C403.487 403.978 402.825 406.63 402.162 406.63L404.15 394.695Z" fill="#3C1F1F"/>
<path d="M348.006 388.383L348.821 389.225L349.152 385.412L348.489 386.075L347.827 386.738L347.164 388.064L348.006 388.383Z" fill="#3C1F1F"/>
<path d="M362.074 374.26L365.387 370.288V380.731V382.68L362.074 381.653L361.418 377.887L362.074 374.26Z" fill="#3C1F1F"/>
<path d="M367.705 369.281V378.451L368.368 383.424L372.337 384.504L373.006 366.848L367.705 369.281Z" fill="#3C1F1F"/>
<path d="M374.723 366.848V381.653V385.075L379.56 385.526L380.812 366.848H374.723Z" fill="#3C1F1F"/>
<path d="M382.621 367.418L381.998 382.244V385.526L386.424 385.168L387.776 380.168L388.71 367.418H382.621Z" fill="#3C1F1F"/>
<path d="M390.942 369.327L390.147 380.731L388.318 385.074L393.454 383.868L395.17 377.204V374.804L390.942 369.327Z" fill="#3C1F1F"/>
<path d="M352.134 380.731L350.809 384.504V389.722L352.134 390.942V380.731Z" fill="#3C1F1F"/>
<path d="M354.346 381.309L354.121 392.229L355.446 393.316L355.778 381.435L354.346 381.309Z" fill="#3C1F1F"/>
<path d="M357.435 382.131L357.217 393.979C357.217 393.979 358.761 395.882 360.252 396.612L360.51 383.861C360.51 383.861 357.767 382.827 357.435 382.131Z" fill="#3C1F1F"/>
<path d="M362.072 384.192L362.404 397.347C362.404 397.347 363.729 398.468 365.385 398.574L366.167 385.525C366.167 385.525 363.066 384.962 362.072 384.192Z" fill="#3C1F1F"/>
<path d="M367.944 386.089L367.699 399.383C367.699 399.383 369.687 400.934 371.675 400.139L372.742 387.316C372.742 387.316 370.177 387.435 367.944 386.096V386.089Z" fill="#3C1F1F"/>
<path d="M374.723 387.309L373.875 400.662C373.875 400.662 377.208 401.325 378.089 400.662L379.56 387.673C379.56 387.673 375.783 387.879 374.73 387.309H374.723Z" fill="#3C1F1F"/>
<path d="M396.119 385.167C396.119 385.167 398.378 385.89 398.61 387.309L397.364 397.851C397.364 397.851 394.866 398.673 393.541 398.673L394.899 385.167H396.119Z" fill="#3C1F1F"/>
<path d="M387.775 387.004L386.562 400.364C386.562 400.364 390.346 399.754 391.28 398.886L392.93 385.837C392.93 385.837 388.63 387.269 387.775 387.004Z" fill="#3C1F1F"/>
<path d="M381.176 387.773L379.811 400.954C379.811 400.954 383.601 401.325 384.263 400.662L385.92 387.309C385.92 387.309 384.051 388.144 381.176 387.773Z" fill="#3C1F1F"/>
<path d="M400.69 389.371L399.656 396.744C399.656 396.744 401.492 396.903 402.817 394.47V391.917L400.69 389.371Z" fill="#3C1F1F"/>
<path d="M409.45 167.934C409.45 167.934 379.633 168.597 379.633 179.206C379.633 189.815 405.475 193.793 405.475 193.793C405.475 193.793 441.256 196.445 437.943 181.858C434.63 167.271 409.45 167.934 409.45 167.934Z" stroke="#3C1F1F" stroke-miterlimit="10"/>
<path d="M380.195 176.799C380.195 176.799 365.048 222.967 365.711 242.195C366.261 258.221 375.1 271.939 384.549 279.14C388.816 282.388 392.155 286.705 394.448 291.558C395.594 293.985 396.191 296.637 396.191 299.316V312.517L393.448 347.459" stroke="#3C1F1F" stroke-miterlimit="10"/>
<path d="M437.943 181.858C437.943 181.858 446.888 232.581 442.912 249.82C438.936 267.059 429.66 275.679 419.058 282.309C408.456 288.94 405.806 295.57 405.143 299.549C404.481 303.527 403.884 315.243 403.884 315.243L401.307 346.273" stroke="#3C1F1F" stroke-miterlimit="10"/>
<path d="M368.037 247.168C368.037 247.168 374.935 279.67 401.3 282.979C427.666 286.287 439.001 255.5 439.001 255.5C439.107 254.585 405.243 276.965 368.037 248.494L368.037 247.168Z" fill="#3C1F1F"/>
<path d="M368.485 247.46C367.445 246.638 366.882 245.359 367.021 244.039C367.551 239.126 372.381 228.033 405.492 229.068C447.899 230.394 445.249 250.285 435.972 254.263C426.855 258.175 395.964 269.135 368.479 247.46H368.485Z" fill="#3C1F1F"/>
<path d="M394.177 338.244C394.177 338.244 360.907 334.982 358.84 356.358C356.772 377.735 402.493 379.777 402.493 379.777C402.493 379.777 424.359 378.451 428.997 365.853C433.635 353.255 419.542 345.312 415.659 343.979" stroke="#3C1F1F" stroke-miterlimit="10"/>
<path d="M393.455 350.476C393.455 350.476 390.831 356.809 388.71 356.358C386.59 355.907 398.186 364.745 404.481 357.233C404.481 357.233 400.71 354.932 401.168 349.276" stroke="#3C1F1F" stroke-miterlimit="10"/>
<path d="M277.258 359.221C267.982 359.221 236.176 361.873 234.189 385.08C234.189 385.08 157.325 425.526 150.037 430.83C142.748 436.134 158.651 437.46 158.651 437.46C158.651 437.46 235.514 391.047 237.502 391.047C239.489 391.047 265.331 401.656 279.246 379.113C293.161 356.569 277.258 359.221 277.258 359.221Z" stroke="#3C1F1F" stroke-miterlimit="10"/>
<path d="M188.469 328.058C188.469 328.058 195.095 328.058 196.42 324.743C196.42 324.743 189.794 322.754 188.469 328.058Z" stroke="#3C1F1F" stroke-miterlimit="10"/>
<path d="M286.535 334.689C273.628 331.613 262.019 340.656 262.019 340.656C262.019 340.656 254.067 349.276 271.958 347.95C289.848 346.624 300.45 338.004 286.535 334.689Z" stroke="#3C1F1F" stroke-miterlimit="10"/>
<path d="M289.848 329.385C281.234 325.407 259.368 336.015 259.368 336.015C259.368 336.015 244.128 348.613 262.018 351.265C277.669 353.586 304.485 345.245 299.847 336.904C299.184 335.71 297.879 334.523 295.812 333.363L289.848 329.385Z" stroke="#3C1F1F" stroke-miterlimit="10"/>
<path d="M299.847 336.904C299.847 336.904 319.666 332.037 311.052 352.592C311.052 352.592 299.774 372.364 284.541 367.782" stroke="#3C1F1F" stroke-miterlimit="10"/>
<path d="M276.846 350.94C276.846 350.94 273.944 357.896 277.257 359.222" stroke="#3C1F1F" stroke-miterlimit="10"/>
<path d="M298.879 342.201C298.879 342.201 314.61 337.354 307.526 350.94C300.443 364.525 289.331 366.196 284.951 363.372" stroke="#3C1F1F" stroke-miterlimit="10"/>
<path d="M280.061 359.129C280.061 359.129 277.026 354.209 281.446 350.085" stroke="#3C1F1F" stroke-miterlimit="10"/>
<path d="M142.476 341.067C142.476 341.067 142.231 346.896 146.133 348.089C146.133 348.089 147.531 353.964 152.428 354.607C152.428 354.607 151.361 362.537 167.264 360.548C167.264 360.548 154.8 344.8 142.482 341.067H142.476Z" fill="#3C1F1F" stroke="#3C1F1F" stroke-miterlimit="10"/>
<path d="M149.373 340.656L150.036 343.308C150.036 343.308 164.613 351.928 165.938 357.232C167.264 362.537 165.276 346.624 165.276 346.624C165.276 346.624 157.47 348.115 155.741 341.067L149.373 340.656Z" fill="#3C1F1F"/>
<path d="M156.967 340.657C156.967 340.657 157.57 346.578 166.396 345.278C166.396 345.278 178.336 349.939 182.736 340.657C182.736 340.657 190.237 341.631 190.343 346.445C190.343 346.445 194.431 334.689 178.528 334.689C178.528 334.689 167.926 324.744 161.963 338.668C161.963 338.668 159.259 338.005 156.967 340.657Z" stroke="#3C1F1F" stroke-miterlimit="10"/>
<path d="M166.389 346.445C166.389 346.445 174.545 359.222 187.798 343.972C187.798 343.972 187.135 341.982 183.822 341.982C183.822 341.982 175.46 352.24 166.389 346.445Z" fill="#3C1F1F"/>
<path d="M178.529 351.928C178.529 351.928 176.541 352.591 175.216 352.591C173.89 352.591 171.24 361.556 176.872 360.389C182.504 359.222 191.118 353.254 193.769 345.961H191.781C191.781 345.961 184.81 357.412 176.7 358.313C176.7 358.313 173.89 355.907 178.529 351.928Z" stroke="#3C1F1F" stroke-miterlimit="10"/>
<path d="M179.166 353.228C179.166 353.228 178.523 355.906 180.511 355.906C180.511 355.906 185.149 353.254 189.125 347.95C189.125 347.95 190.45 345.298 188.462 344.635C188.462 344.635 185.765 350.324 180.484 351.457C180.484 351.457 179.139 352.538 179.159 353.228H179.166Z" fill="#3C1F1F"/>
<path d="M184.557 358.313C184.557 358.313 197.127 358.558 197.763 350.27C197.763 350.27 201.05 348.613 201.05 347.287C201.05 347.287 205.827 348.613 208.405 345.961C210.982 343.308 198.399 343.308 198.399 343.308C198.399 343.308 196.935 338.833 192.032 341.067L191.946 344.635H195.272L204.363 345.298C204.363 345.298 198.982 345.298 195.047 345.961C195.047 345.961 191.25 356.085 184.551 358.313H184.557Z" fill="#3C1F1F"/>
<path d="M202.051 412.597L216.536 405.005C216.536 405.005 265.854 408.287 292.922 389.224C319.99 370.162 316.783 347.618 314.742 344.635C314.742 344.635 316.677 338.336 310.051 335.684C310.051 335.684 286.859 302.531 223.248 305.847C223.248 305.847 194.961 308.737 189.554 312.265L184.5 314L180.172 315.792C180.172 315.792 149.347 331.871 147.2 341.067L141.078 338.999C141.078 338.999 141.078 347.618 143.728 348.281C143.728 348.281 136.022 379.451 166.383 391.386C166.383 391.386 186.135 401.988 198.062 402.651L183.584 410.74C183.584 410.74 99.0017 393.481 127.328 336.406C127.328 336.406 157.643 290.603 232.518 293.255C307.394 295.908 321.183 319.983 329.2 328.496C337.218 337.01 355.764 383.429 270.95 408.625C270.95 408.625 233.181 419.234 202.038 412.603L202.051 412.597Z" fill="#3C1F1F"/>
<path d="M201.389 349.382C201.389 349.382 200.925 361.8 189.561 360.017C189.561 360.017 184.824 359.559 190.125 367.516C195.426 375.472 193.438 376.798 206.027 376.798C218.617 376.798 221.287 358.233 215.649 355.913C215.649 355.913 216.656 351.145 215.649 349.388C214.641 347.631 223.255 346.962 221.268 344.309C219.28 341.657 217.954 340.331 217.292 340.331C216.629 340.331 219.942 337.016 219.942 337.016C219.942 337.016 223.328 338.7 225.608 338.853C227.887 339.005 226.568 333.701 222.593 332.375C218.617 331.048 211.328 337.679 211.328 337.679L206.027 342.983C206.027 342.983 212.163 345.37 208.764 347.16C205.365 348.951 202.052 348.951 202.052 348.951L201.389 349.388V349.382Z" stroke="#3C1F1F" stroke-miterlimit="10"/>
<path d="M244.67 386.088C244.67 386.088 260.043 396.352 280.246 366.847" stroke="#3C1F1F" stroke-miterlimit="10"/>
<path d="M206.067 94.668C206.067 94.668 221.592 149.701 212.978 162.961C204.364 176.222 201.051 182.19 189.124 189.483C189.124 189.483 183.823 197.44 183.823 205.396C183.823 213.353 183.161 244.516 185.811 248.494C188.462 252.472 190.45 254.461 190.45 254.461C190.45 254.461 182.969 266.396 172.798 254.461C172.798 254.461 179.185 250.483 178.523 239.874C177.86 229.266 177.197 204.733 177.197 204.733C177.197 204.733 175.209 190.146 165.27 184.842C155.331 179.537 144.067 163.624 145.392 150.364C146.717 137.103 153.357 95.6824 153.357 95.6824" stroke="#3C1F1F" stroke-miterlimit="10"/>
<path d="M178.528 239.874C178.528 239.874 150.699 243.852 150.036 257.776C149.373 271.7 175.215 272.363 175.215 272.363C175.215 272.363 222.261 273.689 210.996 249.157C210.996 249.157 202.628 240.537 184.286 239.874" stroke="#3C1F1F" stroke-miterlimit="10"/>
<path d="M168.543 187.136C168.543 187.136 177.866 195.45 189.13 189.483" stroke="#3C1F1F" stroke-miterlimit="10"/>
<path d="M148.049 143.07C148.049 143.07 144.073 161.636 157.988 176.222C165.834 184.444 172.864 187.58 177.509 188.747C180.789 189.576 184.221 189.185 187.143 187.494C193.107 184.04 204.55 175.772 211.541 160.966C212.528 158.871 213.151 156.616 213.35 154.309C213.615 151.246 213.794 146.83 212.985 144.396C213.396 143.548 180.696 168.498 148.049 143.07Z" fill="#3C1F1F"/>
<path d="M158.651 148.374C158.651 148.374 133.472 138.429 159.314 131.135C190.41 122.357 211.66 137.103 211.66 137.103C211.66 137.103 221.6 143.733 193.107 151.69C193.107 151.69 175.217 156.994 158.651 148.374Z" fill="#3C1F1F"/>
<path d="M179.523 85.7168C179.523 85.7168 221.267 89.6951 200.064 100.967C178.86 112.239 154.343 99.6407 154.343 99.6407C154.343 99.6407 145.729 89.032 179.523 85.7168Z" stroke="#3C1F1F" stroke-miterlimit="10"/>
<path d="M124.698 178.39C124.698 178.39 143.874 242.705 133.239 258.207C122.604 273.702 121.034 279.093 106.304 287.613C106.304 287.613 99.0151 297.545 99.0151 306.841C99.0151 316.137 100.38 353.91 103.653 358.558C106.927 363.206 109.617 363.863 109.617 363.863C109.617 363.863 98.9885 377.15 86.4254 363.2C86.4254 363.2 94.5292 360.349 93.7141 347.95C92.8991 335.551 93.0515 305.515 93.0515 305.515C93.0515 305.515 93.3961 293.149 81.1245 286.95C68.8529 280.75 48.1462 258.983 49.7829 243.481C51.4195 227.985 59.6161 179.583 59.6161 179.583" stroke="#3C1F1F" stroke-miterlimit="10"/>
<path d="M93.7132 341.982C93.7132 341.982 62.0602 348.918 61.2452 365.189C60.4301 381.46 99.0141 383.091 99.0141 383.091C99.0141 383.091 146.716 379.935 132.807 351.265C132.807 351.265 123.657 342.758 101.002 341.982" stroke="#3C1F1F" stroke-miterlimit="10"/>
<path d="M81.125 286.95C81.125 286.95 89.8715 296.173 103.786 289.205" stroke="#3C1F1F" stroke-miterlimit="10"/>
<path d="M51 244.5C51 244.5 50.9779 260.125 67.1979 274.363C76.3369 282.388 84.5376 285.45 89.9547 286.591C93.7766 287.4 97.78 287.017 101.189 285.367C108.139 281.995 120.349 276.954 128.5 262.5C129.651 260.457 133.269 255.254 133.5 253C133.807 250.01 135.727 246.876 134.783 244.5C135.258 243.669 88.5 269.5 52 238.5L51 244.5Z" fill="#3C1F1F"/>
<path d="M67.5793 245.409C67.5793 245.409 36.4895 233.786 68.3944 225.259C106.793 215.002 133.032 232.234 133.032 232.234C133.032 232.234 145.304 239.985 110.126 249.281C110.126 249.281 88.0342 255.481 67.5793 245.409Z" fill="#3C1F1F"/>
<path d="M91.9194 167.934C91.9194 167.934 143.464 172.582 117.284 185.756C91.1044 198.931 60.8296 184.205 60.8296 184.205C60.8296 184.205 50.1947 171.806 91.9194 167.934Z" stroke="#3C1F1F" stroke-miterlimit="10"/>
<path d="M173.674 39.0906C169.636 46.1004 171.245 51.7579 172.216 56.6463C172.734 59.2669 173.954 58.0604 175.045 56.1952C176.483 53.7353 177.323 48.8685 177.252 46.0247C177.123 40.7935 176.332 34.477 173.674 39.0906Z" stroke="#3C1F1F" stroke-miterlimit="10"/>
<path d="M169.869 46.6351C169.869 46.6351 168.739 66.3064 176.074 57.3947C176.074 57.3947 178.614 53.1627 178.871 47.965C179.053 44.2226 178.674 37.603 176.383 36.0215C175.489 35.4034 174.309 35.5557 172.758 36.9336C172.758 36.9336 170.419 40.9949 169.875 46.6333L169.869 46.6351Z" stroke="#3C1F1F" stroke-miterlimit="10"/>
<path d="M176.377 36.0231C176.377 36.0231 178.204 34.2206 178.847 35.3594C179.489 36.4982 182.151 41.2753 180.204 49.3506" stroke="#3C1F1F" stroke-miterlimit="10"/>
<path d="M173.43 59.6084C173.43 59.6084 175.511 62.6811 177.18 58.6009" stroke="#3C1F1F" stroke-miterlimit="10"/>
<path d="M179.811 51.4889L178.512 56.74" stroke="#3C1F1F" stroke-miterlimit="10"/>
<path d="M179.497 35.9399C179.497 35.9399 181.621 34.2433 182.009 35.6631C182.397 37.0829 183.695 41.3755 183.06 44.3747" stroke="#3C1F1F" stroke-miterlimit="10"/>
<path d="M182.163 51.7081L182.888 46.5698" stroke="#3C1F1F" stroke-miterlimit="10"/>
<path d="M182.029 53.6659C182.029 53.6659 181.048 58.6461 179.217 60.463C178.383 61.2913 177.373 61.4664 176.202 60.2226" stroke="#3C1F1F" stroke-miterlimit="10"/>
<path d="M182.895 58.6788C182.895 58.6788 181.457 63.1571 179.217 60.4635" stroke="#3C1F1F" stroke-miterlimit="10"/>
<path d="M181.448 61.0243C181.448 61.0243 184.076 63.7579 186.114 58.576" stroke="#3C1F1F" stroke-miterlimit="10"/>
<path d="M184.118 61.4403C184.118 61.4403 186.104 63.0624 187.407 60.5566C188.709 58.0508 189.431 53.0509 189.431 53.0509" stroke="#3C1F1F" stroke-miterlimit="10"/>
<path d="M182.008 35.6638C182.008 35.6638 183.995 33.9905 184.941 36.1597C185.119 36.5651 185.257 37.1047 185.338 37.8174C185.865 42.3308 185.617 46.5167 185.617 46.5167" stroke="#3C1F1F" stroke-miterlimit="10"/>
<path d="M188.083 40.3688C188.083 40.3688 188.25 32.971 184.942 36.1597" stroke="#3C1F1F" stroke-miterlimit="10"/>
<path d="M190.945 42.2628C190.945 42.2628 191.445 33.4503 187.497 36.1452" stroke="#3C1F1F" stroke-miterlimit="10"/>
<path d="M188.072 43.0354C188.072 43.0354 189.426 51.5487 186.77 56.4502" stroke="#3C1F1F" stroke-miterlimit="10"/>
<path d="M191.054 44.3764C191.054 44.3764 191.353 47.7358 190.33 51.4366" stroke="#3C1F1F" stroke-miterlimit="10"/>
<path d="M230.774 38.359L224.67 37.7813C224.581 37.8054 224.491 37.8021 224.418 37.7873C224.351 37.7917 224.287 37.8089 224.229 37.797C224.115 37.8071 224.004 37.8025 223.886 37.7998C223.746 37.7893 223.603 37.7934 223.46 37.7975C223.213 37.7954 222.972 37.8188 222.724 37.7894L222.727 37.8022L210.122 36.8499L210.134 36.8948L189.928 36.2062C191.003 36.3017 192.611 38.3277 193.168 40.1209C194.081 43.0338 194.234 46.1303 193.753 49.1429C193.141 52.9668 191.25 58.2877 190.038 60.2885C188.988 62.026 187.65 61.7678 187.01 61.9397L191.365 62.8291L209.084 64.9343L201.184 63.6238L203.744 62.9361L203.228 61.0151L216.419 61.5905L216.763 62.8712L215.015 64.0273L215.187 64.6676L209.084 64.9343L215.359 65.308L221.462 65.0413L222.102 64.8694L221.93 64.229L223.21 63.8852L222.694 61.9642L225.254 61.2765L223.63 60.3396L225.033 57.9029L228.405 57.6836L227.641 59.9484L225.722 60.4642L227.173 60.7607L226.41 63.0255L224.49 63.5413L226.114 64.4781L220.417 64.979L228.55 65.8834C237.192 54.6362 230.768 38.3607 230.768 38.3607L230.774 38.359ZM218.99 43.7356L216.425 43.7383C221.469 47.1891 218.85 46.9659 218.85 46.9659C218.85 46.9659 211.65 46.3944 207.294 45.505C202.939 44.6155 207.886 42.5998 207.886 42.5998C207.886 42.5998 209.166 42.2559 206.262 41.663C203.358 41.07 204.466 40.0858 204.466 40.0858C210.397 39.1788 204.418 37.3525 204.418 37.3525L210.285 37.4856L216.969 38.0999C217.953 39.2086 216.033 39.7244 216.033 39.7244L218.222 39.5481L218.99 43.7356ZM227.654 42.0945L226.374 42.4384L227.826 42.7348L229.031 47.2172L227.579 46.9207L227.627 49.654L228.684 49.5552L228.385 50.5077L229.07 52.0124L225.122 53.0732L224.31 52.6048L226.241 51.0837L224.606 51.1522L224.434 50.5119L226.353 49.9961L224.74 49.4065L224.385 47.7786L227.289 48.3716L226.945 47.0909L225.493 46.7944L224.977 44.8734L227.881 45.4664L227.537 44.1857L225.445 44.0612L224.929 42.1402L223.396 38.5561L226.714 38.5709L227.659 42.0864L227.654 42.0945Z" fill="#3C1F1F"/>
<path d="M374.743 97.4099C388.318 97.4495 401.385 100.118 415.215 100.521C419.399 100.77 422.771 100.551 426.782 100.16C433.821 98.2687 442.188 98.7669 448.367 93.674C462.473 82.3321 460.635 60.1695 452.495 45.1927M452.495 45.1927C447.916 48.0706 454.649 48.692 452.495 45.1927ZM452.495 45.1927C447.309 48.6183 441.144 50.2402 435.004 50.7777" stroke="#3C1F1F" stroke-miterlimit="10"/>
<path d="M367.107 97.0312C368.161 97.0709 369.223 97.1152 370.278 97.1612" stroke="#3C1F1F" stroke-miterlimit="10"/>
<path d="M370.545 96.3899C367.583 97.1377 364.972 94.7979 364.752 91.4243C365.467 86.4262 366.822 81.2561 370.442 76.8509C377.976 66.588 389.866 57.2145 384.801 43.471C381.629 36.7712 375.897 30.7591 368.638 29.2767C337.164 21.9418 306.448 30.1943 274.872 35.2452C272.952 35.7609 268.239 37.3706 266.319 37.8863C253.988 40.5126 248.618 39.7035 235.802 39.2197C235.802 39.2197 231.555 39.0907 229.527 38.8461C232.033 47.3587 234.476 58.4425 228.557 65.8822C238.064 67.2758 247.289 69.6923 256.709 71.4251C266.128 73.158 274.645 76.7673 283.288 80.0543C291.931 83.3413 301.006 87.1372 310.148 89.7272C318.42 92.0702 326.921 93.2946 335.485 93.9116C340.382 94.2642 345.321 94.0563 350.102 95.2777C354.883 96.4991 360.35 97.1586 365.254 96.9192" stroke="#3C1F1F" stroke-miterlimit="10"/>
<path d="M614.115 81.0683C592.963 80.2289 573.401 73.8133 552.558 67.7416C550.295 66.9767 548.375 67.4925 546.111 66.7276C543.035 65.4943 540.131 64.9013 537.056 63.668C534.792 62.9031 532.872 63.4189 530.608 62.654C504.426 54.5841 479.744 49.5439 453.782 44.8476C449.599 44.5985 445.415 44.3494 441.748 46.0213C437.908 47.0529 435.569 51.1142 432.073 53.4264C422.695 59.3789 411.3 60.3807 400.938 65.2244C399.83 66.2086 398.722 67.1928 396.974 68.3489L395.571 70.7857C394.463 71.7699 392.715 72.926 391.779 74.5506C385.821 83.017 377.461 96.5913 370.717 97.0299" stroke="#3C1F1F" stroke-miterlimit="10"/>
<path d="M352.949 27.0654C352.949 27.0654 365.08 32.6353 363.106 48.27L385.533 49.8721C385.533 49.8721 386.886 26.969 352.949 27.0654Z" fill="#3C1F1F" stroke="#3C1F1F" stroke-miterlimit="10"/>
<path d="M367.09 96.9676L370.265 97.1651C370.825 96.8498 371.33 96.4052 371.803 95.9692C371.006 96.2452 370.342 96.4304 369.886 96.546C368.449 96.9183 366.739 94.7141 365.951 93.5456C365.895 94.8928 366.159 96.2086 367.095 96.9595L367.09 96.9676Z" fill="#3C1F1F" stroke="#3C1F1F" stroke-miterlimit="10"/>
<path d="M364.174 94.4619L362.331 96.6667L365.221 96.8514C364.742 96.1424 364.424 95.3148 364.174 94.4619Z" fill="#3C1F1F" stroke="#3C1F1F" stroke-miterlimit="10"/>
<path d="M383.121 89.0564C381.973 90.6074 380.89 92.1685 379.41 93.4519C378.569 94.1789 377.678 94.8441 376.75 95.4505C375.828 96.0551 374.879 96.6875 373.876 97.1424C373.788 97.2211 373.707 97.3045 373.617 97.3769L424.375 100.567C430.347 97.6926 432.041 92.9123 432.041 92.9123L383.121 89.0564Z" fill="#3C1F1F" stroke="#3C1F1F" stroke-miterlimit="10"/>
<path d="M430.365 54.2219L443.103 54.9258L441.685 49.6494C441.685 49.6494 439.842 51.3942 435.004 50.7785L430.365 54.2219Z" fill="#3C1F1F" stroke="#3C1F1F" stroke-miterlimit="10"/>
<path d="M333.072 26.5281C333.072 26.5281 342.951 12.8342 358.701 12.7219C370.35 12.6405 383.256 8.83661 389.183 6.86659C391.451 6.11319 393.85 5.9011 396.219 6.23958L427.462 10.7253C427.462 10.7253 444.712 13.6427 453.843 11.8761C462.974 10.1094 536.618 9.27942 536.618 9.27942C536.618 9.27942 579.653 0.0445048 588.661 0.370792" stroke="#3C1F1F" stroke-miterlimit="10"/>
<path d="M380.641 9.39551C380.641 9.39551 384.456 10.2654 391.027 9.18643C397.598 8.1075 403.406 9.29342 403.406 9.29342" stroke="#3C1F1F" stroke-miterlimit="10"/>
<path d="M385.533 49.8714C385.533 49.8714 391.138 42.7974 390.278 39.5957" stroke="#3C1F1F" stroke-miterlimit="10"/>
<path d="M385.441 46.9031C385.441 46.9031 388.168 43.0811 385.877 33.9954" stroke="#3C1F1F" stroke-miterlimit="10"/>
<path d="M379.168 12.2148C379.168 12.2148 386.472 15.2163 390.779 13.3725" stroke="#3C1F1F" stroke-miterlimit="10"/>
<path d="M464.99 46.9854C464.99 46.9854 495.836 43.3528 518.864 51.6592" stroke="#3C1F1F" stroke-miterlimit="10"/>
<path d="M370.009 84.1756C370.009 84.1756 376.911 79.8357 377.86 87.0164C377.956 87.732 377.147 89.6245 376.787 90.2499L374.066 95.0384C374.066 95.0384 365.543 103.075 365.515 92.8595C365.515 92.8595 367.325 86.9562 370.009 84.1756Z" fill="#3C1F1F"/>
<path d="M330.93 261.092C330.93 261.092 328.657 264.387 325.152 264.062C321.647 263.737 339.087 267.258 336.662 270.142C334.237 273.027 320.481 276.355 326.033 278.006C329.426 279.014 335.867 278.251 340.366 277.509C343.447 276.998 346.409 275.937 349.112 274.366L356.997 269.791L367.964 268.597C367.964 268.597 379.732 273.252 379.182 276.123C378.632 278.994 371.82 277.688 363.63 278.013C355.44 278.338 348.118 295.437 337.53 292.188C326.941 288.94 301.941 297.148 298.873 287.408C295.805 277.668 299.973 287.196 292.916 286.082C285.859 284.968 272.607 277.668 275.257 273.027C277.908 268.385 290.498 275.679 289.835 270.374C289.172 265.07 277.908 268.385 277.908 266.396C277.908 264.407 298.866 249.343 298.866 249.343C298.866 249.343 289.212 260.163 297.144 258.639C305.075 257.114 317.002 258.44 319.653 255.124C322.303 251.809 330.917 256.45 334.23 254.461C337.543 252.472 340.856 247.539 346.82 249.343C352.783 251.146 354.771 257.114 356.759 259.103C358.747 261.092 356.759 265.733 356.759 265.733C356.759 265.733 354.287 267.702 349.556 264.062C344.825 260.422 343.493 262.126 343.493 262.126C343.493 262.126 342.592 264.387 339.067 264.062C335.542 263.737 330.91 261.092 330.91 261.092H330.93Z" fill="#3C1F1F" stroke="#3C1F1F" stroke-miterlimit="10"/>
<path d="M356.997 269.792L371.409 263.247L369.805 259.919L356.771 265.734" stroke="#3C1F1F" stroke-miterlimit="10"/>
<path d="M321.561 244.848C321.561 244.848 319.003 249.821 323.642 249.821C328.28 249.821 332.077 241.201 321.561 244.848Z" fill="#3C1F1F" stroke="#3C1F1F" stroke-miterlimit="10"/>
<path d="M332.917 247.169C330.021 246.525 329.604 251.81 332.254 251.81C334.905 251.81 338.881 248.495 332.917 247.169Z" fill="#3C1F1F" stroke="#3C1F1F" stroke-miterlimit="10"/>
<path d="M368.957 217.689C368.957 217.689 286.879 200.112 248.938 239.55C248.938 239.55 248.554 240.054 247.984 240.975C242.842 249.277 222.632 291.459 333.262 304.395C333.262 304.395 374.762 305.005 395.587 294.649C395.587 294.649 394.216 288.94 391.4 286.288C391.4 286.288 349.529 308.553 297.163 291.121C244.797 273.69 263.648 246.883 263.648 246.883C263.648 246.883 290.577 211.072 366.751 229.452L368.97 217.689H368.957Z" fill="#3C1F1F" stroke="#3C1F1F" stroke-miterlimit="10"/>
<path d="M248.938 239.55C248.938 239.55 219.366 269.486 270.182 293.137C278.285 296.91 286.548 299.761 294.712 301.896C337.748 313.148 378.095 304.395 378.095 304.395L396.197 299.31" stroke="#3C1F1F" stroke-miterlimit="10"/>
<path d="M294.705 301.902C294.705 301.902 302.988 308.738 324.576 310.111C346.164 311.483 360.867 309.408 364.114 306.471" stroke="#3C1F1F" stroke-miterlimit="10"/>
</g>
<defs>
<clipPath id="clip0_1466_15923">
<rect width="614" height="605" fill="white"/>
</clipPath>
</defs>
</svg>
