<svg width="1712" height="852" viewBox="0 0 1712 852" fill="none" xmlns="http://www.w3.org/2000/svg">
<path d="M522.032 0.5C532.318 0.500061 539.564 2.88912 544.245 7.60938C548.927 12.3304 551.139 19.4781 551.139 29.21V37.0117C551.139 43.4949 550.101 48.7599 547.993 52.8379C545.891 56.904 542.713 59.8161 538.372 61.5859L538.061 61.7129V62.7803L538.413 62.8896C543.263 64.3871 546.471 67.4124 548.481 71.8262C550.504 76.2656 551.32 82.123 551.32 89.2627V111.578C551.32 117.449 551.482 121.926 553.259 126.5H534.018C533.526 125.025 533.124 123.78 532.835 121.78C532.522 119.616 532.34 116.56 532.34 111.397V88.1738C532.34 82.2583 531.481 78.2024 529.365 75.6328C527.225 73.0337 523.903 72.0713 519.308 72.0713H511.905V126.5H492.925V0.5H522.032ZM463.416 0.5L483.96 126.5H465.001L461.43 101.71L460.935 101.745V101.645H437.798L437.735 102.072L434.165 126.5H416.659L437.202 0.5H463.416ZM353.5 0.5L366.154 90.9648L366.215 91.3955H367.448L367.508 90.9648L380.162 0.5H407.744V126.5H389.854V30.3428H388.561L388.496 30.7686L374.03 126.5H358.18L343.713 30.7686L343.648 30.3428H342.355V126.5H325.918V0.5H353.5ZM296.409 0.5L316.952 126.5H297.994L294.423 101.71L293.928 101.745V101.645H270.791L270.729 102.072L267.158 126.5H249.651L270.195 0.5H296.409ZM212.48 0.5V109.357H245.356V126.5H193.5V0.5H212.48ZM281.808 22.0654L273.089 84.8398L273.011 85.4082H292.143L292.062 84.8389L283.161 22.0645L283.101 21.6348H281.868L281.808 22.0654ZM448.814 22.0654L440.097 84.8398L440.018 85.4082H459.149L459.068 84.8389L450.169 22.0645L450.107 21.6348H448.875L448.814 22.0654ZM511.905 54.9287H519.671C523.456 54.9287 526.612 54.0999 528.812 51.8779C531.011 49.6579 532.158 46.145 532.158 41.0029V31.2061C532.158 26.6332 531.384 23.2298 529.624 20.9658C527.841 18.6726 525.125 17.6426 521.487 17.6426H511.905V54.9287Z" stroke="#F4E046"/>
<path d="M908.032 0.5C918.318 0.500061 925.564 2.88912 930.245 7.60938C934.927 12.3304 937.139 19.4781 937.139 29.21V37.0117C937.139 43.4949 936.101 48.7599 933.993 52.8379C931.891 56.904 928.713 59.8161 924.372 61.5859L924.061 61.7129V62.7803L924.413 62.8896C929.263 64.3871 932.471 67.4124 934.481 71.8262C936.504 76.2656 937.32 82.123 937.32 89.2627V111.578C937.32 117.449 937.482 121.926 939.259 126.5H920.018C919.526 125.025 919.124 123.78 918.835 121.78C918.522 119.616 918.34 116.56 918.34 111.397V88.1738C918.34 82.2583 917.481 78.2024 915.365 75.6328C913.225 73.0337 909.903 72.0713 905.308 72.0713H897.905V126.5H878.925V0.5H908.032ZM849.416 0.5L869.96 126.5H851.001L847.43 101.71L846.935 101.745V101.645H823.798L823.735 102.072L820.165 126.5H802.659L823.202 0.5H849.416ZM739.5 0.5L752.154 90.9648L752.215 91.3955H753.448L753.508 90.9648L766.162 0.5H793.744V126.5H775.854V30.3428H774.561L774.496 30.7686L760.03 126.5H744.18L729.713 30.7686L729.648 30.3428H728.355V126.5H711.918V0.5H739.5ZM682.409 0.5L702.952 126.5H683.994L680.423 101.71L679.928 101.745V101.645H656.791L656.729 102.072L653.158 126.5H635.651L656.195 0.5H682.409ZM598.48 0.5V109.357H631.356V126.5H579.5V0.5H598.48ZM667.808 22.0654L659.089 84.8398L659.011 85.4082H678.143L678.062 84.8389L669.161 22.0645L669.101 21.6348H667.868L667.808 22.0654ZM834.814 22.0654L826.097 84.8398L826.018 85.4082H845.149L845.068 84.8389L836.169 22.0645L836.107 21.6348H834.875L834.814 22.0654ZM897.905 54.9287H905.671C909.456 54.9287 912.612 54.0999 914.812 51.8779C917.011 49.6579 918.158 46.145 918.158 41.0029V31.2061C918.158 26.6332 917.384 23.2298 915.624 20.9658C913.841 18.6726 911.125 17.6426 907.487 17.6426H897.905V54.9287Z" stroke="#F4E046"/>
<path d="M1294.03 0.5C1304.32 0.500061 1311.56 2.88912 1316.25 7.60938C1320.93 12.3304 1323.14 19.4781 1323.14 29.21V37.0117C1323.14 43.4949 1322.1 48.7599 1319.99 52.8379C1317.89 56.904 1314.71 59.8161 1310.37 61.5859L1310.06 61.7129V62.7803L1310.41 62.8896C1315.26 64.3871 1318.47 67.4124 1320.48 71.8262C1322.5 76.2656 1323.32 82.123 1323.32 89.2627V111.578C1323.32 117.449 1323.48 121.926 1325.26 126.5H1306.02C1305.53 125.025 1305.12 123.78 1304.83 121.78C1304.52 119.616 1304.34 116.56 1304.34 111.397V88.1738C1304.34 82.2583 1303.48 78.2024 1301.37 75.6328C1299.23 73.0337 1295.9 72.0713 1291.31 72.0713H1283.91V126.5H1264.92V0.5H1294.03ZM1235.42 0.5L1255.96 126.5H1237L1233.43 101.71L1232.93 101.745V101.645H1209.8L1209.74 102.072L1206.17 126.5H1188.66L1209.2 0.5H1235.42ZM1125.5 0.5L1138.15 90.9648L1138.21 91.3955H1139.45L1139.51 90.9648L1152.16 0.5H1179.74V126.5H1161.85V30.3428H1160.56L1160.5 30.7686L1146.03 126.5H1130.18L1115.71 30.7686L1115.65 30.3428H1114.36V126.5H1097.92V0.5H1125.5ZM1068.41 0.5L1088.95 126.5H1069.99L1066.42 101.71L1065.93 101.745V101.645H1042.79L1042.73 102.072L1039.16 126.5H1021.65L1042.2 0.5H1068.41ZM984.48 0.5V109.357H1017.36V126.5H965.5V0.5H984.48ZM1053.81 22.0654L1045.09 84.8398L1045.01 85.4082H1064.14L1064.06 84.8389L1055.16 22.0645L1055.1 21.6348H1053.87L1053.81 22.0654ZM1220.81 22.0654L1212.1 84.8398L1212.02 85.4082H1231.15L1231.07 84.8389L1222.17 22.0645L1222.11 21.6348H1220.88L1220.81 22.0654ZM1283.91 54.9287H1291.67C1295.46 54.9287 1298.61 54.0999 1300.81 51.8779C1303.01 49.6579 1304.16 46.145 1304.16 41.0029V31.2061C1304.16 26.6332 1303.38 23.2298 1301.62 20.9658C1299.84 18.6726 1297.12 17.6426 1293.49 17.6426H1283.91V54.9287Z" stroke="#F4E046"/>
<path d="M1680.03 0.5C1690.32 0.500061 1697.56 2.88912 1702.25 7.60938C1706.93 12.3304 1709.14 19.4781 1709.14 29.21V37.0117C1709.14 43.4949 1708.1 48.7599 1705.99 52.8379C1703.89 56.904 1700.71 59.8161 1696.37 61.5859L1696.06 61.7129V62.7803L1696.41 62.8896C1701.26 64.3871 1704.47 67.4124 1706.48 71.8262C1708.5 76.2656 1709.32 82.123 1709.32 89.2627V111.578C1709.32 117.449 1709.48 121.926 1711.26 126.5H1692.02C1691.53 125.025 1691.12 123.78 1690.83 121.78C1690.52 119.616 1690.34 116.56 1690.34 111.397V88.1738C1690.34 82.2583 1689.48 78.2024 1687.37 75.6328C1685.23 73.0337 1681.9 72.0713 1677.31 72.0713H1669.91V126.5H1650.92V0.5H1680.03ZM1621.42 0.5L1641.96 126.5H1623L1619.43 101.71L1618.93 101.745V101.645H1595.8L1595.74 102.072L1592.17 126.5H1574.66L1595.2 0.5H1621.42ZM1511.5 0.5L1524.15 90.9648L1524.21 91.3955H1525.45L1525.51 90.9648L1538.16 0.5H1565.74V126.5H1547.85V30.3428H1546.56L1546.5 30.7686L1532.03 126.5H1516.18L1501.71 30.7686L1501.65 30.3428H1500.36V126.5H1483.92V0.5H1511.5ZM1454.41 0.5L1474.95 126.5H1455.99L1452.42 101.71L1451.93 101.745V101.645H1428.79L1428.73 102.072L1425.16 126.5H1407.65L1428.2 0.5H1454.41ZM1370.48 0.5V109.357H1403.36V126.5H1351.5V0.5H1370.48ZM1439.81 22.0654L1431.09 84.8398L1431.01 85.4082H1450.14L1450.06 84.8389L1441.16 22.0645L1441.1 21.6348H1439.87L1439.81 22.0654ZM1606.81 22.0654L1598.1 84.8398L1598.02 85.4082H1617.15L1617.07 84.8389L1608.17 22.0645L1608.11 21.6348H1606.88L1606.81 22.0654ZM1669.91 54.9287H1677.67C1681.46 54.9287 1684.61 54.0999 1686.81 51.8779C1689.01 49.6579 1690.16 46.145 1690.16 41.0029V31.2061C1690.16 26.6332 1689.38 23.2298 1687.62 20.9658C1685.84 18.6726 1683.12 17.6426 1679.49 17.6426H1669.91V54.9287Z" stroke="#F4E046"/>
<path d="M329.032 145.5C339.318 145.5 346.564 147.889 351.245 152.609C355.927 157.33 358.139 164.478 358.139 174.21V182.012C358.139 188.495 357.101 193.76 354.993 197.838C352.891 201.904 349.713 204.816 345.372 206.586L345.061 206.713V207.78L345.413 207.89C350.263 209.387 353.471 212.412 355.481 216.826C357.504 221.266 358.32 227.123 358.32 234.263V256.578C358.32 262.449 358.482 266.926 360.259 271.5H341.018C340.526 270.025 340.124 268.78 339.835 266.78C339.522 264.616 339.34 261.56 339.34 256.397V233.174C339.34 227.258 338.481 223.202 336.365 220.633C334.225 218.034 330.903 217.071 326.308 217.071H318.905V271.5H299.925V145.5H329.032ZM270.416 145.5L290.96 271.5H272.001L268.43 246.71L267.935 246.745V246.645H244.798L244.735 247.072L241.165 271.5H223.659L244.202 145.5H270.416ZM160.5 145.5L173.154 235.965L173.215 236.396H174.448L174.508 235.965L187.162 145.5H214.744V271.5H196.854V175.343H195.561L195.496 175.769L181.03 271.5H165.18L150.713 175.769L150.648 175.343H149.355V271.5H132.918V145.5H160.5ZM103.409 145.5L123.952 271.5H104.994L101.423 246.71L100.928 246.745V246.645H77.791L77.7285 247.072L74.1582 271.5H56.6514L77.1953 145.5H103.409ZM19.4805 145.5V254.357H52.3564V271.5H0.5V145.5H19.4805ZM88.8076 167.065L80.0889 229.84L80.0107 230.408H99.1426L99.0615 229.839L90.1611 167.064L90.1006 166.635H88.8682L88.8076 167.065ZM255.814 167.065L247.097 229.84L247.018 230.408H266.149L266.068 229.839L257.169 167.064L257.107 166.635H255.875L255.814 167.065ZM318.905 199.929H326.671C330.456 199.929 333.612 199.1 335.812 196.878C338.011 194.658 339.158 191.145 339.158 186.003V176.206C339.158 171.633 338.384 168.23 336.624 165.966C334.841 163.673 332.125 162.643 328.487 162.643H318.905V199.929Z" stroke="#F4E046"/>
<path d="M715.032 145.5C725.318 145.5 732.564 147.889 737.245 152.609C741.927 157.33 744.139 164.478 744.139 174.21V182.012C744.139 188.495 743.101 193.76 740.993 197.838C738.891 201.904 735.713 204.816 731.372 206.586L731.061 206.713V207.78L731.413 207.89C736.263 209.387 739.471 212.412 741.481 216.826C743.504 221.266 744.32 227.123 744.32 234.263V256.578C744.32 262.449 744.482 266.926 746.259 271.5H727.018C726.526 270.025 726.124 268.78 725.835 266.78C725.522 264.616 725.34 261.56 725.34 256.397V233.174C725.34 227.258 724.481 223.202 722.365 220.633C720.225 218.034 716.903 217.071 712.308 217.071H704.905V271.5H685.925V145.5H715.032ZM656.416 145.5L676.96 271.5H658.001L654.43 246.71L653.935 246.745V246.645H630.798L630.735 247.072L627.165 271.5H609.659L630.202 145.5H656.416ZM546.5 145.5L559.154 235.965L559.215 236.396H560.448L560.508 235.965L573.162 145.5H600.744V271.5H582.854V175.343H581.561L581.496 175.769L567.03 271.5H551.18L536.713 175.769L536.648 175.343H535.355V271.5H518.918V145.5H546.5ZM489.409 145.5L509.952 271.5H490.994L487.423 246.71L486.928 246.745V246.645H463.791L463.729 247.072L460.158 271.5H442.651L463.195 145.5H489.409ZM405.48 145.5V254.357H438.356V271.5H386.5V145.5H405.48ZM474.808 167.065L466.089 229.84L466.011 230.408H485.143L485.062 229.839L476.161 167.064L476.101 166.635H474.868L474.808 167.065ZM641.814 167.065L633.097 229.84L633.018 230.408H652.149L652.068 229.839L643.169 167.064L643.107 166.635H641.875L641.814 167.065ZM704.905 199.929H712.671C716.456 199.929 719.612 199.1 721.812 196.878C724.011 194.658 725.158 191.145 725.158 186.003V176.206C725.158 171.633 724.384 168.23 722.624 165.966C720.841 163.673 718.125 162.643 714.487 162.643H704.905V199.929Z" stroke="#F4E046"/>
<path d="M1101.03 145.5C1111.32 145.5 1118.56 147.889 1123.25 152.609C1127.93 157.33 1130.14 164.478 1130.14 174.21V182.012C1130.14 188.495 1129.1 193.76 1126.99 197.838C1124.89 201.904 1121.71 204.816 1117.37 206.586L1117.06 206.713V207.78L1117.41 207.89C1122.26 209.387 1125.47 212.412 1127.48 216.826C1129.5 221.266 1130.32 227.123 1130.32 234.263V256.578C1130.32 262.449 1130.48 266.926 1132.26 271.5H1113.02C1112.53 270.025 1112.12 268.78 1111.83 266.78C1111.52 264.616 1111.34 261.56 1111.34 256.397V233.174C1111.34 227.258 1110.48 223.202 1108.37 220.633C1106.23 218.034 1102.9 217.071 1098.31 217.071H1090.91V271.5H1071.92V145.5H1101.03ZM1042.42 145.5L1062.96 271.5H1044L1040.43 246.71L1039.93 246.745V246.645H1016.8L1016.74 247.072L1013.17 271.5H995.659L1016.2 145.5H1042.42ZM932.5 145.5L945.154 235.965L945.215 236.396H946.448L946.508 235.965L959.162 145.5H986.744V271.5H968.854V175.343H967.561L967.496 175.769L953.03 271.5H937.18L922.713 175.769L922.648 175.343H921.355V271.5H904.918V145.5H932.5ZM875.409 145.5L895.952 271.5H876.994L873.423 246.71L872.928 246.745V246.645H849.791L849.729 247.072L846.158 271.5H828.651L849.195 145.5H875.409ZM791.48 145.5V254.357H824.356V271.5H772.5V145.5H791.48ZM860.808 167.065L852.089 229.84L852.011 230.408H871.143L871.062 229.839L862.161 167.064L862.101 166.635H860.868L860.808 167.065ZM1027.81 167.065L1019.1 229.84L1019.02 230.408H1038.15L1038.07 229.839L1029.17 167.064L1029.11 166.635H1027.88L1027.81 167.065ZM1090.91 199.929H1098.67C1102.46 199.929 1105.61 199.1 1107.81 196.878C1110.01 194.658 1111.16 191.145 1111.16 186.003V176.206C1111.16 171.633 1110.38 168.23 1108.62 165.966C1106.84 163.673 1104.12 162.643 1100.49 162.643H1090.91V199.929Z" stroke="#F4E046"/>
<path d="M1487.03 145.5C1497.32 145.5 1504.56 147.889 1509.25 152.609C1513.93 157.33 1516.14 164.478 1516.14 174.21V182.012C1516.14 188.495 1515.1 193.76 1512.99 197.838C1510.89 201.904 1507.71 204.816 1503.37 206.586L1503.06 206.713V207.78L1503.41 207.89C1508.26 209.387 1511.47 212.412 1513.48 216.826C1515.5 221.266 1516.32 227.123 1516.32 234.263V256.578C1516.32 262.449 1516.48 266.926 1518.26 271.5H1499.02C1498.53 270.025 1498.12 268.78 1497.83 266.78C1497.52 264.616 1497.34 261.56 1497.34 256.397V233.174C1497.34 227.258 1496.48 223.202 1494.37 220.633C1492.23 218.034 1488.9 217.071 1484.31 217.071H1476.91V271.5H1457.92V145.5H1487.03ZM1428.42 145.5L1448.96 271.5H1430L1426.43 246.71L1425.93 246.745V246.645H1402.8L1402.74 247.072L1399.17 271.5H1381.66L1402.2 145.5H1428.42ZM1318.5 145.5L1331.15 235.965L1331.21 236.396H1332.45L1332.51 235.965L1345.16 145.5H1372.74V271.5H1354.85V175.343H1353.56L1353.5 175.769L1339.03 271.5H1323.18L1308.71 175.769L1308.65 175.343H1307.36V271.5H1290.92V145.5H1318.5ZM1261.41 145.5L1281.95 271.5H1262.99L1259.42 246.71L1258.93 246.745V246.645H1235.79L1235.73 247.072L1232.16 271.5H1214.65L1235.2 145.5H1261.41ZM1177.48 145.5V254.357H1210.36V271.5H1158.5V145.5H1177.48ZM1246.81 167.065L1238.09 229.84L1238.01 230.408H1257.14L1257.06 229.839L1248.16 167.064L1248.1 166.635H1246.87L1246.81 167.065ZM1413.81 167.065L1405.1 229.84L1405.02 230.408H1424.15L1424.07 229.839L1415.17 167.064L1415.11 166.635H1413.88L1413.81 167.065ZM1476.91 199.929H1484.67C1488.46 199.929 1491.61 199.1 1493.81 196.878C1496.01 194.658 1497.16 191.145 1497.16 186.003V176.206C1497.16 171.633 1496.38 168.23 1494.62 165.966C1492.84 163.673 1490.12 162.643 1486.49 162.643H1476.91V199.929Z" stroke="#F4E046"/>
<path d="M522.032 290.5C532.318 290.5 539.564 292.889 544.245 297.609C548.927 302.33 551.139 309.478 551.139 319.21V327.012C551.139 333.495 550.101 338.76 547.993 342.838C545.891 346.904 542.713 349.816 538.372 351.586L538.061 351.713V352.78L538.413 352.89C543.263 354.387 546.471 357.412 548.481 361.826C550.504 366.266 551.32 372.123 551.32 379.263V401.578C551.32 407.449 551.482 411.926 553.259 416.5H534.018C533.526 415.025 533.124 413.78 532.835 411.78C532.522 409.616 532.34 406.56 532.34 401.397V378.174C532.34 372.258 531.481 368.202 529.365 365.633C527.225 363.034 523.903 362.071 519.308 362.071H511.905V416.5H492.925V290.5H522.032ZM463.416 290.5L483.96 416.5H465.001L461.43 391.71L460.935 391.745V391.645H437.798L437.735 392.072L434.165 416.5H416.659L437.202 290.5H463.416ZM353.5 290.5L366.154 380.965L366.215 381.396H367.448L367.508 380.965L380.162 290.5H407.744V416.5H389.854V320.343H388.561L388.496 320.769L374.03 416.5H358.18L343.713 320.769L343.648 320.343H342.355V416.5H325.918V290.5H353.5ZM296.409 290.5L316.952 416.5H297.994L294.423 391.71L293.928 391.745V391.645H270.791L270.729 392.072L267.158 416.5H249.651L270.195 290.5H296.409ZM212.48 290.5V399.357H245.356V416.5H193.5V290.5H212.48ZM281.808 312.065L273.089 374.84L273.011 375.408H292.143L292.062 374.839L283.161 312.064L283.101 311.635H281.868L281.808 312.065ZM448.814 312.065L440.097 374.84L440.018 375.408H459.149L459.068 374.839L450.169 312.064L450.107 311.635H448.875L448.814 312.065ZM511.905 344.929H519.671C523.456 344.929 526.612 344.1 528.812 341.878C531.011 339.658 532.158 336.145 532.158 331.003V321.206C532.158 316.633 531.384 313.23 529.624 310.966C527.841 308.673 525.125 307.643 521.487 307.643H511.905V344.929Z" stroke="#F4E046"/>
<path d="M908.032 290.5C918.318 290.5 925.564 292.889 930.245 297.609C934.927 302.33 937.139 309.478 937.139 319.21V327.012C937.139 333.495 936.101 338.76 933.993 342.838C931.891 346.904 928.713 349.816 924.372 351.586L924.061 351.713V352.78L924.413 352.89C929.263 354.387 932.471 357.412 934.481 361.826C936.504 366.266 937.32 372.123 937.32 379.263V401.578C937.32 407.449 937.482 411.926 939.259 416.5H920.018C919.526 415.025 919.124 413.78 918.835 411.78C918.522 409.616 918.34 406.56 918.34 401.397V378.174C918.34 372.258 917.481 368.202 915.365 365.633C913.225 363.034 909.903 362.071 905.308 362.071H897.905V416.5H878.925V290.5H908.032ZM849.416 290.5L869.96 416.5H851.001L847.43 391.71L846.935 391.745V391.645H823.798L823.735 392.072L820.165 416.5H802.659L823.202 290.5H849.416ZM739.5 290.5L752.154 380.965L752.215 381.396H753.448L753.508 380.965L766.162 290.5H793.744V416.5H775.854V320.343H774.561L774.496 320.769L760.03 416.5H744.18L729.713 320.769L729.648 320.343H728.355V416.5H711.918V290.5H739.5ZM682.409 290.5L702.952 416.5H683.994L680.423 391.71L679.928 391.745V391.645H656.791L656.729 392.072L653.158 416.5H635.651L656.195 290.5H682.409ZM598.48 290.5V399.357H631.356V416.5H579.5V290.5H598.48ZM667.808 312.065L659.089 374.84L659.011 375.408H678.143L678.062 374.839L669.161 312.064L669.101 311.635H667.868L667.808 312.065ZM834.814 312.065L826.097 374.84L826.018 375.408H845.149L845.068 374.839L836.169 312.064L836.107 311.635H834.875L834.814 312.065ZM897.905 344.929H905.671C909.456 344.929 912.612 344.1 914.812 341.878C917.011 339.658 918.158 336.145 918.158 331.003V321.206C918.158 316.633 917.384 313.23 915.624 310.966C913.841 308.673 911.125 307.643 907.487 307.643H897.905V344.929Z" stroke="#F4E046"/>
<path d="M1294.03 290.5C1304.32 290.5 1311.56 292.889 1316.25 297.609C1320.93 302.33 1323.14 309.478 1323.14 319.21V327.012C1323.14 333.495 1322.1 338.76 1319.99 342.838C1317.89 346.904 1314.71 349.816 1310.37 351.586L1310.06 351.713V352.78L1310.41 352.89C1315.26 354.387 1318.47 357.412 1320.48 361.826C1322.5 366.266 1323.32 372.123 1323.32 379.263V401.578C1323.32 407.449 1323.48 411.926 1325.26 416.5H1306.02C1305.53 415.025 1305.12 413.78 1304.83 411.78C1304.52 409.616 1304.34 406.56 1304.34 401.397V378.174C1304.34 372.258 1303.48 368.202 1301.37 365.633C1299.23 363.034 1295.9 362.071 1291.31 362.071H1283.91V416.5H1264.92V290.5H1294.03ZM1235.42 290.5L1255.96 416.5H1237L1233.43 391.71L1232.93 391.745V391.645H1209.8L1209.74 392.072L1206.17 416.5H1188.66L1209.2 290.5H1235.42ZM1125.5 290.5L1138.15 380.965L1138.21 381.396H1139.45L1139.51 380.965L1152.16 290.5H1179.74V416.5H1161.85V320.343H1160.56L1160.5 320.769L1146.03 416.5H1130.18L1115.71 320.769L1115.65 320.343H1114.36V416.5H1097.92V290.5H1125.5ZM1068.41 290.5L1088.95 416.5H1069.99L1066.42 391.71L1065.93 391.745V391.645H1042.79L1042.73 392.072L1039.16 416.5H1021.65L1042.2 290.5H1068.41ZM984.48 290.5V399.357H1017.36V416.5H965.5V290.5H984.48ZM1053.81 312.065L1045.09 374.84L1045.01 375.408H1064.14L1064.06 374.839L1055.16 312.064L1055.1 311.635H1053.87L1053.81 312.065ZM1220.81 312.065L1212.1 374.84L1212.02 375.408H1231.15L1231.07 374.839L1222.17 312.064L1222.11 311.635H1220.88L1220.81 312.065ZM1283.91 344.929H1291.67C1295.46 344.929 1298.61 344.1 1300.81 341.878C1303.01 339.658 1304.16 336.145 1304.16 331.003V321.206C1304.16 316.633 1303.38 313.23 1301.62 310.966C1299.84 308.673 1297.12 307.643 1293.49 307.643H1283.91V344.929Z" stroke="#F4E046"/>
<path d="M1680.03 290.5C1690.32 290.5 1697.56 292.889 1702.25 297.609C1706.93 302.33 1709.14 309.478 1709.14 319.21V327.012C1709.14 333.495 1708.1 338.76 1705.99 342.838C1703.89 346.904 1700.71 349.816 1696.37 351.586L1696.06 351.713V352.78L1696.41 352.89C1701.26 354.387 1704.47 357.412 1706.48 361.826C1708.5 366.266 1709.32 372.123 1709.32 379.263V401.578C1709.32 407.449 1709.48 411.926 1711.26 416.5H1692.02C1691.53 415.025 1691.12 413.78 1690.83 411.78C1690.52 409.616 1690.34 406.56 1690.34 401.397V378.174C1690.34 372.258 1689.48 368.202 1687.37 365.633C1685.23 363.034 1681.9 362.071 1677.31 362.071H1669.91V416.5H1650.92V290.5H1680.03ZM1621.42 290.5L1641.96 416.5H1623L1619.43 391.71L1618.93 391.745V391.645H1595.8L1595.74 392.072L1592.17 416.5H1574.66L1595.2 290.5H1621.42ZM1511.5 290.5L1524.15 380.965L1524.21 381.396H1525.45L1525.51 380.965L1538.16 290.5H1565.74V416.5H1547.85V320.343H1546.56L1546.5 320.769L1532.03 416.5H1516.18L1501.71 320.769L1501.65 320.343H1500.36V416.5H1483.92V290.5H1511.5ZM1454.41 290.5L1474.95 416.5H1455.99L1452.42 391.71L1451.93 391.745V391.645H1428.79L1428.73 392.072L1425.16 416.5H1407.65L1428.2 290.5H1454.41ZM1370.48 290.5V399.357H1403.36V416.5H1351.5V290.5H1370.48ZM1439.81 312.065L1431.09 374.84L1431.01 375.408H1450.14L1450.06 374.839L1441.16 312.064L1441.1 311.635H1439.87L1439.81 312.065ZM1606.81 312.065L1598.1 374.84L1598.02 375.408H1617.15L1617.07 374.839L1608.17 312.064L1608.11 311.635H1606.88L1606.81 312.065ZM1669.91 344.929H1677.67C1681.46 344.929 1684.61 344.1 1686.81 341.878C1689.01 339.658 1690.16 336.145 1690.16 331.003V321.206C1690.16 316.633 1689.38 313.23 1687.62 310.966C1685.84 308.673 1683.12 307.643 1679.49 307.643H1669.91V344.929Z" stroke="#F4E046"/>
<path d="M329.032 435.5C339.318 435.5 346.564 437.889 351.245 442.609C355.927 447.33 358.139 454.478 358.139 464.21V472.012C358.139 478.495 357.101 483.76 354.993 487.838C352.891 491.904 349.713 494.816 345.372 496.586L345.061 496.713V497.78L345.413 497.89C350.263 499.387 353.471 502.412 355.481 506.826C357.504 511.266 358.32 517.123 358.32 524.263V546.578C358.32 552.449 358.482 556.926 360.259 561.5H341.018C340.526 560.025 340.124 558.78 339.835 556.78C339.522 554.616 339.34 551.56 339.34 546.397V523.174C339.34 517.258 338.481 513.202 336.365 510.633C334.225 508.034 330.903 507.071 326.308 507.071H318.905V561.5H299.925V435.5H329.032ZM270.416 435.5L290.96 561.5H272.001L268.43 536.71L267.935 536.745V536.645H244.798L244.735 537.072L241.165 561.5H223.659L244.202 435.5H270.416ZM160.5 435.5L173.154 525.965L173.215 526.396H174.448L174.508 525.965L187.162 435.5H214.744V561.5H196.854V465.343H195.561L195.496 465.769L181.03 561.5H165.18L150.713 465.769L150.648 465.343H149.355V561.5H132.918V435.5H160.5ZM103.409 435.5L123.952 561.5H104.994L101.423 536.71L100.928 536.745V536.645H77.791L77.7285 537.072L74.1582 561.5H56.6514L77.1953 435.5H103.409ZM19.4805 435.5V544.357H52.3564V561.5H0.5V435.5H19.4805ZM88.8076 457.065L80.0889 519.84L80.0107 520.408H99.1426L99.0615 519.839L90.1611 457.064L90.1006 456.635H88.8682L88.8076 457.065ZM255.814 457.065L247.097 519.84L247.018 520.408H266.149L266.068 519.839L257.169 457.064L257.107 456.635H255.875L255.814 457.065ZM318.905 489.929H326.671C330.456 489.929 333.612 489.1 335.812 486.878C338.011 484.658 339.158 481.145 339.158 476.003V466.206C339.158 461.633 338.384 458.23 336.624 455.966C334.841 453.673 332.125 452.643 328.487 452.643H318.905V489.929Z" stroke="#F4E046"/>
<path d="M715.032 435.5C725.318 435.5 732.564 437.889 737.245 442.609C741.927 447.33 744.139 454.478 744.139 464.21V472.012C744.139 478.495 743.101 483.76 740.993 487.838C738.891 491.904 735.713 494.816 731.372 496.586L731.061 496.713V497.78L731.413 497.89C736.263 499.387 739.471 502.412 741.481 506.826C743.504 511.266 744.32 517.123 744.32 524.263V546.578C744.32 552.449 744.482 556.926 746.259 561.5H727.018C726.526 560.025 726.124 558.78 725.835 556.78C725.522 554.616 725.34 551.56 725.34 546.397V523.174C725.34 517.258 724.481 513.202 722.365 510.633C720.225 508.034 716.903 507.071 712.308 507.071H704.905V561.5H685.925V435.5H715.032ZM656.416 435.5L676.96 561.5H658.001L654.43 536.71L653.935 536.745V536.645H630.798L630.735 537.072L627.165 561.5H609.659L630.202 435.5H656.416ZM546.5 435.5L559.154 525.965L559.215 526.396H560.448L560.508 525.965L573.162 435.5H600.744V561.5H582.854V465.343H581.561L581.496 465.769L567.03 561.5H551.18L536.713 465.769L536.648 465.343H535.355V561.5H518.918V435.5H546.5ZM489.409 435.5L509.952 561.5H490.994L487.423 536.71L486.928 536.745V536.645H463.791L463.729 537.072L460.158 561.5H442.651L463.195 435.5H489.409ZM405.48 435.5V544.357H438.356V561.5H386.5V435.5H405.48ZM474.808 457.065L466.089 519.84L466.011 520.408H485.143L485.062 519.839L476.161 457.064L476.101 456.635H474.868L474.808 457.065ZM641.814 457.065L633.097 519.84L633.018 520.408H652.149L652.068 519.839L643.169 457.064L643.107 456.635H641.875L641.814 457.065ZM704.905 489.929H712.671C716.456 489.929 719.612 489.1 721.812 486.878C724.011 484.658 725.158 481.145 725.158 476.003V466.206C725.158 461.633 724.384 458.23 722.624 455.966C720.841 453.673 718.125 452.643 714.487 452.643H704.905V489.929Z" stroke="#F4E046"/>
<path d="M1101.03 435.5C1111.32 435.5 1118.56 437.889 1123.25 442.609C1127.93 447.33 1130.14 454.478 1130.14 464.21V472.012C1130.14 478.495 1129.1 483.76 1126.99 487.838C1124.89 491.904 1121.71 494.816 1117.37 496.586L1117.06 496.713V497.78L1117.41 497.89C1122.26 499.387 1125.47 502.412 1127.48 506.826C1129.5 511.266 1130.32 517.123 1130.32 524.263V546.578C1130.32 552.449 1130.48 556.926 1132.26 561.5H1113.02C1112.53 560.025 1112.12 558.78 1111.83 556.78C1111.52 554.616 1111.34 551.56 1111.34 546.397V523.174C1111.34 517.258 1110.48 513.202 1108.37 510.633C1106.23 508.034 1102.9 507.071 1098.31 507.071H1090.91V561.5H1071.92V435.5H1101.03ZM1042.42 435.5L1062.96 561.5H1044L1040.43 536.71L1039.93 536.745V536.645H1016.8L1016.74 537.072L1013.17 561.5H995.659L1016.2 435.5H1042.42ZM932.5 435.5L945.154 525.965L945.215 526.396H946.448L946.508 525.965L959.162 435.5H986.744V561.5H968.854V465.343H967.561L967.496 465.769L953.03 561.5H937.18L922.713 465.769L922.648 465.343H921.355V561.5H904.918V435.5H932.5ZM875.409 435.5L895.952 561.5H876.994L873.423 536.71L872.928 536.745V536.645H849.791L849.729 537.072L846.158 561.5H828.651L849.195 435.5H875.409ZM791.48 435.5V544.357H824.356V561.5H772.5V435.5H791.48ZM860.808 457.065L852.089 519.84L852.011 520.408H871.143L871.062 519.839L862.161 457.064L862.101 456.635H860.868L860.808 457.065ZM1027.81 457.065L1019.1 519.84L1019.02 520.408H1038.15L1038.07 519.839L1029.17 457.064L1029.11 456.635H1027.88L1027.81 457.065ZM1090.91 489.929H1098.67C1102.46 489.929 1105.61 489.1 1107.81 486.878C1110.01 484.658 1111.16 481.145 1111.16 476.003V466.206C1111.16 461.633 1110.38 458.23 1108.62 455.966C1106.84 453.673 1104.12 452.643 1100.49 452.643H1090.91V489.929Z" stroke="#F4E046"/>
<path d="M1487.03 435.5C1497.32 435.5 1504.56 437.889 1509.25 442.609C1513.93 447.33 1516.14 454.478 1516.14 464.21V472.012C1516.14 478.495 1515.1 483.76 1512.99 487.838C1510.89 491.904 1507.71 494.816 1503.37 496.586L1503.06 496.713V497.78L1503.41 497.89C1508.26 499.387 1511.47 502.412 1513.48 506.826C1515.5 511.266 1516.32 517.123 1516.32 524.263V546.578C1516.32 552.449 1516.48 556.926 1518.26 561.5H1499.02C1498.53 560.025 1498.12 558.78 1497.83 556.78C1497.52 554.616 1497.34 551.56 1497.34 546.397V523.174C1497.34 517.258 1496.48 513.202 1494.37 510.633C1492.23 508.034 1488.9 507.071 1484.31 507.071H1476.91V561.5H1457.92V435.5H1487.03ZM1428.42 435.5L1448.96 561.5H1430L1426.43 536.71L1425.93 536.745V536.645H1402.8L1402.74 537.072L1399.17 561.5H1381.66L1402.2 435.5H1428.42ZM1318.5 435.5L1331.15 525.965L1331.21 526.396H1332.45L1332.51 525.965L1345.16 435.5H1372.74V561.5H1354.85V465.343H1353.56L1353.5 465.769L1339.03 561.5H1323.18L1308.71 465.769L1308.65 465.343H1307.36V561.5H1290.92V435.5H1318.5ZM1261.41 435.5L1281.95 561.5H1262.99L1259.42 536.71L1258.93 536.745V536.645H1235.79L1235.73 537.072L1232.16 561.5H1214.65L1235.2 435.5H1261.41ZM1177.48 435.5V544.357H1210.36V561.5H1158.5V435.5H1177.48ZM1246.81 457.065L1238.09 519.84L1238.01 520.408H1257.14L1257.06 519.839L1248.16 457.064L1248.1 456.635H1246.87L1246.81 457.065ZM1413.81 457.065L1405.1 519.84L1405.02 520.408H1424.15L1424.07 519.839L1415.17 457.064L1415.11 456.635H1413.88L1413.81 457.065ZM1476.91 489.929H1484.67C1488.46 489.929 1491.61 489.1 1493.81 486.878C1496.01 484.658 1497.16 481.145 1497.16 476.003V466.206C1497.16 461.633 1496.38 458.23 1494.62 455.966C1492.84 453.673 1490.12 452.643 1486.49 452.643H1476.91V489.929Z" stroke="#F4E046"/>
<path d="M522.032 580.5C532.318 580.5 539.564 582.889 544.245 587.609C548.927 592.33 551.139 599.478 551.139 609.21V617.012C551.139 623.495 550.101 628.76 547.993 632.838C545.891 636.904 542.713 639.816 538.372 641.586L538.061 641.713V642.78L538.413 642.89C543.263 644.387 546.471 647.412 548.481 651.826C550.504 656.266 551.32 662.123 551.32 669.263V691.578C551.32 697.449 551.482 701.926 553.259 706.5H534.018C533.526 705.025 533.124 703.78 532.835 701.78C532.522 699.616 532.34 696.56 532.34 691.397V668.174C532.34 662.258 531.481 658.202 529.365 655.633C527.225 653.034 523.903 652.071 519.308 652.071H511.905V706.5H492.925V580.5H522.032ZM463.416 580.5L483.96 706.5H465.001L461.43 681.71L460.935 681.745V681.645H437.798L437.735 682.072L434.165 706.5H416.659L437.202 580.5H463.416ZM353.5 580.5L366.154 670.965L366.215 671.396H367.448L367.508 670.965L380.162 580.5H407.744V706.5H389.854V610.343H388.561L388.496 610.769L374.03 706.5H358.18L343.713 610.769L343.648 610.343H342.355V706.5H325.918V580.5H353.5ZM296.409 580.5L316.952 706.5H297.994L294.423 681.71L293.928 681.745V681.645H270.791L270.729 682.072L267.158 706.5H249.651L270.195 580.5H296.409ZM212.48 580.5V689.357H245.356V706.5H193.5V580.5H212.48ZM281.808 602.065L273.089 664.84L273.011 665.408H292.143L292.062 664.839L283.161 602.064L283.101 601.635H281.868L281.808 602.065ZM448.814 602.065L440.097 664.84L440.018 665.408H459.149L459.068 664.839L450.169 602.064L450.107 601.635H448.875L448.814 602.065ZM511.905 634.929H519.671C523.456 634.929 526.612 634.1 528.812 631.878C531.011 629.658 532.158 626.145 532.158 621.003V611.206C532.158 606.633 531.384 603.23 529.624 600.966C527.841 598.673 525.125 597.643 521.487 597.643H511.905V634.929Z" stroke="#F4E046"/>
<path d="M908.032 580.5C918.318 580.5 925.564 582.889 930.245 587.609C934.927 592.33 937.139 599.478 937.139 609.21V617.012C937.139 623.495 936.101 628.76 933.993 632.838C931.891 636.904 928.713 639.816 924.372 641.586L924.061 641.713V642.78L924.413 642.89C929.263 644.387 932.471 647.412 934.481 651.826C936.504 656.266 937.32 662.123 937.32 669.263V691.578C937.32 697.449 937.482 701.926 939.259 706.5H920.018C919.526 705.025 919.124 703.78 918.835 701.78C918.522 699.616 918.34 696.56 918.34 691.397V668.174C918.34 662.258 917.481 658.202 915.365 655.633C913.225 653.034 909.903 652.071 905.308 652.071H897.905V706.5H878.925V580.5H908.032ZM849.416 580.5L869.96 706.5H851.001L847.43 681.71L846.935 681.745V681.645H823.798L823.735 682.072L820.165 706.5H802.659L823.202 580.5H849.416ZM739.5 580.5L752.154 670.965L752.215 671.396H753.448L753.508 670.965L766.162 580.5H793.744V706.5H775.854V610.343H774.561L774.496 610.769L760.03 706.5H744.18L729.713 610.769L729.648 610.343H728.355V706.5H711.918V580.5H739.5ZM682.409 580.5L702.952 706.5H683.994L680.423 681.71L679.928 681.745V681.645H656.791L656.729 682.072L653.158 706.5H635.651L656.195 580.5H682.409ZM598.48 580.5V689.357H631.356V706.5H579.5V580.5H598.48ZM667.808 602.065L659.089 664.84L659.011 665.408H678.143L678.062 664.839L669.161 602.064L669.101 601.635H667.868L667.808 602.065ZM834.814 602.065L826.097 664.84L826.018 665.408H845.149L845.068 664.839L836.169 602.064L836.107 601.635H834.875L834.814 602.065ZM897.905 634.929H905.671C909.456 634.929 912.612 634.1 914.812 631.878C917.011 629.658 918.158 626.145 918.158 621.003V611.206C918.158 606.633 917.384 603.23 915.624 600.966C913.841 598.673 911.125 597.643 907.487 597.643H897.905V634.929Z" stroke="#F4E046"/>
<path d="M1294.03 580.5C1304.32 580.5 1311.56 582.889 1316.25 587.609C1320.93 592.33 1323.14 599.478 1323.14 609.21V617.012C1323.14 623.495 1322.1 628.76 1319.99 632.838C1317.89 636.904 1314.71 639.816 1310.37 641.586L1310.06 641.713V642.78L1310.41 642.89C1315.26 644.387 1318.47 647.412 1320.48 651.826C1322.5 656.266 1323.32 662.123 1323.32 669.263V691.578C1323.32 697.449 1323.48 701.926 1325.26 706.5H1306.02C1305.53 705.025 1305.12 703.78 1304.83 701.78C1304.52 699.616 1304.34 696.56 1304.34 691.397V668.174C1304.34 662.258 1303.48 658.202 1301.37 655.633C1299.23 653.034 1295.9 652.071 1291.31 652.071H1283.91V706.5H1264.92V580.5H1294.03ZM1235.42 580.5L1255.96 706.5H1237L1233.43 681.71L1232.93 681.745V681.645H1209.8L1209.74 682.072L1206.17 706.5H1188.66L1209.2 580.5H1235.42ZM1125.5 580.5L1138.15 670.965L1138.21 671.396H1139.45L1139.51 670.965L1152.16 580.5H1179.74V706.5H1161.85V610.343H1160.56L1160.5 610.769L1146.03 706.5H1130.18L1115.71 610.769L1115.65 610.343H1114.36V706.5H1097.92V580.5H1125.5ZM1068.41 580.5L1088.95 706.5H1069.99L1066.42 681.71L1065.93 681.745V681.645H1042.79L1042.73 682.072L1039.16 706.5H1021.65L1042.2 580.5H1068.41ZM984.48 580.5V689.357H1017.36V706.5H965.5V580.5H984.48ZM1053.81 602.065L1045.09 664.84L1045.01 665.408H1064.14L1064.06 664.839L1055.16 602.064L1055.1 601.635H1053.87L1053.81 602.065ZM1220.81 602.065L1212.1 664.84L1212.02 665.408H1231.15L1231.07 664.839L1222.17 602.064L1222.11 601.635H1220.88L1220.81 602.065ZM1283.91 634.929H1291.67C1295.46 634.929 1298.61 634.1 1300.81 631.878C1303.01 629.658 1304.16 626.145 1304.16 621.003V611.206C1304.16 606.633 1303.38 603.23 1301.62 600.966C1299.84 598.673 1297.12 597.643 1293.49 597.643H1283.91V634.929Z" stroke="#F4E046"/>
<path d="M1680.03 580.5C1690.32 580.5 1697.56 582.889 1702.25 587.609C1706.93 592.33 1709.14 599.478 1709.14 609.21V617.012C1709.14 623.495 1708.1 628.76 1705.99 632.838C1703.89 636.904 1700.71 639.816 1696.37 641.586L1696.06 641.713V642.78L1696.41 642.89C1701.26 644.387 1704.47 647.412 1706.48 651.826C1708.5 656.266 1709.32 662.123 1709.32 669.263V691.578C1709.32 697.449 1709.48 701.926 1711.26 706.5H1692.02C1691.53 705.025 1691.12 703.78 1690.83 701.78C1690.52 699.616 1690.34 696.56 1690.34 691.397V668.174C1690.34 662.258 1689.48 658.202 1687.37 655.633C1685.23 653.034 1681.9 652.071 1677.31 652.071H1669.91V706.5H1650.92V580.5H1680.03ZM1621.42 580.5L1641.96 706.5H1623L1619.43 681.71L1618.93 681.745V681.645H1595.8L1595.74 682.072L1592.17 706.5H1574.66L1595.2 580.5H1621.42ZM1511.5 580.5L1524.15 670.965L1524.21 671.396H1525.45L1525.51 670.965L1538.16 580.5H1565.74V706.5H1547.85V610.343H1546.56L1546.5 610.769L1532.03 706.5H1516.18L1501.71 610.769L1501.65 610.343H1500.36V706.5H1483.92V580.5H1511.5ZM1454.41 580.5L1474.95 706.5H1455.99L1452.42 681.71L1451.93 681.745V681.645H1428.79L1428.73 682.072L1425.16 706.5H1407.65L1428.2 580.5H1454.41ZM1370.48 580.5V689.357H1403.36V706.5H1351.5V580.5H1370.48ZM1439.81 602.065L1431.09 664.84L1431.01 665.408H1450.14L1450.06 664.839L1441.16 602.064L1441.1 601.635H1439.87L1439.81 602.065ZM1606.81 602.065L1598.1 664.84L1598.02 665.408H1617.15L1617.07 664.839L1608.17 602.064L1608.11 601.635H1606.88L1606.81 602.065ZM1669.91 634.929H1677.67C1681.46 634.929 1684.61 634.1 1686.81 631.878C1689.01 629.658 1690.16 626.145 1690.16 621.003V611.206C1690.16 606.633 1689.38 603.23 1687.62 600.966C1685.84 598.673 1683.12 597.643 1679.49 597.643H1669.91V634.929Z" stroke="#F4E046"/>
<path d="M329.032 725.5C339.318 725.5 346.564 727.889 351.245 732.609C355.927 737.33 358.139 744.478 358.139 754.21V762.012C358.139 768.495 357.101 773.76 354.993 777.838C352.891 781.904 349.713 784.816 345.372 786.586L345.061 786.713V787.78L345.413 787.89C350.263 789.387 353.471 792.412 355.481 796.826C357.504 801.266 358.32 807.123 358.32 814.263V836.578C358.32 842.449 358.482 846.926 360.259 851.5H341.018C340.526 850.025 340.124 848.78 339.835 846.78C339.522 844.616 339.34 841.56 339.34 836.397V813.174C339.34 807.258 338.481 803.202 336.365 800.633C334.225 798.034 330.903 797.071 326.308 797.071H318.905V851.5H299.925V725.5H329.032ZM270.416 725.5L290.96 851.5H272.001L268.43 826.71L267.935 826.745V826.645H244.798L244.735 827.072L241.165 851.5H223.659L244.202 725.5H270.416ZM160.5 725.5L173.154 815.965L173.215 816.396H174.448L174.508 815.965L187.162 725.5H214.744V851.5H196.854V755.343H195.561L195.496 755.769L181.03 851.5H165.18L150.713 755.769L150.648 755.343H149.355V851.5H132.918V725.5H160.5ZM103.409 725.5L123.952 851.5H104.994L101.423 826.71L100.928 826.745V826.645H77.791L77.7285 827.072L74.1582 851.5H56.6514L77.1953 725.5H103.409ZM19.4805 725.5V834.357H52.3564V851.5H0.5V725.5H19.4805ZM88.8076 747.065L80.0889 809.84L80.0107 810.408H99.1426L99.0615 809.839L90.1611 747.064L90.1006 746.635H88.8682L88.8076 747.065ZM255.814 747.065L247.097 809.84L247.018 810.408H266.149L266.068 809.839L257.169 747.064L257.107 746.635H255.875L255.814 747.065ZM318.905 779.929H326.671C330.456 779.929 333.612 779.1 335.812 776.878C338.011 774.658 339.158 771.145 339.158 766.003V756.206C339.158 751.633 338.384 748.23 336.624 745.966C334.841 743.673 332.125 742.643 328.487 742.643H318.905V779.929Z" stroke="#F4E046"/>
<path d="M715.032 725.5C725.318 725.5 732.564 727.889 737.245 732.609C741.927 737.33 744.139 744.478 744.139 754.21V762.012C744.139 768.495 743.101 773.76 740.993 777.838C738.891 781.904 735.713 784.816 731.372 786.586L731.061 786.713V787.78L731.413 787.89C736.263 789.387 739.471 792.412 741.481 796.826C743.504 801.266 744.32 807.123 744.32 814.263V836.578C744.32 842.449 744.482 846.926 746.259 851.5H727.018C726.526 850.025 726.124 848.78 725.835 846.78C725.522 844.616 725.34 841.56 725.34 836.397V813.174C725.34 807.258 724.481 803.202 722.365 800.633C720.225 798.034 716.903 797.071 712.308 797.071H704.905V851.5H685.925V725.5H715.032ZM656.416 725.5L676.96 851.5H658.001L654.43 826.71L653.935 826.745V826.645H630.798L630.735 827.072L627.165 851.5H609.659L630.202 725.5H656.416ZM546.5 725.5L559.154 815.965L559.215 816.396H560.448L560.508 815.965L573.162 725.5H600.744V851.5H582.854V755.343H581.561L581.496 755.769L567.03 851.5H551.18L536.713 755.769L536.648 755.343H535.355V851.5H518.918V725.5H546.5ZM489.409 725.5L509.952 851.5H490.994L487.423 826.71L486.928 826.745V826.645H463.791L463.729 827.072L460.158 851.5H442.651L463.195 725.5H489.409ZM405.48 725.5V834.357H438.356V851.5H386.5V725.5H405.48ZM474.808 747.065L466.089 809.84L466.011 810.408H485.143L485.062 809.839L476.161 747.064L476.101 746.635H474.868L474.808 747.065ZM641.814 747.065L633.097 809.84L633.018 810.408H652.149L652.068 809.839L643.169 747.064L643.107 746.635H641.875L641.814 747.065ZM704.905 779.929H712.671C716.456 779.929 719.612 779.1 721.812 776.878C724.011 774.658 725.158 771.145 725.158 766.003V756.206C725.158 751.633 724.384 748.23 722.624 745.966C720.841 743.673 718.125 742.643 714.487 742.643H704.905V779.929Z" fill="#F4E046" stroke="#F4E046"/>
<path d="M1101.03 725.5C1111.32 725.5 1118.56 727.889 1123.25 732.609C1127.93 737.33 1130.14 744.478 1130.14 754.21V762.012C1130.14 768.495 1129.1 773.76 1126.99 777.838C1124.89 781.904 1121.71 784.816 1117.37 786.586L1117.06 786.713V787.78L1117.41 787.89C1122.26 789.387 1125.47 792.412 1127.48 796.826C1129.5 801.266 1130.32 807.123 1130.32 814.263V836.578C1130.32 842.449 1130.48 846.926 1132.26 851.5H1113.02C1112.53 850.025 1112.12 848.78 1111.83 846.78C1111.52 844.616 1111.34 841.56 1111.34 836.397V813.174C1111.34 807.258 1110.48 803.202 1108.37 800.633C1106.23 798.034 1102.9 797.071 1098.31 797.071H1090.91V851.5H1071.92V725.5H1101.03ZM1042.42 725.5L1062.96 851.5H1044L1040.43 826.71L1039.93 826.745V826.645H1016.8L1016.74 827.072L1013.17 851.5H995.659L1016.2 725.5H1042.42ZM932.5 725.5L945.154 815.965L945.215 816.396H946.448L946.508 815.965L959.162 725.5H986.744V851.5H968.854V755.343H967.561L967.496 755.769L953.03 851.5H937.18L922.713 755.769L922.648 755.343H921.355V851.5H904.918V725.5H932.5ZM875.409 725.5L895.952 851.5H876.994L873.423 826.71L872.928 826.745V826.645H849.791L849.729 827.072L846.158 851.5H828.651L849.195 725.5H875.409ZM791.48 725.5V834.357H824.356V851.5H772.5V725.5H791.48ZM860.808 747.065L852.089 809.84L852.011 810.408H871.143L871.062 809.839L862.161 747.064L862.101 746.635H860.868L860.808 747.065ZM1027.81 747.065L1019.1 809.84L1019.02 810.408H1038.15L1038.07 809.839L1029.17 747.064L1029.11 746.635H1027.88L1027.81 747.065ZM1090.91 779.929H1098.67C1102.46 779.929 1105.61 779.1 1107.81 776.878C1110.01 774.658 1111.16 771.145 1111.16 766.003V756.206C1111.16 751.633 1110.38 748.23 1108.62 745.966C1106.84 743.673 1104.12 742.643 1100.49 742.643H1090.91V779.929Z" stroke="#F4E046"/>
<path d="M1487.03 725.5C1497.32 725.5 1504.56 727.889 1509.25 732.609C1513.93 737.33 1516.14 744.478 1516.14 754.21V762.012C1516.14 768.495 1515.1 773.76 1512.99 777.838C1510.89 781.904 1507.71 784.816 1503.37 786.586L1503.06 786.713V787.78L1503.41 787.89C1508.26 789.387 1511.47 792.412 1513.48 796.826C1515.5 801.266 1516.32 807.123 1516.32 814.263V836.578C1516.32 842.449 1516.48 846.926 1518.26 851.5H1499.02C1498.53 850.025 1498.12 848.78 1497.83 846.78C1497.52 844.616 1497.34 841.56 1497.34 836.397V813.174C1497.34 807.258 1496.48 803.202 1494.37 800.633C1492.23 798.034 1488.9 797.071 1484.31 797.071H1476.91V851.5H1457.92V725.5H1487.03ZM1428.42 725.5L1448.96 851.5H1430L1426.43 826.71L1425.93 826.745V826.645H1402.8L1402.74 827.072L1399.17 851.5H1381.66L1402.2 725.5H1428.42ZM1318.5 725.5L1331.15 815.965L1331.21 816.396H1332.45L1332.51 815.965L1345.16 725.5H1372.74V851.5H1354.85V755.343H1353.56L1353.5 755.769L1339.03 851.5H1323.18L1308.71 755.769L1308.65 755.343H1307.36V851.5H1290.92V725.5H1318.5ZM1261.41 725.5L1281.95 851.5H1262.99L1259.42 826.71L1258.93 826.745V826.645H1235.79L1235.73 827.072L1232.16 851.5H1214.65L1235.2 725.5H1261.41ZM1177.48 725.5V834.357H1210.36V851.5H1158.5V725.5H1177.48ZM1246.81 747.065L1238.09 809.84L1238.01 810.408H1257.14L1257.06 809.839L1248.16 747.064L1248.1 746.635H1246.87L1246.81 747.065ZM1413.81 747.065L1405.1 809.84L1405.02 810.408H1424.15L1424.07 809.839L1415.17 747.064L1415.11 746.635H1413.88L1413.81 747.065ZM1476.91 779.929H1484.67C1488.46 779.929 1491.61 779.1 1493.81 776.878C1496.01 774.658 1497.16 771.145 1497.16 766.003V756.206C1497.16 751.633 1496.38 748.23 1494.62 745.966C1492.84 743.673 1490.12 742.643 1486.49 742.643H1476.91V779.929Z" stroke="#F4E046"/>
</svg>
