<svg width="295" height="347" viewBox="0 0 295 347" fill="none" xmlns="http://www.w3.org/2000/svg">
<path d="M294 1V346.401H1V1H294Z" fill="#3C1F1F"/>
<path d="M17.9962 18.5627H275.895M17.9962 18.5627L1 1M17.9962 18.5627V25.1488M17.9962 328.838H275.895M17.9962 328.838L1 346.401M17.9962 328.838V272.857M275.895 328.838L294 346.401M275.895 328.838V272.857M275.895 18.5627L294 1M275.895 18.5627V25.1488M294 346.401V1M294 346.401H1M294 1H1M1 1V346.401M17.9962 25.1488H275.895M17.9962 25.1488V31.7348M275.895 25.1488V31.7348M17.9962 31.7348H275.895M17.9962 31.7348V37.9549M275.895 31.7348V37.9549M275.895 37.9549H17.9962M275.895 37.9549V44.541M17.9962 37.9549V44.541M17.9962 44.541H275.895M17.9962 44.541V51.127M275.895 44.541V51.127M275.895 51.127H17.9962M275.895 51.127V56.6153M17.9962 51.127V56.6153M275.895 56.6153H17.9962M275.895 56.6153V63.2014M17.9962 56.6153V63.2014M17.9962 63.2014H275.895M17.9962 63.2014V68.3238M275.895 63.2014V68.3238M275.895 68.3238H17.9962M275.895 68.3238V73.4463M17.9962 68.3238V73.4463M17.9962 73.4463H275.895M17.9962 73.4463V80.3982M275.895 73.4463V80.3982M17.9962 80.3982H275.895M17.9962 80.3982V88.8137M275.895 80.3982V88.8137M275.895 88.8137H17.9962M275.895 88.8137V96.4974M17.9962 88.8137V96.4974M17.9962 96.4974H275.895M17.9962 96.4974V104.547M275.895 96.4974V104.547M275.895 104.547H17.9962M275.895 104.547V112.962M17.9962 104.547V112.962M17.9962 112.962H275.895M17.9962 112.962V121.378M275.895 112.962V121.378M275.895 121.378H17.9962M275.895 121.378V129.428M17.9962 121.378V129.428M17.9962 129.428H275.895M17.9962 129.428V139.307M275.895 129.428V139.307M275.895 139.307H17.9962M275.895 139.307V148.088M17.9962 139.307V148.088M17.9962 148.088H275.895M17.9962 148.088V157.235M275.895 148.088V157.235M275.895 157.235H17.9962M275.895 157.235V166.382M17.9962 157.235V166.382M17.9962 166.382H275.895M17.9962 166.382V173.334M275.895 166.382V173.334M275.895 173.334H17.9962M275.895 173.334V181.75M17.9962 173.334V181.75M17.9962 181.75H275.895M17.9962 181.75V189.068M275.895 181.75V189.068M275.895 189.068H17.9962M275.895 189.068V196.751M17.9962 189.068V196.751M17.9962 196.751H275.895M17.9962 196.751V204.069M275.895 196.751V204.069M275.895 204.069H17.9962M275.895 204.069V212.485M17.9962 204.069V212.485M17.9962 212.485H275.895M17.9962 212.485V220.534M275.895 212.485V220.534M275.895 220.534H17.9962M275.895 220.534V229.681M17.9962 220.534V229.681M17.9962 229.681H275.895M17.9962 229.681V236.268M275.895 229.681V236.268M275.895 236.268H17.9962M275.895 236.268V246.147M17.9962 236.268V246.147M17.9962 246.147H275.895M17.9962 246.147V254.562M275.895 246.147V254.562M275.895 254.562H17.9962M275.895 254.562V262.612M17.9962 254.562V262.612M17.9962 262.612H275.895M17.9962 262.612V272.857M275.895 262.612V272.857M275.895 272.857H17.9962M275.895 280.54H17.9962M275.895 288.59H17.9962M275.895 295.908H17.9962M275.895 302.86H17.9962M275.895 309.811H17.9962M275.895 317.129H17.9962M275.895 323.349H17.9962" stroke="#FFFEF1" stroke-width="0.738036"/>
<path d="M30.3018 46.6191V37.8344H27.3535V35.5479C29.1786 35.4877 30.6628 34.6253 31.0038 32.7601H33.6914V46.6191H30.3018Z" fill="#FFFEF1"/>
<path d="M63.2437 43.6307H65.3296C67.6562 43.6307 68.8596 42.1666 68.8596 39.5392C68.8596 36.9318 67.596 35.2471 65.3697 35.2471H63.2437V43.6307ZM59.6937 46.6191V32.2787H65.811C69.7822 32.2787 72.4497 35.1468 72.4497 39.5392C72.4497 42.0663 71.5672 44.092 69.9627 45.3155C68.8395 46.1578 67.3954 46.6191 65.5903 46.6191H59.6937ZM73.6346 46.6191V32.2787H84.5052V35.207H77.1846V37.7742H83.4623V40.542H77.1846V43.6107H84.6256V46.6191H73.6346ZM89.5581 46.6191V35.2872H85.3863V32.2787H97.32V35.2872H93.1081V46.6191H89.5581ZM101.355 46.6191V32.2787H112.226V35.207H104.905V37.7742H111.183V40.542H104.905V43.6107H112.346V46.6191H101.355ZM113.749 46.6191V32.2787H120.608C123.456 32.2787 125.622 33.7428 125.622 36.4103C125.622 38.075 124.8 39.2985 123.135 39.8801V39.9403C124.378 40.3615 125.02 41.1437 125.221 42.5677C125.522 44.453 125.321 46.2581 125.823 46.4386V46.6191H122.373C121.992 46.3985 122.052 44.7138 121.831 43.2898C121.651 41.966 120.969 41.244 119.445 41.244H117.299V46.6191H113.749ZM117.299 38.6166H119.966C121.37 38.6166 122.092 37.9547 122.092 36.8716C122.092 35.8287 121.41 35.0866 120.046 35.0866H117.299V38.6166ZM136.436 44.072C138.762 44.072 139.906 42.0864 139.906 39.479C139.906 36.8716 138.762 34.866 136.436 34.866C134.129 34.866 132.946 36.8716 132.946 39.479C132.946 42.0864 134.129 44.072 136.436 44.072ZM136.416 46.9601C132.084 46.9601 129.336 43.7711 129.336 39.479C129.336 35.1869 132.084 31.9979 136.416 31.9979C140.768 31.9979 143.516 35.1869 143.516 39.479C143.516 43.7711 140.768 46.9601 136.416 46.9601ZM150.417 46.9601C146.606 46.9601 144.099 45.2754 144.019 42.1064H147.589C147.749 43.5505 148.692 44.1522 150.397 44.1522C151.56 44.1522 152.703 43.731 152.703 42.6479C152.703 41.5047 151.54 41.264 149.574 40.7827C147.087 40.201 144.46 39.4389 144.46 36.4304C144.46 33.3618 146.947 32.018 150.156 32.018C153.265 32.018 155.672 33.4219 155.812 36.4304H152.342C152.202 35.3273 151.359 34.7055 150.036 34.7055C148.792 34.7055 147.97 35.2471 147.97 36.0493C147.97 37.0522 149.073 37.2928 151.219 37.7742C153.887 38.3959 156.293 39.2183 156.293 42.2869C156.293 45.2954 153.726 46.9601 150.417 46.9601ZM164.008 43.6307H166.094C168.421 43.6307 169.624 42.1666 169.624 39.5392C169.624 36.9318 168.361 35.2471 166.134 35.2471H164.008V43.6307ZM160.458 46.6191V32.2787H166.576C170.547 32.2787 173.214 35.1468 173.214 39.5392C173.214 42.0663 172.332 44.092 170.727 45.3155C169.604 46.1578 168.16 46.6191 166.355 46.6191H160.458ZM174.399 46.6191V32.2787H185.27V35.207H177.949V37.7742H184.227V40.542H177.949V43.6107H185.39V46.6191H174.399ZM186.793 46.6191V32.2787H193.652C196.5 32.2787 198.666 33.7428 198.666 36.4103C198.666 38.075 197.844 39.2985 196.179 39.8801V39.9403C197.423 40.3615 198.065 41.1437 198.265 42.5677C198.566 44.453 198.365 46.2581 198.867 46.4386V46.6191H195.417C195.036 46.3985 195.096 44.7138 194.876 43.2898C194.695 41.966 194.013 41.244 192.489 41.244H190.343V46.6191H186.793ZM190.343 38.6166H193.01C194.414 38.6166 195.136 37.9547 195.136 36.8716C195.136 35.8287 194.454 35.0866 193.091 35.0866H190.343V38.6166ZM59.6937 70.6191V56.2787H66.6132C68.0974 56.2787 69.2005 56.6397 69.9627 57.2615C70.785 57.9434 71.2062 58.866 71.2062 60.0092C71.2062 61.4332 70.4641 62.3358 69.2005 62.8171V62.8773C70.7649 63.3587 71.7678 64.6824 71.7678 66.3872C71.7678 67.8313 71.2463 68.8742 70.3036 69.5963C69.4613 70.2581 68.2779 70.6191 66.7737 70.6191H59.6937ZM63.2036 67.7711H66.3725C67.5358 67.7711 68.2579 67.1092 68.2579 66.0864C68.2579 64.9431 67.4155 64.3615 66.3324 64.3615H63.2036V67.7711ZM63.2036 61.9547H66.0918C67.1146 61.9547 67.8166 61.4533 67.8166 60.5106C67.8166 59.6081 67.1548 59.0866 66.1118 59.0866H63.2036V61.9547ZM72.9491 70.6191V56.2787H83.8197V59.207H76.4991V61.7742H82.7768V64.542H76.4991V67.6107H83.9401V70.6191H72.9491ZM90.9608 70.9601C87.1501 70.9601 84.643 69.2754 84.5628 66.1064H88.1328C88.2933 67.5505 89.2359 68.1522 90.9407 68.1522C92.104 68.1522 93.2472 67.731 93.2472 66.6479C93.2472 65.5047 92.084 65.264 90.1184 64.7827C87.6314 64.201 85.004 63.4389 85.004 60.4304C85.004 57.3618 87.491 56.018 90.7001 56.018C93.8088 56.018 96.2156 57.4219 96.356 60.4304H92.8862C92.7458 59.3273 91.9035 58.7055 90.5797 58.7055C89.3362 58.7055 88.5139 59.2471 88.5139 60.0493C88.5139 61.0522 89.617 61.2928 91.7631 61.7742C94.4306 62.3959 96.8374 63.2183 96.8374 66.2869C96.8374 69.2954 94.2701 70.9601 90.9608 70.9601ZM101.109 70.6191V59.2872H96.9377V56.2787H108.871V59.2872H104.659V70.6191H101.109ZM109.993 70.6191V56.2787H120.863V59.207H113.543V61.7742H119.82V64.542H113.543V67.6107H120.984V70.6191H109.993ZM122.386 70.6191V56.2787H127.16L128.905 62.5564C129.165 63.4589 129.727 65.8256 129.727 65.8256H129.767C129.767 65.8256 130.329 63.4589 130.569 62.5564L132.334 56.2787H137.148V70.6191H133.899V63.3988C133.899 62.8171 133.959 60.5307 133.959 60.5307H133.919C133.919 60.5307 133.417 62.6767 133.257 63.1982L131.191 70.6191H128.263L126.217 63.2183C126.057 62.6968 125.555 60.5307 125.555 60.5307H125.515C125.515 60.5307 125.575 62.8372 125.575 63.4188V70.6191H122.386ZM138.912 70.6191V56.2787H143.686L145.431 62.5564C145.692 63.4589 146.253 65.8256 146.253 65.8256H146.293C146.293 65.8256 146.855 63.4589 147.096 62.5564L148.861 56.2787H153.674V70.6191H150.425V63.3988C150.425 62.8171 150.485 60.5307 150.485 60.5307H150.445C150.445 60.5307 149.944 62.6767 149.783 63.1982L147.717 70.6191H144.789L142.743 63.2183C142.583 62.6968 142.081 60.5307 142.081 60.5307H142.041C142.041 60.5307 142.101 62.8372 142.101 63.4188V70.6191H138.912ZM155.439 70.6191V56.2787H166.309V59.207H158.989V61.7742H165.266V64.542H158.989V67.6107H166.43V70.6191H155.439ZM167.832 70.6191V56.2787H174.692C177.54 56.2787 179.706 57.7428 179.706 60.4103C179.706 62.075 178.883 63.2985 177.219 63.8801V63.9403C178.462 64.3615 179.104 65.1437 179.305 66.5677C179.605 68.453 179.405 70.2581 179.906 70.4386V70.6191H176.457C176.076 70.3985 176.136 68.7138 175.915 67.2898C175.735 65.966 175.053 65.244 173.528 65.244H171.382V70.6191H167.832ZM171.382 62.6166H174.05C175.454 62.6166 176.176 61.9547 176.176 60.8716C176.176 59.8287 175.494 59.0866 174.13 59.0866H171.382V62.6166Z" fill="#FFFEF1"/>
<path d="M27.2733 105.689C27.3134 103.383 28.3363 102.059 29.7001 100.916C30.9436 99.853 32.5482 98.8502 33.6312 97.8874C34.1928 97.386 34.5338 96.8646 34.5338 96.1826C34.5338 95.1196 33.912 94.3976 32.7487 94.3976C32.1069 94.3976 31.6055 94.5982 31.2645 95.0194C30.8634 95.4807 30.6628 96.1024 30.6428 97.0451H27.4738C27.4738 95.4405 27.7546 94.4578 28.4165 93.5552C29.1987 92.4321 30.6829 91.6699 32.8289 91.6699C36.1383 91.6699 37.9233 93.6355 37.9233 96.0623C37.9233 97.9677 36.8603 99.0708 35.6369 100.013C34.4134 101.016 32.9292 101.859 31.9665 102.882V102.902H37.9434V105.689H27.2733Z" fill="#FFFEF1"/>
<path d="M66.4042 105.689L61.6708 91.349H65.3612L67.6076 98.8702C67.9285 99.9533 68.2694 101.397 68.2694 101.397H68.3095C68.3095 101.397 68.6706 99.9332 68.9714 98.8702L71.1977 91.349H74.7878L70.0745 105.689H66.4042ZM75.5774 105.689V91.349H79.1274V105.689H75.5774ZM89.5296 106.03C85.7188 106.03 83.2117 104.346 83.1315 101.177H86.7016C86.862 102.621 87.8047 103.222 89.5095 103.222C90.6728 103.222 91.816 102.801 91.816 101.718C91.816 100.575 90.6527 100.334 88.6872 99.853C86.2002 99.2714 83.5728 98.5092 83.5728 95.5007C83.5728 92.4321 86.0598 91.0883 89.2688 91.0883C92.3776 91.0883 94.7844 92.4922 94.9248 95.5007H91.455C91.3146 94.3976 90.4722 93.7759 89.1485 93.7759C87.905 93.7759 87.0827 94.3174 87.0827 95.1196C87.0827 96.1225 88.1858 96.3631 90.3318 96.8445C92.9993 97.4663 95.4061 98.2886 95.4061 101.357C95.4061 104.366 92.8389 106.03 89.5296 106.03ZM96.6575 105.689V91.349H103.116C104.861 91.349 106.144 91.8304 107.027 92.6727C107.949 93.5352 108.471 94.7586 108.471 96.2027C108.471 98.9504 106.565 100.896 103.617 100.896H100.268V105.689H96.6575ZM100.268 98.088H102.895C104.179 98.088 104.901 97.3259 104.901 96.1826C104.901 95.0394 104.159 94.3374 102.895 94.3374H100.268V98.088ZM109.561 105.689V91.349H113.111V105.689H109.561ZM114.883 105.689V91.349H118.433V102.681H124.871V105.689H114.883ZM126.023 105.689V91.349H129.573V102.681H136.011V105.689H126.023ZM137.163 105.689V91.349H148.034V94.2773H140.713V96.8445H146.991V99.6123H140.713V102.681H148.154V105.689H137.163ZM149.557 105.689V91.349H156.416C159.264 91.349 161.43 92.8131 161.43 95.4807C161.43 97.1454 160.608 98.3688 158.943 98.9504V99.0106C160.187 99.4318 160.828 100.214 161.029 101.638C161.33 103.523 161.129 105.328 161.631 105.509V105.689H158.181C157.8 105.469 157.86 103.784 157.639 102.36C157.459 101.036 156.777 100.314 155.253 100.314H153.107V105.689H149.557ZM153.107 97.6869H155.774C157.178 97.6869 157.9 97.025 157.9 95.942C157.9 94.899 157.218 94.1569 155.854 94.1569H153.107V97.6869ZM165.726 105.689V91.349H169.276V96.7843H174.31V91.349H177.86V105.689H174.31V99.7126H169.276V105.689H165.726ZM179.647 105.689V91.349H183.197V105.689H179.647ZM184.97 105.689V91.349H191.428C193.173 91.349 194.457 91.8304 195.339 92.6727C196.262 93.5352 196.783 94.7586 196.783 96.2027C196.783 98.9504 194.878 100.896 191.929 100.896H188.58V105.689H184.97ZM188.58 98.088H191.207C192.491 98.088 193.213 97.3259 193.213 96.1826C193.213 95.0394 192.471 94.3374 191.207 94.3374H188.58V98.088ZM197.853 105.689V91.349H201.403V96.7843H206.437V91.349H209.987V105.689H206.437V99.7126H201.403V105.689H197.853ZM218.273 103.142C220.6 103.142 221.743 101.157 221.743 98.5493C221.743 95.942 220.6 93.9363 218.273 93.9363C215.967 93.9363 214.783 95.942 214.783 98.5493C214.783 101.157 215.967 103.142 218.273 103.142ZM218.253 106.03C213.921 106.03 211.173 102.841 211.173 98.5493C211.173 94.2572 213.921 91.0682 218.253 91.0682C222.605 91.0682 225.353 94.2572 225.353 98.5493C225.353 102.841 222.605 106.03 218.253 106.03ZM226.538 105.689V91.349H232.996C234.741 91.349 236.025 91.8304 236.907 92.6727C237.83 93.5352 238.351 94.7586 238.351 96.2027C238.351 98.9504 236.446 100.896 233.497 100.896H230.148V105.689H226.538ZM230.148 98.088H232.775C234.059 98.088 234.781 97.3259 234.781 96.1826C234.781 95.0394 234.039 94.3374 232.775 94.3374H230.148V98.088Z" fill="#FFFEF1"/>
<path d="M32.9693 141.081C31.0239 141.081 29.5998 140.619 28.6371 139.757C27.6343 138.874 27.1128 137.591 27.1128 136.006H30.3018C30.382 137.47 31.1041 138.493 32.8289 138.493C34.2128 138.493 34.975 137.731 34.975 136.588C34.975 135.385 34.1326 134.783 32.6284 134.783H31.8061V132.436H32.5482C33.8318 132.436 34.6741 131.875 34.6741 130.832C34.6741 129.889 34.0123 129.267 32.8691 129.267C31.4049 129.267 30.7631 130.19 30.6829 131.373H27.534C27.5942 128.646 29.4996 126.74 32.9092 126.74C35.9377 126.74 38.0035 128.184 38.0035 130.611C38.0035 132.015 37.1411 132.878 35.9177 133.359V133.399C37.4219 133.86 38.4047 134.923 38.4047 136.769C38.4047 139.717 35.8575 141.081 32.9693 141.081Z" fill="#FFFEF1"/>
<path d="M63.6937 140.76V126.419H70.1519C71.8968 126.419 73.1805 126.901 74.063 127.743C74.9856 128.605 75.507 129.829 75.507 131.273C75.507 134.021 73.6017 135.966 70.6533 135.966H67.3039V140.76H63.6937ZM67.3039 133.158H69.9313C71.2149 133.158 71.937 132.396 71.937 131.253C71.937 130.11 71.1949 129.408 69.9313 129.408H67.3039V133.158ZM76.5769 140.76V126.419H80.1269V137.751H86.5651V140.76H76.5769ZM87.7169 140.76V126.419H98.5876V129.348H91.2669V131.915H97.5446V134.683H91.2669V137.751H98.7079V140.76H87.7169ZM99.2056 140.76L104.36 126.419H108.01L113.185 140.76H109.454L108.612 138.172H103.598L102.776 140.76H99.2056ZM104.42 135.625H107.79L106.707 132.155C106.466 131.413 106.145 130.13 106.145 130.13H106.105C106.105 130.13 105.764 131.413 105.523 132.155L104.42 135.625ZM119.415 141.101C115.604 141.101 113.097 139.416 113.017 136.247H116.587C116.747 137.691 117.69 138.293 119.395 138.293C120.558 138.293 121.701 137.872 121.701 136.789C121.701 135.645 120.538 135.405 118.573 134.923C116.086 134.342 113.458 133.58 113.458 130.571C113.458 127.502 115.945 126.159 119.154 126.159C122.263 126.159 124.67 127.563 124.81 130.571H121.34C121.2 129.468 120.358 128.846 119.034 128.846C117.79 128.846 116.968 129.388 116.968 130.19C116.968 131.193 118.071 131.433 120.217 131.915C122.885 132.537 125.291 133.359 125.291 136.428C125.291 139.436 122.724 141.101 119.415 141.101ZM126.543 140.76V126.419H137.414V129.348H130.093V131.915H136.371V134.683H130.093V137.751H137.534V140.76H126.543ZM144.798 140.76L140.867 126.419H144.457L145.902 132.436C146.222 133.82 146.563 135.986 146.563 135.986H146.603C146.603 135.986 146.985 134.021 147.305 132.577L148.649 126.419H151.939L153.282 132.537C153.603 134.001 153.964 135.986 153.964 135.986H154.004C154.004 135.986 154.405 133.82 154.726 132.396L156.15 126.419H159.72L155.789 140.76H152.32L150.815 133.88C150.555 132.737 150.314 131.213 150.314 131.213H150.274C150.274 131.213 150.033 132.737 149.792 133.88L148.288 140.76H144.798ZM158.314 140.76L163.468 126.419H167.119L172.293 140.76H168.563L167.72 138.172H162.706L161.884 140.76H158.314ZM163.528 135.625H166.898L165.815 132.155C165.574 131.413 165.253 130.13 165.253 130.13H165.213C165.213 130.13 164.872 131.413 164.632 132.155L163.528 135.625ZM173.121 140.76V126.419H176.671V140.76H173.121ZM181.973 140.76V129.428H177.801V126.419H189.735V129.428H185.523V140.76H181.973ZM197.3 140.76V129.428H193.128V126.419H205.062V129.428H200.85V140.76H197.3ZM212.094 138.213C214.421 138.213 215.564 136.227 215.564 133.62C215.564 131.012 214.421 129.007 212.094 129.007C209.788 129.007 208.604 131.012 208.604 133.62C208.604 136.227 209.788 138.213 212.094 138.213ZM212.074 141.101C207.742 141.101 204.994 137.912 204.994 133.62C204.994 129.328 207.742 126.139 212.074 126.139C216.426 126.139 219.174 129.328 219.174 133.62C219.174 137.912 216.426 141.101 212.074 141.101ZM63.6937 164.76V150.419H70.6132C72.0974 150.419 73.2005 150.78 73.9627 151.402C74.785 152.084 75.2062 153.007 75.2062 154.15C75.2062 155.574 74.4641 156.476 73.2005 156.958V157.018C74.7649 157.499 75.7678 158.823 75.7678 160.528C75.7678 161.972 75.2463 163.015 74.3036 163.737C73.4613 164.399 72.2779 164.76 70.7737 164.76H63.6937ZM67.2036 161.912H70.3725C71.5358 161.912 72.2579 161.25 72.2579 160.227C72.2579 159.084 71.4155 158.502 70.3324 158.502H67.2036V161.912ZM67.2036 156.095H70.0918C71.1146 156.095 71.8166 155.594 71.8166 154.651C71.8166 153.749 71.1548 153.227 70.1118 153.227H67.2036V156.095ZM76.9491 164.76V150.419H87.8197V153.348H80.4991V155.915H86.7768V158.683H80.4991V161.751H87.9401V164.76H76.9491ZM97.9724 165.101C94.1617 165.101 91.6546 163.416 91.5744 160.247H95.1444C95.3049 161.691 96.2476 162.293 97.9524 162.293C99.1156 162.293 100.259 161.872 100.259 160.789C100.259 159.645 99.0956 159.405 97.13 158.923C94.643 158.342 92.0156 157.58 92.0156 154.571C92.0156 151.502 94.5026 150.159 97.7117 150.159C100.82 150.159 103.227 151.563 103.368 154.571H99.8978C99.7575 153.468 98.9151 152.846 97.5913 152.846C96.3478 152.846 95.5255 153.388 95.5255 154.19C95.5255 155.193 96.6286 155.433 98.7747 155.915C101.442 156.537 103.849 157.359 103.849 160.428C103.849 163.436 101.282 165.101 97.9724 165.101ZM105.1 164.76V150.419H115.971V153.348H108.65V155.915H114.928V158.683H108.65V161.751H116.091V164.76H105.1ZM116.589 164.76L121.744 150.419H125.394L130.568 164.76H126.838L125.996 162.172H120.981L120.159 164.76H116.589ZM121.804 159.625H125.173L124.09 156.155C123.849 155.413 123.529 154.13 123.529 154.13H123.488C123.488 154.13 123.147 155.413 122.907 156.155L121.804 159.625ZM133.104 164.76V153.428H128.932V150.419H140.866V153.428H136.654V164.76H133.104ZM141.987 164.76V150.419H152.858V153.348H145.537V155.915H151.815V158.683H145.537V161.751H152.978V164.76H141.987ZM157.931 161.771H160.017C162.343 161.771 163.547 160.307 163.547 157.68C163.547 155.072 162.283 153.388 160.057 153.388H157.931V161.771ZM154.381 164.76V150.419H160.498C164.469 150.419 167.137 153.287 167.137 157.68C167.137 160.207 166.254 162.233 164.65 163.456C163.527 164.298 162.082 164.76 160.277 164.76H154.381Z" fill="#FFFEF1"/>
<path d="M33.6513 199.831V196.782H27.2532V193.674L33.6112 185.952H36.9405V194.215H38.9261V196.782H36.9405V199.831H33.6513ZM29.8004 194.215H33.6513V189.502H33.6112L29.8004 194.175V194.215Z" fill="#FFFEF1"/>
<path d="M63.6937 199.831V185.491H67.2437V196.823H73.6819V199.831H63.6937ZM74.8337 199.831V185.491H85.7044V188.419H78.3837V190.986H84.6614V193.754H78.3837V196.823H85.8247V199.831H74.8337ZM90.9377 199.831L86.2044 185.491H89.8948L92.1411 193.012C92.462 194.095 92.803 195.539 92.803 195.539H92.8431C92.8431 195.539 93.2041 194.075 93.505 193.012L95.7313 185.491H99.3214L94.6081 199.831H90.9377ZM103.005 199.831V185.491H106.555V196.823H112.993V199.831H103.005ZM114.165 199.831V185.491H117.715V199.831H114.165ZM123.037 196.843H125.123C127.449 196.843 128.653 195.378 128.653 192.751C128.653 190.144 127.389 188.459 125.163 188.459H123.037V196.843ZM119.487 199.831V185.491H125.604C129.575 185.491 132.243 188.359 132.243 192.751C132.243 195.278 131.36 197.304 129.756 198.527C128.633 199.37 127.189 199.831 125.384 199.831H119.487ZM136.351 199.831V188.499H132.179V185.491H144.113V188.499H139.901V199.831H136.351Z" fill="#FFFEF1"/>
<path d="M32.9092 235.222C29.7603 235.222 27.4137 233.718 27.0928 230.79H30.4021C30.6227 231.953 31.6055 232.535 32.8289 232.535C34.1928 232.535 35.0552 231.572 35.0552 230.188C35.0552 228.784 34.1326 227.922 32.8089 227.922C31.9264 227.922 31.2044 228.303 30.8433 228.764H27.6744L29.0784 221.163H37.6024V223.87H31.5052L31.0239 226.317H31.064C31.5654 225.856 32.488 225.495 33.7315 225.495C36.3589 225.495 38.4648 227.3 38.4648 230.208C38.4648 233.257 36.1984 235.222 32.9092 235.222Z" fill="#FFFEF1"/>
<path d="M63.6937 234.901V220.561H67.2437V225.996H72.2779V220.561H75.8279V234.901H72.2779V228.925H67.2437V234.901H63.6937ZM83.5121 235.162C79.5008 235.162 77.4951 233.197 77.4951 229.847V220.561H81.0451V229.967C81.0451 231.371 81.7672 232.314 83.5121 232.314C85.1567 232.314 85.9389 231.311 85.9389 229.907V220.561H89.489V229.847C89.489 233.156 87.5034 235.162 83.5121 235.162ZM96.9586 235.242C93.1479 235.242 90.6408 233.558 90.5606 230.389H94.1306C94.2911 231.833 95.2338 232.434 96.9386 232.434C98.1018 232.434 99.2451 232.013 99.2451 230.93C99.2451 229.787 98.0818 229.546 96.1162 229.065C93.6292 228.483 91.0018 227.721 91.0018 224.713C91.0018 221.644 93.4888 220.3 96.6979 220.3C99.8067 220.3 102.213 221.704 102.354 224.713H98.8841C98.7437 223.61 97.9013 222.988 96.5775 222.988C95.334 222.988 94.5117 223.529 94.5117 224.332C94.5117 225.334 95.6148 225.575 97.7609 226.056C100.428 226.678 102.835 227.5 102.835 230.569C102.835 233.578 100.268 235.242 96.9586 235.242ZM104.087 234.901V220.561H107.637V225.756L112.57 220.561H116.782L111.287 226.317L117.103 234.901H112.972L108.84 228.704L107.637 229.967V234.901H104.087ZM120.784 234.901V220.561H124.334V225.756L129.268 220.561H133.48L127.985 226.317L133.801 234.901H129.669L125.538 228.704L124.334 229.967V234.901H120.784ZM141.944 237.088C137.191 237.088 133.681 233.999 133.681 229.225C133.681 223.65 137.993 220.581 142.465 220.581C146.838 220.581 150.608 223.249 150.608 228.102C150.608 231.452 148.924 233.337 146.537 233.337C145.093 233.337 144.03 232.815 143.589 231.712H143.548C142.967 232.695 142.064 233.277 140.881 233.277C138.855 233.277 137.592 231.752 137.592 229.346C137.592 226.538 139.076 224.512 141.503 224.512C142.646 224.512 143.348 225.054 143.729 225.956H143.769L143.909 224.733H146.657L146.015 230.168C145.895 231.111 146.116 231.612 146.798 231.612C147.64 231.612 148.663 230.73 148.663 228.142C148.663 224.211 146.096 222.306 142.445 222.306C138.775 222.306 135.706 224.833 135.706 229.205C135.706 232.775 137.913 235.383 141.964 235.383C143.228 235.383 144.471 235.082 145.534 234.641L146.176 236.225C144.892 236.827 143.448 237.088 141.944 237.088ZM141.743 231.111C142.806 231.111 143.508 230.028 143.508 228.483C143.508 227.44 143.047 226.638 142.205 226.638C141.142 226.638 140.5 227.801 140.5 229.265C140.5 230.308 140.881 231.111 141.743 231.111ZM151.996 234.901V220.561H158.855C161.703 220.561 163.869 222.025 163.869 224.693C163.869 226.357 163.047 227.581 161.382 228.162V228.223C162.626 228.644 163.268 229.426 163.468 230.85C163.769 232.735 163.569 234.54 164.07 234.721V234.901H160.62C160.239 234.681 160.299 232.996 160.079 231.572C159.898 230.248 159.216 229.526 157.692 229.526H155.546V234.901H151.996ZM155.546 226.899H158.213C159.617 226.899 160.339 226.237 160.339 225.154C160.339 224.111 159.657 223.369 158.294 223.369H155.546V226.899ZM165.251 234.901V220.561H168.801V231.893H175.239V234.901H165.251ZM176.411 234.901V220.561H179.961V234.901H176.411ZM187.991 235.222C185.946 235.222 184.281 234.5 183.098 233.217C181.854 231.853 181.172 229.967 181.172 227.781C181.172 225.535 181.934 223.549 183.298 222.186C184.481 220.982 186.146 220.28 188.212 220.28C191.902 220.28 194.109 222.246 194.57 225.254H191.12C190.859 224.091 189.897 223.208 188.332 223.208C185.966 223.208 184.782 225.174 184.782 227.781C184.782 230.409 186.146 232.354 188.392 232.354C190.258 232.354 191.361 231.111 191.501 229.847V229.807H188.814V227.2H194.79V234.901H192.303L192.103 233.177H192.063C191.12 234.641 189.716 235.222 187.991 235.222ZM196.321 234.901V220.561H199.871V225.996H204.905V220.561H208.455V234.901H204.905V228.925H199.871V234.901H196.321ZM210.223 234.901V220.561H221.093V223.489H213.773V226.056H220.05V228.824H213.773V231.893H221.214V234.901H210.223ZM226.166 231.913H228.252C230.579 231.913 231.782 230.449 231.782 227.821C231.782 225.214 230.518 223.529 228.292 223.529H226.166V231.913ZM222.616 234.901V220.561H228.733C232.705 220.561 235.372 223.429 235.372 227.821C235.372 230.349 234.49 232.374 232.885 233.598C231.762 234.44 230.318 234.901 228.513 234.901H222.616ZM236.557 234.901V220.561H247.428V223.489H240.107V226.056H246.385V228.824H240.107V231.893H247.548V234.901H236.557ZM248.951 234.901V220.561H252.521L256.773 227.761C256.993 228.162 257.755 229.586 257.755 229.586H257.796C257.796 229.586 257.755 227.862 257.755 227.36V220.561H261.225V234.901H257.655L253.443 227.801C253.203 227.42 252.42 225.876 252.42 225.876H252.38C252.38 225.876 252.42 227.721 252.42 228.223V234.901H248.951Z" fill="#FFFEF1"/>
<path d="M33.3705 270.293C29.3391 270.293 27.3535 267.304 27.3334 263.213C27.3134 260.966 27.8148 259.061 28.9981 257.717C29.9809 256.594 31.3849 255.952 33.3504 255.952C36.1984 255.952 38.0035 257.396 38.4247 259.622H35.1956C34.9951 258.941 34.5137 258.359 33.3905 258.359C31.7058 258.359 30.7832 259.622 30.6829 261.829H30.723C31.4651 261.047 32.3877 260.525 33.8719 260.525C36.5194 260.525 38.8259 262.45 38.8259 265.399C38.8259 268.327 36.5194 270.293 33.3705 270.293ZM33.2501 267.765C34.634 267.765 35.6168 266.763 35.6168 265.419C35.6168 264.055 34.634 263.012 33.2501 263.012C31.786 263.012 30.8634 264.035 30.8634 265.419C30.8634 266.783 31.8462 267.765 33.2501 267.765Z" fill="#FFFEF1"/>
<path d="M63.6937 269.972V255.631H74.3638V258.62H67.2437V261.528H73.2005V264.396H67.2437V269.972H63.6937ZM81.4751 270.232C77.4638 270.232 75.4581 268.267 75.4581 264.917V255.631H79.0082V265.038C79.0082 266.442 79.7302 267.384 81.4751 267.384C83.1197 267.384 83.902 266.382 83.902 264.978V255.631H87.452V264.917C87.452 268.227 85.4664 270.232 81.4751 270.232ZM95.6059 270.293C91.394 270.293 88.5259 267.144 88.5259 262.852C88.5259 258.58 91.3138 255.35 95.5858 255.35C97.2505 255.35 98.6545 255.832 99.6774 256.614C100.921 257.557 101.643 258.961 101.823 260.565H98.2734C98.0929 259.282 97.0901 258.299 95.5658 258.299C93.2392 258.299 92.1361 260.244 92.1361 262.852C92.1361 265.479 93.4598 267.384 95.5858 267.384C97.1703 267.384 98.2133 266.382 98.3737 264.998H101.924C101.823 266.422 101.182 267.725 100.199 268.668C99.0957 269.731 97.6316 270.293 95.6059 270.293ZM102.99 269.972V255.631H106.54V260.826L111.474 255.631H115.685L110.19 261.387L116.006 269.972H111.875L107.743 263.774L106.54 265.038V269.972H102.99ZM119.688 269.972V255.631H123.258L127.51 262.832C127.73 263.233 128.492 264.657 128.492 264.657H128.533C128.533 264.657 128.492 262.932 128.492 262.43V255.631H131.962V269.972H128.392L124.18 262.872C123.94 262.491 123.157 260.946 123.157 260.946H123.117C123.117 260.946 123.157 262.791 123.157 263.293V269.972H119.688ZM140.245 267.424C142.571 267.424 143.715 265.439 143.715 262.832C143.715 260.224 142.571 258.219 140.245 258.219C137.938 258.219 136.755 260.224 136.755 262.832C136.755 265.439 137.938 267.424 140.245 267.424ZM140.225 270.313C135.892 270.313 133.145 267.124 133.145 262.832C133.145 258.539 135.892 255.35 140.225 255.35C144.577 255.35 147.325 258.539 147.325 262.832C147.325 267.124 144.577 270.313 140.225 270.313ZM157.139 270.313C153.329 270.313 150.821 268.628 150.741 265.459H154.311C154.472 266.903 155.414 267.505 157.119 267.505C158.283 267.505 159.426 267.084 159.426 266C159.426 264.857 158.262 264.617 156.297 264.135C153.81 263.554 151.182 262.791 151.182 259.783C151.182 256.714 153.67 255.37 156.879 255.37C159.987 255.37 162.394 256.774 162.535 259.783H159.065C158.924 258.68 158.082 258.058 156.758 258.058C155.515 258.058 154.692 258.6 154.692 259.402C154.692 260.405 155.796 260.645 157.942 261.127C160.609 261.748 163.016 262.571 163.016 265.639C163.016 268.648 160.449 270.313 157.139 270.313ZM164.267 269.972V255.631H167.817V261.067H172.851V255.631H176.401V269.972H172.851V263.995H167.817V269.972H164.267ZM184.687 267.424C187.014 267.424 188.157 265.439 188.157 262.832C188.157 260.224 187.014 258.219 184.687 258.219C182.381 258.219 181.197 260.224 181.197 262.832C181.197 265.439 182.381 267.424 184.687 267.424ZM184.667 270.313C180.335 270.313 177.587 267.124 177.587 262.832C177.587 258.539 180.335 255.35 184.667 255.35C189.02 255.35 191.767 258.539 191.767 262.832C191.767 267.124 189.02 270.313 184.667 270.313ZM195.293 269.972L191.362 255.631H194.952L196.396 261.648C196.717 263.032 197.058 265.198 197.058 265.198H197.098C197.098 265.198 197.479 263.233 197.8 261.789L199.144 255.631H202.433L203.777 261.748C204.098 263.213 204.459 265.198 204.459 265.198H204.499C204.499 265.198 204.9 263.032 205.221 261.608L206.645 255.631H210.215L206.284 269.972H202.814L201.31 263.092C201.049 261.949 200.809 260.425 200.809 260.425H200.769C200.769 260.425 200.528 261.949 200.287 263.092L198.783 269.972H195.293ZM216.526 270.313C212.716 270.313 210.208 268.628 210.128 265.459H213.698C213.859 266.903 214.801 267.505 216.506 267.505C217.67 267.505 218.813 267.084 218.813 266C218.813 264.857 217.649 264.617 215.684 264.135C213.197 263.554 210.57 262.791 210.57 259.783C210.57 256.714 213.057 255.37 216.266 255.37C219.374 255.37 221.781 256.774 221.922 259.783H218.452C218.311 258.68 217.469 258.058 216.145 258.058C214.902 258.058 214.079 258.6 214.079 259.402C214.079 260.405 215.183 260.645 217.329 261.127C219.996 261.748 222.403 262.571 222.403 265.639C222.403 268.648 219.836 270.313 216.526 270.313Z" fill="#FFFEF1"/>
<path d="M29.0784 305.042C29.2589 300.048 31.8462 296.197 33.7917 294.211V294.171H27.173V291.303H37.3417V293.911C34.9349 296.337 32.7487 300.329 32.6083 305.042H29.0784Z" fill="#FFFEF1"/>
<path d="M65.2237 305.042V293.71H61.0519V290.702H72.9856V293.71H68.7737V305.042H65.2237ZM71.3021 305.042L76.4566 290.702H80.1069L85.2815 305.042H81.551L80.7086 302.455H75.6944L74.8721 305.042H71.3021ZM76.5168 299.908H79.8863L78.8032 296.438C78.5625 295.696 78.2416 294.412 78.2416 294.412H78.2015C78.2015 294.412 77.8606 295.696 77.6199 296.438L76.5168 299.908ZM86.0891 305.042V290.702H89.6391V302.034H96.0772V305.042H86.0891ZM100.143 305.042V290.702H106.601C108.346 290.702 109.63 291.183 110.512 292.025C111.435 292.888 111.956 294.111 111.956 295.555C111.956 298.303 110.051 300.248 107.102 300.248H103.753V305.042H100.143ZM103.753 297.441H106.38C107.664 297.441 108.386 296.678 108.386 295.535C108.386 294.392 107.644 293.69 106.38 293.69H103.753V297.441ZM121.008 307.228C116.255 307.228 112.745 304.139 112.745 299.366C112.745 293.79 117.057 290.722 121.53 290.722C125.902 290.722 129.673 293.389 129.673 298.243C129.673 301.592 127.988 303.478 125.601 303.478C124.157 303.478 123.094 302.956 122.653 301.853H122.613C122.031 302.836 121.129 303.417 119.946 303.417C117.92 303.417 116.656 301.893 116.656 299.486C116.656 296.678 118.14 294.653 120.567 294.653C121.71 294.653 122.412 295.194 122.794 296.097H122.834L122.974 294.873H125.722L125.08 300.309C124.96 301.251 125.18 301.753 125.862 301.753C126.705 301.753 127.727 300.87 127.727 298.283C127.727 294.352 125.16 292.446 121.51 292.446C117.84 292.446 114.771 294.974 114.771 299.346C114.771 302.916 116.977 305.523 121.029 305.523C122.292 305.523 123.536 305.223 124.599 304.781L125.24 306.366C123.957 306.967 122.513 307.228 121.008 307.228ZM120.808 301.251C121.871 301.251 122.573 300.168 122.573 298.624C122.573 297.581 122.112 296.779 121.269 296.779C120.206 296.779 119.564 297.942 119.564 299.406C119.564 300.449 119.946 301.251 120.808 301.251ZM131.06 305.042V290.702H134.631L138.883 297.902C139.103 298.303 139.865 299.727 139.865 299.727H139.905C139.905 299.727 139.865 298.002 139.865 297.501V290.702H143.335V305.042H139.765L135.553 297.942C135.312 297.561 134.53 296.017 134.53 296.017H134.49C134.49 296.017 134.53 297.862 134.53 298.363V305.042H131.06ZM148.629 305.042V293.71H144.457V290.702H156.391V293.71H152.179V305.042H148.629Z" fill="#FFFEF1"/>
</svg>
