<svg width="393" height="578" viewBox="0 0 393 578" fill="none" xmlns="http://www.w3.org/2000/svg">
<g clip-path="url(#clip0_1611_7748)">
<mask id="path-1-inside-1_1611_7748" fill="white">
<path d="M-50.2937 103.227C-53.2937 103.227 -55.5437 103.077 -57.9437 102.627V87.627C-56.1437 88.077 -54.3437 88.227 -52.5437 88.227C-45.9437 88.227 -42.7937 85.077 -42.7937 78.177V-2.37305H-26.2937V77.727C-26.2937 94.977 -34.0937 103.227 -50.2937 103.227ZM7.85352 104.127C-8.34648 104.127 -17.1965 94.527 -17.1965 77.727V22.5269C-17.1965 5.72695 -8.34648 -3.87305 7.85352 -3.87305C24.0535 -3.87305 32.9035 5.72695 32.9035 22.5269V77.727C32.9035 94.527 24.0535 104.127 7.85352 104.127ZM7.85352 89.127C13.1035 89.127 16.4035 86.277 16.4035 78.777V21.477C16.4035 13.977 13.1035 11.127 7.85352 11.127C2.60352 11.127 -0.696483 13.977 -0.696483 21.477V78.777C-0.696483 86.277 2.60352 89.127 7.85352 89.127ZM42.5621 102.627V-2.37305H59.0621V102.627H42.5621ZM69.9195 102.627V-2.37305H90.6195L106.67 60.477H106.97V-2.37305H121.67V102.627H104.72L84.9195 25.9769H84.6195V102.627H69.9195Z"/>
</mask>
<path d="M-57.9437 102.627H-58.4465V103.044L-58.0364 103.121L-57.9437 102.627ZM-57.9437 87.627L-57.8218 87.1392L-58.4465 86.983V87.627H-57.9437ZM-42.7937 -2.37305V-2.87583H-43.2965V-2.37305H-42.7937ZM-26.2937 -2.37305H-25.791V-2.87583H-26.2937V-2.37305ZM-50.2937 103.227V102.724C-53.2752 102.724 -55.4919 102.575 -57.8511 102.133L-57.9437 102.627L-58.0364 103.121C-55.5956 103.579 -53.3123 103.73 -50.2937 103.73V103.227ZM-57.9437 102.627H-57.441V87.627H-57.9437H-58.4465V102.627H-57.9437ZM-57.9437 87.627L-58.0657 88.1147C-56.2145 88.5775 -54.3713 88.7297 -52.5437 88.7297V88.227V87.7242C-54.3162 87.7242 -56.073 87.5764 -57.8218 87.1392L-57.9437 87.627ZM-52.5437 88.227V88.7297C-49.1722 88.7297 -46.5781 87.9253 -44.8342 86.1409C-43.0926 84.3588 -42.291 81.6931 -42.291 78.177H-42.7937H-43.2965C-43.2965 81.5608 -44.0699 83.9201 -45.5533 85.438C-47.0344 86.9536 -49.3153 87.7242 -52.5437 87.7242V88.227ZM-42.7937 78.177H-42.291V-2.37305H-42.7937H-43.2965V78.177H-42.7937ZM-42.7937 -2.37305V-1.87028H-26.2937V-2.37305V-2.87583H-42.7937V-2.37305ZM-26.2937 -2.37305H-26.7965V77.727H-26.2937H-25.791V-2.37305H-26.2937ZM-26.2937 77.727H-26.7965C-26.7965 86.2867 -28.7329 92.5129 -32.5847 96.6009C-36.4309 100.683 -42.2737 102.724 -50.2937 102.724V103.227V103.73C-42.1138 103.73 -35.9566 101.646 -31.8528 97.2905C-27.7546 92.941 -25.791 86.4173 -25.791 77.727H-26.2937ZM7.85352 104.127V103.624C-0.146322 103.624 -6.26143 101.256 -10.3805 96.8823C-14.5039 92.5034 -16.6937 86.0431 -16.6937 77.727H-17.1965H-17.6993C-17.6993 86.2108 -15.4641 92.9505 -11.1125 97.5716C-6.75654 102.197 -0.346645 104.63 7.85352 104.63V104.127ZM-17.1965 77.727H-16.6937V22.5269H-17.1965H-17.6993V77.727H-17.1965ZM-17.1965 22.5269H-16.6937C-16.6937 14.2108 -14.5039 7.75049 -10.3805 3.37163C-6.26143 -1.00255 -0.146322 -3.37028 7.85352 -3.37028V-3.87305V-4.37583C-0.346645 -4.37583 -6.75654 -1.94355 -11.1125 2.68227C-15.4641 7.3034 -17.6993 14.0431 -17.6993 22.5269H-17.1965ZM7.85352 -3.87305V-3.37028C15.8534 -3.37028 21.9685 -1.00255 26.0875 3.37163C30.2109 7.75049 32.4007 14.2108 32.4007 22.5269H32.9035H33.4063C33.4063 14.0431 31.1711 7.3034 26.8196 2.68227C22.4636 -1.94355 16.0537 -4.37583 7.85352 -4.37583V-3.87305ZM32.9035 22.5269H32.4007V77.727H32.9035H33.4063V22.5269H32.9035ZM32.9035 77.727H32.4007C32.4007 86.0431 30.2109 92.5034 26.0875 96.8823C21.9685 101.256 15.8534 103.624 7.85352 103.624V104.127V104.63C16.0537 104.63 22.4636 102.197 26.8196 97.5716C31.1711 92.9505 33.4063 86.2108 33.4063 77.727H32.9035ZM7.85352 89.127V89.6297C10.5676 89.6297 12.864 88.8908 14.4714 87.1003C16.069 85.3207 16.9063 82.5894 16.9063 78.777H16.4035H15.9007C15.9007 82.4645 15.088 84.9082 13.7231 86.4286C12.368 87.9381 10.3894 88.6242 7.85352 88.6242V89.127ZM16.4035 78.777H16.9063V21.477H16.4035H15.9007V78.777H16.4035ZM16.4035 21.477H16.9063C16.9063 17.6645 16.069 14.9332 14.4714 13.1536C12.864 11.3631 10.5676 10.6242 7.85352 10.6242V11.127V11.6297C10.3894 11.6297 12.368 12.3158 13.7231 13.8253C15.088 15.3457 15.9007 17.7894 15.9007 21.477H16.4035ZM7.85352 11.127V10.6242C5.13943 10.6242 2.84301 11.3631 1.23563 13.1536C-0.36197 14.9332 -1.19926 17.6645 -1.19926 21.477H-0.696483H-0.193706C-0.193706 17.7894 0.619003 15.3457 1.9839 13.8253C3.33902 12.3158 5.31761 11.6297 7.85352 11.6297V11.127ZM-0.696483 21.477H-1.19926V78.777H-0.696483H-0.193706V21.477H-0.696483ZM-0.696483 78.777H-1.19926C-1.19926 82.5894 -0.36197 85.3207 1.23563 87.1003C2.84301 88.8908 5.13943 89.6297 7.85352 89.6297V89.127V88.6242C5.31761 88.6242 3.33902 87.9381 1.9839 86.4286C0.619003 84.9082 -0.193706 82.4645 -0.193706 78.777H-0.696483ZM42.5621 102.627H42.0593V103.13H42.5621V102.627ZM42.5621 -2.37305V-2.87583H42.0593V-2.37305H42.5621ZM59.0621 -2.37305H59.5649V-2.87583H59.0621V-2.37305ZM59.0621 102.627V103.13H59.5649V102.627H59.0621ZM42.5621 102.627H43.0649V-2.37305H42.5621H42.0593V102.627H42.5621ZM42.5621 -2.37305V-1.87028H59.0621V-2.37305V-2.87583H42.5621V-2.37305ZM59.0621 -2.37305H58.5593V102.627H59.0621H59.5649V-2.37305H59.0621ZM59.0621 102.627V102.124H42.5621V102.627V103.13H59.0621V102.627ZM69.9195 102.627H69.4168V103.13H69.9195V102.627ZM69.9195 -2.37305V-2.87583H69.4168V-2.37305H69.9195ZM90.6195 -2.37305L91.1067 -2.49746L91.0101 -2.87583H90.6195V-2.37305ZM106.67 60.477L106.182 60.6014L106.279 60.9797H106.67V60.477ZM106.97 60.477V60.9797H107.472V60.477H106.97ZM106.97 -2.37305V-2.87583H106.467V-2.37305H106.97ZM121.67 -2.37305H122.172V-2.87583H121.67V-2.37305ZM121.67 102.627V103.13H122.172V102.627H121.67ZM104.72 102.627L104.233 102.753L104.33 103.13H104.72V102.627ZM84.9195 25.9769L85.4063 25.8512L85.3089 25.4742H84.9195V25.9769ZM84.6195 25.9769V25.4742H84.1168V25.9769H84.6195ZM84.6195 102.627V103.13H85.1223V102.627H84.6195ZM69.9195 102.627H70.4223V-2.37305H69.9195H69.4168V102.627H69.9195ZM69.9195 -2.37305V-1.87028H90.6195V-2.37305V-2.87583H69.9195V-2.37305ZM90.6195 -2.37305L90.1324 -2.24865L106.182 60.6014L106.67 60.477L107.157 60.3525L91.1067 -2.49746L90.6195 -2.37305ZM106.67 60.477V60.9797H106.97V60.477V59.9742H106.67V60.477ZM106.97 60.477H107.472V-2.37305H106.97H106.467V60.477H106.97ZM106.97 -2.37305V-1.87028H121.67V-2.37305V-2.87583H106.97V-2.37305ZM121.67 -2.37305H121.167V102.627H121.67H122.172V-2.37305H121.67ZM121.67 102.627V102.124H104.72V102.627V103.13H121.67V102.627ZM104.72 102.627L105.206 102.501L85.4063 25.8512L84.9195 25.9769L84.4327 26.1027L104.233 102.753L104.72 102.627ZM84.9195 25.9769V25.4742H84.6195V25.9769V26.4797H84.9195V25.9769ZM84.6195 25.9769H84.1168V102.627H84.6195H85.1223V25.9769H84.6195ZM84.6195 102.627V102.124H69.9195V102.627V103.13H84.6195V102.627Z" fill="#F4E046" mask="url(#path-1-inside-1_1611_7748)"/>
<mask id="path-3-inside-2_1611_7748" fill="white">
<path d="M150.347 103.227C147.347 103.227 145.097 103.077 142.697 102.627V87.627C144.497 88.077 146.297 88.227 148.097 88.227C154.697 88.227 157.847 85.077 157.847 78.177V-2.37305H174.347V77.727C174.347 94.977 166.547 103.227 150.347 103.227ZM208.494 104.127C192.294 104.127 183.444 94.527 183.444 77.727V22.5269C183.444 5.72695 192.294 -3.87305 208.494 -3.87305C224.694 -3.87305 233.544 5.72695 233.544 22.5269V77.727C233.544 94.527 224.694 104.127 208.494 104.127ZM208.494 89.127C213.744 89.127 217.044 86.277 217.044 78.777V21.477C217.044 13.977 213.744 11.127 208.494 11.127C203.244 11.127 199.944 13.977 199.944 21.477V78.777C199.944 86.277 203.244 89.127 208.494 89.127ZM243.203 102.627V-2.37305H259.703V102.627H243.203ZM270.56 102.627V-2.37305H291.26L307.31 60.477H307.61V-2.37305H322.31V102.627H305.36L285.56 25.9769H285.26V102.627H270.56Z"/>
</mask>
<path d="M142.697 102.627H142.194V103.044L142.604 103.121L142.697 102.627ZM142.697 87.627L142.819 87.1392L142.194 86.983V87.627H142.697ZM157.847 -2.37305V-2.87583H157.344V-2.37305H157.847ZM174.347 -2.37305H174.85V-2.87583H174.347V-2.37305ZM150.347 103.227V102.724C147.365 102.724 145.149 102.575 142.79 102.133L142.697 102.627L142.604 103.121C145.045 103.579 147.328 103.73 150.347 103.73V103.227ZM142.697 102.627H143.2V87.627H142.697H142.194V102.627H142.697ZM142.697 87.627L142.575 88.1147C144.426 88.5775 146.269 88.7297 148.097 88.7297V88.227V87.7242C146.324 87.7242 144.568 87.5764 142.819 87.1392L142.697 87.627ZM148.097 88.227V88.7297C151.468 88.7297 154.063 87.9253 155.806 86.1409C157.548 84.3588 158.35 81.6931 158.35 78.177H157.847H157.344C157.344 81.5608 156.571 83.9201 155.087 85.438C153.606 86.9536 151.325 87.7242 148.097 87.7242V88.227ZM157.847 78.177H158.35V-2.37305H157.847H157.344V78.177H157.847ZM157.847 -2.37305V-1.87028H174.347V-2.37305V-2.87583H157.847V-2.37305ZM174.347 -2.37305H173.844V77.727H174.347H174.85V-2.37305H174.347ZM174.347 77.727H173.844C173.844 86.2867 171.908 92.5129 168.056 96.6009C164.21 100.683 158.367 102.724 150.347 102.724V103.227V103.73C158.527 103.73 164.684 101.646 168.788 97.2905C172.886 92.941 174.85 86.4173 174.85 77.727H174.347ZM208.494 104.127V103.624C200.494 103.624 194.379 101.256 190.26 96.8823C186.137 92.5034 183.947 86.0431 183.947 77.727H183.444H182.941C182.941 86.2108 185.177 92.9505 189.528 97.5716C193.884 102.197 200.294 104.63 208.494 104.63V104.127ZM183.444 77.727H183.947V22.5269H183.444H182.941V77.727H183.444ZM183.444 22.5269H183.947C183.947 14.2108 186.137 7.75049 190.26 3.37163C194.379 -1.00255 200.494 -3.37028 208.494 -3.37028V-3.87305V-4.37583C200.294 -4.37583 193.884 -1.94355 189.528 2.68227C185.177 7.3034 182.941 14.0431 182.941 22.5269H183.444ZM208.494 -3.87305V-3.37028C216.494 -3.37028 222.609 -1.00255 226.728 3.37163C230.852 7.75049 233.041 14.2108 233.041 22.5269H233.544H234.047C234.047 14.0431 231.812 7.3034 227.46 2.68227C223.104 -1.94355 216.694 -4.37583 208.494 -4.37583V-3.87305ZM233.544 22.5269H233.041V77.727H233.544H234.047V22.5269H233.544ZM233.544 77.727H233.041C233.041 86.0431 230.852 92.5034 226.728 96.8823C222.609 101.256 216.494 103.624 208.494 103.624V104.127V104.63C216.694 104.63 223.104 102.197 227.46 97.5716C231.812 92.9505 234.047 86.2108 234.047 77.727H233.544ZM208.494 89.127V89.6297C211.208 89.6297 213.505 88.8908 215.112 87.1003C216.71 85.3207 217.547 82.5894 217.547 78.777H217.044H216.541C216.541 82.4645 215.729 84.9082 214.364 86.4286C213.009 87.9381 211.03 88.6242 208.494 88.6242V89.127ZM217.044 78.777H217.547V21.477H217.044H216.541V78.777H217.044ZM217.044 21.477H217.547C217.547 17.6645 216.71 14.9332 215.112 13.1536C213.505 11.3631 211.208 10.6242 208.494 10.6242V11.127V11.6297C211.03 11.6297 213.009 12.3158 214.364 13.8253C215.729 15.3457 216.541 17.7894 216.541 21.477H217.044ZM208.494 11.127V10.6242C205.78 10.6242 203.484 11.3631 201.876 13.1536C200.279 14.9332 199.441 17.6645 199.441 21.477H199.944H200.447C200.447 17.7894 201.26 15.3457 202.625 13.8253C203.98 12.3158 205.958 11.6297 208.494 11.6297V11.127ZM199.944 21.477H199.441V78.777H199.944H200.447V21.477H199.944ZM199.944 78.777H199.441C199.441 82.5894 200.279 85.3207 201.876 87.1003C203.484 88.8908 205.78 89.6297 208.494 89.6297V89.127V88.6242C205.958 88.6242 203.98 87.9381 202.625 86.4286C201.26 84.9082 200.447 82.4645 200.447 78.777H199.944ZM243.203 102.627H242.7V103.13H243.203V102.627ZM243.203 -2.37305V-2.87583H242.7V-2.37305H243.203ZM259.703 -2.37305H260.206V-2.87583H259.703V-2.37305ZM259.703 102.627V103.13H260.206V102.627H259.703ZM243.203 102.627H243.706V-2.37305H243.203H242.7V102.627H243.203ZM243.203 -2.37305V-1.87028H259.703V-2.37305V-2.87583H243.203V-2.37305ZM259.703 -2.37305H259.2V102.627H259.703H260.206V-2.37305H259.703ZM259.703 102.627V102.124H243.203V102.627V103.13H259.703V102.627ZM270.56 102.627H270.057V103.13H270.56V102.627ZM270.56 -2.37305V-2.87583H270.057V-2.37305H270.56ZM291.26 -2.37305L291.747 -2.49746L291.651 -2.87583H291.26V-2.37305ZM307.31 60.477L306.823 60.6014L306.92 60.9797H307.31V60.477ZM307.61 60.477V60.9797H308.113V60.477H307.61ZM307.61 -2.37305V-2.87583H307.107V-2.37305H307.61ZM322.31 -2.37305H322.813V-2.87583H322.31V-2.37305ZM322.31 102.627V103.13H322.813V102.627H322.31ZM305.36 102.627L304.873 102.753L304.971 103.13H305.36V102.627ZM285.56 25.9769L286.047 25.8512L285.95 25.4742H285.56V25.9769ZM285.26 25.9769V25.4742H284.757V25.9769H285.26ZM285.26 102.627V103.13H285.763V102.627H285.26ZM270.56 102.627H271.063V-2.37305H270.56H270.057V102.627H270.56ZM270.56 -2.37305V-1.87028H291.26V-2.37305V-2.87583H270.56V-2.37305ZM291.26 -2.37305L290.773 -2.24865L306.823 60.6014L307.31 60.477L307.797 60.3525L291.747 -2.49746L291.26 -2.37305ZM307.31 60.477V60.9797H307.61V60.477V59.9742H307.31V60.477ZM307.61 60.477H308.113V-2.37305H307.61H307.107V60.477H307.61ZM307.61 -2.37305V-1.87028H322.31V-2.37305V-2.87583H307.61V-2.37305ZM322.31 -2.37305H321.807V102.627H322.31H322.813V-2.37305H322.31ZM322.31 102.627V102.124H305.36V102.627V103.13H322.31V102.627ZM305.36 102.627L305.847 102.501L286.047 25.8512L285.56 25.9769L285.073 26.1027L304.873 102.753L305.36 102.627ZM285.56 25.9769V25.4742H285.26V25.9769V26.4797H285.56V25.9769ZM285.26 25.9769H284.757V102.627H285.26H285.763V25.9769H285.26ZM285.26 102.627V102.124H270.56V102.627V103.13H285.26V102.627Z" fill="#F4E046" mask="url(#path-3-inside-2_1611_7748)"/>
<mask id="path-5-inside-3_1611_7748" fill="white">
<path d="M350.988 103.227C347.988 103.227 345.738 103.077 343.338 102.627V87.627C345.138 88.077 346.938 88.227 348.738 88.227C355.338 88.227 358.488 85.077 358.488 78.177V-2.37305H374.988V77.727C374.988 94.977 367.188 103.227 350.988 103.227ZM409.135 104.127C392.935 104.127 384.085 94.527 384.085 77.727V22.5269C384.085 5.72695 392.935 -3.87305 409.135 -3.87305C425.335 -3.87305 434.185 5.72695 434.185 22.5269V77.727C434.185 94.527 425.335 104.127 409.135 104.127ZM409.135 89.127C414.385 89.127 417.685 86.277 417.685 78.777V21.477C417.685 13.977 414.385 11.127 409.135 11.127C403.885 11.127 400.585 13.977 400.585 21.477V78.777C400.585 86.277 403.885 89.127 409.135 89.127ZM443.843 102.627V-2.37305H460.343V102.627H443.843ZM471.201 102.627V-2.37305H491.901L507.951 60.477H508.251V-2.37305H522.951V102.627H506.001L486.201 25.9769H485.901V102.627H471.201Z"/>
</mask>
<path d="M343.338 102.627H342.835V103.044L343.245 103.121L343.338 102.627ZM343.338 87.627L343.459 87.1392L342.835 86.983V87.627H343.338ZM358.488 -2.37305V-2.87583H357.985V-2.37305H358.488ZM374.988 -2.37305H375.49V-2.87583H374.988V-2.37305ZM350.988 103.227V102.724C348.006 102.724 345.789 102.575 343.43 102.133L343.338 102.627L343.245 103.121C345.686 103.579 347.969 103.73 350.988 103.73V103.227ZM343.338 102.627H343.84V87.627H343.338H342.835V102.627H343.338ZM343.338 87.627L343.216 88.1147C345.067 88.5775 346.91 88.7297 348.738 88.7297V88.227V87.7242C346.965 87.7242 345.208 87.5764 343.459 87.1392L343.338 87.627ZM348.738 88.227V88.7297C352.109 88.7297 354.703 87.9253 356.447 86.1409C358.189 84.3588 358.99 81.6931 358.99 78.177H358.488H357.985C357.985 81.5608 357.211 83.9201 355.728 85.438C354.247 86.9536 351.966 87.7242 348.738 87.7242V88.227ZM358.488 78.177H358.99V-2.37305H358.488H357.985V78.177H358.488ZM358.488 -2.37305V-1.87028H374.988V-2.37305V-2.87583H358.488V-2.37305ZM374.988 -2.37305H374.485V77.727H374.988H375.49V-2.37305H374.988ZM374.988 77.727H374.485C374.485 86.2867 372.548 92.5129 368.697 96.6009C364.85 100.683 359.008 102.724 350.988 102.724V103.227V103.73C359.167 103.73 365.325 101.646 369.428 97.2905C373.527 92.941 375.49 86.4173 375.49 77.727H374.988ZM409.135 104.127V103.624C401.135 103.624 395.02 101.256 390.901 96.8823C386.777 92.5034 384.588 86.0431 384.588 77.727H384.085H383.582C383.582 86.2108 385.817 92.9505 390.169 97.5716C394.525 102.197 400.935 104.63 409.135 104.63V104.127ZM384.085 77.727H384.588V22.5269H384.085H383.582V77.727H384.085ZM384.085 22.5269H384.588C384.588 14.2108 386.777 7.75049 390.901 3.37163C395.02 -1.00255 401.135 -3.37028 409.135 -3.37028V-3.87305V-4.37583C400.935 -4.37583 394.525 -1.94355 390.169 2.68227C385.817 7.3034 383.582 14.0431 383.582 22.5269H384.085ZM409.135 -3.87305V-3.37028C417.135 -3.37028 423.25 -1.00255 427.369 3.37163C431.492 7.75049 433.682 14.2108 433.682 22.5269H434.185H434.688C434.688 14.0431 432.452 7.3034 428.101 2.68227C423.745 -1.94355 417.335 -4.37583 409.135 -4.37583V-3.87305ZM434.185 22.5269H433.682V77.727H434.185H434.688V22.5269H434.185ZM434.185 77.727H433.682C433.682 86.0431 431.492 92.5034 427.369 96.8823C423.25 101.256 417.135 103.624 409.135 103.624V104.127V104.63C417.335 104.63 423.745 102.197 428.101 97.5716C432.452 92.9505 434.688 86.2108 434.688 77.727H434.185ZM409.135 89.127V89.6297C411.849 89.6297 414.145 88.8908 415.753 87.1003C417.35 85.3207 418.188 82.5894 418.188 78.777H417.685H417.182C417.182 82.4645 416.369 84.9082 415.004 86.4286C413.649 87.9381 411.671 88.6242 409.135 88.6242V89.127ZM417.685 78.777H418.188V21.477H417.685H417.182V78.777H417.685ZM417.685 21.477H418.188C418.188 17.6645 417.35 14.9332 415.753 13.1536C414.145 11.3631 411.849 10.6242 409.135 10.6242V11.127V11.6297C411.671 11.6297 413.649 12.3158 415.004 13.8253C416.369 15.3457 417.182 17.7894 417.182 21.477H417.685ZM409.135 11.127V10.6242C406.421 10.6242 404.124 11.3631 402.517 13.1536C400.919 14.9332 400.082 17.6645 400.082 21.477H400.585H401.088C401.088 17.7894 401.9 15.3457 403.265 13.8253C404.62 12.3158 406.599 11.6297 409.135 11.6297V11.127ZM400.585 21.477H400.082V78.777H400.585H401.088V21.477H400.585ZM400.585 78.777H400.082C400.082 82.5894 400.919 85.3207 402.517 87.1003C404.124 88.8908 406.421 89.6297 409.135 89.6297V89.127V88.6242C406.599 88.6242 404.62 87.9381 403.265 86.4286C401.9 84.9082 401.088 82.4645 401.088 78.777H400.585ZM443.843 102.627H443.341V103.13H443.843V102.627ZM443.843 -2.37305V-2.87583H443.341V-2.37305H443.843ZM460.343 -2.37305H460.846V-2.87583H460.343V-2.37305ZM460.343 102.627V103.13H460.846V102.627H460.343ZM443.843 102.627H444.346V-2.37305H443.843H443.341V102.627H443.843ZM443.843 -2.37305V-1.87028H460.343V-2.37305V-2.87583H443.843V-2.37305ZM460.343 -2.37305H459.841V102.627H460.343H460.846V-2.37305H460.343ZM460.343 102.627V102.124H443.843V102.627V103.13H460.343V102.627ZM471.201 102.627H470.698V103.13H471.201V102.627ZM471.201 -2.37305V-2.87583H470.698V-2.37305H471.201ZM491.901 -2.37305L492.388 -2.49746L492.291 -2.87583H491.901V-2.37305ZM507.951 60.477L507.464 60.6014L507.56 60.9797H507.951V60.477ZM508.251 60.477V60.9797H508.754V60.477H508.251ZM508.251 -2.37305V-2.87583H507.748V-2.37305H508.251ZM522.951 -2.37305H523.454V-2.87583H522.951V-2.37305ZM522.951 102.627V103.13H523.454V102.627H522.951ZM506.001 102.627L505.514 102.753L505.611 103.13H506.001V102.627ZM486.201 25.9769L486.688 25.8512L486.59 25.4742H486.201V25.9769ZM485.901 25.9769V25.4742H485.398V25.9769H485.901ZM485.901 102.627V103.13H486.404V102.627H485.901ZM471.201 102.627H471.704V-2.37305H471.201H470.698V102.627H471.201ZM471.201 -2.37305V-1.87028H491.901V-2.37305V-2.87583H471.201V-2.37305ZM491.901 -2.37305L491.414 -2.24865L507.464 60.6014L507.951 60.477L508.438 60.3525L492.388 -2.49746L491.901 -2.37305ZM507.951 60.477V60.9797H508.251V60.477V59.9742H507.951V60.477ZM508.251 60.477H508.754V-2.37305H508.251H507.748V60.477H508.251ZM508.251 -2.37305V-1.87028H522.951V-2.37305V-2.87583H508.251V-2.37305ZM522.951 -2.37305H522.448V102.627H522.951H523.454V-2.37305H522.951ZM522.951 102.627V102.124H506.001V102.627V103.13H522.951V102.627ZM506.001 102.627L506.488 102.501L486.688 25.8512L486.201 25.9769L485.714 26.1027L505.514 102.753L506.001 102.627ZM486.201 25.9769V25.4742H485.901V25.9769V26.4797H486.201V25.9769ZM485.901 25.9769H485.398V102.627H485.901H486.404V25.9769H485.901ZM485.901 102.627V102.124H471.201V102.627V103.13H485.901V102.627Z" fill="#F4E046" mask="url(#path-5-inside-3_1611_7748)"/>
<mask id="path-7-inside-4_1611_7748" fill="white">
<path d="M-150.614 219.973C-153.614 219.973 -155.864 219.823 -158.264 219.373V204.373C-156.464 204.823 -154.664 204.973 -152.864 204.973C-146.264 204.973 -143.114 201.823 -143.114 194.923V114.373H-126.614V194.473C-126.614 211.723 -134.414 219.973 -150.614 219.973ZM-92.4668 220.873C-108.667 220.873 -117.517 211.273 -117.517 194.473V139.273C-117.517 122.473 -108.667 112.873 -92.4668 112.873C-76.2668 112.873 -67.4168 122.473 -67.4168 139.273V194.473C-67.4168 211.273 -76.2668 220.873 -92.4668 220.873ZM-92.4668 205.873C-87.2168 205.873 -83.9168 203.023 -83.9168 195.523V138.223C-83.9168 130.723 -87.2168 127.873 -92.4668 127.873C-97.7168 127.873 -101.017 130.723 -101.017 138.223V195.523C-101.017 203.023 -97.7168 205.873 -92.4668 205.873ZM-57.7582 219.373V114.373H-41.2582V219.373H-57.7582ZM-30.4008 219.373V114.373H-9.70078L6.34922 177.223H6.64922V114.373H21.3492V219.373H4.39922L-15.4008 142.723H-15.7008V219.373H-30.4008Z"/>
</mask>
<path d="M-158.264 219.373H-158.767V219.79L-158.357 219.867L-158.264 219.373ZM-158.264 204.373L-158.142 203.885L-158.767 203.729V204.373H-158.264ZM-143.114 114.373V113.87H-143.617V114.373H-143.114ZM-126.614 114.373H-126.111V113.87H-126.614V114.373ZM-150.614 219.973V219.47C-153.596 219.47 -155.812 219.321 -158.171 218.879L-158.264 219.373L-158.357 219.867C-155.916 220.325 -153.633 220.476 -150.614 220.476V219.973ZM-158.264 219.373H-157.761V204.373H-158.264H-158.767V219.373H-158.264ZM-158.264 204.373L-158.386 204.861C-156.535 205.324 -154.692 205.476 -152.864 205.476V204.973V204.47C-154.637 204.47 -156.393 204.322 -158.142 203.885L-158.264 204.373ZM-152.864 204.973V205.476C-149.492 205.476 -146.898 204.671 -145.154 202.887C-143.413 201.105 -142.611 198.439 -142.611 194.923H-143.114H-143.617C-143.617 198.307 -144.39 200.666 -145.874 202.184C-147.355 203.7 -149.636 204.47 -152.864 204.47V204.973ZM-143.114 194.923H-142.611V114.373H-143.114H-143.617V194.923H-143.114ZM-143.114 114.373V114.876H-126.614V114.373V113.87H-143.114V114.373ZM-126.614 114.373H-127.117V194.473H-126.614H-126.111V114.373H-126.614ZM-126.614 194.473H-127.117C-127.117 203.033 -129.053 209.259 -132.905 213.347C-136.751 217.429 -142.594 219.47 -150.614 219.47V219.973V220.476C-142.434 220.476 -136.277 218.392 -132.173 214.037C-128.075 209.687 -126.111 203.163 -126.111 194.473H-126.614ZM-92.4668 220.873V220.37C-100.467 220.37 -106.582 218.003 -110.701 213.628C-114.824 209.25 -117.014 202.789 -117.014 194.473H-117.517H-118.02C-118.02 202.957 -115.784 209.697 -111.433 214.318C-107.077 218.944 -100.667 221.376 -92.4668 221.376V220.873ZM-117.517 194.473H-117.014V139.273H-117.517H-118.02V194.473H-117.517ZM-117.517 139.273H-117.014C-117.014 130.957 -114.824 124.497 -110.701 120.118C-106.582 115.744 -100.467 113.376 -92.4668 113.376V112.873V112.37C-100.667 112.37 -107.077 114.803 -111.433 119.428C-115.784 124.049 -118.02 130.789 -118.02 139.273H-117.517ZM-92.4668 112.873V113.376C-84.467 113.376 -78.3518 115.744 -74.2328 120.118C-70.1094 124.497 -67.9196 130.957 -67.9196 139.273H-67.4168H-66.914C-66.914 130.789 -69.1492 124.049 -73.5008 119.428C-77.8567 114.803 -84.2666 112.37 -92.4668 112.37V112.873ZM-67.4168 139.273H-67.9196V194.473H-67.4168H-66.914V139.273H-67.4168ZM-67.4168 194.473H-67.9196C-67.9196 202.789 -70.1094 209.25 -74.2328 213.628C-78.3518 218.003 -84.467 220.37 -92.4668 220.37V220.873V221.376C-84.2666 221.376 -77.8567 218.944 -73.5008 214.318C-69.1492 209.697 -66.914 202.957 -66.914 194.473H-67.4168ZM-92.4668 205.873V206.376C-89.7527 206.376 -87.4563 205.637 -85.8489 203.846C-84.2513 202.067 -83.414 199.335 -83.414 195.523H-83.9168H-84.4196C-84.4196 199.211 -85.2323 201.654 -86.5972 203.175C-87.9523 204.684 -89.9309 205.37 -92.4668 205.37V205.873ZM-83.9168 195.523H-83.414V138.223H-83.9168H-84.4196V195.523H-83.9168ZM-83.9168 138.223H-83.414C-83.414 134.411 -84.2513 131.679 -85.8489 129.9C-87.4563 128.109 -89.7527 127.37 -92.4668 127.37V127.873V128.376C-89.9309 128.376 -87.9523 129.062 -86.5972 130.571C-85.2323 132.092 -84.4196 134.535 -84.4196 138.223H-83.9168ZM-92.4668 127.873V127.37C-95.1809 127.37 -97.4773 128.109 -99.0847 129.9C-100.682 131.679 -101.52 134.411 -101.52 138.223H-101.017H-100.514C-100.514 134.535 -99.7013 132.092 -98.3364 130.571C-96.9813 129.062 -95.0027 128.376 -92.4668 128.376V127.873ZM-101.017 138.223H-101.52V195.523H-101.017H-100.514V138.223H-101.017ZM-101.017 195.523H-101.52C-101.52 199.335 -100.682 202.067 -99.0847 203.846C-97.4773 205.637 -95.1809 206.376 -92.4668 206.376V205.873V205.37C-95.0027 205.37 -96.9813 204.684 -98.3364 203.175C-99.7013 201.654 -100.514 199.211 -100.514 195.523H-101.017ZM-57.7582 219.373H-58.261V219.876H-57.7582V219.373ZM-57.7582 114.373V113.87H-58.261V114.373H-57.7582ZM-41.2582 114.373H-40.7554V113.87H-41.2582V114.373ZM-41.2582 219.373V219.876H-40.7554V219.373H-41.2582ZM-57.7582 219.373H-57.2554V114.373H-57.7582H-58.261V219.373H-57.7582ZM-57.7582 114.373V114.876H-41.2582V114.373V113.87H-57.7582V114.373ZM-41.2582 114.373H-41.761V219.373H-41.2582H-40.7554V114.373H-41.2582ZM-41.2582 219.373V218.87H-57.7582V219.373V219.876H-41.2582V219.373ZM-30.4008 219.373H-30.9036V219.876H-30.4008V219.373ZM-30.4008 114.373V113.87H-30.9036V114.373H-30.4008ZM-9.70078 114.373L-9.21364 114.249L-9.31026 113.87H-9.70078V114.373ZM6.34922 177.223L5.86208 177.347L5.9587 177.726H6.34922V177.223ZM6.64922 177.223V177.726H7.152V177.223H6.64922ZM6.64922 114.373V113.87H6.14644V114.373H6.64922ZM21.3492 114.373H21.852V113.87H21.3492V114.373ZM21.3492 219.373V219.876H21.852V219.373H21.3492ZM4.39922 219.373L3.91242 219.499L4.00981 219.876H4.39922V219.373ZM-15.4008 142.723L-14.914 142.597L-15.0114 142.22H-15.4008V142.723ZM-15.7008 142.723V142.22H-16.2036V142.723H-15.7008ZM-15.7008 219.373V219.876H-15.198V219.373H-15.7008ZM-30.4008 219.373H-29.898V114.373H-30.4008H-30.9036V219.373H-30.4008ZM-30.4008 114.373V114.876H-9.70078V114.373V113.87H-30.4008V114.373ZM-9.70078 114.373L-10.1879 114.497L5.86208 177.347L6.34922 177.223L6.83636 177.099L-9.21364 114.249L-9.70078 114.373ZM6.34922 177.223V177.726H6.64922V177.223V176.72H6.34922V177.223ZM6.64922 177.223H7.152V114.373H6.64922H6.14644V177.223H6.64922ZM6.64922 114.373V114.876H21.3492V114.373V113.87H6.64922V114.373ZM21.3492 114.373H20.8464V219.373H21.3492H21.852V114.373H21.3492ZM21.3492 219.373V218.87H4.39922V219.373V219.876H21.3492V219.373ZM4.39922 219.373L4.88602 219.247L-14.914 142.597L-15.4008 142.723L-15.8876 142.849L3.91242 219.499L4.39922 219.373ZM-15.4008 142.723V142.22H-15.7008V142.723V143.226H-15.4008V142.723ZM-15.7008 142.723H-16.2036V219.373H-15.7008H-15.198V142.723H-15.7008ZM-15.7008 219.373V218.87H-30.4008V219.373V219.876H-15.7008V219.373Z" fill="#F4E046" mask="url(#path-7-inside-4_1611_7748)"/>
<mask id="path-9-inside-5_1611_7748" fill="white">
<path d="M50.0266 219.973C47.0266 219.973 44.7766 219.823 42.3766 219.373V204.373C44.1766 204.823 45.9766 204.973 47.7766 204.973C54.3766 204.973 57.5266 201.823 57.5266 194.923V114.373H74.0266V194.473C74.0266 211.723 66.2266 219.973 50.0266 219.973ZM108.174 220.873C91.9738 220.873 83.1238 211.273 83.1238 194.473V139.273C83.1238 122.473 91.9738 112.873 108.174 112.873C124.374 112.873 133.224 122.473 133.224 139.273V194.473C133.224 211.273 124.374 220.873 108.174 220.873ZM108.174 205.873C113.424 205.873 116.724 203.023 116.724 195.523V138.223C116.724 130.723 113.424 127.873 108.174 127.873C102.924 127.873 99.6238 130.723 99.6238 138.223V195.523C99.6238 203.023 102.924 205.873 108.174 205.873ZM142.882 219.373V114.373H159.382V219.373H142.882ZM170.24 219.373V114.373H190.94L206.99 177.223H207.29V114.373H221.99V219.373H205.04L185.24 142.723H184.94V219.373H170.24Z"/>
</mask>
<path d="M42.3766 219.373H41.8738V219.79L42.2839 219.867L42.3766 219.373ZM42.3766 204.373L42.4985 203.885L41.8738 203.729V204.373H42.3766ZM57.5266 114.373V113.87H57.0238V114.373H57.5266ZM74.0266 114.373H74.5293V113.87H74.0266V114.373ZM50.0266 219.973V219.47C47.0451 219.47 44.8284 219.321 42.4692 218.879L42.3766 219.373L42.2839 219.867C44.7247 220.325 47.008 220.476 50.0266 220.476V219.973ZM42.3766 219.373H42.8793V204.373H42.3766H41.8738V219.373H42.3766ZM42.3766 204.373L42.2546 204.861C44.1058 205.324 45.949 205.476 47.7766 205.476V204.973V204.47C46.0041 204.47 44.2473 204.322 42.4985 203.885L42.3766 204.373ZM47.7766 204.973V205.476C51.1481 205.476 53.7422 204.671 55.4861 202.887C57.2277 201.105 58.0293 198.439 58.0293 194.923H57.5266H57.0238C57.0238 198.307 56.2504 200.666 54.767 202.184C53.2859 203.7 51.005 204.47 47.7766 204.47V204.973ZM57.5266 194.923H58.0293V114.373H57.5266H57.0238V194.923H57.5266ZM57.5266 114.373V114.876H74.0266V114.373V113.87H57.5266V114.373ZM74.0266 114.373H73.5238V194.473H74.0266H74.5293V114.373H74.0266ZM74.0266 194.473H73.5238C73.5238 203.033 71.5875 209.259 67.7356 213.347C63.8895 217.429 58.0466 219.47 50.0266 219.47V219.973V220.476C58.2065 220.476 64.3637 218.392 68.4675 214.037C72.5657 209.687 74.5293 203.163 74.5293 194.473H74.0266ZM108.174 220.873V220.37C100.174 220.37 94.0589 218.003 89.9399 213.628C85.8164 209.25 83.6266 202.789 83.6266 194.473H83.1238H82.6211C82.6211 202.957 84.8562 209.697 89.2078 214.318C93.5638 218.944 99.9737 221.376 108.174 221.376V220.873ZM83.1238 194.473H83.6266V139.273H83.1238H82.6211V194.473H83.1238ZM83.1238 139.273H83.6266C83.6266 130.957 85.8164 124.497 89.9399 120.118C94.0589 115.744 100.174 113.376 108.174 113.376V112.873V112.37C99.9737 112.37 93.5638 114.803 89.2078 119.428C84.8562 124.049 82.6211 130.789 82.6211 139.273H83.1238ZM108.174 112.873V113.376C116.174 113.376 122.289 115.744 126.408 120.118C130.531 124.497 132.721 130.957 132.721 139.273H133.224H133.727C133.727 130.789 131.491 124.049 127.14 119.428C122.784 114.803 116.374 112.37 108.174 112.37V112.873ZM133.224 139.273H132.721V194.473H133.224H133.727V139.273H133.224ZM133.224 194.473H132.721C132.721 202.789 130.531 209.25 126.408 213.628C122.289 218.003 116.174 220.37 108.174 220.37V220.873V221.376C116.374 221.376 122.784 218.944 127.14 214.318C131.491 209.697 133.727 202.957 133.727 194.473H133.224ZM108.174 205.873V206.376C110.888 206.376 113.184 205.637 114.792 203.846C116.389 202.067 117.227 199.335 117.227 195.523H116.724H116.221C116.221 199.211 115.408 201.654 114.043 203.175C112.688 204.684 110.71 205.37 108.174 205.37V205.873ZM116.724 195.523H117.227V138.223H116.724H116.221V195.523H116.724ZM116.724 138.223H117.227C117.227 134.411 116.389 131.679 114.792 129.9C113.184 128.109 110.888 127.37 108.174 127.37V127.873V128.376C110.71 128.376 112.688 129.062 114.043 130.571C115.408 132.092 116.221 134.535 116.221 138.223H116.724ZM108.174 127.873V127.37C105.46 127.37 103.163 128.109 101.556 129.9C99.9583 131.679 99.1211 134.411 99.1211 138.223H99.6238H100.127C100.127 134.535 100.939 132.092 102.304 130.571C103.659 129.062 105.638 128.376 108.174 128.376V127.873ZM99.6238 138.223H99.1211V195.523H99.6238H100.127V138.223H99.6238ZM99.6238 195.523H99.1211C99.1211 199.335 99.9583 202.067 101.556 203.846C103.163 205.637 105.46 206.376 108.174 206.376V205.873V205.37C105.638 205.37 103.659 204.684 102.304 203.175C100.939 201.654 100.127 199.211 100.127 195.523H99.6238ZM142.882 219.373H142.38V219.876H142.882V219.373ZM142.882 114.373V113.87H142.38V114.373H142.882ZM159.382 114.373H159.885V113.87H159.382V114.373ZM159.382 219.373V219.876H159.885V219.373H159.382ZM142.882 219.373H143.385V114.373H142.882H142.38V219.373H142.882ZM142.882 114.373V114.876H159.382V114.373V113.87H142.882V114.373ZM159.382 114.373H158.88V219.373H159.382H159.885V114.373H159.382ZM159.382 219.373V218.87H142.882V219.373V219.876H159.382V219.373ZM170.24 219.373H169.737V219.876H170.24V219.373ZM170.24 114.373V113.87H169.737V114.373H170.24ZM190.94 114.373L191.427 114.249L191.33 113.87H190.94V114.373ZM206.99 177.223L206.503 177.347L206.599 177.726H206.99V177.223ZM207.29 177.223V177.726H207.793V177.223H207.29ZM207.29 114.373V113.87H206.787V114.373H207.29ZM221.99 114.373H222.493V113.87H221.99V114.373ZM221.99 219.373V219.876H222.493V219.373H221.99ZM205.04 219.373L204.553 219.499L204.65 219.876H205.04V219.373ZM185.24 142.723L185.727 142.597L185.629 142.22H185.24V142.723ZM184.94 142.723V142.22H184.437V142.723H184.94ZM184.94 219.373V219.876H185.443V219.373H184.94ZM170.24 219.373H170.743V114.373H170.24H169.737V219.373H170.24ZM170.24 114.373V114.876H190.94V114.373V113.87H170.24V114.373ZM190.94 114.373L190.453 114.497L206.503 177.347L206.99 177.223L207.477 177.099L191.427 114.249L190.94 114.373ZM206.99 177.223V177.726H207.29V177.223V176.72H206.99V177.223ZM207.29 177.223H207.793V114.373H207.29H206.787V177.223H207.29ZM207.29 114.373V114.876H221.99V114.373V113.87H207.29V114.373ZM221.99 114.373H221.487V219.373H221.99H222.493V114.373H221.99ZM221.99 219.373V218.87H205.04V219.373V219.876H221.99V219.373ZM205.04 219.373L205.527 219.247L185.727 142.597L185.24 142.723L184.753 142.849L204.553 219.499L205.04 219.373ZM185.24 142.723V142.22H184.94V142.723V143.226H185.24V142.723ZM184.94 142.723H184.437V219.373H184.94H185.443V142.723H184.94ZM184.94 219.373V218.87H170.24V219.373V219.876H184.94V219.373Z" fill="#F4E046" mask="url(#path-9-inside-5_1611_7748)"/>
<mask id="path-11-inside-6_1611_7748" fill="white">
<path d="M250.667 219.973C247.667 219.973 245.417 219.823 243.017 219.373V204.373C244.817 204.823 246.617 204.973 248.417 204.973C255.017 204.973 258.167 201.823 258.167 194.923V114.373H274.667V194.473C274.667 211.723 266.867 219.973 250.667 219.973ZM308.814 220.873C292.614 220.873 283.764 211.273 283.764 194.473V139.273C283.764 122.473 292.614 112.873 308.814 112.873C325.014 112.873 333.864 122.473 333.864 139.273V194.473C333.864 211.273 325.014 220.873 308.814 220.873ZM308.814 205.873C314.064 205.873 317.364 203.023 317.364 195.523V138.223C317.364 130.723 314.064 127.873 308.814 127.873C303.564 127.873 300.264 130.723 300.264 138.223V195.523C300.264 203.023 303.564 205.873 308.814 205.873ZM343.523 219.373V114.373H360.023V219.373H343.523ZM370.88 219.373V114.373H391.58L407.63 177.223H407.93V114.373H422.63V219.373H405.68L385.88 142.723H385.58V219.373H370.88Z"/>
</mask>
<path d="M243.017 219.373H242.514V219.79L242.925 219.867L243.017 219.373ZM243.017 204.373L243.139 203.885L242.514 203.729V204.373H243.017ZM258.167 114.373V113.87H257.664V114.373H258.167ZM274.667 114.373H275.17V113.87H274.667V114.373ZM250.667 219.973V219.47C247.686 219.47 245.469 219.321 243.11 218.879L243.017 219.373L242.925 219.867C245.365 220.325 247.649 220.476 250.667 220.476V219.973ZM243.017 219.373H243.52V204.373H243.017H242.514V219.373H243.017ZM243.017 204.373L242.895 204.861C244.746 205.324 246.59 205.476 248.417 205.476V204.973V204.47C246.645 204.47 244.888 204.322 243.139 203.885L243.017 204.373ZM248.417 204.973V205.476C251.789 205.476 254.383 204.671 256.127 202.887C257.868 201.105 258.67 198.439 258.67 194.923H258.167H257.664C257.664 198.307 256.891 200.666 255.408 202.184C253.927 203.7 251.646 204.47 248.417 204.47V204.973ZM258.167 194.923H258.67V114.373H258.167H257.664V194.923H258.167ZM258.167 114.373V114.876H274.667V114.373V113.87H258.167V114.373ZM274.667 114.373H274.164V194.473H274.667H275.17V114.373H274.667ZM274.667 194.473H274.164C274.164 203.033 272.228 209.259 268.376 213.347C264.53 217.429 258.687 219.47 250.667 219.47V219.973V220.476C258.847 220.476 265.004 218.392 269.108 214.037C273.206 209.687 275.17 203.163 275.17 194.473H274.667ZM308.814 220.873V220.37C300.815 220.37 294.7 218.003 290.58 213.628C286.457 209.25 284.267 202.789 284.267 194.473H283.764H283.262C283.262 202.957 285.497 209.697 289.848 214.318C294.204 218.944 300.614 221.376 308.814 221.376V220.873ZM283.764 194.473H284.267V139.273H283.764H283.262V194.473H283.764ZM283.764 139.273H284.267C284.267 130.957 286.457 124.497 290.58 120.118C294.7 115.744 300.815 113.376 308.814 113.376V112.873V112.37C300.614 112.37 294.204 114.803 289.848 119.428C285.497 124.049 283.262 130.789 283.262 139.273H283.764ZM308.814 112.873V113.376C316.814 113.376 322.929 115.744 327.048 120.118C331.172 124.497 333.362 130.957 333.362 139.273H333.864H334.367C334.367 130.789 332.132 124.049 327.78 119.428C323.425 114.803 317.015 112.37 308.814 112.37V112.873ZM333.864 139.273H333.362V194.473H333.864H334.367V139.273H333.864ZM333.864 194.473H333.362C333.362 202.789 331.172 209.25 327.048 213.628C322.929 218.003 316.814 220.37 308.814 220.37V220.873V221.376C317.015 221.376 323.425 218.944 327.78 214.318C332.132 209.697 334.367 202.957 334.367 194.473H333.864ZM308.814 205.873V206.376C311.529 206.376 313.825 205.637 315.432 203.846C317.03 202.067 317.867 199.335 317.867 195.523H317.364H316.862C316.862 199.211 316.049 201.654 314.684 203.175C313.329 204.684 311.35 205.37 308.814 205.37V205.873ZM317.364 195.523H317.867V138.223H317.364H316.862V195.523H317.364ZM317.364 138.223H317.867C317.867 134.411 317.03 131.679 315.432 129.9C313.825 128.109 311.529 127.37 308.814 127.37V127.873V128.376C311.35 128.376 313.329 129.062 314.684 130.571C316.049 132.092 316.862 134.535 316.862 138.223H317.364ZM308.814 127.873V127.37C306.1 127.37 303.804 128.109 302.197 129.9C300.599 131.679 299.762 134.411 299.762 138.223H300.264H300.767C300.767 134.535 301.58 132.092 302.945 130.571C304.3 129.062 306.279 128.376 308.814 128.376V127.873ZM300.264 138.223H299.762V195.523H300.264H300.767V138.223H300.264ZM300.264 195.523H299.762C299.762 199.335 300.599 202.067 302.197 203.846C303.804 205.637 306.1 206.376 308.814 206.376V205.873V205.37C306.279 205.37 304.3 204.684 302.945 203.175C301.58 201.654 300.767 199.211 300.767 195.523H300.264ZM343.523 219.373H343.02V219.876H343.523V219.373ZM343.523 114.373V113.87H343.02V114.373H343.523ZM360.023 114.373H360.526V113.87H360.023V114.373ZM360.023 219.373V219.876H360.526V219.373H360.023ZM343.523 219.373H344.026V114.373H343.523H343.02V219.373H343.523ZM343.523 114.373V114.876H360.023V114.373V113.87H343.523V114.373ZM360.023 114.373H359.52V219.373H360.023H360.526V114.373H360.023ZM360.023 219.373V218.87H343.523V219.373V219.876H360.023V219.373ZM370.88 219.373H370.378V219.876H370.88V219.373ZM370.88 114.373V113.87H370.378V114.373H370.88ZM391.58 114.373L392.068 114.249L391.971 113.87H391.58V114.373ZM407.63 177.223L407.143 177.347L407.24 177.726H407.63V177.223ZM407.93 177.223V177.726H408.433V177.223H407.93ZM407.93 114.373V113.87H407.428V114.373H407.93ZM422.63 114.373H423.133V113.87H422.63V114.373ZM422.63 219.373V219.876H423.133V219.373H422.63ZM405.68 219.373L405.194 219.499L405.291 219.876H405.68V219.373ZM385.88 142.723L386.367 142.597L386.27 142.22H385.88V142.723ZM385.58 142.723V142.22H385.078V142.723H385.58ZM385.58 219.373V219.876H386.083V219.373H385.58ZM370.88 219.373H371.383V114.373H370.88H370.378V219.373H370.88ZM370.88 114.373V114.876H391.58V114.373V113.87H370.88V114.373ZM391.58 114.373L391.093 114.497L407.143 177.347L407.63 177.223L408.118 177.099L392.068 114.249L391.58 114.373ZM407.63 177.223V177.726H407.93V177.223V176.72H407.63V177.223ZM407.93 177.223H408.433V114.373H407.93H407.428V177.223H407.93ZM407.93 114.373V114.876H422.63V114.373V113.87H407.93V114.373ZM422.63 114.373H422.128V219.373H422.63H423.133V114.373H422.63ZM422.63 219.373V218.87H405.68V219.373V219.876H422.63V219.373ZM405.68 219.373L406.167 219.247L386.367 142.597L385.88 142.723L385.394 142.849L405.194 219.499L405.68 219.373ZM385.88 142.723V142.22H385.58V142.723V143.226H385.88V142.723ZM385.58 142.723H385.078V219.373H385.58H386.083V142.723H385.58ZM385.58 219.373V218.87H370.88V219.373V219.876H385.58V219.373Z" fill="#F4E046" mask="url(#path-11-inside-6_1611_7748)"/>
<mask id="path-13-inside-7_1611_7748" fill="white">
<path d="M1.69063 336.719C-1.30937 336.719 -3.55937 336.569 -5.95937 336.119V321.119C-4.15937 321.569 -2.35937 321.719 -0.559375 321.719C6.04063 321.719 9.19063 318.569 9.19063 311.669V231.119H25.6906V311.219C25.6906 328.469 17.8906 336.719 1.69063 336.719ZM59.8379 337.619C43.6379 337.619 34.7879 328.019 34.7879 311.219V256.019C34.7879 239.219 43.6379 229.619 59.8379 229.619C76.0379 229.619 84.8879 239.219 84.8879 256.019V311.219C84.8879 328.019 76.0379 337.619 59.8379 337.619ZM59.8379 322.619C65.0879 322.619 68.3879 319.769 68.3879 312.269V254.969C68.3879 247.469 65.0879 244.619 59.8379 244.619C54.5879 244.619 51.2879 247.469 51.2879 254.969V312.269C51.2879 319.769 54.5879 322.619 59.8379 322.619ZM94.5465 336.119V231.119H111.046V336.119H94.5465ZM121.904 336.119V231.119H142.604L158.654 293.969H158.954V231.119H173.654V336.119H156.704L136.904 259.469H136.604V336.119H121.904Z"/>
</mask>
<path d="M-5.95937 336.119H-6.46215V336.536L-6.05203 336.613L-5.95937 336.119ZM-5.95937 321.119L-5.83743 320.631L-6.46215 320.475V321.119H-5.95937ZM9.19063 231.119V230.616H8.68785V231.119H9.19063ZM25.6906 231.119H26.1934V230.616H25.6906V231.119ZM1.69063 336.719V336.216C-1.29083 336.216 -3.50752 336.067 -5.86672 335.625L-5.95937 336.119L-6.05203 336.613C-3.61123 337.071 -1.32792 337.222 1.69063 337.222V336.719ZM-5.95937 336.119H-5.4566V321.119H-5.95937H-6.46215V336.119H-5.95937ZM-5.95937 321.119L-6.08132 321.607C-4.23012 322.07 -2.3869 322.222 -0.559375 322.222V321.719V321.216C-2.33185 321.216 -4.08863 321.069 -5.83743 320.631L-5.95937 321.119ZM-0.559375 321.719V322.222C2.81219 322.222 5.40628 321.418 7.15021 319.633C8.89176 317.851 9.6934 315.185 9.6934 311.669H9.19063H8.68785C8.68785 315.053 7.91449 317.412 6.43105 318.93C4.94997 320.446 2.66906 321.216 -0.559375 321.216V321.719ZM9.19063 311.669H9.6934V231.119H9.19063H8.68785V311.669H9.19063ZM9.19063 231.119V231.622H25.6906V231.119V230.616H9.19063V231.119ZM25.6906 231.119H25.1878V311.219H25.6906H26.1934V231.119H25.6906ZM25.6906 311.219H25.1878C25.1878 319.779 23.2515 326.005 19.3997 330.093C15.5535 334.175 9.71066 336.216 1.69063 336.216V336.719V337.222C9.87059 337.222 16.0277 335.138 20.1316 330.783C24.2297 326.433 26.1934 319.909 26.1934 311.219H25.6906ZM59.8379 337.619V337.116C51.8381 337.116 45.7229 334.749 41.6039 330.374C37.4805 325.996 35.2907 319.535 35.2907 311.219H34.7879H34.2851C34.2851 319.703 36.5203 326.443 40.8719 331.064C45.2278 335.69 51.6377 338.122 59.8379 338.122V337.619ZM34.7879 311.219H35.2907V256.019H34.7879H34.2851V311.219H34.7879ZM34.7879 256.019H35.2907C35.2907 247.703 37.4805 241.243 41.6039 236.864C45.7229 232.49 51.8381 230.122 59.8379 230.122V229.619V229.116C51.6377 229.116 45.2278 231.549 40.8719 236.174C36.5203 240.796 34.2851 247.535 34.2851 256.019H34.7879ZM59.8379 229.619V230.122C67.8377 230.122 73.9528 232.49 78.0719 236.864C82.1953 241.243 84.3851 247.703 84.3851 256.019H84.8879H85.3907C85.3907 247.535 83.1555 240.796 78.8039 236.174C74.4479 231.549 68.0381 229.116 59.8379 229.116V229.619ZM84.8879 256.019H84.3851V311.219H84.8879H85.3907V256.019H84.8879ZM84.8879 311.219H84.3851C84.3851 319.535 82.1953 325.996 78.0719 330.374C73.9528 334.749 67.8377 337.116 59.8379 337.116V337.619V338.122C68.0381 338.122 74.4479 335.69 78.8039 331.064C83.1555 326.443 85.3907 319.703 85.3907 311.219H84.8879ZM59.8379 322.619V323.122C62.552 323.122 64.8484 322.383 66.4558 320.593C68.0534 318.813 68.8907 316.082 68.8907 312.269H68.3879H67.8851C67.8851 315.957 67.0724 318.4 65.7075 319.921C64.3524 321.43 62.3738 322.116 59.8379 322.116V322.619ZM68.3879 312.269H68.8907V254.969H68.3879H67.8851V312.269H68.3879ZM68.3879 254.969H68.8907C68.8907 251.157 68.0534 248.425 66.4558 246.646C64.8484 244.855 62.552 244.116 59.8379 244.116V244.619V245.122C62.3738 245.122 64.3524 245.808 65.7075 247.318C67.0724 248.838 67.8851 251.282 67.8851 254.969H68.3879ZM59.8379 244.619V244.116C57.1238 244.116 54.8274 244.855 53.22 246.646C51.6224 248.425 50.7851 251.157 50.7851 254.969H51.2879H51.7907C51.7907 251.282 52.6034 248.838 53.9683 247.318C55.3234 245.808 57.302 245.122 59.8379 245.122V244.619ZM51.2879 254.969H50.7851V312.269H51.2879H51.7907V254.969H51.2879ZM51.2879 312.269H50.7851C50.7851 316.082 51.6224 318.813 53.22 320.593C54.8274 322.383 57.1238 323.122 59.8379 323.122V322.619V322.116C57.302 322.116 55.3234 321.43 53.9683 319.921C52.6034 318.4 51.7907 315.957 51.7907 312.269H51.2879ZM94.5465 336.119H94.0437V336.622H94.5465V336.119ZM94.5465 231.119V230.616H94.0437V231.119H94.5465ZM111.046 231.119H111.549V230.616H111.046V231.119ZM111.046 336.119V336.622H111.549V336.119H111.046ZM94.5465 336.119H95.0493V231.119H94.5465H94.0437V336.119H94.5465ZM94.5465 231.119V231.622H111.046V231.119V230.616H94.5465V231.119ZM111.046 231.119H110.544V336.119H111.046H111.549V231.119H111.046ZM111.046 336.119V335.616H94.5465V336.119V336.622H111.046V336.119ZM121.904 336.119H121.401V336.622H121.904V336.119ZM121.904 231.119V230.616H121.401V231.119H121.904ZM142.604 231.119L143.091 230.995L142.994 230.616H142.604V231.119ZM158.654 293.969L158.167 294.094L158.263 294.472H158.654V293.969ZM158.954 293.969V294.472H159.457V293.969H158.954ZM158.954 231.119V230.616H158.451V231.119H158.954ZM173.654 231.119H174.157V230.616H173.654V231.119ZM173.654 336.119V336.622H174.157V336.119H173.654ZM156.704 336.119L156.217 336.245L156.315 336.622H156.704V336.119ZM136.904 259.469L137.391 259.343L137.293 258.966H136.904V259.469ZM136.604 259.469V258.966H136.101V259.469H136.604ZM136.604 336.119V336.622H137.107V336.119H136.604ZM121.904 336.119H122.407V231.119H121.904H121.401V336.119H121.904ZM121.904 231.119V231.622H142.604V231.119V230.616H121.904V231.119ZM142.604 231.119L142.117 231.244L158.167 294.094L158.654 293.969L159.141 293.845L143.091 230.995L142.604 231.119ZM158.654 293.969V294.472H158.954V293.969V293.466H158.654V293.969ZM158.954 293.969H159.457V231.119H158.954H158.451V293.969H158.954ZM158.954 231.119V231.622H173.654V231.119V230.616H158.954V231.119ZM173.654 231.119H173.151V336.119H173.654H174.157V231.119H173.654ZM173.654 336.119V335.616H156.704V336.119V336.622H173.654V336.119ZM156.704 336.119L157.191 335.993L137.391 259.343L136.904 259.469L136.417 259.595L156.217 336.245L156.704 336.119ZM136.904 259.469V258.966H136.604V259.469V259.972H136.904V259.469ZM136.604 259.469H136.101V336.119H136.604H137.107V259.469H136.604ZM136.604 336.119V335.616H121.904V336.119V336.622H136.604V336.119Z" fill="#F4E046" mask="url(#path-13-inside-7_1611_7748)"/>
<mask id="path-15-inside-8_1611_7748" fill="white">
<path d="M202.331 336.719C199.331 336.719 197.081 336.569 194.681 336.119V321.119C196.481 321.569 198.281 321.719 200.081 321.719C206.681 321.719 209.831 318.569 209.831 311.669V231.119H226.331V311.219C226.331 328.469 218.531 336.719 202.331 336.719ZM260.479 337.619C244.279 337.619 235.429 328.019 235.429 311.219V256.019C235.429 239.219 244.279 229.619 260.479 229.619C276.679 229.619 285.529 239.219 285.529 256.019V311.219C285.529 328.019 276.679 337.619 260.479 337.619ZM260.479 322.619C265.729 322.619 269.029 319.769 269.029 312.269V254.969C269.029 247.469 265.729 244.619 260.479 244.619C255.229 244.619 251.929 247.469 251.929 254.969V312.269C251.929 319.769 255.229 322.619 260.479 322.619ZM295.187 336.119V231.119H311.687V336.119H295.187ZM322.545 336.119V231.119H343.245L359.295 293.969H359.595V231.119H374.295V336.119H357.345L337.545 259.469H337.245V336.119H322.545Z"/>
</mask>
<path d="M194.681 336.119H194.178V336.536L194.589 336.613L194.681 336.119ZM194.681 321.119L194.803 320.631L194.178 320.475V321.119H194.681ZM209.831 231.119V230.616H209.328V231.119H209.831ZM226.331 231.119H226.834V230.616H226.331V231.119ZM202.331 336.719V336.216C199.35 336.216 197.133 336.067 194.774 335.625L194.681 336.119L194.589 336.613C197.029 337.071 199.313 337.222 202.331 337.222V336.719ZM194.681 336.119H195.184V321.119H194.681H194.178V336.119H194.681ZM194.681 321.119L194.559 321.607C196.411 322.07 198.254 322.222 200.081 322.222V321.719V321.216C198.309 321.216 196.552 321.069 194.803 320.631L194.681 321.119ZM200.081 321.719V322.222C203.453 322.222 206.047 321.418 207.791 319.633C209.532 317.851 210.334 315.185 210.334 311.669H209.831H209.328C209.328 315.053 208.555 317.412 207.072 318.93C205.591 320.446 203.31 321.216 200.081 321.216V321.719ZM209.831 311.669H210.334V231.119H209.831H209.328V311.669H209.831ZM209.831 231.119V231.622H226.331V231.119V230.616H209.831V231.119ZM226.331 231.119H225.828V311.219H226.331H226.834V231.119H226.331ZM226.331 311.219H225.828C225.828 319.779 223.892 326.005 220.04 330.093C216.194 334.175 210.351 336.216 202.331 336.216V336.719V337.222C210.511 337.222 216.668 335.138 220.772 330.783C224.87 326.433 226.834 319.909 226.834 311.219H226.331ZM260.479 337.619V337.116C252.479 337.116 246.364 334.749 242.245 330.374C238.121 325.996 235.931 319.535 235.931 311.219H235.429H234.926C234.926 319.703 237.161 326.443 241.512 331.064C245.868 335.69 252.278 338.122 260.479 338.122V337.619ZM235.429 311.219H235.931V256.019H235.429H234.926V311.219H235.429ZM235.429 256.019H235.931C235.931 247.703 238.121 241.243 242.245 236.864C246.364 232.49 252.479 230.122 260.479 230.122V229.619V229.116C252.278 229.116 245.868 231.549 241.512 236.174C237.161 240.796 234.926 247.535 234.926 256.019H235.429ZM260.479 229.619V230.122C268.478 230.122 274.593 232.49 278.712 236.864C282.836 241.243 285.026 247.703 285.026 256.019H285.529H286.031C286.031 247.535 283.796 240.796 279.445 236.174C275.089 231.549 268.679 229.116 260.479 229.116V229.619ZM285.529 256.019H285.026V311.219H285.529H286.031V256.019H285.529ZM285.529 311.219H285.026C285.026 319.535 282.836 325.996 278.712 330.374C274.593 334.749 268.478 337.116 260.479 337.116V337.619V338.122C268.679 338.122 275.089 335.69 279.445 331.064C283.796 326.443 286.031 319.703 286.031 311.219H285.529ZM260.479 322.619V323.122C263.193 323.122 265.489 322.383 267.096 320.593C268.694 318.813 269.531 316.082 269.531 312.269H269.029H268.526C268.526 315.957 267.713 318.4 266.348 319.921C264.993 321.43 263.014 322.116 260.479 322.116V322.619ZM269.029 312.269H269.531V254.969H269.029H268.526V312.269H269.029ZM269.029 254.969H269.531C269.531 251.157 268.694 248.425 267.096 246.646C265.489 244.855 263.193 244.116 260.479 244.116V244.619V245.122C263.014 245.122 264.993 245.808 266.348 247.318C267.713 248.838 268.526 251.282 268.526 254.969H269.029ZM260.479 244.619V244.116C257.764 244.116 255.468 244.855 253.861 246.646C252.263 248.425 251.426 251.157 251.426 254.969H251.929H252.431C252.431 251.282 253.244 248.838 254.609 247.318C255.964 245.808 257.943 245.122 260.479 245.122V244.619ZM251.929 254.969H251.426V312.269H251.929H252.431V254.969H251.929ZM251.929 312.269H251.426C251.426 316.082 252.263 318.813 253.861 320.593C255.468 322.383 257.764 323.122 260.479 323.122V322.619V322.116C257.943 322.116 255.964 321.43 254.609 319.921C253.244 318.4 252.431 315.957 252.431 312.269H251.929ZM295.187 336.119H294.684V336.622H295.187V336.119ZM295.187 231.119V230.616H294.684V231.119H295.187ZM311.687 231.119H312.19V230.616H311.687V231.119ZM311.687 336.119V336.622H312.19V336.119H311.687ZM295.187 336.119H295.69V231.119H295.187H294.684V336.119H295.187ZM295.187 231.119V231.622H311.687V231.119V230.616H295.187V231.119ZM311.687 231.119H311.184V336.119H311.687H312.19V231.119H311.687ZM311.687 336.119V335.616H295.187V336.119V336.622H311.687V336.119ZM322.545 336.119H322.042V336.622H322.545V336.119ZM322.545 231.119V230.616H322.042V231.119H322.545ZM343.245 231.119L343.732 230.995L343.635 230.616H343.245V231.119ZM359.295 293.969L358.807 294.094L358.904 294.472H359.295V293.969ZM359.595 293.969V294.472H360.097V293.969H359.595ZM359.595 231.119V230.616H359.092V231.119H359.595ZM374.295 231.119H374.797V230.616H374.295V231.119ZM374.295 336.119V336.622H374.797V336.119H374.295ZM357.345 336.119L356.858 336.245L356.955 336.622H357.345V336.119ZM337.545 259.469L338.031 259.343L337.934 258.966H337.545V259.469ZM337.245 259.469V258.966H336.742V259.469H337.245ZM337.245 336.119V336.622H337.747V336.119H337.245ZM322.545 336.119H323.047V231.119H322.545H322.042V336.119H322.545ZM322.545 231.119V231.622H343.245V231.119V230.616H322.545V231.119ZM343.245 231.119L342.757 231.244L358.807 294.094L359.295 293.969L359.782 293.845L343.732 230.995L343.245 231.119ZM359.295 293.969V294.472H359.595V293.969V293.466H359.295V293.969ZM359.595 293.969H360.097V231.119H359.595H359.092V293.969H359.595ZM359.595 231.119V231.622H374.295V231.119V230.616H359.595V231.119ZM374.295 231.119H373.792V336.119H374.295H374.797V231.119H374.295ZM374.295 336.119V335.616H357.345V336.119V336.622H374.295V336.119ZM357.345 336.119L357.831 335.993L338.031 259.343L337.545 259.469L337.058 259.595L356.858 336.245L357.345 336.119ZM337.545 259.469V258.966H337.245V259.469V259.972H337.545V259.469ZM337.245 259.469H336.742V336.119H337.245H337.747V259.469H337.245ZM337.245 336.119V335.616H322.545V336.119V336.622H337.245V336.119Z" fill="#F4E046" mask="url(#path-15-inside-8_1611_7748)"/>
<mask id="path-17-inside-9_1611_7748" fill="white">
<path d="M-150.614 453.465C-153.614 453.465 -155.864 453.315 -158.264 452.865V437.865C-156.464 438.315 -154.664 438.465 -152.864 438.465C-146.264 438.465 -143.114 435.315 -143.114 428.415V347.865H-126.614V427.965C-126.614 445.215 -134.414 453.465 -150.614 453.465ZM-92.4668 454.365C-108.667 454.365 -117.517 444.765 -117.517 427.965V372.765C-117.517 355.965 -108.667 346.365 -92.4668 346.365C-76.2668 346.365 -67.4168 355.965 -67.4168 372.765V427.965C-67.4168 444.765 -76.2668 454.365 -92.4668 454.365ZM-92.4668 439.365C-87.2168 439.365 -83.9168 436.515 -83.9168 429.015V371.715C-83.9168 364.215 -87.2168 361.365 -92.4668 361.365C-97.7168 361.365 -101.017 364.215 -101.017 371.715V429.015C-101.017 436.515 -97.7168 439.365 -92.4668 439.365ZM-57.7582 452.865V347.865H-41.2582V452.865H-57.7582ZM-30.4008 452.865V347.865H-9.70078L6.34922 410.715H6.64922V347.865H21.3492V452.865H4.39922L-15.4008 376.215H-15.7008V452.865H-30.4008Z"/>
</mask>
<path d="M-158.264 452.865H-158.767V453.283L-158.357 453.359L-158.264 452.865ZM-158.264 437.865L-158.142 437.377L-158.767 437.221V437.865H-158.264ZM-143.114 347.865V347.362H-143.617V347.865H-143.114ZM-126.614 347.865H-126.111V347.362H-126.614V347.865ZM-150.614 453.465V452.962C-153.596 452.962 -155.812 452.813 -158.171 452.371L-158.264 452.865L-158.357 453.359C-155.916 453.817 -153.633 453.968 -150.614 453.968V453.465ZM-158.264 452.865H-157.761V437.865H-158.264H-158.767V452.865H-158.264ZM-158.264 437.865L-158.386 438.353C-156.535 438.816 -154.692 438.968 -152.864 438.968V438.465V437.962C-154.637 437.962 -156.393 437.815 -158.142 437.377L-158.264 437.865ZM-152.864 438.465V438.968C-149.492 438.968 -146.898 438.164 -145.154 436.379C-143.413 434.597 -142.611 431.931 -142.611 428.415H-143.114H-143.617C-143.617 431.799 -144.39 434.158 -145.874 435.676C-147.355 437.192 -149.636 437.962 -152.864 437.962V438.465ZM-143.114 428.415H-142.611V347.865H-143.114H-143.617V428.415H-143.114ZM-143.114 347.865V348.368H-126.614V347.865V347.362H-143.114V347.865ZM-126.614 347.865H-127.117V427.965H-126.614H-126.111V347.865H-126.614ZM-126.614 427.965H-127.117C-127.117 436.525 -129.053 442.751 -132.905 446.839C-136.751 450.921 -142.594 452.962 -150.614 452.962V453.465V453.968C-142.434 453.968 -136.277 451.884 -132.173 447.529C-128.075 443.179 -126.111 436.656 -126.111 427.965H-126.614ZM-92.4668 454.365V453.862C-100.467 453.862 -106.582 451.495 -110.701 447.121C-114.824 442.742 -117.014 436.281 -117.014 427.965H-117.517H-118.02C-118.02 436.449 -115.784 443.189 -111.433 447.81C-107.077 452.436 -100.667 454.868 -92.4668 454.868V454.365ZM-117.517 427.965H-117.014V372.765H-117.517H-118.02V427.965H-117.517ZM-117.517 372.765H-117.014C-117.014 364.449 -114.824 357.989 -110.701 353.61C-106.582 349.236 -100.467 346.868 -92.4668 346.868V346.365V345.862C-100.667 345.862 -107.077 348.295 -111.433 352.921C-115.784 357.542 -118.02 364.281 -118.02 372.765H-117.517ZM-92.4668 346.365V346.868C-84.467 346.868 -78.3518 349.236 -74.2328 353.61C-70.1094 357.989 -67.9196 364.449 -67.9196 372.765H-67.4168H-66.914C-66.914 364.281 -69.1492 357.542 -73.5008 352.921C-77.8567 348.295 -84.2666 345.862 -92.4668 345.862V346.365ZM-67.4168 372.765H-67.9196V427.965H-67.4168H-66.914V372.765H-67.4168ZM-67.4168 427.965H-67.9196C-67.9196 436.281 -70.1094 442.742 -74.2328 447.121C-78.3518 451.495 -84.467 453.862 -92.4668 453.862V454.365V454.868C-84.2666 454.868 -77.8567 452.436 -73.5008 447.81C-69.1492 443.189 -66.914 436.449 -66.914 427.965H-67.4168ZM-92.4668 439.365V439.868C-89.7527 439.868 -87.4563 439.129 -85.8489 437.339C-84.2513 435.559 -83.414 432.828 -83.414 429.015H-83.9168H-84.4196C-84.4196 432.703 -85.2323 435.146 -86.5972 436.667C-87.9523 438.176 -89.9309 438.862 -92.4668 438.862V439.365ZM-83.9168 429.015H-83.414V371.715H-83.9168H-84.4196V429.015H-83.9168ZM-83.9168 371.715H-83.414C-83.414 367.903 -84.2513 365.171 -85.8489 363.392C-87.4563 361.601 -89.7527 360.862 -92.4668 360.862V361.365V361.868C-89.9309 361.868 -87.9523 362.554 -86.5972 364.064C-85.2323 365.584 -84.4196 368.028 -84.4196 371.715H-83.9168ZM-92.4668 361.365V360.862C-95.1809 360.862 -97.4773 361.601 -99.0847 363.392C-100.682 365.171 -101.52 367.903 -101.52 371.715H-101.017H-100.514C-100.514 368.028 -99.7013 365.584 -98.3364 364.064C-96.9813 362.554 -95.0027 361.868 -92.4668 361.868V361.365ZM-101.017 371.715H-101.52V429.015H-101.017H-100.514V371.715H-101.017ZM-101.017 429.015H-101.52C-101.52 432.828 -100.682 435.559 -99.0847 437.339C-97.4773 439.129 -95.1809 439.868 -92.4668 439.868V439.365V438.862C-95.0027 438.862 -96.9813 438.176 -98.3364 436.667C-99.7013 435.146 -100.514 432.703 -100.514 429.015H-101.017ZM-57.7582 452.865H-58.261V453.368H-57.7582V452.865ZM-57.7582 347.865V347.362H-58.261V347.865H-57.7582ZM-41.2582 347.865H-40.7554V347.362H-41.2582V347.865ZM-41.2582 452.865V453.368H-40.7554V452.865H-41.2582ZM-57.7582 452.865H-57.2554V347.865H-57.7582H-58.261V452.865H-57.7582ZM-57.7582 347.865V348.368H-41.2582V347.865V347.362H-57.7582V347.865ZM-41.2582 347.865H-41.761V452.865H-41.2582H-40.7554V347.865H-41.2582ZM-41.2582 452.865V452.362H-57.7582V452.865V453.368H-41.2582V452.865ZM-30.4008 452.865H-30.9036V453.368H-30.4008V452.865ZM-30.4008 347.865V347.362H-30.9036V347.865H-30.4008ZM-9.70078 347.865L-9.21364 347.741L-9.31026 347.362H-9.70078V347.865ZM6.34922 410.715L5.86208 410.84L5.9587 411.218H6.34922V410.715ZM6.64922 410.715V411.218H7.152V410.715H6.64922ZM6.64922 347.865V347.362H6.14644V347.865H6.64922ZM21.3492 347.865H21.852V347.362H21.3492V347.865ZM21.3492 452.865V453.368H21.852V452.865H21.3492ZM4.39922 452.865L3.91242 452.991L4.00981 453.368H4.39922V452.865ZM-15.4008 376.215L-14.914 376.089L-15.0114 375.712H-15.4008V376.215ZM-15.7008 376.215V375.712H-16.2036V376.215H-15.7008ZM-15.7008 452.865V453.368H-15.198V452.865H-15.7008ZM-30.4008 452.865H-29.898V347.865H-30.4008H-30.9036V452.865H-30.4008ZM-30.4008 347.865V348.368H-9.70078V347.865V347.362H-30.4008V347.865ZM-9.70078 347.865L-10.1879 347.99L5.86208 410.84L6.34922 410.715L6.83636 410.591L-9.21364 347.741L-9.70078 347.865ZM6.34922 410.715V411.218H6.64922V410.715V410.212H6.34922V410.715ZM6.64922 410.715H7.152V347.865H6.64922H6.14644V410.715H6.64922ZM6.64922 347.865V348.368H21.3492V347.865V347.362H6.64922V347.865ZM21.3492 347.865H20.8464V452.865H21.3492H21.852V347.865H21.3492ZM21.3492 452.865V452.362H4.39922V452.865V453.368H21.3492V452.865ZM4.39922 452.865L4.88602 452.739L-14.914 376.089L-15.4008 376.215L-15.8876 376.341L3.91242 452.991L4.39922 452.865ZM-15.4008 376.215V375.712H-15.7008V376.215V376.718H-15.4008V376.215ZM-15.7008 376.215H-16.2036V452.865H-15.7008H-15.198V376.215H-15.7008ZM-15.7008 452.865V452.362H-30.4008V452.865V453.368H-15.7008V452.865Z" fill="#F4E046" mask="url(#path-17-inside-9_1611_7748)"/>
<mask id="path-19-inside-10_1611_7748" fill="white">
<path d="M50.0266 453.465C47.0266 453.465 44.7766 453.315 42.3766 452.865V437.865C44.1766 438.315 45.9766 438.465 47.7766 438.465C54.3766 438.465 57.5266 435.315 57.5266 428.415V347.865H74.0266V427.965C74.0266 445.215 66.2266 453.465 50.0266 453.465ZM108.174 454.365C91.9738 454.365 83.1238 444.765 83.1238 427.965V372.765C83.1238 355.965 91.9738 346.365 108.174 346.365C124.374 346.365 133.224 355.965 133.224 372.765V427.965C133.224 444.765 124.374 454.365 108.174 454.365ZM108.174 439.365C113.424 439.365 116.724 436.515 116.724 429.015V371.715C116.724 364.215 113.424 361.365 108.174 361.365C102.924 361.365 99.6238 364.215 99.6238 371.715V429.015C99.6238 436.515 102.924 439.365 108.174 439.365ZM142.882 452.865V347.865H159.382V452.865H142.882ZM170.24 452.865V347.865H190.94L206.99 410.715H207.29V347.865H221.99V452.865H205.04L185.24 376.215H184.94V452.865H170.24Z"/>
</mask>
<path d="M42.3766 452.865H41.8738V453.283L42.2839 453.359L42.3766 452.865ZM42.3766 437.865L42.4985 437.377L41.8738 437.221V437.865H42.3766ZM57.5266 347.865V347.362H57.0238V347.865H57.5266ZM74.0266 347.865H74.5293V347.362H74.0266V347.865ZM50.0266 453.465V452.962C47.0451 452.962 44.8284 452.813 42.4692 452.371L42.3766 452.865L42.2839 453.359C44.7247 453.817 47.008 453.968 50.0266 453.968V453.465ZM42.3766 452.865H42.8793V437.865H42.3766H41.8738V452.865H42.3766ZM42.3766 437.865L42.2546 438.353C44.1058 438.816 45.949 438.968 47.7766 438.968V438.465V437.962C46.0041 437.962 44.2473 437.815 42.4985 437.377L42.3766 437.865ZM47.7766 438.465V438.968C51.1481 438.968 53.7422 438.164 55.4861 436.379C57.2277 434.597 58.0293 431.931 58.0293 428.415H57.5266H57.0238C57.0238 431.799 56.2504 434.158 54.767 435.676C53.2859 437.192 51.005 437.962 47.7766 437.962V438.465ZM57.5266 428.415H58.0293V347.865H57.5266H57.0238V428.415H57.5266ZM57.5266 347.865V348.368H74.0266V347.865V347.362H57.5266V347.865ZM74.0266 347.865H73.5238V427.965H74.0266H74.5293V347.865H74.0266ZM74.0266 427.965H73.5238C73.5238 436.525 71.5875 442.751 67.7356 446.839C63.8895 450.921 58.0466 452.962 50.0266 452.962V453.465V453.968C58.2065 453.968 64.3637 451.884 68.4675 447.529C72.5657 443.179 74.5293 436.656 74.5293 427.965H74.0266ZM108.174 454.365V453.862C100.174 453.862 94.0589 451.495 89.9399 447.121C85.8164 442.742 83.6266 436.281 83.6266 427.965H83.1238H82.6211C82.6211 436.449 84.8562 443.189 89.2078 447.81C93.5638 452.436 99.9737 454.868 108.174 454.868V454.365ZM83.1238 427.965H83.6266V372.765H83.1238H82.6211V427.965H83.1238ZM83.1238 372.765H83.6266C83.6266 364.449 85.8164 357.989 89.9399 353.61C94.0589 349.236 100.174 346.868 108.174 346.868V346.365V345.862C99.9737 345.862 93.5638 348.295 89.2078 352.921C84.8562 357.542 82.6211 364.281 82.6211 372.765H83.1238ZM108.174 346.365V346.868C116.174 346.868 122.289 349.236 126.408 353.61C130.531 357.989 132.721 364.449 132.721 372.765H133.224H133.727C133.727 364.281 131.491 357.542 127.14 352.921C122.784 348.295 116.374 345.862 108.174 345.862V346.365ZM133.224 372.765H132.721V427.965H133.224H133.727V372.765H133.224ZM133.224 427.965H132.721C132.721 436.281 130.531 442.742 126.408 447.121C122.289 451.495 116.174 453.862 108.174 453.862V454.365V454.868C116.374 454.868 122.784 452.436 127.14 447.81C131.491 443.189 133.727 436.449 133.727 427.965H133.224ZM108.174 439.365V439.868C110.888 439.868 113.184 439.129 114.792 437.339C116.389 435.559 117.227 432.828 117.227 429.015H116.724H116.221C116.221 432.703 115.408 435.146 114.043 436.667C112.688 438.176 110.71 438.862 108.174 438.862V439.365ZM116.724 429.015H117.227V371.715H116.724H116.221V429.015H116.724ZM116.724 371.715H117.227C117.227 367.903 116.389 365.171 114.792 363.392C113.184 361.601 110.888 360.862 108.174 360.862V361.365V361.868C110.71 361.868 112.688 362.554 114.043 364.064C115.408 365.584 116.221 368.028 116.221 371.715H116.724ZM108.174 361.365V360.862C105.46 360.862 103.163 361.601 101.556 363.392C99.9583 365.171 99.1211 367.903 99.1211 371.715H99.6238H100.127C100.127 368.028 100.939 365.584 102.304 364.064C103.659 362.554 105.638 361.868 108.174 361.868V361.365ZM99.6238 371.715H99.1211V429.015H99.6238H100.127V371.715H99.6238ZM99.6238 429.015H99.1211C99.1211 432.828 99.9583 435.559 101.556 437.339C103.163 439.129 105.46 439.868 108.174 439.868V439.365V438.862C105.638 438.862 103.659 438.176 102.304 436.667C100.939 435.146 100.127 432.703 100.127 429.015H99.6238ZM142.882 452.865H142.38V453.368H142.882V452.865ZM142.882 347.865V347.362H142.38V347.865H142.882ZM159.382 347.865H159.885V347.362H159.382V347.865ZM159.382 452.865V453.368H159.885V452.865H159.382ZM142.882 452.865H143.385V347.865H142.882H142.38V452.865H142.882ZM142.882 347.865V348.368H159.382V347.865V347.362H142.882V347.865ZM159.382 347.865H158.88V452.865H159.382H159.885V347.865H159.382ZM159.382 452.865V452.362H142.882V452.865V453.368H159.382V452.865ZM170.24 452.865H169.737V453.368H170.24V452.865ZM170.24 347.865V347.362H169.737V347.865H170.24ZM190.94 347.865L191.427 347.741L191.33 347.362H190.94V347.865ZM206.99 410.715L206.503 410.84L206.599 411.218H206.99V410.715ZM207.29 410.715V411.218H207.793V410.715H207.29ZM207.29 347.865V347.362H206.787V347.865H207.29ZM221.99 347.865H222.493V347.362H221.99V347.865ZM221.99 452.865V453.368H222.493V452.865H221.99ZM205.04 452.865L204.553 452.991L204.65 453.368H205.04V452.865ZM185.24 376.215L185.727 376.089L185.629 375.712H185.24V376.215ZM184.94 376.215V375.712H184.437V376.215H184.94ZM184.94 452.865V453.368H185.443V452.865H184.94ZM170.24 452.865H170.743V347.865H170.24H169.737V452.865H170.24ZM170.24 347.865V348.368H190.94V347.865V347.362H170.24V347.865ZM190.94 347.865L190.453 347.99L206.503 410.84L206.99 410.715L207.477 410.591L191.427 347.741L190.94 347.865ZM206.99 410.715V411.218H207.29V410.715V410.212H206.99V410.715ZM207.29 410.715H207.793V347.865H207.29H206.787V410.715H207.29ZM207.29 347.865V348.368H221.99V347.865V347.362H207.29V347.865ZM221.99 347.865H221.487V452.865H221.99H222.493V347.865H221.99ZM221.99 452.865V452.362H205.04V452.865V453.368H221.99V452.865ZM205.04 452.865L205.527 452.739L185.727 376.089L185.24 376.215L184.753 376.341L204.553 452.991L205.04 452.865ZM185.24 376.215V375.712H184.94V376.215V376.718H185.24V376.215ZM184.94 376.215H184.437V452.865H184.94H185.443V376.215H184.94ZM184.94 452.865V452.362H170.24V452.865V453.368H184.94V452.865Z" fill="#F4E046" mask="url(#path-19-inside-10_1611_7748)"/>
<mask id="path-21-inside-11_1611_7748" fill="white">
<path d="M250.667 453.465C247.667 453.465 245.417 453.315 243.017 452.865V437.865C244.817 438.315 246.617 438.465 248.417 438.465C255.017 438.465 258.167 435.315 258.167 428.415V347.865H274.667V427.965C274.667 445.215 266.867 453.465 250.667 453.465ZM308.814 454.365C292.614 454.365 283.764 444.765 283.764 427.965V372.765C283.764 355.965 292.614 346.365 308.814 346.365C325.014 346.365 333.864 355.965 333.864 372.765V427.965C333.864 444.765 325.014 454.365 308.814 454.365ZM308.814 439.365C314.064 439.365 317.364 436.515 317.364 429.015V371.715C317.364 364.215 314.064 361.365 308.814 361.365C303.564 361.365 300.264 364.215 300.264 371.715V429.015C300.264 436.515 303.564 439.365 308.814 439.365ZM343.523 452.865V347.865H360.023V452.865H343.523ZM370.88 452.865V347.865H391.58L407.63 410.715H407.93V347.865H422.63V452.865H405.68L385.88 376.215H385.58V452.865H370.88Z"/>
</mask>
<path d="M243.017 452.865H242.514V453.283L242.925 453.359L243.017 452.865ZM243.017 437.865L243.139 437.377L242.514 437.221V437.865H243.017ZM258.167 347.865V347.362H257.664V347.865H258.167ZM274.667 347.865H275.17V347.362H274.667V347.865ZM250.667 453.465V452.962C247.686 452.962 245.469 452.813 243.11 452.371L243.017 452.865L242.925 453.359C245.365 453.817 247.649 453.968 250.667 453.968V453.465ZM243.017 452.865H243.52V437.865H243.017H242.514V452.865H243.017ZM243.017 437.865L242.895 438.353C244.746 438.816 246.59 438.968 248.417 438.968V438.465V437.962C246.645 437.962 244.888 437.815 243.139 437.377L243.017 437.865ZM248.417 438.465V438.968C251.789 438.968 254.383 438.164 256.127 436.379C257.868 434.597 258.67 431.931 258.67 428.415H258.167H257.664C257.664 431.799 256.891 434.158 255.408 435.676C253.927 437.192 251.646 437.962 248.417 437.962V438.465ZM258.167 428.415H258.67V347.865H258.167H257.664V428.415H258.167ZM258.167 347.865V348.368H274.667V347.865V347.362H258.167V347.865ZM274.667 347.865H274.164V427.965H274.667H275.17V347.865H274.667ZM274.667 427.965H274.164C274.164 436.525 272.228 442.751 268.376 446.839C264.53 450.921 258.687 452.962 250.667 452.962V453.465V453.968C258.847 453.968 265.004 451.884 269.108 447.529C273.206 443.179 275.17 436.656 275.17 427.965H274.667ZM308.814 454.365V453.862C300.815 453.862 294.7 451.495 290.58 447.121C286.457 442.742 284.267 436.281 284.267 427.965H283.764H283.262C283.262 436.449 285.497 443.189 289.848 447.81C294.204 452.436 300.614 454.868 308.814 454.868V454.365ZM283.764 427.965H284.267V372.765H283.764H283.262V427.965H283.764ZM283.764 372.765H284.267C284.267 364.449 286.457 357.989 290.58 353.61C294.7 349.236 300.815 346.868 308.814 346.868V346.365V345.862C300.614 345.862 294.204 348.295 289.848 352.921C285.497 357.542 283.262 364.281 283.262 372.765H283.764ZM308.814 346.365V346.868C316.814 346.868 322.929 349.236 327.048 353.61C331.172 357.989 333.362 364.449 333.362 372.765H333.864H334.367C334.367 364.281 332.132 357.542 327.78 352.921C323.425 348.295 317.015 345.862 308.814 345.862V346.365ZM333.864 372.765H333.362V427.965H333.864H334.367V372.765H333.864ZM333.864 427.965H333.362C333.362 436.281 331.172 442.742 327.048 447.121C322.929 451.495 316.814 453.862 308.814 453.862V454.365V454.868C317.015 454.868 323.425 452.436 327.78 447.81C332.132 443.189 334.367 436.449 334.367 427.965H333.864ZM308.814 439.365V439.868C311.529 439.868 313.825 439.129 315.432 437.339C317.03 435.559 317.867 432.828 317.867 429.015H317.364H316.862C316.862 432.703 316.049 435.146 314.684 436.667C313.329 438.176 311.35 438.862 308.814 438.862V439.365ZM317.364 429.015H317.867V371.715H317.364H316.862V429.015H317.364ZM317.364 371.715H317.867C317.867 367.903 317.03 365.171 315.432 363.392C313.825 361.601 311.529 360.862 308.814 360.862V361.365V361.868C311.35 361.868 313.329 362.554 314.684 364.064C316.049 365.584 316.862 368.028 316.862 371.715H317.364ZM308.814 361.365V360.862C306.1 360.862 303.804 361.601 302.197 363.392C300.599 365.171 299.762 367.903 299.762 371.715H300.264H300.767C300.767 368.028 301.58 365.584 302.945 364.064C304.3 362.554 306.279 361.868 308.814 361.868V361.365ZM300.264 371.715H299.762V429.015H300.264H300.767V371.715H300.264ZM300.264 429.015H299.762C299.762 432.828 300.599 435.559 302.197 437.339C303.804 439.129 306.1 439.868 308.814 439.868V439.365V438.862C306.279 438.862 304.3 438.176 302.945 436.667C301.58 435.146 300.767 432.703 300.767 429.015H300.264ZM343.523 452.865H343.02V453.368H343.523V452.865ZM343.523 347.865V347.362H343.02V347.865H343.523ZM360.023 347.865H360.526V347.362H360.023V347.865ZM360.023 452.865V453.368H360.526V452.865H360.023ZM343.523 452.865H344.026V347.865H343.523H343.02V452.865H343.523ZM343.523 347.865V348.368H360.023V347.865V347.362H343.523V347.865ZM360.023 347.865H359.52V452.865H360.023H360.526V347.865H360.023ZM360.023 452.865V452.362H343.523V452.865V453.368H360.023V452.865ZM370.88 452.865H370.378V453.368H370.88V452.865ZM370.88 347.865V347.362H370.378V347.865H370.88ZM391.58 347.865L392.068 347.741L391.971 347.362H391.58V347.865ZM407.63 410.715L407.143 410.84L407.24 411.218H407.63V410.715ZM407.93 410.715V411.218H408.433V410.715H407.93ZM407.93 347.865V347.362H407.428V347.865H407.93ZM422.63 347.865H423.133V347.362H422.63V347.865ZM422.63 452.865V453.368H423.133V452.865H422.63ZM405.68 452.865L405.194 452.991L405.291 453.368H405.68V452.865ZM385.88 376.215L386.367 376.089L386.27 375.712H385.88V376.215ZM385.58 376.215V375.712H385.078V376.215H385.58ZM385.58 452.865V453.368H386.083V452.865H385.58ZM370.88 452.865H371.383V347.865H370.88H370.378V452.865H370.88ZM370.88 347.865V348.368H391.58V347.865V347.362H370.88V347.865ZM391.58 347.865L391.093 347.99L407.143 410.84L407.63 410.715L408.118 410.591L392.068 347.741L391.58 347.865ZM407.63 410.715V411.218H407.93V410.715V410.212H407.63V410.715ZM407.93 410.715H408.433V347.865H407.93H407.428V410.715H407.93ZM407.93 347.865V348.368H422.63V347.865V347.362H407.93V347.865ZM422.63 347.865H422.128V452.865H422.63H423.133V347.865H422.63ZM422.63 452.865V452.362H405.68V452.865V453.368H422.63V452.865ZM405.68 452.865L406.167 452.739L386.367 376.089L385.88 376.215L385.394 376.341L405.194 452.991L405.68 452.865ZM385.88 376.215V375.712H385.58V376.215V376.718H385.88V376.215ZM385.58 376.215H385.078V452.865H385.58H386.083V376.215H385.58ZM385.58 452.865V452.362H370.88V452.865V453.368H385.58V452.865Z" fill="#F4E046" mask="url(#path-21-inside-11_1611_7748)"/>
<mask id="path-23-inside-12_1611_7748" fill="white">
<path d="M1.69063 570.211C-1.30937 570.211 -3.55937 570.061 -5.95937 569.611V554.611C-4.15937 555.061 -2.35937 555.211 -0.559375 555.211C6.04063 555.211 9.19063 552.061 9.19063 545.161V464.611H25.6906V544.711C25.6906 561.961 17.8906 570.211 1.69063 570.211ZM59.8379 571.111C43.6379 571.111 34.7879 561.511 34.7879 544.711V489.511C34.7879 472.711 43.6379 463.111 59.8379 463.111C76.0379 463.111 84.8879 472.711 84.8879 489.511V544.711C84.8879 561.511 76.0379 571.111 59.8379 571.111ZM59.8379 556.111C65.0879 556.111 68.3879 553.261 68.3879 545.761V488.461C68.3879 480.961 65.0879 478.111 59.8379 478.111C54.5879 478.111 51.2879 480.961 51.2879 488.461V545.761C51.2879 553.261 54.5879 556.111 59.8379 556.111ZM94.5465 569.611V464.611H111.046V569.611H94.5465ZM121.904 569.611V464.611H142.604L158.654 527.461H158.954V464.611H173.654V569.611H156.704L136.904 492.961H136.604V569.611H121.904Z"/>
</mask>
<path d="M-5.95937 569.611H-6.46215V570.029L-6.05203 570.105L-5.95937 569.611ZM-5.95937 554.611L-5.83743 554.124L-6.46215 553.967V554.611H-5.95937ZM9.19063 464.611V464.109H8.68785V464.611H9.19063ZM25.6906 464.611H26.1934V464.109H25.6906V464.611ZM1.69063 570.211V569.709C-1.29083 569.709 -3.50752 569.56 -5.86672 569.117L-5.95937 569.611L-6.05203 570.105C-3.61123 570.563 -1.32792 570.714 1.69063 570.714V570.211ZM-5.95937 569.611H-5.4566V554.611H-5.95937H-6.46215V569.611H-5.95937ZM-5.95937 554.611L-6.08132 555.099C-4.23012 555.562 -2.3869 555.714 -0.559375 555.714V555.211V554.709C-2.33185 554.709 -4.08863 554.561 -5.83743 554.124L-5.95937 554.611ZM-0.559375 555.211V555.714C2.81219 555.714 5.40628 554.91 7.15021 553.125C8.89176 551.343 9.6934 548.677 9.6934 545.161H9.19063H8.68785C8.68785 548.545 7.91449 550.904 6.43105 552.422C4.94997 553.938 2.66906 554.709 -0.559375 554.709V555.211ZM9.19063 545.161H9.6934V464.611H9.19063H8.68785V545.161H9.19063ZM9.19063 464.611V465.114H25.6906V464.611V464.109H9.19063V464.611ZM25.6906 464.611H25.1878V544.711H25.6906H26.1934V464.611H25.6906ZM25.6906 544.711H25.1878C25.1878 553.271 23.2515 559.497 19.3997 563.585C15.5535 567.667 9.71066 569.709 1.69063 569.709V570.211V570.714C9.87059 570.714 16.0277 568.63 20.1316 564.275C24.2297 559.925 26.1934 553.402 26.1934 544.711H25.6906ZM59.8379 571.111V570.609C51.8381 570.609 45.7229 568.241 41.6039 563.867C37.4805 559.488 35.2907 553.027 35.2907 544.711H34.7879H34.2851C34.2851 553.195 36.5203 559.935 40.8719 564.556C45.2278 569.182 51.6377 571.614 59.8379 571.614V571.111ZM34.7879 544.711H35.2907V489.511H34.7879H34.2851V544.711H34.7879ZM34.7879 489.511H35.2907C35.2907 481.195 37.4805 474.735 41.6039 470.356C45.7229 465.982 51.8381 463.614 59.8379 463.614V463.111V462.609C51.6377 462.609 45.2278 465.041 40.8719 469.667C36.5203 474.288 34.2851 481.027 34.2851 489.511H34.7879ZM59.8379 463.111V463.614C67.8377 463.614 73.9528 465.982 78.0719 470.356C82.1953 474.735 84.3851 481.195 84.3851 489.511H84.8879H85.3907C85.3907 481.027 83.1555 474.288 78.8039 469.667C74.4479 465.041 68.0381 462.609 59.8379 462.609V463.111ZM84.8879 489.511H84.3851V544.711H84.8879H85.3907V489.511H84.8879ZM84.8879 544.711H84.3851C84.3851 553.027 82.1953 559.488 78.0719 563.867C73.9528 568.241 67.8377 570.609 59.8379 570.609V571.111V571.614C68.0381 571.614 74.4479 569.182 78.8039 564.556C83.1555 559.935 85.3907 553.195 85.3907 544.711H84.8879ZM59.8379 556.111V556.614C62.552 556.614 64.8484 555.875 66.4558 554.085C68.0534 552.305 68.8907 549.574 68.8907 545.761H68.3879H67.8851C67.8851 549.449 67.0724 551.893 65.7075 553.413C64.3524 554.922 62.3738 555.609 59.8379 555.609V556.111ZM68.3879 545.761H68.8907V488.461H68.3879H67.8851V545.761H68.3879ZM68.3879 488.461H68.8907C68.8907 484.649 68.0534 481.918 66.4558 480.138C64.8484 478.347 62.552 477.609 59.8379 477.609V478.111V478.614C62.3738 478.614 64.3524 479.3 65.7075 480.81C67.0724 482.33 67.8851 484.774 67.8851 488.461H68.3879ZM59.8379 478.111V477.609C57.1238 477.609 54.8274 478.347 53.22 480.138C51.6224 481.918 50.7851 484.649 50.7851 488.461H51.2879H51.7907C51.7907 484.774 52.6034 482.33 53.9683 480.81C55.3234 479.3 57.302 478.614 59.8379 478.614V478.111ZM51.2879 488.461H50.7851V545.761H51.2879H51.7907V488.461H51.2879ZM51.2879 545.761H50.7851C50.7851 549.574 51.6224 552.305 53.22 554.085C54.8274 555.875 57.1238 556.614 59.8379 556.614V556.111V555.609C57.302 555.609 55.3234 554.922 53.9683 553.413C52.6034 551.893 51.7907 549.449 51.7907 545.761H51.2879ZM94.5465 569.611H94.0437V570.114H94.5465V569.611ZM94.5465 464.611V464.109H94.0437V464.611H94.5465ZM111.046 464.611H111.549V464.109H111.046V464.611ZM111.046 569.611V570.114H111.549V569.611H111.046ZM94.5465 569.611H95.0493V464.611H94.5465H94.0437V569.611H94.5465ZM94.5465 464.611V465.114H111.046V464.611V464.109H94.5465V464.611ZM111.046 464.611H110.544V569.611H111.046H111.549V464.611H111.046ZM111.046 569.611V569.109H94.5465V569.611V570.114H111.046V569.611ZM121.904 569.611H121.401V570.114H121.904V569.611ZM121.904 464.611V464.109H121.401V464.611H121.904ZM142.604 464.611L143.091 464.487L142.994 464.109H142.604V464.611ZM158.654 527.461L158.167 527.586L158.263 527.964H158.654V527.461ZM158.954 527.461V527.964H159.457V527.461H158.954ZM158.954 464.611V464.109H158.451V464.611H158.954ZM173.654 464.611H174.157V464.109H173.654V464.611ZM173.654 569.611V570.114H174.157V569.611H173.654ZM156.704 569.611L156.217 569.737L156.315 570.114H156.704V569.611ZM136.904 492.961L137.391 492.836L137.293 492.459H136.904V492.961ZM136.604 492.961V492.459H136.101V492.961H136.604ZM136.604 569.611V570.114H137.107V569.611H136.604ZM121.904 569.611H122.407V464.611H121.904H121.401V569.611H121.904ZM121.904 464.611V465.114H142.604V464.611V464.109H121.904V464.611ZM142.604 464.611L142.117 464.736L158.167 527.586L158.654 527.461L159.141 527.337L143.091 464.487L142.604 464.611ZM158.654 527.461V527.964H158.954V527.461V526.959H158.654V527.461ZM158.954 527.461H159.457V464.611H158.954H158.451V527.461H158.954ZM158.954 464.611V465.114H173.654V464.611V464.109H158.954V464.611ZM173.654 464.611H173.151V569.611H173.654H174.157V464.611H173.654ZM173.654 569.611V569.109H156.704V569.611V570.114H173.654V569.611ZM156.704 569.611L157.191 569.486L137.391 492.836L136.904 492.961L136.417 493.087L156.217 569.737L156.704 569.611ZM136.904 492.961V492.459H136.604V492.961V493.464H136.904V492.961ZM136.604 492.961H136.101V569.611H136.604H137.107V492.961H136.604ZM136.604 569.611V569.109H121.904V569.611V570.114H136.604V569.611Z" fill="#F4E046" mask="url(#path-23-inside-12_1611_7748)"/>
<mask id="path-25-inside-13_1611_7748" fill="white">
<path d="M202.331 570.211C199.331 570.211 197.081 570.061 194.681 569.611V554.611C196.481 555.061 198.281 555.211 200.081 555.211C206.681 555.211 209.831 552.061 209.831 545.161V464.611H226.331V544.711C226.331 561.961 218.531 570.211 202.331 570.211ZM260.479 571.111C244.279 571.111 235.429 561.511 235.429 544.711V489.511C235.429 472.711 244.279 463.111 260.479 463.111C276.679 463.111 285.529 472.711 285.529 489.511V544.711C285.529 561.511 276.679 571.111 260.479 571.111ZM260.479 556.111C265.729 556.111 269.029 553.261 269.029 545.761V488.461C269.029 480.961 265.729 478.111 260.479 478.111C255.229 478.111 251.929 480.961 251.929 488.461V545.761C251.929 553.261 255.229 556.111 260.479 556.111ZM295.187 569.611V464.611H311.687V569.611H295.187ZM322.545 569.611V464.611H343.245L359.295 527.461H359.595V464.611H374.295V569.611H357.345L337.545 492.961H337.245V569.611H322.545Z"/>
</mask>
<path d="M202.331 570.211C199.331 570.211 197.081 570.061 194.681 569.611V554.611C196.481 555.061 198.281 555.211 200.081 555.211C206.681 555.211 209.831 552.061 209.831 545.161V464.611H226.331V544.711C226.331 561.961 218.531 570.211 202.331 570.211ZM260.479 571.111C244.279 571.111 235.429 561.511 235.429 544.711V489.511C235.429 472.711 244.279 463.111 260.479 463.111C276.679 463.111 285.529 472.711 285.529 489.511V544.711C285.529 561.511 276.679 571.111 260.479 571.111ZM260.479 556.111C265.729 556.111 269.029 553.261 269.029 545.761V488.461C269.029 480.961 265.729 478.111 260.479 478.111C255.229 478.111 251.929 480.961 251.929 488.461V545.761C251.929 553.261 255.229 556.111 260.479 556.111ZM295.187 569.611V464.611H311.687V569.611H295.187ZM322.545 569.611V464.611H343.245L359.295 527.461H359.595V464.611H374.295V569.611H357.345L337.545 492.961H337.245V569.611H322.545Z" fill="#F4E046"/>
<path d="M194.681 569.611H194.178V570.029L194.589 570.105L194.681 569.611ZM194.681 554.611L194.803 554.124L194.178 553.967V554.611H194.681ZM209.831 464.611V464.109H209.328V464.611H209.831ZM226.331 464.611H226.834V464.109H226.331V464.611ZM202.331 570.211V569.709C199.35 569.709 197.133 569.56 194.774 569.117L194.681 569.611L194.589 570.105C197.029 570.563 199.313 570.714 202.331 570.714V570.211ZM194.681 569.611H195.184V554.611H194.681H194.178V569.611H194.681ZM194.681 554.611L194.559 555.099C196.411 555.562 198.254 555.714 200.081 555.714V555.211V554.709C198.309 554.709 196.552 554.561 194.803 554.124L194.681 554.611ZM200.081 555.211V555.714C203.453 555.714 206.047 554.91 207.791 553.125C209.532 551.343 210.334 548.677 210.334 545.161H209.831H209.328C209.328 548.545 208.555 550.904 207.072 552.422C205.591 553.938 203.31 554.709 200.081 554.709V555.211ZM209.831 545.161H210.334V464.611H209.831H209.328V545.161H209.831ZM209.831 464.611V465.114H226.331V464.611V464.109H209.831V464.611ZM226.331 464.611H225.828V544.711H226.331H226.834V464.611H226.331ZM226.331 544.711H225.828C225.828 553.271 223.892 559.497 220.04 563.585C216.194 567.667 210.351 569.709 202.331 569.709V570.211V570.714C210.511 570.714 216.668 568.63 220.772 564.275C224.87 559.925 226.834 553.402 226.834 544.711H226.331ZM260.479 571.111V570.609C252.479 570.609 246.364 568.241 242.245 563.867C238.121 559.488 235.931 553.027 235.931 544.711H235.429H234.926C234.926 553.195 237.161 559.935 241.512 564.556C245.868 569.182 252.278 571.614 260.479 571.614V571.111ZM235.429 544.711H235.931V489.511H235.429H234.926V544.711H235.429ZM235.429 489.511H235.931C235.931 481.195 238.121 474.735 242.245 470.356C246.364 465.982 252.479 463.614 260.479 463.614V463.111V462.609C252.278 462.609 245.868 465.041 241.512 469.667C237.161 474.288 234.926 481.027 234.926 489.511H235.429ZM260.479 463.111V463.614C268.478 463.614 274.593 465.982 278.712 470.356C282.836 474.735 285.026 481.195 285.026 489.511H285.529H286.031C286.031 481.027 283.796 474.288 279.445 469.667C275.089 465.041 268.679 462.609 260.479 462.609V463.111ZM285.529 489.511H285.026V544.711H285.529H286.031V489.511H285.529ZM285.529 544.711H285.026C285.026 553.027 282.836 559.488 278.712 563.867C274.593 568.241 268.478 570.609 260.479 570.609V571.111V571.614C268.679 571.614 275.089 569.182 279.445 564.556C283.796 559.935 286.031 553.195 286.031 544.711H285.529ZM260.479 556.111V556.614C263.193 556.614 265.489 555.875 267.096 554.085C268.694 552.305 269.531 549.574 269.531 545.761H269.029H268.526C268.526 549.449 267.713 551.893 266.348 553.413C264.993 554.922 263.014 555.609 260.479 555.609V556.111ZM269.029 545.761H269.531V488.461H269.029H268.526V545.761H269.029ZM269.029 488.461H269.531C269.531 484.649 268.694 481.918 267.096 480.138C265.489 478.347 263.193 477.609 260.479 477.609V478.111V478.614C263.014 478.614 264.993 479.3 266.348 480.81C267.713 482.33 268.526 484.774 268.526 488.461H269.029ZM260.479 478.111V477.609C257.764 477.609 255.468 478.347 253.861 480.138C252.263 481.918 251.426 484.649 251.426 488.461H251.929H252.431C252.431 484.774 253.244 482.33 254.609 480.81C255.964 479.3 257.943 478.614 260.479 478.614V478.111ZM251.929 488.461H251.426V545.761H251.929H252.431V488.461H251.929ZM251.929 545.761H251.426C251.426 549.574 252.263 552.305 253.861 554.085C255.468 555.875 257.764 556.614 260.479 556.614V556.111V555.609C257.943 555.609 255.964 554.922 254.609 553.413C253.244 551.893 252.431 549.449 252.431 545.761H251.929ZM295.187 569.611H294.684V570.114H295.187V569.611ZM295.187 464.611V464.109H294.684V464.611H295.187ZM311.687 464.611H312.19V464.109H311.687V464.611ZM311.687 569.611V570.114H312.19V569.611H311.687ZM295.187 569.611H295.69V464.611H295.187H294.684V569.611H295.187ZM295.187 464.611V465.114H311.687V464.611V464.109H295.187V464.611ZM311.687 464.611H311.184V569.611H311.687H312.19V464.611H311.687ZM311.687 569.611V569.109H295.187V569.611V570.114H311.687V569.611ZM322.545 569.611H322.042V570.114H322.545V569.611ZM322.545 464.611V464.109H322.042V464.611H322.545ZM343.245 464.611L343.732 464.487L343.635 464.109H343.245V464.611ZM359.295 527.461L358.807 527.586L358.904 527.964H359.295V527.461ZM359.595 527.461V527.964H360.097V527.461H359.595ZM359.595 464.611V464.109H359.092V464.611H359.595ZM374.295 464.611H374.797V464.109H374.295V464.611ZM374.295 569.611V570.114H374.797V569.611H374.295ZM357.345 569.611L356.858 569.737L356.955 570.114H357.345V569.611ZM337.545 492.961L338.031 492.836L337.934 492.459H337.545V492.961ZM337.245 492.961V492.459H336.742V492.961H337.245ZM337.245 569.611V570.114H337.747V569.611H337.245ZM322.545 569.611H323.047V464.611H322.545H322.042V569.611H322.545ZM322.545 464.611V465.114H343.245V464.611V464.109H322.545V464.611ZM343.245 464.611L342.757 464.736L358.807 527.586L359.295 527.461L359.782 527.337L343.732 464.487L343.245 464.611ZM359.295 527.461V527.964H359.595V527.461V526.959H359.295V527.461ZM359.595 527.461H360.097V464.611H359.595H359.092V527.461H359.595ZM359.595 464.611V465.114H374.295V464.611V464.109H359.595V464.611ZM374.295 464.611H373.792V569.611H374.295H374.797V464.611H374.295ZM374.295 569.611V569.109H357.345V569.611V570.114H374.295V569.611ZM357.345 569.611L357.831 569.486L338.031 492.836L337.545 492.961L337.058 493.087L356.858 569.737L357.345 569.611ZM337.545 492.961V492.459H337.245V492.961V493.464H337.545V492.961ZM337.245 492.961H336.742V569.611H337.245H337.747V492.961H337.245ZM337.245 569.611V569.109H322.545V569.611V570.114H337.245V569.611Z" fill="#F4E046" mask="url(#path-25-inside-13_1611_7748)"/>
</g>
<defs>
<clipPath id="clip0_1611_7748">
<rect width="393" height="578" fill="white"/>
</clipPath>
</defs>
</svg>
