<svg width="393" height="816" viewBox="0 0 393 816" fill="none" xmlns="http://www.w3.org/2000/svg">
<path d="M339.838 138.581C349.842 138.581 356.888 140.9 361.439 145.48C365.992 150.062 368.143 156.999 368.143 166.445V174.019C368.143 180.312 367.134 185.422 365.084 189.38C363.041 193.325 359.95 196.151 355.729 197.868L355.422 197.993V199.041L355.77 199.148C360.485 200.602 363.604 203.537 365.559 207.82C367.525 212.128 368.319 217.813 368.319 224.744V246.408C368.319 252.104 368.477 256.448 370.201 260.887H351.501C351.023 259.457 350.632 258.25 350.352 256.312C350.048 254.211 349.871 251.245 349.871 246.232V223.688C349.871 217.944 349.035 214.004 346.976 211.507C344.892 208.981 341.658 208.047 337.188 208.047H329.98V260.887H311.533V138.581H339.838ZM282.817 138.581L302.798 260.887H284.371L280.898 236.827L280.41 236.861V236.757H257.899L257.838 237.179L254.366 260.887H237.353L257.332 138.581H282.817ZM175.905 138.581L188.213 226.398L188.272 226.823H189.483L189.543 226.398L201.851 138.581H228.667V260.887H211.278V167.537H210.008L209.944 167.956L195.874 260.887H180.469L166.398 167.956L166.335 167.537H165.063V260.887H149.09V138.581H175.905ZM120.374 138.581L140.354 260.887H121.928L118.455 236.827L117.967 236.861V236.757H95.4561L95.3945 237.179L91.9229 260.887H74.9092L94.8887 138.581H120.374ZM38.7383 138.581V244.26H70.7158V260.887H20.29V138.581H38.7383ZM106.171 159.508L97.6914 220.449L97.6133 221.011H116.238L116.158 220.448L107.501 159.507L107.441 159.083H106.23L106.171 159.508ZM268.615 159.508L260.135 220.449L260.057 221.011H278.682L278.602 220.448L269.945 159.507L269.885 159.083H268.674L268.615 159.508ZM329.98 191.421H337.541C341.224 191.421 344.295 190.616 346.438 188.457C348.578 186.3 349.694 182.887 349.694 177.894V168.383C349.694 163.943 348.941 160.637 347.228 158.437C345.491 156.208 342.847 155.208 339.308 155.208H329.98V191.421Z" stroke="#F4E046" stroke-width="0.986336"/>
<path d="M457.209 270.749C467.212 270.749 474.258 273.087 478.81 277.704C483.363 282.323 485.514 289.317 485.514 298.84V306.474C485.514 312.818 484.504 317.971 482.454 321.961C480.41 325.939 477.319 328.787 473.099 330.519L472.793 330.644V331.693L473.14 331.801C477.855 333.265 480.974 336.224 482.93 340.543C484.897 344.887 485.69 350.619 485.69 357.605V379.443C485.69 385.187 485.848 389.566 487.574 394.041H468.873C468.395 392.599 468.004 391.382 467.724 389.427C467.419 387.309 467.242 384.318 467.242 379.266V356.54C467.242 350.752 466.407 346.782 464.349 344.267C462.265 341.721 459.03 340.779 454.559 340.779H447.352V394.041H428.904V270.749H457.209ZM400.188 270.749L420.17 394.041H401.742L398.27 369.786L397.781 369.82V369.718H375.271L375.209 370.141L371.737 394.041H354.723L374.703 270.749H400.188ZM293.275 270.749L305.584 359.271L305.644 359.696H306.855L306.914 359.271L319.223 270.749H346.038V394.041H328.649V299.944H327.379L327.315 300.364L313.245 394.041H297.84L283.77 300.364L283.706 299.944H282.435V394.041H266.461V270.749H293.275ZM237.745 270.749L257.726 394.041H239.299L235.826 369.786L235.338 369.82V369.718H212.827L212.766 370.141L209.294 394.041H192.279L212.26 270.749H237.745ZM156.109 270.749V377.273H188.087V394.041H137.661V270.749H156.109ZM223.542 291.849L215.062 353.277L214.984 353.838H233.608L233.529 353.276L224.872 291.847L224.812 291.423H223.602L223.542 291.849ZM385.985 291.849L377.506 353.277L377.428 353.838H396.052L395.973 353.276L387.316 291.847L387.256 291.423H386.045L385.985 291.849ZM447.352 324.011H454.912C458.596 324.011 461.668 323.2 463.811 321.023C465.95 318.85 467.065 315.412 467.065 310.38V300.793C467.065 296.318 466.312 292.987 464.6 290.771C462.864 288.525 460.219 287.517 456.679 287.517H447.352V324.011Z" stroke="#F4E046" stroke-width="0.986336"/>
<path d="M339.838 400.945C349.841 400.945 356.887 403.283 361.438 407.9C365.991 412.519 368.143 419.513 368.143 429.036V436.67C368.143 443.014 367.133 448.167 365.083 452.157C363.039 456.136 359.948 458.984 355.728 460.715L355.422 460.84V461.89L355.769 461.997C360.484 463.462 363.603 466.421 365.559 470.739C367.525 475.083 368.319 480.815 368.319 487.802V509.64C368.319 515.383 368.477 519.762 370.203 524.237H351.502C351.024 522.796 350.633 521.578 350.353 519.623C350.048 517.505 349.871 514.515 349.871 509.462V486.736C349.871 480.948 349.036 476.978 346.978 474.463C344.894 471.917 341.659 470.976 337.188 470.976H329.98V524.237H311.533V400.945H339.838ZM282.817 400.945L302.799 524.237H284.371L280.898 499.982L280.41 500.017V499.914H257.899L257.838 500.337L254.366 524.237H237.352L257.332 400.945H282.817ZM175.904 400.945L188.213 489.468L188.272 489.893H189.484L189.543 489.468L201.852 400.945H228.667V524.237H211.278V430.141H210.008L209.944 430.561L195.874 524.237H180.469L166.398 430.561L166.335 430.141H165.063V524.237H149.09V400.945H175.904ZM120.374 400.945L140.354 524.237H121.928L118.455 499.982L117.967 500.017V499.914H95.4561L95.3945 500.337L91.9229 524.237H74.9082L94.8887 400.945H120.374ZM38.7383 400.945V507.47H70.7158V524.237H20.29V400.945H38.7383ZM106.171 422.045L97.6904 483.474L97.6133 484.034H116.237L116.158 483.473L107.501 422.043L107.441 421.619H106.23L106.171 422.045ZM268.614 422.045L260.135 483.474L260.057 484.034H278.681L278.602 483.473L269.945 422.043L269.885 421.619H268.674L268.614 422.045ZM329.98 454.207H337.541C341.225 454.207 344.297 453.396 346.439 451.22C348.579 449.046 349.694 445.608 349.694 440.576V430.989C349.694 426.514 348.941 423.183 347.229 420.967C345.493 418.721 342.848 417.713 339.308 417.713H329.98V454.207Z" fill="#F4E046" stroke="#F4E046" stroke-width="0.986336"/>
<path d="M67.6035 533.115C77.6073 533.115 84.6533 535.434 89.2051 540.015C93.7574 544.596 95.9082 551.533 95.9082 560.979V568.553C95.9082 574.846 94.8992 579.957 92.8496 583.914C90.8062 587.86 87.7159 590.685 83.4951 592.402L83.1875 592.527V593.575L83.5352 593.683C88.2511 595.136 91.3695 598.072 93.3242 602.354C95.2904 606.663 96.0849 612.348 96.085 619.278V640.942C96.085 646.638 96.2423 650.982 97.9668 655.421H79.2666C78.7888 653.991 78.3978 652.784 78.1172 650.846C77.8131 648.745 77.6367 645.779 77.6367 640.767V618.222C77.6367 612.478 76.8011 608.538 74.7412 606.041C72.6575 603.515 69.4235 602.581 64.9531 602.581H57.7461V655.421H39.2988V533.115H67.6035ZM10.583 533.115L30.5635 655.421H12.1367L8.66406 631.361L8.17578 631.396V631.291H-14.335L-14.3965 631.713L-17.8682 655.421H-34.8818L-14.9023 533.115H10.583ZM-96.3291 533.115L-84.0215 620.933L-83.9619 621.357H-82.751L-82.6914 620.933L-70.3838 533.115H-43.5674V655.421H-60.9561V562.071H-62.2266L-62.29 562.49L-76.3604 655.421H-91.7656L-105.836 562.49L-105.899 562.071H-107.171V655.421H-123.145V533.115H-96.3291ZM-151.86 533.115L-131.88 655.421H-150.307L-153.779 631.361L-154.268 631.396V631.291H-176.778L-176.84 631.713L-180.312 655.421H-197.325L-177.346 533.115H-151.86ZM-233.496 533.115V638.794H-201.519V655.421H-251.944V533.115H-233.496ZM-166.063 554.042L-174.543 614.983L-174.621 615.545H-155.996L-156.076 614.982L-164.733 554.041L-164.793 553.617H-166.004L-166.063 554.042ZM-3.61914 554.042L-12.0996 614.983L-12.1777 615.545H6.44727L6.36719 614.982L-2.28906 554.041L-2.34961 553.617H-3.56055L-3.61914 554.042ZM57.7461 585.955H65.3066C68.9892 585.955 72.0609 585.15 74.2031 582.991C76.3435 580.834 77.46 577.421 77.46 572.428V562.917C77.46 558.477 76.7068 555.171 74.9932 552.971C73.257 550.742 70.6126 549.742 67.0732 549.742H57.7461V585.955Z" stroke="#F4E046" stroke-width="0.986336"/>
<path d="M447.346 533.115C457.349 533.115 464.395 535.434 468.947 540.015C473.5 544.596 475.65 551.533 475.65 560.979V568.553C475.65 574.846 474.641 579.957 472.592 583.914C470.548 587.86 467.458 590.685 463.237 592.402L462.93 592.527V593.575L463.277 593.683C467.993 595.136 471.112 598.072 473.066 602.354C475.033 606.663 475.827 612.348 475.827 619.278V640.942C475.827 646.638 475.984 650.982 477.709 655.421H459.009C458.531 653.991 458.14 652.784 457.859 650.846C457.555 648.745 457.379 645.779 457.379 640.767V618.222C457.379 612.478 456.543 608.538 454.483 606.041C452.4 603.515 449.166 602.581 444.695 602.581H437.488V655.421H419.041V533.115H447.346ZM390.325 533.115L410.306 655.421H391.879L388.406 631.361L387.918 631.396V631.291H365.407L365.346 631.713L361.874 655.421H344.86L364.84 533.115H390.325ZM283.413 533.115L295.721 620.933L295.78 621.357H296.991L297.051 620.933L309.358 533.115H336.175V655.421H318.786V562.071H317.516L317.452 562.49L303.382 655.421H287.977L273.906 562.49L273.843 562.071H272.571V655.421H256.598V533.115H283.413ZM227.882 533.115L247.862 655.421H229.436L225.963 631.361L225.475 631.396V631.291H202.964L202.902 631.713L199.431 655.421H182.417L202.396 533.115H227.882ZM146.246 533.115V638.794H178.224V655.421H127.798V533.115H146.246ZM213.679 554.042L205.199 614.983L205.121 615.545H223.746L223.666 614.982L215.009 554.041L214.949 553.617H213.738L213.679 554.042ZM376.123 554.042L367.643 614.983L367.564 615.545H386.189L386.109 614.982L377.453 554.041L377.393 553.617H376.182L376.123 554.042ZM437.488 585.955H445.049C448.731 585.955 451.803 585.15 453.945 582.991C456.086 580.834 457.202 577.421 457.202 572.428V562.917C457.202 558.477 456.449 555.171 454.735 552.971C452.999 550.742 450.355 549.742 446.815 549.742H437.488V585.955Z" stroke="#F4E046" stroke-width="0.986336"/>
<path d="M339.838 671.201C349.842 671.201 356.888 673.52 361.439 678.101C365.992 682.682 368.143 689.619 368.143 699.065V706.639C368.143 712.932 367.134 718.043 365.084 722C363.041 725.945 359.95 728.771 355.729 730.488L355.422 730.613V731.661L355.77 731.769C360.485 733.222 363.604 736.158 365.559 740.44C367.525 744.749 368.319 750.434 368.319 757.364V779.028C368.319 784.724 368.477 789.068 370.201 793.507H351.501C351.023 792.077 350.632 790.87 350.352 788.932C350.047 786.831 349.871 783.865 349.871 778.853V756.308C349.871 750.564 349.035 746.624 346.976 744.127C344.892 741.601 341.658 740.667 337.188 740.667H329.98V793.507H311.533V671.201H339.838ZM282.817 671.201L302.798 793.507H284.371L280.898 769.447L280.41 769.481V769.377H257.9L257.838 769.799L254.366 793.507H237.353L257.332 671.201H282.817ZM175.905 671.201L188.213 759.019L188.272 759.443H189.483L189.543 759.019L201.851 671.201H228.667V793.507H211.278V700.157H210.008L209.944 700.576L195.874 793.507H180.469L166.398 700.576L166.335 700.157H165.063V793.507H149.09V671.201H175.905ZM120.374 671.201L140.354 793.507H121.928L118.455 769.447L117.967 769.481V769.377H95.4561L95.3945 769.799L91.9229 793.507H74.9092L94.8887 671.201H120.374ZM38.7383 671.201V776.88H70.7158V793.507H20.29V671.201H38.7383ZM106.171 692.128L97.6914 753.069L97.6133 753.631H116.238L116.158 753.068L107.501 692.127L107.441 691.703H106.23L106.171 692.128ZM268.615 692.128L260.135 753.069L260.057 753.631H278.682L278.602 753.068L269.945 692.127L269.885 691.703H268.674L268.615 692.128ZM329.98 724.041H337.541C341.224 724.041 344.295 723.236 346.438 721.077C348.578 718.92 349.694 715.507 349.694 710.514V701.003C349.694 696.563 348.941 693.257 347.228 691.057C345.491 688.828 342.847 687.828 339.308 687.828H329.98V724.041Z" stroke="#F4E046" stroke-width="0.986336"/>
<path d="M82.3145 270.749C92.3461 270.749 99.4125 273.086 103.978 277.704C108.544 282.323 110.7 289.317 110.7 298.84V306.474C110.7 312.818 109.689 317.971 107.633 321.961C105.583 325.939 102.484 328.787 98.251 330.519L97.9443 330.644V331.693L98.291 331.801C103.02 333.266 106.149 336.225 108.109 340.544C110.082 344.888 110.878 350.619 110.878 357.605V379.443C110.878 385.187 111.036 389.566 112.768 394.041H94.0107C93.5313 392.599 93.139 391.381 92.8574 389.426C92.5525 387.308 92.375 384.318 92.375 379.266V356.54C92.375 350.751 91.5372 346.781 89.4727 344.266C87.3837 341.721 84.1407 340.779 79.6572 340.779H72.4316V394.041H53.9297V270.749H82.3145ZM25.1357 270.749L45.1729 394.041H26.6914L23.209 369.786L22.7207 369.82V369.718H0.147461L0.0859375 370.14L-3.39551 394.041H-20.4609L-0.423828 270.749H25.1357ZM-82.0771 270.749L-69.7344 359.271L-69.6748 359.696H-68.4629L-68.4033 359.271L-56.0605 270.749H-29.167V394.041H-46.6064V299.944H-47.8789L-47.9414 300.364L-62.0518 394.041H-77.5029L-91.6133 300.364L-91.6768 299.944H-92.9482V394.041H-108.971V270.749H-82.0771ZM-137.764 270.749L-117.727 394.041H-136.208L-139.691 369.786L-140.18 369.82V369.718H-162.752L-162.813 370.14L-166.295 394.041H-183.36L-163.323 270.749H-137.764ZM-219.63 270.749V377.273H-187.562V394.041H-238.132V270.749H-219.63ZM-152.007 291.849L-160.511 353.277L-160.589 353.838H-141.915L-141.994 353.275L-150.676 291.847L-150.735 291.423H-151.947L-152.007 291.849ZM10.8936 291.849L2.38867 353.277L2.31152 353.838H20.9854L20.9053 353.275L12.2246 291.847L12.1641 291.423H10.9521L10.8936 291.849ZM72.4316 324.011H80.0117C83.7052 324.011 86.7858 323.199 88.9336 321.023C91.0788 318.85 92.1982 315.412 92.1982 310.38V300.793C92.1982 296.318 91.4423 292.987 89.7246 290.771C87.9842 288.525 85.3331 287.517 81.7832 287.517H72.4316V324.011Z" stroke="#F4E046" stroke-width="0.986336"/>
<path d="M469.045 0.493164C479.049 0.493193 486.095 2.81211 490.646 7.39258C495.199 11.9737 497.35 18.9109 497.35 28.3574V35.9307C497.35 42.2239 496.341 47.3345 494.291 51.292C492.248 55.2375 489.157 58.0627 484.937 59.7803L484.629 59.9053V60.9531L484.977 61.0605C489.692 62.5137 492.811 65.4496 494.766 69.7324C496.732 74.0405 497.526 79.7256 497.526 86.6562V108.32C497.526 114.016 497.684 118.36 499.408 122.799H480.708C480.23 121.369 479.839 120.162 479.559 118.224C479.255 116.123 479.078 113.157 479.078 108.145V85.5996C479.078 79.8563 478.242 75.9159 476.183 73.4189C474.099 70.8934 470.865 69.959 466.395 69.959H459.188V122.799H440.74V0.493164H469.045ZM412.024 0.493164L432.005 122.799H413.578L410.105 98.7393L409.617 98.7734V98.6689H387.107L387.045 99.0908L383.573 122.799H366.56L386.539 0.493164H412.024ZM305.112 0.493164L317.42 88.3105L317.479 88.7354H318.69L318.75 88.3105L331.058 0.493164H357.874V122.799H340.485V29.4492H339.215L339.151 29.8682L325.081 122.799H309.676L295.605 29.8682L295.542 29.4492H294.271V122.799H278.297V0.493164H305.112ZM249.581 0.493164L269.562 122.799H251.135L247.662 98.7393L247.174 98.7734V98.6689H224.663L224.602 99.0908L221.13 122.799H204.116L224.096 0.493164H249.581ZM167.945 0.493164V106.172H199.923V122.799H149.497V0.493164H167.945ZM235.378 21.4199L226.898 82.3613L226.82 82.9229H245.445L245.365 82.3604L236.708 21.4189L236.648 20.9951H235.438L235.378 21.4199ZM397.822 21.4199L389.342 82.3613L389.264 82.9229H407.889L407.809 82.3604L399.152 21.4189L399.092 20.9951H397.881L397.822 21.4199ZM459.188 53.333H466.748C470.431 53.333 473.502 52.5281 475.645 50.3691C477.785 48.2119 478.901 44.7988 478.901 39.8057V30.2949C478.901 25.8549 478.148 22.5486 476.435 20.3486C474.698 18.1199 472.054 17.1201 468.515 17.1201H459.188V53.333Z" stroke="#F4E046" stroke-width="0.986336"/>
<path d="M93.248 0.493164C103.252 0.493193 110.298 2.81211 114.85 7.39258C119.402 11.9737 121.553 18.9109 121.553 28.3574V35.9307C121.553 42.2239 120.544 47.3345 118.494 51.292C116.451 55.2375 113.36 58.0627 109.14 59.7803L108.832 59.9053V60.9531L109.18 61.0605C113.896 62.5137 117.014 65.4496 118.969 69.7324C120.935 74.0405 121.729 79.7256 121.729 86.6562V108.32C121.729 114.016 121.887 118.36 123.611 122.799H104.911C104.433 121.369 104.042 120.162 103.762 118.224C103.458 116.123 103.281 113.157 103.281 108.145V85.5996C103.281 79.8563 102.446 75.9159 100.386 73.4189C98.3021 70.8934 95.068 69.959 90.5977 69.959H83.3906V122.799H64.9434V0.493164H93.248ZM36.2275 0.493164L56.208 122.799H37.7812L34.3086 98.7393L33.8203 98.7734V98.6689H11.3105L11.248 99.0908L7.77637 122.799H-9.2373L10.7422 0.493164H36.2275ZM-70.6846 0.493164L-58.377 88.3105L-58.3174 88.7354H-57.1064L-57.0469 88.3105L-44.7393 0.493164H-17.9229V122.799H-35.3115V29.4492H-36.582L-36.6455 29.8682L-50.7158 122.799H-66.1211L-80.1914 29.8682L-80.2549 29.4492H-81.5264V122.799H-97.5V0.493164H-70.6846ZM-126.216 0.493164L-106.235 122.799H-124.662L-128.135 98.7393L-128.623 98.7734V98.6689H-151.134L-151.195 99.0908L-154.667 122.799H-171.681L-151.701 0.493164H-126.216ZM-207.852 0.493164V106.172H-175.874V122.799H-226.3V0.493164H-207.852ZM-140.419 21.4199L-148.898 82.3613L-148.977 82.9229H-130.352L-130.432 82.3604L-139.089 21.4189L-139.148 20.9951H-140.359L-140.419 21.4199ZM22.0254 21.4199L13.5449 82.3613L13.4668 82.9229H32.0918L32.0117 82.3604L23.3555 21.4189L23.2949 20.9951H22.084L22.0254 21.4199ZM83.3906 53.333H90.9512C94.6337 53.333 97.7054 52.5281 99.8477 50.3691C101.988 48.2119 103.104 44.7988 103.104 39.8057V30.2949C103.104 25.8549 102.351 22.5486 100.638 20.3486C98.9015 18.1199 96.2572 17.1201 92.7178 17.1201H83.3906V53.333Z" stroke="#F4E046" stroke-width="0.986336"/>
</svg>
