<svg width="410" height="490" viewBox="0 0 410 490" fill="none" xmlns="http://www.w3.org/2000/svg">
<g clip-path="url(#clip0_1553_6870)">
<mask id="path-1-outside-1_1553_6870" maskUnits="userSpaceOnUse" x="-236" y="12" width="300" height="107" fill="black">
<rect fill="white" x="-236" y="12" width="300" height="107"/>
<path d="M-234.85 118V13H-218.35V103H-191.2V118H-234.85ZM-188.552 118L-171.452 13H-149.102L-132.002 118H-148.502L-151.502 97.15V97.45H-170.252L-173.252 118H-188.552ZM-168.302 83.2H-153.452L-160.802 31.3H-161.102L-168.302 83.2ZM-125.496 118V13H-101.946L-91.4465 88.15H-91.1465L-80.6465 13H-57.0965V118H-72.6965V38.5H-72.9965L-84.9965 118H-98.7965L-110.796 38.5H-111.096V118H-125.496ZM-50.6336 118L-33.5336 13H-11.1836L5.91641 118H-10.5836L-13.5836 97.15V97.45H-32.3336L-35.3336 118H-50.6336ZM-30.3836 83.2H-15.5336L-22.8836 31.3H-23.1836L-30.3836 83.2ZM12.4215 118V13H36.8715C53.9715 13 61.3215 20.95 61.3215 37.15V43.6C61.3215 54.4 57.8715 61.3 50.5215 64.3V64.6C58.7715 67.15 61.4715 74.95 61.4715 86.8V105.25C61.4715 110.35 61.6215 114.1 63.2715 118H46.4715C45.5715 115.3 44.9715 113.65 44.9715 105.1V85.9C44.9715 76.15 42.1215 73 34.6215 73H28.9215V118H12.4215ZM28.9215 58H34.9215C41.0715 58 44.8215 55.3 44.8215 46.9V38.8C44.8215 31.3 42.2715 28 36.4215 28H28.9215V58Z"/>
</mask>
<path d="M-234.85 118H-235.26V118.41H-234.85V118ZM-234.85 13V12.5895H-235.26V13H-234.85ZM-218.35 13H-217.94V12.5895H-218.35V13ZM-218.35 103H-218.76V103.41H-218.35V103ZM-191.2 103H-190.79V102.59H-191.2V103ZM-191.2 118V118.41H-190.79V118H-191.2ZM-234.85 118H-234.44V13H-234.85H-235.26V118H-234.85ZM-234.85 13V13.4105H-218.35V13V12.5895H-234.85V13ZM-218.35 13H-218.76V103H-218.35H-217.94V13H-218.35ZM-218.35 103V103.41H-191.2V103V102.59H-218.35V103ZM-191.2 103H-191.61V118H-191.2H-190.79V103H-191.2ZM-191.2 118V117.59H-234.85V118V118.41H-191.2V118ZM-188.552 118L-188.957 117.934L-189.034 118.41H-188.552V118ZM-171.452 13V12.5895H-171.801L-171.857 12.934L-171.452 13ZM-149.102 13L-148.696 12.934L-148.753 12.5895H-149.102V13ZM-132.002 118V118.41H-131.519L-131.596 117.934L-132.002 118ZM-148.502 118L-148.908 118.058L-148.857 118.41H-148.502V118ZM-151.502 97.15L-151.095 97.0915L-151.912 97.15H-151.502ZM-151.502 97.45V97.8605H-151.091V97.45H-151.502ZM-170.252 97.45V97.0395H-170.606L-170.658 97.3907L-170.252 97.45ZM-173.252 118V118.41H-172.897L-172.845 118.059L-173.252 118ZM-168.302 83.2L-168.708 83.1436L-168.773 83.6105H-168.302V83.2ZM-153.452 83.2V83.6105H-152.979L-153.045 83.1424L-153.452 83.2ZM-160.802 31.3L-160.395 31.2424L-160.445 30.8895H-160.802V31.3ZM-161.102 31.3V30.8895H-161.459L-161.508 31.2436L-161.102 31.3ZM-188.552 118L-188.146 118.066L-171.046 13.066L-171.452 13L-171.857 12.934L-188.957 117.934L-188.552 118ZM-171.452 13V13.4105H-149.102V13V12.5895H-171.452V13ZM-149.102 13L-149.507 13.066L-132.407 118.066L-132.002 118L-131.596 117.934L-148.696 12.934L-149.102 13ZM-132.002 118V117.59H-148.502V118V118.41H-132.002V118ZM-148.502 118L-148.095 117.942L-151.095 97.0915L-151.502 97.15L-151.908 97.2085L-148.908 118.058L-148.502 118ZM-151.502 97.15H-151.912V97.45H-151.502H-151.091V97.15H-151.502ZM-151.502 97.45V97.0395H-170.252V97.45V97.8605H-151.502V97.45ZM-170.252 97.45L-170.658 97.3907L-173.658 117.941L-173.252 118L-172.845 118.059L-169.845 97.5093L-170.252 97.45ZM-173.252 118V117.59H-188.552V118V118.41H-173.252V118ZM-168.302 83.2V83.6105H-153.452V83.2V82.7895H-168.302V83.2ZM-153.452 83.2L-153.045 83.1424L-160.395 31.2424L-160.802 31.3L-161.208 31.3576L-153.858 83.2576L-153.452 83.2ZM-160.802 31.3V30.8895H-161.102V31.3V31.7105H-160.802V31.3ZM-161.102 31.3L-161.508 31.2436L-168.708 83.1436L-168.302 83.2L-167.895 83.2564L-160.695 31.3564L-161.102 31.3ZM-125.496 118H-125.907V118.41H-125.496V118ZM-125.496 13V12.5895H-125.907V13H-125.496ZM-101.946 13L-101.54 12.9432L-101.589 12.5895H-101.946V13ZM-91.4465 88.15L-91.853 88.2068L-91.8036 88.5605H-91.4465V88.15ZM-91.1465 88.15V88.5605H-90.7894L-90.74 88.2068L-91.1465 88.15ZM-80.6465 13V12.5895H-81.0036L-81.053 12.9432L-80.6465 13ZM-57.0965 13H-56.686V12.5895H-57.0965V13ZM-57.0965 118V118.41H-56.686V118H-57.0965ZM-72.6965 118H-73.1069V118.41H-72.6965V118ZM-72.6965 38.5H-72.286V38.0895H-72.6965V38.5ZM-72.9965 38.5V38.0895H-73.3496L-73.4023 38.4387L-72.9965 38.5ZM-84.9965 118V118.41H-84.6433L-84.5906 118.061L-84.9965 118ZM-98.7965 118L-99.2023 118.061L-99.1496 118.41H-98.7965V118ZM-110.796 38.5L-110.391 38.4387L-110.443 38.0895H-110.796V38.5ZM-111.096 38.5V38.0895H-111.507V38.5H-111.096ZM-111.096 118V118.41H-110.686V118H-111.096ZM-125.496 118H-125.086V13H-125.496H-125.907V118H-125.496ZM-125.496 13V13.4105H-101.946V13V12.5895H-125.496V13ZM-101.946 13L-102.353 13.0568L-91.853 88.2068L-91.4465 88.15L-91.04 88.0932L-101.54 12.9432L-101.946 13ZM-91.4465 88.15V88.5605H-91.1465V88.15V87.7395H-91.4465V88.15ZM-91.1465 88.15L-90.74 88.2068L-80.24 13.0568L-80.6465 13L-81.053 12.9432L-91.553 88.0932L-91.1465 88.15ZM-80.6465 13V13.4105H-57.0965V13V12.5895H-80.6465V13ZM-57.0965 13H-57.5069V118H-57.0965H-56.686V13H-57.0965ZM-57.0965 118V117.59H-72.6965V118V118.41H-57.0965V118ZM-72.6965 118H-72.286V38.5H-72.6965H-73.1069V118H-72.6965ZM-72.6965 38.5V38.0895H-72.9965V38.5V38.9105H-72.6965V38.5ZM-72.9965 38.5L-73.4023 38.4387L-85.4023 117.939L-84.9965 118L-84.5906 118.061L-72.5906 38.5613L-72.9965 38.5ZM-84.9965 118V117.59H-98.7965V118V118.41H-84.9965V118ZM-98.7965 118L-98.3906 117.939L-110.391 38.4387L-110.796 38.5L-111.202 38.5613L-99.2023 118.061L-98.7965 118ZM-110.796 38.5V38.0895H-111.096V38.5V38.9105H-110.796V38.5ZM-111.096 38.5H-111.507V118H-111.096H-110.686V38.5H-111.096ZM-111.096 118V117.59H-125.496V118V118.41H-111.096V118ZM-50.6336 118L-51.0387 117.934L-51.1163 118.41H-50.6336V118ZM-33.5336 13V12.5895H-33.8826L-33.9387 12.934L-33.5336 13ZM-11.1836 13L-10.7785 12.934L-10.8346 12.5895H-11.1836V13ZM5.91641 118V118.41H6.39912L6.32153 117.934L5.91641 118ZM-10.5836 118L-10.9899 118.058L-10.9392 118.41H-10.5836V118ZM-13.5836 97.15L-13.1773 97.0915L-13.9941 97.15H-13.5836ZM-13.5836 97.45V97.8605H-13.1731V97.45H-13.5836ZM-32.3336 97.45V97.0395H-32.6885L-32.7397 97.3907L-32.3336 97.45ZM-35.3336 118V118.41H-34.9787L-34.9274 118.059L-35.3336 118ZM-30.3836 83.2L-30.7902 83.1436L-30.8549 83.6105H-30.3836V83.2ZM-15.5336 83.2V83.6105H-15.0609L-15.1272 83.1424L-15.5336 83.2ZM-22.8836 31.3L-22.4772 31.2424L-22.5272 30.8895H-22.8836V31.3ZM-23.1836 31.3V30.8895H-23.541L-23.5902 31.2436L-23.1836 31.3ZM-50.6336 118L-50.2285 118.066L-33.1285 13.066L-33.5336 13L-33.9387 12.934L-51.0387 117.934L-50.6336 118ZM-33.5336 13V13.4105H-11.1836V13V12.5895H-33.5336V13ZM-11.1836 13L-11.5887 13.066L5.51129 118.066L5.91641 118L6.32153 117.934L-10.7785 12.934L-11.1836 13ZM5.91641 118V117.59H-10.5836V118V118.41H5.91641V118ZM-10.5836 118L-10.1773 117.942L-13.1773 97.0915L-13.5836 97.15L-13.9899 97.2085L-10.9899 118.058L-10.5836 118ZM-13.5836 97.15H-13.9941V97.45H-13.5836H-13.1731V97.15H-13.5836ZM-13.5836 97.45V97.0395H-32.3336V97.45V97.8605H-13.5836V97.45ZM-32.3336 97.45L-32.7397 97.3907L-35.7397 117.941L-35.3336 118L-34.9274 118.059L-31.9274 97.5093L-32.3336 97.45ZM-35.3336 118V117.59H-50.6336V118V118.41H-35.3336V118ZM-30.3836 83.2V83.6105H-15.5336V83.2V82.7895H-30.3836V83.2ZM-15.5336 83.2L-15.1272 83.1424L-22.4772 31.2424L-22.8836 31.3L-23.29 31.3576L-15.94 83.2576L-15.5336 83.2ZM-22.8836 31.3V30.8895H-23.1836V31.3V31.7105H-22.8836V31.3ZM-23.1836 31.3L-23.5902 31.2436L-30.7902 83.1436L-30.3836 83.2L-29.977 83.2564L-22.777 31.3564L-23.1836 31.3ZM12.4215 118H12.011V118.41H12.4215V118ZM12.4215 13V12.5895H12.011V13H12.4215ZM50.5215 64.3L50.3664 63.92L50.111 64.0242V64.3H50.5215ZM50.5215 64.6H50.111V64.9027L50.4003 64.9922L50.5215 64.6ZM63.2715 118V118.41H63.8908L63.6495 117.84L63.2715 118ZM46.4715 118L46.0821 118.13L46.1756 118.41H46.4715V118ZM28.9215 73V72.5895H28.511V73H28.9215ZM28.9215 118V118.41H29.3319V118H28.9215ZM28.9215 58H28.511V58.4105H28.9215V58ZM28.9215 28V27.5895H28.511V28H28.9215ZM12.4215 118H12.8319V13H12.4215H12.011V118H12.4215ZM12.4215 13V13.4105H36.8715V13V12.5895H12.4215V13ZM36.8715 13V13.4105C45.3659 13.4105 51.3506 15.3856 55.2174 19.2889C59.0849 23.1928 60.911 29.1034 60.911 37.15H61.3215H61.7319C61.7319 28.9965 59.8831 22.8322 55.8006 18.7111C51.7174 14.5894 45.4771 12.5895 36.8715 12.5895V13ZM61.3215 37.15H60.911V43.6H61.3215H61.7319V37.15H61.3215ZM61.3215 43.6H60.911C60.911 48.9607 60.0541 53.3144 58.313 56.6867C56.577 60.0491 53.9517 62.4566 50.3664 63.92L50.5215 64.3L50.6766 64.68C54.4412 63.1434 57.216 60.6009 59.0425 57.0633C60.8638 53.5356 61.7319 49.0393 61.7319 43.6H61.3215ZM50.5215 64.3H50.111V64.6H50.5215H50.9319V64.3H50.5215ZM50.5215 64.6L50.4003 64.9922C54.4064 66.2304 57.0559 68.7324 58.7166 72.3825C60.3869 76.0535 61.061 80.8968 61.061 86.8H61.4715H61.8819C61.8819 80.8532 61.206 75.8715 59.4638 72.0425C57.7121 68.1926 54.8866 65.5196 50.6427 64.2078L50.5215 64.6ZM61.4715 86.8H61.061V105.25H61.4715H61.8819V86.8H61.4715ZM61.4715 105.25H61.061C61.061 110.35 61.2078 114.176 62.8935 118.16L63.2715 118L63.6495 117.84C62.0352 114.024 61.8819 110.35 61.8819 105.25H61.4715ZM63.2715 118V117.59H46.4715V118V118.41H63.2715V118ZM46.4715 118L46.8609 117.87C46.4114 116.522 46.0471 115.465 45.7902 113.685C45.532 111.896 45.3819 109.369 45.3819 105.1H44.9715H44.561C44.561 109.381 44.711 111.954 44.9777 113.802C45.2459 115.66 45.6315 116.778 46.0821 118.13L46.4715 118ZM44.9715 105.1H45.3819V85.9H44.9715H44.561V105.1H44.9715ZM44.9715 85.9H45.3819C45.3819 81.0092 44.6726 77.6567 42.926 75.533C41.1594 73.385 38.4165 72.5895 34.6215 72.5895V73V73.4105C38.3265 73.4105 40.7586 74.19 42.292 76.0545C43.8454 77.9433 44.561 81.0408 44.561 85.9H44.9715ZM34.6215 73V72.5895H28.9215V73V73.4105H34.6215V73ZM28.9215 73H28.511V118H28.9215H29.3319V73H28.9215ZM28.9215 118V117.59H12.4215V118V118.41H28.9215V118ZM28.9215 58V58.4105H34.9215V58V57.5895H28.9215V58ZM34.9215 58V58.4105C38.0475 58.4105 40.653 57.7252 42.4696 55.8886C44.2843 54.054 45.2319 51.1509 45.2319 46.9H44.8215H44.411C44.411 51.0491 43.4837 53.696 41.8859 55.3114C40.29 56.9248 37.9454 57.5895 34.9215 57.5895V58ZM44.8215 46.9H45.2319V38.8H44.8215H44.411V46.9H44.8215ZM44.8215 38.8H45.2319C45.2319 35.0195 44.5924 32.2067 43.1394 30.3357C41.6676 28.4405 39.4253 27.5895 36.4215 27.5895V28V28.4105C39.2676 28.4105 41.2254 29.2094 42.4911 30.8393C43.7755 32.4933 44.411 35.0805 44.411 38.8H44.8215ZM36.4215 28V27.5895H28.9215V28V28.4105H36.4215V28ZM28.9215 28H28.511V58H28.9215H29.3319V28H28.9215Z" fill="#F4E046" mask="url(#path-1-outside-1_1553_6870)"/>
<mask id="path-3-outside-2_1553_6870" maskUnits="userSpaceOnUse" x="89.5391" y="12" width="300" height="107" fill="black">
<rect fill="white" x="89.5391" y="12" width="300" height="107"/>
<path d="M90.6891 118V13H107.189V103H134.339V118H90.6891ZM136.988 118L154.088 13H176.438L193.538 118H177.038L174.038 97.15V97.45H155.288L152.288 118H136.988ZM157.237 83.2H172.088L164.738 31.3H164.438L157.237 83.2ZM200.043 118V13H223.593L234.093 88.15H234.393L244.893 13H268.443V118H252.843V38.5H252.543L240.543 118H226.743L214.743 38.5H214.443V118H200.043ZM274.905 118L292.005 13H314.355L331.455 118H314.955L311.955 97.15V97.45H293.205L290.205 118H274.905ZM295.155 83.2H310.005L302.655 31.3H302.355L295.155 83.2ZM337.961 118V13H362.411C379.511 13 386.861 20.95 386.861 37.15V43.6C386.861 54.4 383.411 61.3 376.061 64.3V64.6C384.311 67.15 387.011 74.95 387.011 86.8V105.25C387.011 110.35 387.161 114.1 388.811 118H372.011C371.111 115.3 370.511 113.65 370.511 105.1V85.9C370.511 76.15 367.661 73 360.161 73H354.461V118H337.961ZM354.461 58H360.461C366.611 58 370.361 55.3 370.361 46.9V38.8C370.361 31.3 367.811 28 361.961 28H354.461V58Z"/>
</mask>
<path d="M90.6891 118V13H107.189V103H134.339V118H90.6891ZM136.988 118L154.088 13H176.438L193.538 118H177.038L174.038 97.15V97.45H155.288L152.288 118H136.988ZM157.237 83.2H172.088L164.738 31.3H164.438L157.237 83.2ZM200.043 118V13H223.593L234.093 88.15H234.393L244.893 13H268.443V118H252.843V38.5H252.543L240.543 118H226.743L214.743 38.5H214.443V118H200.043ZM274.905 118L292.005 13H314.355L331.455 118H314.955L311.955 97.15V97.45H293.205L290.205 118H274.905ZM295.155 83.2H310.005L302.655 31.3H302.355L295.155 83.2ZM337.961 118V13H362.411C379.511 13 386.861 20.95 386.861 37.15V43.6C386.861 54.4 383.411 61.3 376.061 64.3V64.6C384.311 67.15 387.011 74.95 387.011 86.8V105.25C387.011 110.35 387.161 114.1 388.811 118H372.011C371.111 115.3 370.511 113.65 370.511 105.1V85.9C370.511 76.15 367.661 73 360.161 73H354.461V118H337.961ZM354.461 58H360.461C366.611 58 370.361 55.3 370.361 46.9V38.8C370.361 31.3 367.811 28 361.961 28H354.461V58Z" fill="#F4E046"/>
<path d="M90.6891 118H90.2786V118.41H90.6891V118ZM90.6891 13V12.5895H90.2786V13H90.6891ZM107.189 13H107.6V12.5895H107.189V13ZM107.189 103H106.779V103.41H107.189V103ZM134.339 103H134.75V102.59H134.339V103ZM134.339 118V118.41H134.75V118H134.339ZM90.6891 118H91.0995V13H90.6891H90.2786V118H90.6891ZM90.6891 13V13.4105H107.189V13V12.5895H90.6891V13ZM107.189 13H106.779V103H107.189H107.6V13H107.189ZM107.189 103V103.41H134.339V103V102.59H107.189V103ZM134.339 103H133.929V118H134.339H134.75V103H134.339ZM134.339 118V117.59H90.6891V118V118.41H134.339V118ZM136.988 118L136.582 117.934L136.505 118.41H136.988V118ZM154.088 13V12.5895H153.738L153.682 12.934L154.088 13ZM176.438 13L176.843 12.934L176.787 12.5895H176.438V13ZM193.538 118V118.41H194.02L193.943 117.934L193.538 118ZM177.038 118L176.631 118.058L176.682 118.41H177.038V118ZM174.038 97.15L174.444 97.0915L173.627 97.15H174.038ZM174.038 97.45V97.8605H174.448V97.45H174.038ZM155.288 97.45V97.0395H154.933L154.881 97.3907L155.288 97.45ZM152.288 118V118.41H152.642L152.694 118.059L152.288 118ZM157.237 83.2L156.831 83.1436L156.766 83.6105H157.237V83.2ZM172.088 83.2V83.6105H172.56L172.494 83.1424L172.088 83.2ZM164.738 31.3L165.144 31.2424L165.094 30.8895H164.738V31.3ZM164.438 31.3V30.8895H164.08L164.031 31.2436L164.438 31.3ZM136.988 118L137.393 118.066L154.493 13.066L154.088 13L153.682 12.934L136.582 117.934L136.988 118ZM154.088 13V13.4105H176.438V13V12.5895H154.088V13ZM176.438 13L176.032 13.066L193.132 118.066L193.538 118L193.943 117.934L176.843 12.934L176.438 13ZM193.538 118V117.59H177.038V118V118.41H193.538V118ZM177.038 118L177.444 117.942L174.444 97.0915L174.038 97.15L173.631 97.2085L176.631 118.058L177.038 118ZM174.038 97.15H173.627V97.45H174.038H174.448V97.15H174.038ZM174.038 97.45V97.0395H155.288V97.45V97.8605H174.038V97.45ZM155.288 97.45L154.881 97.3907L151.881 117.941L152.288 118L152.694 118.059L155.694 97.5093L155.288 97.45ZM152.288 118V117.59H136.988V118V118.41H152.288V118ZM157.237 83.2V83.6105H172.088V83.2V82.7895H157.237V83.2ZM172.088 83.2L172.494 83.1424L165.144 31.2424L164.738 31.3L164.331 31.3576L171.681 83.2576L172.088 83.2ZM164.738 31.3V30.8895H164.438V31.3V31.7105H164.738V31.3ZM164.438 31.3L164.031 31.2436L156.831 83.1436L157.237 83.2L157.644 83.2564L164.844 31.3564L164.438 31.3ZM200.043 118H199.632V118.41H200.043V118ZM200.043 13V12.5895H199.632V13H200.043ZM223.593 13L223.999 12.9432L223.95 12.5895H223.593V13ZM234.093 88.15L233.686 88.2068L233.735 88.5605H234.093V88.15ZM234.393 88.15V88.5605H234.75L234.799 88.2068L234.393 88.15ZM244.893 13V12.5895H244.535L244.486 12.9432L244.893 13ZM268.443 13H268.853V12.5895H268.443V13ZM268.443 118V118.41H268.853V118H268.443ZM252.843 118H252.432V118.41H252.843V118ZM252.843 38.5H253.253V38.0895H252.843V38.5ZM252.543 38.5V38.0895H252.189L252.137 38.4387L252.543 38.5ZM240.543 118V118.41H240.896L240.948 118.061L240.543 118ZM226.743 118L226.337 118.061L226.389 118.41H226.743V118ZM214.743 38.5L215.148 38.4387L215.096 38.0895H214.743V38.5ZM214.443 38.5V38.0895H214.032V38.5H214.443ZM214.443 118V118.41H214.853V118H214.443ZM200.043 118H200.453V13H200.043H199.632V118H200.043ZM200.043 13V13.4105H223.593V13V12.5895H200.043V13ZM223.593 13L223.186 13.0568L233.686 88.2068L234.093 88.15L234.499 88.0932L223.999 12.9432L223.593 13ZM234.093 88.15V88.5605H234.393V88.15V87.7395H234.093V88.15ZM234.393 88.15L234.799 88.2068L245.299 13.0568L244.893 13L244.486 12.9432L233.986 88.0932L234.393 88.15ZM244.893 13V13.4105H268.443V13V12.5895H244.893V13ZM268.443 13H268.032V118H268.443H268.853V13H268.443ZM268.443 118V117.59H252.843V118V118.41H268.443V118ZM252.843 118H253.253V38.5H252.843H252.432V118H252.843ZM252.843 38.5V38.0895H252.543V38.5V38.9105H252.843V38.5ZM252.543 38.5L252.137 38.4387L240.137 117.939L240.543 118L240.948 118.061L252.948 38.5613L252.543 38.5ZM240.543 118V117.59H226.743V118V118.41H240.543V118ZM226.743 118L227.148 117.939L215.148 38.4387L214.743 38.5L214.337 38.5613L226.337 118.061L226.743 118ZM214.743 38.5V38.0895H214.443V38.5V38.9105H214.743V38.5ZM214.443 38.5H214.032V118H214.443H214.853V38.5H214.443ZM214.443 118V117.59H200.043V118V118.41H214.443V118ZM274.905 118L274.5 117.934L274.423 118.41H274.905V118ZM292.005 13V12.5895H291.656L291.6 12.934L292.005 13ZM314.355 13L314.761 12.934L314.704 12.5895H314.355V13ZM331.455 118V118.41H331.938L331.861 117.934L331.455 118ZM314.955 118L314.549 118.058L314.6 118.41H314.955V118ZM311.955 97.15L312.362 97.0915L311.545 97.15H311.955ZM311.955 97.45V97.8605H312.366V97.45H311.955ZM293.205 97.45V97.0395H292.851L292.799 97.3907L293.205 97.45ZM290.205 118V118.41H290.56L290.612 118.059L290.205 118ZM295.155 83.2L294.749 83.1436L294.684 83.6105H295.155V83.2ZM310.005 83.2V83.6105H310.478L310.412 83.1424L310.005 83.2ZM302.655 31.3L303.062 31.2424L303.012 30.8895H302.655V31.3ZM302.355 31.3V30.8895H301.998L301.949 31.2436L302.355 31.3ZM274.905 118L275.311 118.066L292.411 13.066L292.005 13L291.6 12.934L274.5 117.934L274.905 118ZM292.005 13V13.4105H314.355V13V12.5895H292.005V13ZM314.355 13L313.95 13.066L331.05 118.066L331.455 118L331.861 117.934L314.761 12.934L314.355 13ZM331.455 118V117.59H314.955V118V118.41H331.455V118ZM314.955 118L315.362 117.942L312.362 97.0915L311.955 97.15L311.549 97.2085L314.549 118.058L314.955 118ZM311.955 97.15H311.545V97.45H311.955H312.366V97.15H311.955ZM311.955 97.45V97.0395H293.205V97.45V97.8605H311.955V97.45ZM293.205 97.45L292.799 97.3907L289.799 117.941L290.205 118L290.612 118.059L293.612 97.5093L293.205 97.45ZM290.205 118V117.59H274.905V118V118.41H290.205V118ZM295.155 83.2V83.6105H310.005V83.2V82.7895H295.155V83.2ZM310.005 83.2L310.412 83.1424L303.062 31.2424L302.655 31.3L302.249 31.3576L309.599 83.2576L310.005 83.2ZM302.655 31.3V30.8895H302.355V31.3V31.7105H302.655V31.3ZM302.355 31.3L301.949 31.2436L294.749 83.1436L295.155 83.2L295.562 83.2564L302.762 31.3564L302.355 31.3ZM337.961 118H337.55V118.41H337.961V118ZM337.961 13V12.5895H337.55V13H337.961ZM376.061 64.3L375.905 63.92L375.65 64.0242V64.3H376.061ZM376.061 64.6H375.65V64.9027L375.939 64.9922L376.061 64.6ZM388.811 118V118.41H389.43L389.189 117.84L388.811 118ZM372.011 118L371.621 118.13L371.715 118.41H372.011V118ZM354.461 73V72.5895H354.05V73H354.461ZM354.461 118V118.41H354.871V118H354.461ZM354.461 58H354.05V58.4105H354.461V58ZM354.461 28V27.5895H354.05V28H354.461ZM337.961 118H338.371V13H337.961H337.55V118H337.961ZM337.961 13V13.4105H362.411V13V12.5895H337.961V13ZM362.411 13V13.4105C370.905 13.4105 376.89 15.3856 380.756 19.2889C384.624 23.1928 386.45 29.1034 386.45 37.15H386.861H387.271C387.271 28.9965 385.422 22.8322 381.34 18.7111C377.256 14.5894 371.016 12.5895 362.411 12.5895V13ZM386.861 37.15H386.45V43.6H386.861H387.271V37.15H386.861ZM386.861 43.6H386.45C386.45 48.9607 385.593 53.3144 383.852 56.6867C382.116 60.0491 379.491 62.4566 375.905 63.92L376.061 64.3L376.216 64.68C379.98 63.1434 382.755 60.6009 384.582 57.0633C386.403 53.5356 387.271 49.0393 387.271 43.6H386.861ZM376.061 64.3H375.65V64.6H376.061H376.471V64.3H376.061ZM376.061 64.6L375.939 64.9922C379.945 66.2304 382.595 68.7324 384.256 72.3825C385.926 76.0535 386.6 80.8968 386.6 86.8H387.011H387.421C387.421 80.8532 386.745 75.8715 385.003 72.0425C383.251 68.1926 380.426 65.5196 376.182 64.2078L376.061 64.6ZM387.011 86.8H386.6V105.25H387.011H387.421V86.8H387.011ZM387.011 105.25H386.6C386.6 110.35 386.747 114.176 388.433 118.16L388.811 118L389.189 117.84C387.574 114.024 387.421 110.35 387.421 105.25H387.011ZM388.811 118V117.59H372.011V118V118.41H388.811V118ZM372.011 118L372.4 117.87C371.95 116.522 371.586 115.465 371.329 113.685C371.071 111.896 370.921 109.369 370.921 105.1H370.511H370.1C370.1 109.381 370.25 111.954 370.517 113.802C370.785 115.66 371.171 116.778 371.621 118.13L372.011 118ZM370.511 105.1H370.921V85.9H370.511H370.1V105.1H370.511ZM370.511 85.9H370.921C370.921 81.0092 370.212 77.6567 368.465 75.533C366.698 73.385 363.956 72.5895 360.161 72.5895V73V73.4105C363.866 73.4105 366.298 74.19 367.831 76.0545C369.384 77.9433 370.1 81.0408 370.1 85.9H370.511ZM360.161 73V72.5895H354.461V73V73.4105H360.161V73ZM354.461 73H354.05V118H354.461H354.871V73H354.461ZM354.461 118V117.59H337.961V118V118.41H354.461V118ZM354.461 58V58.4105H360.461V58V57.5895H354.461V58ZM360.461 58V58.4105C363.587 58.4105 366.192 57.7252 368.009 55.8886C369.823 54.054 370.771 51.1509 370.771 46.9H370.361H369.95C369.95 51.0491 369.023 53.696 367.425 55.3114C365.829 56.9248 363.485 57.5895 360.461 57.5895V58ZM370.361 46.9H370.771V38.8H370.361H369.95V46.9H370.361ZM370.361 38.8H370.771C370.771 35.0195 370.131 32.2067 368.678 30.3357C367.207 28.4405 364.964 27.5895 361.961 27.5895V28V28.4105C364.807 28.4105 366.764 29.2094 368.03 30.8393C369.315 32.4933 369.95 35.0805 369.95 38.8H370.361ZM361.961 28V27.5895H354.461V28V28.4105H361.961V28ZM354.461 28H354.05V58H354.461H354.871V28H354.461Z" fill="#F4E046" mask="url(#path-3-outside-2_1553_6870)"/>
<mask id="path-5-outside-3_1553_6870" maskUnits="userSpaceOnUse" x="-155.16" y="131.8" width="300" height="107" fill="black">
<rect fill="white" x="-155.16" y="131.8" width="300" height="107"/>
<path d="M-154.01 237.8V132.8H-137.51V222.8H-110.36V237.8H-154.01ZM-107.712 237.8L-90.6117 132.8H-68.2617L-51.1617 237.8H-67.6617L-70.6617 216.95V217.25H-89.4117L-92.4117 237.8H-107.712ZM-87.4617 203H-72.6117L-79.9617 151.1H-80.2617L-87.4617 203ZM-44.6566 237.8V132.8H-21.1066L-10.6066 207.95H-10.3066L0.19336 132.8H23.7434V237.8H8.14336V158.3H7.84336L-4.15664 237.8H-17.9566L-29.9566 158.3H-30.2566V237.8H-44.6566ZM30.2063 237.8L47.3063 132.8H69.6563L86.7563 237.8H70.2563L67.2563 216.95V217.25H48.5063L45.5063 237.8H30.2063ZM50.4562 203H65.3063L57.9563 151.1H57.6563L50.4562 203ZM93.2613 237.8V132.8H117.711C134.811 132.8 142.161 140.75 142.161 156.95V163.4C142.161 174.2 138.711 181.1 131.361 184.1V184.4C139.611 186.95 142.311 194.75 142.311 206.6V225.05C142.311 230.15 142.461 233.9 144.111 237.8H127.311C126.411 235.1 125.811 233.45 125.811 224.9V205.7C125.811 195.95 122.961 192.8 115.461 192.8H109.761V237.8H93.2613ZM109.761 177.8H115.761C121.911 177.8 125.661 175.1 125.661 166.7V158.6C125.661 151.1 123.111 147.8 117.261 147.8H109.761V177.8Z"/>
</mask>
<path d="M-154.01 237.8H-154.421V238.21H-154.01V237.8ZM-154.01 132.8V132.389H-154.421V132.8H-154.01ZM-137.51 132.8H-137.1V132.389H-137.51V132.8ZM-137.51 222.8H-137.921V223.21H-137.51V222.8ZM-110.36 222.8H-109.95V222.389H-110.36V222.8ZM-110.36 237.8V238.21H-109.95V237.8H-110.36ZM-154.01 237.8H-153.6V132.8H-154.01H-154.421V237.8H-154.01ZM-154.01 132.8V133.21H-137.51V132.8V132.389H-154.01V132.8ZM-137.51 132.8H-137.921V222.8H-137.51H-137.1V132.8H-137.51ZM-137.51 222.8V223.21H-110.36V222.8V222.389H-137.51V222.8ZM-110.36 222.8H-110.771V237.8H-110.36H-109.95V222.8H-110.36ZM-110.36 237.8V237.389H-154.01V237.8V238.21H-110.36V237.8ZM-107.712 237.8L-108.117 237.734L-108.194 238.21H-107.712V237.8ZM-90.6117 132.8V132.389H-90.9607L-91.0168 132.734L-90.6117 132.8ZM-68.2617 132.8L-67.8566 132.734L-67.9127 132.389H-68.2617V132.8ZM-51.1617 237.8V238.21H-50.679L-50.7566 237.734L-51.1617 237.8ZM-67.6617 237.8L-68.068 237.858L-68.0173 238.21H-67.6617V237.8ZM-70.6617 216.95L-70.2554 216.891L-71.0722 216.95H-70.6617ZM-70.6617 217.25V217.66H-70.2513V217.25H-70.6617ZM-89.4117 217.25V216.839H-89.7666L-89.8179 217.191L-89.4117 217.25ZM-92.4117 237.8V238.21H-92.0568L-92.0056 237.859L-92.4117 237.8ZM-87.4617 203L-87.8683 202.943L-87.933 203.41H-87.4617V203ZM-72.6117 203V203.41H-72.139L-72.2053 202.942L-72.6117 203ZM-79.9617 151.1L-79.5553 151.042L-79.6053 150.689H-79.9617V151.1ZM-80.2617 151.1V150.689H-80.6192L-80.6683 151.043L-80.2617 151.1ZM-107.712 237.8L-107.307 237.866L-90.2066 132.866L-90.6117 132.8L-91.0168 132.734L-108.117 237.734L-107.712 237.8ZM-90.6117 132.8V133.21H-68.2617V132.8V132.389H-90.6117V132.8ZM-68.2617 132.8L-68.6668 132.866L-51.5668 237.866L-51.1617 237.8L-50.7566 237.734L-67.8566 132.734L-68.2617 132.8ZM-51.1617 237.8V237.389H-67.6617V237.8V238.21H-51.1617V237.8ZM-67.6617 237.8L-67.2554 237.741L-70.2554 216.891L-70.6617 216.95L-71.068 217.008L-68.068 237.858L-67.6617 237.8ZM-70.6617 216.95H-71.0722V217.25H-70.6617H-70.2513V216.95H-70.6617ZM-70.6617 217.25V216.839H-89.4117V217.25V217.66H-70.6617V217.25ZM-89.4117 217.25L-89.8179 217.191L-92.8179 237.741L-92.4117 237.8L-92.0056 237.859L-89.0056 217.309L-89.4117 217.25ZM-92.4117 237.8V237.389H-107.712V237.8V238.21H-92.4117V237.8ZM-87.4617 203V203.41H-72.6117V203V202.589H-87.4617V203ZM-72.6117 203L-72.2053 202.942L-79.5553 151.042L-79.9617 151.1L-80.3681 151.157L-73.0181 203.057L-72.6117 203ZM-79.9617 151.1V150.689H-80.2617V151.1V151.51H-79.9617V151.1ZM-80.2617 151.1L-80.6683 151.043L-87.8683 202.943L-87.4617 203L-87.0552 203.056L-79.8552 151.156L-80.2617 151.1ZM-44.6566 237.8H-45.0671V238.21H-44.6566V237.8ZM-44.6566 132.8V132.389H-45.0671V132.8H-44.6566ZM-21.1066 132.8L-20.7001 132.743L-20.7495 132.389H-21.1066V132.8ZM-10.6066 207.95L-11.0131 208.007L-10.9637 208.36H-10.6066V207.95ZM-10.3066 207.95V208.36H-9.94954L-9.90013 208.007L-10.3066 207.95ZM0.19336 132.8V132.389H-0.163735L-0.213149 132.743L0.19336 132.8ZM23.7434 132.8H24.1538V132.389H23.7434V132.8ZM23.7434 237.8V238.21H24.1538V237.8H23.7434ZM8.14336 237.8H7.7329V238.21H8.14336V237.8ZM8.14336 158.3H8.55382V157.889H8.14336V158.3ZM7.84336 158.3V157.889H7.49021L7.4375 158.239L7.84336 158.3ZM-4.15664 237.8V238.21H-3.80349L-3.75078 237.861L-4.15664 237.8ZM-17.9566 237.8L-18.3625 237.861L-18.3098 238.21H-17.9566V237.8ZM-29.9566 158.3L-29.5508 158.239L-29.6035 157.889H-29.9566V158.3ZM-30.2566 158.3V157.889H-30.6671V158.3H-30.2566ZM-30.2566 237.8V238.21H-29.8462V237.8H-30.2566ZM-44.6566 237.8H-44.2462V132.8H-44.6566H-45.0671V237.8H-44.6566ZM-44.6566 132.8V133.21H-21.1066V132.8V132.389H-44.6566V132.8ZM-21.1066 132.8L-21.5131 132.857L-11.0131 208.007L-10.6066 207.95L-10.2001 207.893L-20.7001 132.743L-21.1066 132.8ZM-10.6066 207.95V208.36H-10.3066V207.95V207.539H-10.6066V207.95ZM-10.3066 207.95L-9.90013 208.007L0.599868 132.857L0.19336 132.8L-0.213149 132.743L-10.7131 207.893L-10.3066 207.95ZM0.19336 132.8V133.21H23.7434V132.8V132.389H0.19336V132.8ZM23.7434 132.8H23.3329V237.8H23.7434H24.1538V132.8H23.7434ZM23.7434 237.8V237.389H8.14336V237.8V238.21H23.7434V237.8ZM8.14336 237.8H8.55382V158.3H8.14336H7.7329V237.8H8.14336ZM8.14336 158.3V157.889H7.84336V158.3V158.71H8.14336V158.3ZM7.84336 158.3L7.4375 158.239L-4.5625 237.739L-4.15664 237.8L-3.75078 237.861L8.24922 158.361L7.84336 158.3ZM-4.15664 237.8V237.389H-17.9566V237.8V238.21H-4.15664V237.8ZM-17.9566 237.8L-17.5508 237.739L-29.5508 158.239L-29.9566 158.3L-30.3625 158.361L-18.3625 237.861L-17.9566 237.8ZM-29.9566 158.3V157.889H-30.2566V158.3V158.71H-29.9566V158.3ZM-30.2566 158.3H-30.6671V237.8H-30.2566H-29.8462V158.3H-30.2566ZM-30.2566 237.8V237.389H-44.6566V237.8V238.21H-30.2566V237.8ZM30.2063 237.8L29.8011 237.734L29.7235 238.21H30.2063V237.8ZM47.3063 132.8V132.389H46.9572L46.9011 132.734L47.3063 132.8ZM69.6563 132.8L70.0614 132.734L70.0053 132.389H69.6563V132.8ZM86.7563 237.8V238.21H87.239L87.1614 237.734L86.7563 237.8ZM70.2563 237.8L69.85 237.858L69.9006 238.21H70.2563V237.8ZM67.2563 216.95L67.6625 216.891L66.8458 216.95H67.2563ZM67.2563 217.25V217.66H67.6667V217.25H67.2563ZM48.5063 217.25V216.839H48.1514L48.1001 217.191L48.5063 217.25ZM45.5063 237.8V238.21H45.8611L45.9124 237.859L45.5063 237.8ZM50.4562 203L50.0497 202.943L49.9849 203.41H50.4562V203ZM65.3063 203V203.41H65.7789L65.7127 202.942L65.3063 203ZM57.9563 151.1L58.3627 151.042L58.3127 150.689H57.9563V151.1ZM57.6563 151.1V150.689H57.2988L57.2497 151.043L57.6563 151.1ZM30.2063 237.8L30.6114 237.866L47.7114 132.866L47.3063 132.8L46.9011 132.734L29.8011 237.734L30.2063 237.8ZM47.3063 132.8V133.21H69.6563V132.8V132.389H47.3063V132.8ZM69.6563 132.8L69.2511 132.866L86.3511 237.866L86.7563 237.8L87.1614 237.734L70.0614 132.734L69.6563 132.8ZM86.7563 237.8V237.389H70.2563V237.8V238.21H86.7563V237.8ZM70.2563 237.8L70.6625 237.741L67.6625 216.891L67.2563 216.95L66.85 217.008L69.85 237.858L70.2563 237.8ZM67.2563 216.95H66.8458V217.25H67.2563H67.6667V216.95H67.2563ZM67.2563 217.25V216.839H48.5063V217.25V217.66H67.2563V217.25ZM48.5063 217.25L48.1001 217.191L45.1001 237.741L45.5063 237.8L45.9124 237.859L48.9124 217.309L48.5063 217.25ZM45.5063 237.8V237.389H30.2063V237.8V238.21H45.5063V237.8ZM50.4562 203V203.41H65.3063V203V202.589H50.4562V203ZM65.3063 203L65.7127 202.942L58.3627 151.042L57.9563 151.1L57.5498 151.157L64.8998 203.057L65.3063 203ZM57.9563 151.1V150.689H57.6563V151.1V151.51H57.9563V151.1ZM57.6563 151.1L57.2497 151.043L50.0497 202.943L50.4562 203L50.8628 203.056L58.0628 151.156L57.6563 151.1ZM93.2613 237.8H92.8509V238.21H93.2613V237.8ZM93.2613 132.8V132.389H92.8509V132.8H93.2613ZM131.361 184.1L131.206 183.72L130.951 183.824V184.1H131.361ZM131.361 184.4H130.951V184.703L131.24 184.792L131.361 184.4ZM144.111 237.8V238.21H144.731L144.489 237.64L144.111 237.8ZM127.311 237.8L126.922 237.93L127.015 238.21H127.311V237.8ZM109.761 192.8V192.389H109.351V192.8H109.761ZM109.761 237.8V238.21H110.172V237.8H109.761ZM109.761 177.8H109.351V178.21H109.761V177.8ZM109.761 147.8V147.389H109.351V147.8H109.761ZM93.2613 237.8H93.6718V132.8H93.2613H92.8509V237.8H93.2613ZM93.2613 132.8V133.21H117.711V132.8V132.389H93.2613V132.8ZM117.711 132.8V133.21C126.206 133.21 132.19 135.185 136.057 139.089C139.925 142.993 141.751 148.903 141.751 156.95H142.161H142.572C142.572 148.796 140.723 142.632 136.64 138.511C132.557 134.389 126.317 132.389 117.711 132.389V132.8ZM142.161 156.95H141.751V163.4H142.161H142.572V156.95H142.161ZM142.161 163.4H141.751C141.751 168.76 140.894 173.114 139.153 176.486C137.417 179.849 134.792 182.256 131.206 183.72L131.361 184.1L131.516 184.48C135.281 182.943 138.056 180.401 139.882 176.863C141.704 173.335 142.572 168.839 142.572 163.4H142.161ZM131.361 184.1H130.951V184.4H131.361H131.772V184.1H131.361ZM131.361 184.4L131.24 184.792C135.246 186.03 137.896 188.532 139.556 192.182C141.227 195.853 141.901 200.697 141.901 206.6H142.311H142.722C142.722 200.653 142.046 195.671 140.304 191.842C138.552 187.992 135.726 185.319 131.483 184.008L131.361 184.4ZM142.311 206.6H141.901V225.05H142.311H142.722V206.6H142.311ZM142.311 225.05H141.901C141.901 230.149 142.048 233.975 143.733 237.96L144.111 237.8L144.489 237.64C142.875 233.824 142.722 230.15 142.722 225.05H142.311ZM144.111 237.8V237.389H127.311V237.8V238.21H144.111V237.8ZM127.311 237.8L127.701 237.67C127.251 236.322 126.887 235.264 126.63 233.485C126.372 231.696 126.222 229.169 126.222 224.9H125.811H125.401C125.401 229.181 125.551 231.754 125.818 233.602C126.086 235.46 126.471 236.578 126.922 237.93L127.311 237.8ZM125.811 224.9H126.222V205.7H125.811H125.401V224.9H125.811ZM125.811 205.7H126.222C126.222 200.809 125.512 197.457 123.766 195.333C121.999 193.185 119.256 192.389 115.461 192.389V192.8V193.21C119.166 193.21 121.598 193.99 123.132 195.854C124.685 197.743 125.401 200.841 125.401 205.7H125.811ZM115.461 192.8V192.389H109.761V192.8V193.21H115.461V192.8ZM109.761 192.8H109.351V237.8H109.761H110.172V192.8H109.761ZM109.761 237.8V237.389H93.2613V237.8V238.21H109.761V237.8ZM109.761 177.8V178.21H115.761V177.8V177.389H109.761V177.8ZM115.761 177.8V178.21C118.887 178.21 121.493 177.525 123.309 175.688C125.124 173.854 126.072 170.951 126.072 166.7H125.661H125.251C125.251 170.849 124.324 173.496 122.726 175.111C121.13 176.725 118.785 177.389 115.761 177.389V177.8ZM125.661 166.7H126.072V158.6H125.661H125.251V166.7H125.661ZM125.661 158.6H126.072C126.072 154.819 125.432 152.007 123.979 150.136C122.507 148.24 120.265 147.389 117.261 147.389V147.8V148.21C120.107 148.21 122.065 149.009 123.331 150.639C124.615 152.293 125.251 154.88 125.251 158.6H125.661ZM117.261 147.8V147.389H109.761V147.8V148.21H117.261V147.8ZM109.761 147.8H109.351V177.8H109.761H110.172V147.8H109.761Z" fill="#F4E046" mask="url(#path-5-outside-3_1553_6870)"/>
<mask id="path-7-outside-4_1553_6870" maskUnits="userSpaceOnUse" x="170.379" y="131.8" width="300" height="107" fill="black">
<rect fill="white" x="170.379" y="131.8" width="300" height="107"/>
<path d="M171.529 237.8V132.8H188.029V222.8H215.179V237.8H171.529ZM217.827 237.8L234.927 132.8H257.277L274.377 237.8H257.877L254.877 216.95V217.25H236.127L233.127 237.8H217.827ZM238.077 203H252.927L245.577 151.1H245.277L238.077 203ZM280.882 237.8V132.8H304.432L314.932 207.95H315.232L325.732 132.8H349.282V237.8H333.682V158.3H333.382L321.382 237.8H307.582L295.582 158.3H295.282V237.8H280.882ZM355.745 237.8L372.845 132.8H395.195L412.295 237.8H395.795L392.795 216.95V217.25H374.045L371.045 237.8H355.745ZM375.995 203H390.845L383.495 151.1H383.195L375.995 203ZM418.8 237.8V132.8H443.25C460.35 132.8 467.7 140.75 467.7 156.95V163.4C467.7 174.2 464.25 181.1 456.9 184.1V184.4C465.15 186.95 467.85 194.75 467.85 206.6V225.05C467.85 230.15 468 233.9 469.65 237.8H452.85C451.95 235.1 451.35 233.45 451.35 224.9V205.7C451.35 195.95 448.5 192.8 441 192.8H435.3V237.8H418.8ZM435.3 177.8H441.3C447.45 177.8 451.2 175.1 451.2 166.7V158.6C451.2 151.1 448.65 147.8 442.8 147.8H435.3V177.8Z"/>
</mask>
<path d="M171.529 237.8H171.118V238.21H171.529V237.8ZM171.529 132.8V132.389H171.118V132.8H171.529ZM188.029 132.8H188.439V132.389H188.029V132.8ZM188.029 222.8H187.618V223.21H188.029V222.8ZM215.179 222.8H215.589V222.389H215.179V222.8ZM215.179 237.8V238.21H215.589V237.8H215.179ZM171.529 237.8H171.939V132.8H171.529H171.118V237.8H171.529ZM171.529 132.8V133.21H188.029V132.8V132.389H171.529V132.8ZM188.029 132.8H187.618V222.8H188.029H188.439V132.8H188.029ZM188.029 222.8V223.21H215.179V222.8V222.389H188.029V222.8ZM215.179 222.8H214.768V237.8H215.179H215.589V222.8H215.179ZM215.179 237.8V237.389H171.529V237.8V238.21H215.179V237.8ZM217.827 237.8L217.422 237.734L217.345 238.21H217.827V237.8ZM234.927 132.8V132.389H234.578L234.522 132.734L234.927 132.8ZM257.277 132.8L257.682 132.734L257.626 132.389H257.277V132.8ZM274.377 237.8V238.21H274.86L274.782 237.734L274.377 237.8ZM257.877 237.8L257.471 237.858L257.522 238.21H257.877V237.8ZM254.877 216.95L255.284 216.891L254.467 216.95H254.877ZM254.877 217.25V217.66H255.288V217.25H254.877ZM236.127 217.25V216.839H235.772L235.721 217.191L236.127 217.25ZM233.127 237.8V238.21H233.482L233.533 237.859L233.127 237.8ZM238.077 203L237.671 202.943L237.606 203.41H238.077V203ZM252.927 203V203.41H253.4L253.334 202.942L252.927 203ZM245.577 151.1L245.984 151.042L245.934 150.689H245.577V151.1ZM245.277 151.1V150.689H244.92L244.871 151.043L245.277 151.1ZM217.827 237.8L218.232 237.866L235.332 132.866L234.927 132.8L234.522 132.734L217.422 237.734L217.827 237.8ZM234.927 132.8V133.21H257.277V132.8V132.389H234.927V132.8ZM257.277 132.8L256.872 132.866L273.972 237.866L274.377 237.8L274.782 237.734L257.682 132.734L257.277 132.8ZM274.377 237.8V237.389H257.877V237.8V238.21H274.377V237.8ZM257.877 237.8L258.284 237.741L255.284 216.891L254.877 216.95L254.471 217.008L257.471 237.858L257.877 237.8ZM254.877 216.95H254.467V217.25H254.877H255.288V216.95H254.877ZM254.877 217.25V216.839H236.127V217.25V217.66H254.877V217.25ZM236.127 217.25L235.721 217.191L232.721 237.741L233.127 237.8L233.533 237.859L236.533 217.309L236.127 217.25ZM233.127 237.8V237.389H217.827V237.8V238.21H233.127V237.8ZM238.077 203V203.41H252.927V203V202.589H238.077V203ZM252.927 203L253.334 202.942L245.984 151.042L245.577 151.1L245.171 151.157L252.521 203.057L252.927 203ZM245.577 151.1V150.689H245.277V151.1V151.51H245.577V151.1ZM245.277 151.1L244.871 151.043L237.671 202.943L238.077 203L238.484 203.056L245.684 151.156L245.277 151.1ZM280.882 237.8H280.472V238.21H280.882V237.8ZM280.882 132.8V132.389H280.472V132.8H280.882ZM304.432 132.8L304.839 132.743L304.79 132.389H304.432V132.8ZM314.932 207.95L314.526 208.007L314.575 208.36H314.932V207.95ZM315.232 207.95V208.36H315.59L315.639 208.007L315.232 207.95ZM325.732 132.8V132.389H325.375L325.326 132.743L325.732 132.8ZM349.282 132.8H349.693V132.389H349.282V132.8ZM349.282 237.8V238.21H349.693V237.8H349.282ZM333.682 237.8H333.272V238.21H333.682V237.8ZM333.682 158.3H334.093V157.889H333.682V158.3ZM333.382 158.3V157.889H333.029L332.977 158.239L333.382 158.3ZM321.382 237.8V238.21H321.736L321.788 237.861L321.382 237.8ZM307.582 237.8L307.177 237.861L307.229 238.21H307.582V237.8ZM295.582 158.3L295.988 158.239L295.936 157.889H295.582V158.3ZM295.282 158.3V157.889H294.872V158.3H295.282ZM295.282 237.8V238.21H295.693V237.8H295.282ZM280.882 237.8H281.293V132.8H280.882H280.472V237.8H280.882ZM280.882 132.8V133.21H304.432V132.8V132.389H280.882V132.8ZM304.432 132.8L304.026 132.857L314.526 208.007L314.932 207.95L315.339 207.893L304.839 132.743L304.432 132.8ZM314.932 207.95V208.36H315.232V207.95V207.539H314.932V207.95ZM315.232 207.95L315.639 208.007L326.139 132.857L325.732 132.8L325.326 132.743L314.826 207.893L315.232 207.95ZM325.732 132.8V133.21H349.282V132.8V132.389H325.732V132.8ZM349.282 132.8H348.872V237.8H349.282H349.693V132.8H349.282ZM349.282 237.8V237.389H333.682V237.8V238.21H349.282V237.8ZM333.682 237.8H334.093V158.3H333.682H333.272V237.8H333.682ZM333.682 158.3V157.889H333.382V158.3V158.71H333.682V158.3ZM333.382 158.3L332.977 158.239L320.977 237.739L321.382 237.8L321.788 237.861L333.788 158.361L333.382 158.3ZM321.382 237.8V237.389H307.582V237.8V238.21H321.382V237.8ZM307.582 237.8L307.988 237.739L295.988 158.239L295.582 158.3L295.177 158.361L307.177 237.861L307.582 237.8ZM295.582 158.3V157.889H295.282V158.3V158.71H295.582V158.3ZM295.282 158.3H294.872V237.8H295.282H295.693V158.3H295.282ZM295.282 237.8V237.389H280.882V237.8V238.21H295.282V237.8ZM355.745 237.8L355.34 237.734L355.263 238.21H355.745V237.8ZM372.845 132.8V132.389H372.496L372.44 132.734L372.845 132.8ZM395.195 132.8L395.6 132.734L395.544 132.389H395.195V132.8ZM412.295 237.8V238.21H412.778L412.7 237.734L412.295 237.8ZM395.795 237.8L395.389 237.858L395.44 238.21H395.795V237.8ZM392.795 216.95L393.202 216.891L392.385 216.95H392.795ZM392.795 217.25V217.66H393.206V217.25H392.795ZM374.045 217.25V216.839H373.69L373.639 217.191L374.045 217.25ZM371.045 237.8V238.21H371.4L371.451 237.859L371.045 237.8ZM375.995 203L375.589 202.943L375.524 203.41H375.995V203ZM390.845 203V203.41H391.318L391.252 202.942L390.845 203ZM383.495 151.1L383.902 151.042L383.852 150.689H383.495V151.1ZM383.195 151.1V150.689H382.838L382.789 151.043L383.195 151.1ZM355.745 237.8L356.15 237.866L373.25 132.866L372.845 132.8L372.44 132.734L355.34 237.734L355.745 237.8ZM372.845 132.8V133.21H395.195V132.8V132.389H372.845V132.8ZM395.195 132.8L394.79 132.866L411.89 237.866L412.295 237.8L412.7 237.734L395.6 132.734L395.195 132.8ZM412.295 237.8V237.389H395.795V237.8V238.21H412.295V237.8ZM395.795 237.8L396.202 237.741L393.202 216.891L392.795 216.95L392.389 217.008L395.389 237.858L395.795 237.8ZM392.795 216.95H392.385V217.25H392.795H393.206V216.95H392.795ZM392.795 217.25V216.839H374.045V217.25V217.66H392.795V217.25ZM374.045 217.25L373.639 217.191L370.639 237.741L371.045 237.8L371.451 237.859L374.451 217.309L374.045 217.25ZM371.045 237.8V237.389H355.745V237.8V238.21H371.045V237.8ZM375.995 203V203.41H390.845V203V202.589H375.995V203ZM390.845 203L391.252 202.942L383.902 151.042L383.495 151.1L383.089 151.157L390.439 203.057L390.845 203ZM383.495 151.1V150.689H383.195V151.1V151.51H383.495V151.1ZM383.195 151.1L382.789 151.043L375.589 202.943L375.995 203L376.402 203.056L383.602 151.156L383.195 151.1ZM418.8 237.8H418.39V238.21H418.8V237.8ZM418.8 132.8V132.389H418.39V132.8H418.8ZM456.9 184.1L456.745 183.72L456.49 183.824V184.1H456.9ZM456.9 184.4H456.49V184.703L456.779 184.792L456.9 184.4ZM469.65 237.8V238.21H470.27L470.028 237.64L469.65 237.8ZM452.85 237.8L452.461 237.93L452.555 238.21H452.85V237.8ZM435.3 192.8V192.389H434.89V192.8H435.3ZM435.3 237.8V238.21H435.711V237.8H435.3ZM435.3 177.8H434.89V178.21H435.3V177.8ZM435.3 147.8V147.389H434.89V147.8H435.3ZM418.8 237.8H419.211V132.8H418.8H418.39V237.8H418.8ZM418.8 132.8V133.21H443.25V132.8V132.389H418.8V132.8ZM443.25 132.8V133.21C451.745 133.21 457.729 135.185 461.596 139.089C465.464 142.993 467.29 148.903 467.29 156.95H467.7H468.111C468.111 148.796 466.262 142.632 462.179 138.511C458.096 134.389 451.856 132.389 443.25 132.389V132.8ZM467.7 156.95H467.29V163.4H467.7H468.111V156.95H467.7ZM467.7 163.4H467.29C467.29 168.76 466.433 173.114 464.692 176.486C462.956 179.849 460.331 182.256 456.745 183.72L456.9 184.1L457.056 184.48C460.82 182.943 463.595 180.401 465.421 176.863C467.243 173.335 468.111 168.839 468.111 163.4H467.7ZM456.9 184.1H456.49V184.4H456.9H457.311V184.1H456.9ZM456.9 184.4L456.779 184.792C460.785 186.03 463.435 188.532 465.096 192.182C466.766 195.853 467.44 200.697 467.44 206.6H467.85H468.261C468.261 200.653 467.585 195.671 465.843 191.842C464.091 187.992 461.266 185.319 457.022 184.008L456.9 184.4ZM467.85 206.6H467.44V225.05H467.85H468.261V206.6H467.85ZM467.85 225.05H467.44C467.44 230.149 467.587 233.975 469.272 237.96L469.65 237.8L470.028 237.64C468.414 233.824 468.261 230.15 468.261 225.05H467.85ZM469.65 237.8V237.389H452.85V237.8V238.21H469.65V237.8ZM452.85 237.8L453.24 237.67C452.79 236.322 452.426 235.264 452.169 233.485C451.911 231.696 451.761 229.169 451.761 224.9H451.35H450.94C450.94 229.181 451.09 231.754 451.357 233.602C451.625 235.46 452.01 236.578 452.461 237.93L452.85 237.8ZM451.35 224.9H451.761V205.7H451.35H450.94V224.9H451.35ZM451.35 205.7H451.761C451.761 200.809 451.051 197.457 449.305 195.333C447.538 193.185 444.795 192.389 441 192.389V192.8V193.21C444.705 193.21 447.138 193.99 448.671 195.854C450.224 197.743 450.94 200.841 450.94 205.7H451.35ZM441 192.8V192.389H435.3V192.8V193.21H441V192.8ZM435.3 192.8H434.89V237.8H435.3H435.711V192.8H435.3ZM435.3 237.8V237.389H418.8V237.8V238.21H435.3V237.8ZM435.3 177.8V178.21H441.3V177.8V177.389H435.3V177.8ZM441.3 177.8V178.21C444.426 178.21 447.032 177.525 448.848 175.688C450.663 173.854 451.611 170.951 451.611 166.7H451.2H450.79C450.79 170.849 449.863 173.496 448.265 175.111C446.669 176.725 444.324 177.389 441.3 177.389V177.8ZM451.2 166.7H451.611V158.6H451.2H450.79V166.7H451.2ZM451.2 158.6H451.611C451.611 154.819 450.971 152.007 449.518 150.136C448.047 148.24 445.804 147.389 442.8 147.389V147.8V148.21C445.647 148.21 447.604 149.009 448.87 150.639C450.154 152.293 450.79 154.88 450.79 158.6H451.2ZM442.8 147.8V147.389H435.3V147.8V148.21H442.8V147.8ZM435.3 147.8H434.89V177.8H435.3H435.711V147.8H435.3Z" fill="#F4E046" mask="url(#path-7-outside-4_1553_6870)"/>
<mask id="path-9-outside-5_1553_6870" maskUnits="userSpaceOnUse" x="-72.3906" y="251.8" width="300" height="107" fill="black">
<rect fill="white" x="-72.3906" y="251.8" width="300" height="107"/>
<path d="M-71.2406 357.8V252.8H-54.7406V342.8H-27.5906V357.8H-71.2406ZM-24.9422 357.8L-7.84219 252.8H14.5078L31.6078 357.8H15.1078L12.1078 336.95V337.25H-6.64219L-9.64219 357.8H-24.9422ZM-4.69219 323H10.1578L2.80781 271.1H2.50781L-4.69219 323ZM38.1129 357.8V252.8H61.6629L72.1629 327.95H72.4629L82.9629 252.8H106.513V357.8H90.9129V278.3H90.6129L78.6129 357.8H64.8129L52.8129 278.3H52.5129V357.8H38.1129ZM112.976 357.8L130.076 252.8H152.426L169.526 357.8H153.026L150.026 336.95V337.25H131.276L128.276 357.8H112.976ZM133.226 323H148.076L140.726 271.1H140.426L133.226 323ZM176.031 357.8V252.8H200.481C217.581 252.8 224.931 260.75 224.931 276.95V283.4C224.931 294.2 221.481 301.1 214.131 304.1V304.4C222.381 306.95 225.081 314.75 225.081 326.6V345.05C225.081 350.15 225.231 353.9 226.881 357.8H210.081C209.181 355.1 208.581 353.45 208.581 344.9V325.7C208.581 315.95 205.731 312.8 198.231 312.8H192.531V357.8H176.031ZM192.531 297.8H198.531C204.681 297.8 208.431 295.1 208.431 286.7V278.6C208.431 271.1 205.881 267.8 200.031 267.8H192.531V297.8Z"/>
</mask>
<path d="M-71.2406 357.8H-71.6511V358.21H-71.2406V357.8ZM-71.2406 252.8V252.389H-71.6511V252.8H-71.2406ZM-54.7406 252.8H-54.3302V252.389H-54.7406V252.8ZM-54.7406 342.8H-55.1511V343.21H-54.7406V342.8ZM-27.5906 342.8H-27.1802V342.389H-27.5906V342.8ZM-27.5906 357.8V358.21H-27.1802V357.8H-27.5906ZM-71.2406 357.8H-70.8302V252.8H-71.2406H-71.6511V357.8H-71.2406ZM-71.2406 252.8V253.21H-54.7406V252.8V252.389H-71.2406V252.8ZM-54.7406 252.8H-55.1511V342.8H-54.7406H-54.3302V252.8H-54.7406ZM-54.7406 342.8V343.21H-27.5906V342.8V342.389H-54.7406V342.8ZM-27.5906 342.8H-28.0011V357.8H-27.5906H-27.1802V342.8H-27.5906ZM-27.5906 357.8V357.389H-71.2406V357.8V358.21H-27.5906V357.8ZM-24.9422 357.8L-25.3473 357.734L-25.4249 358.21H-24.9422V357.8ZM-7.84219 252.8V252.389H-8.19121L-8.24731 252.734L-7.84219 252.8ZM14.5078 252.8L14.9129 252.734L14.8568 252.389H14.5078V252.8ZM31.6078 357.8V358.21H32.0905L32.0129 357.734L31.6078 357.8ZM15.1078 357.8L14.7015 357.858L14.7522 358.21H15.1078V357.8ZM12.1078 336.95L12.5141 336.891L11.6974 336.95H12.1078ZM12.1078 337.25V337.66H12.5183V337.25H12.1078ZM-6.64219 337.25V336.839H-6.99707L-7.04834 337.191L-6.64219 337.25ZM-9.64219 357.8V358.21H-9.2873L-9.23603 357.859L-9.64219 357.8ZM-4.69219 323L-5.09875 322.943L-5.16352 323.41H-4.69219V323ZM10.1578 323V323.41H10.6305L10.5642 322.942L10.1578 323ZM2.80781 271.1L3.21422 271.042L3.16424 270.689H2.80781V271.1ZM2.50781 271.1V270.689H2.15037L2.10125 271.043L2.50781 271.1ZM-24.9422 357.8L-24.5371 357.866L-7.43707 252.866L-7.84219 252.8L-8.24731 252.734L-25.3473 357.734L-24.9422 357.8ZM-7.84219 252.8V253.21H14.5078V252.8V252.389H-7.84219V252.8ZM14.5078 252.8L14.1027 252.866L31.2027 357.866L31.6078 357.8L32.0129 357.734L14.9129 252.734L14.5078 252.8ZM31.6078 357.8V357.389H15.1078V357.8V358.21H31.6078V357.8ZM15.1078 357.8L15.5141 357.741L12.5141 336.891L12.1078 336.95L11.7015 337.008L14.7015 357.858L15.1078 357.8ZM12.1078 336.95H11.6974V337.25H12.1078H12.5183V336.95H12.1078ZM12.1078 337.25V336.839H-6.64219V337.25V337.66H12.1078V337.25ZM-6.64219 337.25L-7.04834 337.191L-10.0483 357.741L-9.64219 357.8L-9.23603 357.859L-6.23603 337.309L-6.64219 337.25ZM-9.64219 357.8V357.389H-24.9422V357.8V358.21H-9.64219V357.8ZM-4.69219 323V323.41H10.1578V323V322.589H-4.69219V323ZM10.1578 323L10.5642 322.942L3.21422 271.042L2.80781 271.1L2.40141 271.157L9.75141 323.057L10.1578 323ZM2.80781 271.1V270.689H2.50781V271.1V271.51H2.80781V271.1ZM2.50781 271.1L2.10125 271.043L-5.09875 322.943L-4.69219 323L-4.28562 323.056L2.91438 271.156L2.50781 271.1ZM38.1129 357.8H37.7024V358.21H38.1129V357.8ZM38.1129 252.8V252.389H37.7024V252.8H38.1129ZM61.6629 252.8L62.0694 252.743L62.02 252.389H61.6629V252.8ZM72.1629 327.95L71.7564 328.007L71.8058 328.36H72.1629V327.95ZM72.4629 327.95V328.36H72.82L72.8694 328.007L72.4629 327.95ZM82.9629 252.8V252.389H82.6058L82.5564 252.743L82.9629 252.8ZM106.513 252.8H106.923V252.389H106.513V252.8ZM106.513 357.8V358.21H106.923V357.8H106.513ZM90.9129 357.8H90.5024V358.21H90.9129V357.8ZM90.9129 278.3H91.3233V277.889H90.9129V278.3ZM90.6129 278.3V277.889H90.2597L90.207 278.239L90.6129 278.3ZM78.6129 357.8V358.21H78.966L79.0188 357.861L78.6129 357.8ZM64.8129 357.8L64.407 357.861L64.4597 358.21H64.8129V357.8ZM52.8129 278.3L53.2188 278.239L53.166 277.889H52.8129V278.3ZM52.5129 278.3V277.889H52.1024V278.3H52.5129ZM52.5129 357.8V358.21H52.9233V357.8H52.5129ZM38.1129 357.8H38.5233V252.8H38.1129H37.7024V357.8H38.1129ZM38.1129 252.8V253.21H61.6629V252.8V252.389H38.1129V252.8ZM61.6629 252.8L61.2564 252.857L71.7564 328.007L72.1629 327.95L72.5694 327.893L62.0694 252.743L61.6629 252.8ZM72.1629 327.95V328.36H72.4629V327.95V327.539H72.1629V327.95ZM72.4629 327.95L72.8694 328.007L83.3694 252.857L82.9629 252.8L82.5564 252.743L72.0564 327.893L72.4629 327.95ZM82.9629 252.8V253.21H106.513V252.8V252.389H82.9629V252.8ZM106.513 252.8H106.102V357.8H106.513H106.923V252.8H106.513ZM106.513 357.8V357.389H90.9129V357.8V358.21H106.513V357.8ZM90.9129 357.8H91.3233V278.3H90.9129H90.5024V357.8H90.9129ZM90.9129 278.3V277.889H90.6129V278.3V278.71H90.9129V278.3ZM90.6129 278.3L90.207 278.239L78.207 357.739L78.6129 357.8L79.0188 357.861L91.0188 278.361L90.6129 278.3ZM78.6129 357.8V357.389H64.8129V357.8V358.21H78.6129V357.8ZM64.8129 357.8L65.2188 357.739L53.2188 278.239L52.8129 278.3L52.407 278.361L64.407 357.861L64.8129 357.8ZM52.8129 278.3V277.889H52.5129V278.3V278.71H52.8129V278.3ZM52.5129 278.3H52.1024V357.8H52.5129H52.9233V278.3H52.5129ZM52.5129 357.8V357.389H38.1129V357.8V358.21H52.5129V357.8ZM112.976 357.8L112.571 357.734L112.493 358.21H112.976V357.8ZM130.076 252.8V252.389H129.727L129.671 252.734L130.076 252.8ZM152.426 252.8L152.831 252.734L152.775 252.389H152.426V252.8ZM169.526 357.8V358.21H170.008L169.931 357.734L169.526 357.8ZM153.026 357.8L152.62 357.858L152.67 358.21H153.026V357.8ZM150.026 336.95L150.432 336.891L149.615 336.95H150.026ZM150.026 337.25V337.66H150.436V337.25H150.026ZM131.276 337.25V336.839H130.921L130.87 337.191L131.276 337.25ZM128.276 357.8V358.21H128.631L128.682 357.859L128.276 357.8ZM133.226 323L132.819 322.943L132.754 323.41H133.226V323ZM148.076 323V323.41H148.548L148.482 322.942L148.076 323ZM140.726 271.1L141.132 271.042L141.082 270.689H140.726V271.1ZM140.426 271.1V270.689H140.068L140.019 271.043L140.426 271.1ZM112.976 357.8L113.381 357.866L130.481 252.866L130.076 252.8L129.671 252.734L112.571 357.734L112.976 357.8ZM130.076 252.8V253.21H152.426V252.8V252.389H130.076V252.8ZM152.426 252.8L152.021 252.866L169.121 357.866L169.526 357.8L169.931 357.734L152.831 252.734L152.426 252.8ZM169.526 357.8V357.389H153.026V357.8V358.21H169.526V357.8ZM153.026 357.8L153.432 357.741L150.432 336.891L150.026 336.95L149.62 337.008L152.62 357.858L153.026 357.8ZM150.026 336.95H149.615V337.25H150.026H150.436V336.95H150.026ZM150.026 337.25V336.839H131.276V337.25V337.66H150.026V337.25ZM131.276 337.25L130.87 337.191L127.87 357.741L128.276 357.8L128.682 357.859L131.682 337.309L131.276 337.25ZM128.276 357.8V357.389H112.976V357.8V358.21H128.276V357.8ZM133.226 323V323.41H148.076V323V322.589H133.226V323ZM148.076 323L148.482 322.942L141.132 271.042L140.726 271.1L140.319 271.157L147.669 323.057L148.076 323ZM140.726 271.1V270.689H140.426V271.1V271.51H140.726V271.1ZM140.426 271.1L140.019 271.043L132.819 322.943L133.226 323L133.632 323.056L140.832 271.156L140.426 271.1ZM176.031 357.8H175.62V358.21H176.031V357.8ZM176.031 252.8V252.389H175.62V252.8H176.031ZM214.131 304.1L213.976 303.72L213.72 303.824V304.1H214.131ZM214.131 304.4H213.72V304.703L214.01 304.792L214.131 304.4ZM226.881 357.8V358.21H227.5L227.259 357.64L226.881 357.8ZM210.081 357.8L209.691 357.93L209.785 358.21H210.081V357.8ZM192.531 312.8V312.389H192.12V312.8H192.531ZM192.531 357.8V358.21H192.941V357.8H192.531ZM192.531 297.8H192.12V298.21H192.531V297.8ZM192.531 267.8V267.389H192.12V267.8H192.531ZM176.031 357.8H176.441V252.8H176.031H175.62V357.8H176.031ZM176.031 252.8V253.21H200.481V252.8V252.389H176.031V252.8ZM200.481 252.8V253.21C208.975 253.21 214.96 255.185 218.827 259.089C222.694 262.993 224.52 268.903 224.52 276.95H224.931H225.341C225.341 268.796 223.492 262.632 219.41 258.511C215.327 254.389 209.086 252.389 200.481 252.389V252.8ZM224.931 276.95H224.52V283.4H224.931H225.341V276.95H224.931ZM224.931 283.4H224.52C224.52 288.76 223.664 293.114 221.922 296.486C220.186 299.849 217.561 302.256 213.976 303.72L214.131 304.1L214.286 304.48C218.051 302.943 220.825 300.401 222.652 296.863C224.473 293.335 225.341 288.839 225.341 283.4H224.931ZM214.131 304.1H213.72V304.4H214.131H214.541V304.1H214.131ZM214.131 304.4L214.01 304.792C218.016 306.03 220.665 308.532 222.326 312.182C223.996 315.853 224.67 320.697 224.67 326.6H225.081H225.491C225.491 320.653 224.815 315.671 223.073 311.842C221.321 307.992 218.496 305.319 214.252 304.008L214.131 304.4ZM225.081 326.6H224.67V345.05H225.081H225.491V326.6H225.081ZM225.081 345.05H224.67C224.67 350.149 224.817 353.975 226.503 357.96L226.881 357.8L227.259 357.64C225.645 353.824 225.491 350.15 225.491 345.05H225.081ZM226.881 357.8V357.389H210.081V357.8V358.21H226.881V357.8ZM210.081 357.8L210.47 357.67C210.021 356.322 209.656 355.264 209.4 353.485C209.141 351.696 208.991 349.169 208.991 344.9H208.581H208.17C208.17 349.181 208.32 351.754 208.587 353.602C208.855 355.46 209.241 356.578 209.691 357.93L210.081 357.8ZM208.581 344.9H208.991V325.7H208.581H208.17V344.9H208.581ZM208.581 325.7H208.991C208.991 320.809 208.282 317.457 206.535 315.333C204.769 313.185 202.026 312.389 198.231 312.389V312.8V313.21C201.936 313.21 204.368 313.99 205.901 315.854C207.455 317.743 208.17 320.841 208.17 325.7H208.581ZM198.231 312.8V312.389H192.531V312.8V313.21H198.231V312.8ZM192.531 312.8H192.12V357.8H192.531H192.941V312.8H192.531ZM192.531 357.8V357.389H176.031V357.8V358.21H192.531V357.8ZM192.531 297.8V298.21H198.531V297.8V297.389H192.531V297.8ZM198.531 297.8V298.21C201.657 298.21 204.262 297.525 206.079 295.688C207.894 293.854 208.841 290.951 208.841 286.7H208.431H208.02C208.02 290.849 207.093 293.496 205.495 295.111C203.899 296.725 201.555 297.389 198.531 297.389V297.8ZM208.431 286.7H208.841V278.6H208.431H208.02V286.7H208.431ZM208.431 278.6H208.841C208.841 274.819 208.202 272.007 206.749 270.136C205.277 268.24 203.035 267.389 200.031 267.389V267.8V268.21C202.877 268.21 204.835 269.009 206.1 270.639C207.385 272.293 208.02 274.88 208.02 278.6H208.431ZM200.031 267.8V267.389H192.531V267.8V268.21H200.031V267.8ZM192.531 267.8H192.12V297.8H192.531H192.941V267.8H192.531Z" fill="#F4E046" mask="url(#path-9-outside-5_1553_6870)"/>
<mask id="path-11-outside-6_1553_6870" maskUnits="userSpaceOnUse" x="253.148" y="251.8" width="300" height="107" fill="black">
<rect fill="white" x="253.148" y="251.8" width="300" height="107"/>
<path d="M254.298 357.8V252.8H270.798V342.8H297.948V357.8H254.298ZM300.597 357.8L317.697 252.8H340.047L357.147 357.8H340.647L337.647 336.95V337.25H318.897L315.897 357.8H300.597ZM320.847 323H335.697L328.347 271.1H328.047L320.847 323ZM363.652 357.8V252.8H387.202L397.702 327.95H398.002L408.502 252.8H432.052V357.8H416.452V278.3H416.152L404.152 357.8H390.352L378.352 278.3H378.052V357.8H363.652ZM438.515 357.8L455.615 252.8H477.965L495.065 357.8H478.565L475.565 336.95V337.25H456.815L453.815 357.8H438.515ZM458.765 323H473.615L466.265 271.1H465.965L458.765 323ZM501.57 357.8V252.8H526.02C543.12 252.8 550.47 260.75 550.47 276.95V283.4C550.47 294.2 547.02 301.1 539.67 304.1V304.4C547.92 306.95 550.62 314.75 550.62 326.6V345.05C550.62 350.15 550.77 353.9 552.42 357.8H535.62C534.72 355.1 534.12 353.45 534.12 344.9V325.7C534.12 315.95 531.27 312.8 523.77 312.8H518.07V357.8H501.57ZM518.07 297.8H524.07C530.22 297.8 533.97 295.1 533.97 286.7V278.6C533.97 271.1 531.42 267.8 525.57 267.8H518.07V297.8Z"/>
</mask>
<path d="M254.298 357.8H253.888V358.21H254.298V357.8ZM254.298 252.8V252.389H253.888V252.8H254.298ZM270.798 252.8H271.209V252.389H270.798V252.8ZM270.798 342.8H270.388V343.21H270.798V342.8ZM297.948 342.8H298.359V342.389H297.948V342.8ZM297.948 357.8V358.21H298.359V357.8H297.948ZM254.298 357.8H254.709V252.8H254.298H253.888V357.8H254.298ZM254.298 252.8V253.21H270.798V252.8V252.389H254.298V252.8ZM270.798 252.8H270.388V342.8H270.798H271.209V252.8H270.798ZM270.798 342.8V343.21H297.948V342.8V342.389H270.798V342.8ZM297.948 342.8H297.538V357.8H297.948H298.359V342.8H297.948ZM297.948 357.8V357.389H254.298V357.8V358.21H297.948V357.8ZM300.597 357.8L300.192 357.734L300.114 358.21H300.597V357.8ZM317.697 252.8V252.389H317.348L317.292 252.734L317.697 252.8ZM340.047 252.8L340.452 252.734L340.396 252.389H340.047V252.8ZM357.147 357.8V358.21H357.63L357.552 357.734L357.147 357.8ZM340.647 357.8L340.241 357.858L340.291 358.21H340.647V357.8ZM337.647 336.95L338.053 336.891L337.236 336.95H337.647ZM337.647 337.25V337.66H338.057V337.25H337.647ZM318.897 337.25V336.839H318.542L318.491 337.191L318.897 337.25ZM315.897 357.8V358.21H316.252L316.303 357.859L315.897 357.8ZM320.847 323L320.44 322.943L320.376 323.41H320.847V323ZM335.697 323V323.41H336.17L336.103 322.942L335.697 323ZM328.347 271.1L328.753 271.042L328.703 270.689H328.347V271.1ZM328.047 271.1V270.689H327.689L327.64 271.043L328.047 271.1ZM300.597 357.8L301.002 357.866L318.102 252.866L317.697 252.8L317.292 252.734L300.192 357.734L300.597 357.8ZM317.697 252.8V253.21H340.047V252.8V252.389H317.697V252.8ZM340.047 252.8L339.642 252.866L356.742 357.866L357.147 357.8L357.552 357.734L340.452 252.734L340.047 252.8ZM357.147 357.8V357.389H340.647V357.8V358.21H357.147V357.8ZM340.647 357.8L341.053 357.741L338.053 336.891L337.647 336.95L337.241 337.008L340.241 357.858L340.647 357.8ZM337.647 336.95H337.236V337.25H337.647H338.057V336.95H337.647ZM337.647 337.25V336.839H318.897V337.25V337.66H337.647V337.25ZM318.897 337.25L318.491 337.191L315.491 357.741L315.897 357.8L316.303 357.859L319.303 337.309L318.897 337.25ZM315.897 357.8V357.389H300.597V357.8V358.21H315.897V357.8ZM320.847 323V323.41H335.697V323V322.589H320.847V323ZM335.697 323L336.103 322.942L328.753 271.042L328.347 271.1L327.94 271.157L335.29 323.057L335.697 323ZM328.347 271.1V270.689H328.047V271.1V271.51H328.347V271.1ZM328.047 271.1L327.64 271.043L320.44 322.943L320.847 323L321.253 323.056L328.453 271.156L328.047 271.1ZM363.652 357.8H363.241V358.21H363.652V357.8ZM363.652 252.8V252.389H363.241V252.8H363.652ZM387.202 252.8L387.608 252.743L387.559 252.389H387.202V252.8ZM397.702 327.95L397.295 328.007L397.345 328.36H397.702V327.95ZM398.002 327.95V328.36H398.359L398.408 328.007L398.002 327.95ZM408.502 252.8V252.389H408.145L408.095 252.743L408.502 252.8ZM432.052 252.8H432.462V252.389H432.052V252.8ZM432.052 357.8V358.21H432.462V357.8H432.052ZM416.452 357.8H416.041V358.21H416.452V357.8ZM416.452 278.3H416.862V277.889H416.452V278.3ZM416.152 278.3V277.889H415.799L415.746 278.239L416.152 278.3ZM404.152 357.8V358.21H404.505L404.558 357.861L404.152 357.8ZM390.352 357.8L389.946 357.861L389.999 358.21H390.352V357.8ZM378.352 278.3L378.758 278.239L378.705 277.889H378.352V278.3ZM378.052 278.3V277.889H377.641V278.3H378.052ZM378.052 357.8V358.21H378.462V357.8H378.052ZM363.652 357.8H364.062V252.8H363.652H363.241V357.8H363.652ZM363.652 252.8V253.21H387.202V252.8V252.389H363.652V252.8ZM387.202 252.8L386.795 252.857L397.295 328.007L397.702 327.95L398.108 327.893L387.608 252.743L387.202 252.8ZM397.702 327.95V328.36H398.002V327.95V327.539H397.702V327.95ZM398.002 327.95L398.408 328.007L408.908 252.857L408.502 252.8L408.095 252.743L397.595 327.893L398.002 327.95ZM408.502 252.8V253.21H432.052V252.8V252.389H408.502V252.8ZM432.052 252.8H431.641V357.8H432.052H432.462V252.8H432.052ZM432.052 357.8V357.389H416.452V357.8V358.21H432.052V357.8ZM416.452 357.8H416.862V278.3H416.452H416.041V357.8H416.452ZM416.452 278.3V277.889H416.152V278.3V278.71H416.452V278.3ZM416.152 278.3L415.746 278.239L403.746 357.739L404.152 357.8L404.558 357.861L416.558 278.361L416.152 278.3ZM404.152 357.8V357.389H390.352V357.8V358.21H404.152V357.8ZM390.352 357.8L390.758 357.739L378.758 278.239L378.352 278.3L377.946 278.361L389.946 357.861L390.352 357.8ZM378.352 278.3V277.889H378.052V278.3V278.71H378.352V278.3ZM378.052 278.3H377.641V357.8H378.052H378.462V278.3H378.052ZM378.052 357.8V357.389H363.652V357.8V358.21H378.052V357.8ZM438.515 357.8L438.11 357.734L438.032 358.21H438.515V357.8ZM455.615 252.8V252.389H455.266L455.21 252.734L455.615 252.8ZM477.965 252.8L478.37 252.734L478.314 252.389H477.965V252.8ZM495.065 357.8V358.21H495.548L495.47 357.734L495.065 357.8ZM478.565 357.8L478.159 357.858L478.209 358.21H478.565V357.8ZM475.565 336.95L475.971 336.891L475.154 336.95H475.565ZM475.565 337.25V337.66H475.975V337.25H475.565ZM456.815 337.25V336.839H456.46L456.409 337.191L456.815 337.25ZM453.815 357.8V358.21H454.17L454.221 357.859L453.815 357.8ZM458.765 323L458.358 322.943L458.294 323.41H458.765V323ZM473.615 323V323.41H474.088L474.021 322.942L473.615 323ZM466.265 271.1L466.671 271.042L466.621 270.689H466.265V271.1ZM465.965 271.1V270.689H465.607L465.558 271.043L465.965 271.1ZM438.515 357.8L438.92 357.866L456.02 252.866L455.615 252.8L455.21 252.734L438.11 357.734L438.515 357.8ZM455.615 252.8V253.21H477.965V252.8V252.389H455.615V252.8ZM477.965 252.8L477.56 252.866L494.66 357.866L495.065 357.8L495.47 357.734L478.37 252.734L477.965 252.8ZM495.065 357.8V357.389H478.565V357.8V358.21H495.065V357.8ZM478.565 357.8L478.971 357.741L475.971 336.891L475.565 336.95L475.159 337.008L478.159 357.858L478.565 357.8ZM475.565 336.95H475.154V337.25H475.565H475.975V336.95H475.565ZM475.565 337.25V336.839H456.815V337.25V337.66H475.565V337.25ZM456.815 337.25L456.409 337.191L453.409 357.741L453.815 357.8L454.221 357.859L457.221 337.309L456.815 337.25ZM453.815 357.8V357.389H438.515V357.8V358.21H453.815V357.8ZM458.765 323V323.41H473.615V323V322.589H458.765V323ZM473.615 323L474.021 322.942L466.671 271.042L466.265 271.1L465.858 271.157L473.208 323.057L473.615 323ZM466.265 271.1V270.689H465.965V271.1V271.51H466.265V271.1ZM465.965 271.1L465.558 271.043L458.358 322.943L458.765 323L459.171 323.056L466.371 271.156L465.965 271.1ZM501.57 357.8H501.159V358.21H501.57V357.8ZM501.57 252.8V252.389H501.159V252.8H501.57ZM539.67 304.1L539.515 303.72L539.259 303.824V304.1H539.67ZM539.67 304.4H539.259V304.703L539.549 304.792L539.67 304.4ZM552.42 357.8V358.21H553.039L552.798 357.64L552.42 357.8ZM535.62 357.8L535.231 357.93L535.324 358.21H535.62V357.8ZM518.07 312.8V312.389H517.659V312.8H518.07ZM518.07 357.8V358.21H518.48V357.8H518.07ZM518.07 297.8H517.659V298.21H518.07V297.8ZM518.07 267.8V267.389H517.659V267.8H518.07ZM501.57 357.8H501.98V252.8H501.57H501.159V357.8H501.57ZM501.57 252.8V253.21H526.02V252.8V252.389H501.57V252.8ZM526.02 252.8V253.21C534.514 253.21 540.499 255.185 544.366 259.089C548.233 262.993 550.059 268.903 550.059 276.95H550.47H550.88C550.88 268.796 549.032 262.632 544.949 258.511C540.866 254.389 534.625 252.389 526.02 252.389V252.8ZM550.47 276.95H550.059V283.4H550.47H550.88V276.95H550.47ZM550.47 283.4H550.059C550.059 288.76 549.203 293.114 547.461 296.486C545.725 299.849 543.1 302.256 539.515 303.72L539.67 304.1L539.825 304.48C543.59 302.943 546.364 300.401 548.191 296.863C550.012 293.335 550.88 288.839 550.88 283.4H550.47ZM539.67 304.1H539.259V304.4H539.67H540.08V304.1H539.67ZM539.67 304.4L539.549 304.792C543.555 306.03 546.204 308.532 547.865 312.182C549.535 315.853 550.209 320.697 550.209 326.6H550.62H551.03C551.03 320.653 550.354 315.671 548.612 311.842C546.861 307.992 544.035 305.319 539.791 304.008L539.67 304.4ZM550.62 326.6H550.209V345.05H550.62H551.03V326.6H550.62ZM550.62 345.05H550.209C550.209 350.149 550.356 353.975 552.042 357.96L552.42 357.8L552.798 357.64C551.184 353.824 551.03 350.15 551.03 345.05H550.62ZM552.42 357.8V357.389H535.62V357.8V358.21H552.42V357.8ZM535.62 357.8L536.009 357.67C535.56 356.322 535.195 355.264 534.939 353.485C534.68 351.696 534.53 349.169 534.53 344.9H534.12H533.709C533.709 349.181 533.859 351.754 534.126 353.602C534.394 355.46 534.78 356.578 535.231 357.93L535.62 357.8ZM534.12 344.9H534.53V325.7H534.12H533.709V344.9H534.12ZM534.12 325.7H534.53C534.53 320.809 533.821 317.457 532.074 315.333C530.308 313.185 527.565 312.389 523.77 312.389V312.8V313.21C527.475 313.21 529.907 313.99 531.44 315.854C532.994 317.743 533.709 320.841 533.709 325.7H534.12ZM523.77 312.8V312.389H518.07V312.8V313.21H523.77V312.8ZM518.07 312.8H517.659V357.8H518.07H518.48V312.8H518.07ZM518.07 357.8V357.389H501.57V357.8V358.21H518.07V357.8ZM518.07 297.8V298.21H524.07V297.8V297.389H518.07V297.8ZM524.07 297.8V298.21C527.196 298.21 529.801 297.525 531.618 295.688C533.433 293.854 534.38 290.951 534.38 286.7H533.97H533.559C533.559 290.849 532.632 293.496 531.034 295.111C529.438 296.725 527.094 297.389 524.07 297.389V297.8ZM533.97 286.7H534.38V278.6H533.97H533.559V286.7H533.97ZM533.97 278.6H534.38C534.38 274.819 533.741 272.007 532.288 270.136C530.816 268.24 528.574 267.389 525.57 267.389V267.8V268.21C528.416 268.21 530.374 269.009 531.639 270.639C532.924 272.293 533.559 274.88 533.559 278.6H533.97ZM525.57 267.8V267.389H518.07V267.8V268.21H525.57V267.8ZM518.07 267.8H517.659V297.8H518.07H518.48V267.8H518.07Z" fill="#F4E046" mask="url(#path-11-outside-6_1553_6870)"/>
<mask id="path-13-outside-7_1553_6870" maskUnits="userSpaceOnUse" x="22.5391" y="372" width="300" height="107" fill="black">
<rect fill="white" x="22.5391" y="372" width="300" height="107"/>
<path d="M23.6891 478V373H40.1891V463H67.3391V478H23.6891ZM69.9875 478L87.0875 373H109.438L126.538 478H110.038L107.038 457.15V457.45H88.2875L85.2875 478H69.9875ZM90.2375 443.2H105.088L97.7375 391.3H97.4375L90.2375 443.2ZM133.043 478V373H156.593L167.093 448.15H167.393L177.893 373H201.443V478H185.843V398.5H185.543L173.543 478H159.743L147.743 398.5H147.443V478H133.043ZM207.905 478L225.005 373H247.355L264.455 478H247.955L244.955 457.15V457.45H226.205L223.205 478H207.905ZM228.155 443.2H243.005L235.655 391.3H235.355L228.155 443.2ZM270.961 478V373H295.411C312.511 373 319.861 380.95 319.861 397.15V403.6C319.861 414.4 316.411 421.3 309.061 424.3V424.6C317.311 427.15 320.011 434.95 320.011 446.8V465.25C320.011 470.35 320.161 474.1 321.811 478H305.011C304.111 475.3 303.511 473.65 303.511 465.1V445.9C303.511 436.15 300.661 433 293.161 433H287.461V478H270.961ZM287.461 418H293.461C299.611 418 303.361 415.3 303.361 406.9V398.8C303.361 391.3 300.811 388 294.961 388H287.461V418Z"/>
</mask>
<path d="M23.6891 478V373H40.1891V463H67.3391V478H23.6891ZM69.9875 478L87.0875 373H109.438L126.538 478H110.038L107.038 457.15V457.45H88.2875L85.2875 478H69.9875ZM90.2375 443.2H105.088L97.7375 391.3H97.4375L90.2375 443.2ZM133.043 478V373H156.593L167.093 448.15H167.393L177.893 373H201.443V478H185.843V398.5H185.543L173.543 478H159.743L147.743 398.5H147.443V478H133.043ZM207.905 478L225.005 373H247.355L264.455 478H247.955L244.955 457.15V457.45H226.205L223.205 478H207.905ZM228.155 443.2H243.005L235.655 391.3H235.355L228.155 443.2ZM270.961 478V373H295.411C312.511 373 319.861 380.95 319.861 397.15V403.6C319.861 414.4 316.411 421.3 309.061 424.3V424.6C317.311 427.15 320.011 434.95 320.011 446.8V465.25C320.011 470.35 320.161 474.1 321.811 478H305.011C304.111 475.3 303.511 473.65 303.511 465.1V445.9C303.511 436.15 300.661 433 293.161 433H287.461V478H270.961ZM287.461 418H293.461C299.611 418 303.361 415.3 303.361 406.9V398.8C303.361 391.3 300.811 388 294.961 388H287.461V418Z" fill="#F4E046"/>
<path d="M23.6891 478H23.2786V478.41H23.6891V478ZM23.6891 373V372.59H23.2786V373H23.6891ZM40.1891 373H40.5995V372.59H40.1891V373ZM40.1891 463H39.7786V463.41H40.1891V463ZM67.3391 463H67.7495V462.59H67.3391V463ZM67.3391 478V478.41H67.7495V478H67.3391ZM23.6891 478H24.0995V373H23.6891H23.2786V478H23.6891ZM23.6891 373V373.41H40.1891V373V372.59H23.6891V373ZM40.1891 373H39.7786V463H40.1891H40.5995V373H40.1891ZM40.1891 463V463.41H67.3391V463V462.59H40.1891V463ZM67.3391 463H66.9286V478H67.3391H67.7495V463H67.3391ZM67.3391 478V477.59H23.6891V478V478.41H67.3391V478ZM69.9875 478L69.5824 477.934L69.5048 478.41H69.9875V478ZM87.0875 373V372.59H86.7385L86.6824 372.934L87.0875 373ZM109.438 373L109.843 372.934L109.787 372.59H109.438V373ZM126.538 478V478.41H127.02L126.943 477.934L126.538 478ZM110.038 478L109.631 478.058L109.682 478.41H110.038V478ZM107.038 457.15L107.444 457.092L106.627 457.15H107.038ZM107.038 457.45V457.86H107.448V457.45H107.038ZM88.2875 457.45V457.04H87.9326L87.8813 457.391L88.2875 457.45ZM85.2875 478V478.41H85.6424L85.6937 478.059L85.2875 478ZM90.2375 443.2L89.8309 443.144L89.7662 443.61H90.2375V443.2ZM105.088 443.2V443.61H105.56L105.494 443.142L105.088 443.2ZM97.7375 391.3L98.1439 391.242L98.0939 390.89H97.7375V391.3ZM97.4375 391.3V390.89H97.0801L97.0309 391.244L97.4375 391.3ZM69.9875 478L70.3926 478.066L87.4926 373.066L87.0875 373L86.6824 372.934L69.5824 477.934L69.9875 478ZM87.0875 373V373.41H109.438V373V372.59H87.0875V373ZM109.438 373L109.032 373.066L126.132 478.066L126.538 478L126.943 477.934L109.843 372.934L109.438 373ZM126.538 478V477.59H110.038V478V478.41H126.538V478ZM110.038 478L110.444 477.942L107.444 457.092L107.038 457.15L106.631 457.208L109.631 478.058L110.038 478ZM107.038 457.15H106.627V457.45H107.038H107.448V457.15H107.038ZM107.038 457.45V457.04H88.2875V457.45V457.86H107.038V457.45ZM88.2875 457.45L87.8813 457.391L84.8813 477.941L85.2875 478L85.6937 478.059L88.6937 457.509L88.2875 457.45ZM85.2875 478V477.59H69.9875V478V478.41H85.2875V478ZM90.2375 443.2V443.61H105.088V443.2V442.79H90.2375V443.2ZM105.088 443.2L105.494 443.142L98.1439 391.242L97.7375 391.3L97.3311 391.358L104.681 443.258L105.088 443.2ZM97.7375 391.3V390.89H97.4375V391.3V391.71H97.7375V391.3ZM97.4375 391.3L97.0309 391.244L89.8309 443.144L90.2375 443.2L90.6441 443.256L97.8441 391.356L97.4375 391.3ZM133.043 478H132.632V478.41H133.043V478ZM133.043 373V372.59H132.632V373H133.043ZM156.593 373L156.999 372.943L156.95 372.59H156.593V373ZM167.093 448.15L166.686 448.207L166.735 448.56H167.093V448.15ZM167.393 448.15V448.56H167.75L167.799 448.207L167.393 448.15ZM177.893 373V372.59H177.535L177.486 372.943L177.893 373ZM201.443 373H201.853V372.59H201.443V373ZM201.443 478V478.41H201.853V478H201.443ZM185.843 478H185.432V478.41H185.843V478ZM185.843 398.5H186.253V398.09H185.843V398.5ZM185.543 398.5V398.09H185.189L185.137 398.439L185.543 398.5ZM173.543 478V478.41H173.896L173.948 478.061L173.543 478ZM159.743 478L159.337 478.061L159.389 478.41H159.743V478ZM147.743 398.5L148.148 398.439L148.096 398.09H147.743V398.5ZM147.443 398.5V398.09H147.032V398.5H147.443ZM147.443 478V478.41H147.853V478H147.443ZM133.043 478H133.453V373H133.043H132.632V478H133.043ZM133.043 373V373.41H156.593V373V372.59H133.043V373ZM156.593 373L156.186 373.057L166.686 448.207L167.093 448.15L167.499 448.093L156.999 372.943L156.593 373ZM167.093 448.15V448.56H167.393V448.15V447.74H167.093V448.15ZM167.393 448.15L167.799 448.207L178.299 373.057L177.893 373L177.486 372.943L166.986 448.093L167.393 448.15ZM177.893 373V373.41H201.443V373V372.59H177.893V373ZM201.443 373H201.032V478H201.443H201.853V373H201.443ZM201.443 478V477.59H185.843V478V478.41H201.443V478ZM185.843 478H186.253V398.5H185.843H185.432V478H185.843ZM185.843 398.5V398.09H185.543V398.5V398.91H185.843V398.5ZM185.543 398.5L185.137 398.439L173.137 477.939L173.543 478L173.948 478.061L185.948 398.561L185.543 398.5ZM173.543 478V477.59H159.743V478V478.41H173.543V478ZM159.743 478L160.148 477.939L148.148 398.439L147.743 398.5L147.337 398.561L159.337 478.061L159.743 478ZM147.743 398.5V398.09H147.443V398.5V398.91H147.743V398.5ZM147.443 398.5H147.032V478H147.443H147.853V398.5H147.443ZM147.443 478V477.59H133.043V478V478.41H147.443V478ZM207.905 478L207.5 477.934L207.423 478.41H207.905V478ZM225.005 373V372.59H224.656L224.6 372.934L225.005 373ZM247.355 373L247.761 372.934L247.704 372.59H247.355V373ZM264.455 478V478.41H264.938L264.861 477.934L264.455 478ZM247.955 478L247.549 478.058L247.6 478.41H247.955V478ZM244.955 457.15L245.362 457.092L244.545 457.15H244.955ZM244.955 457.45V457.86H245.366V457.45H244.955ZM226.205 457.45V457.04H225.851L225.799 457.391L226.205 457.45ZM223.205 478V478.41H223.56L223.612 478.059L223.205 478ZM228.155 443.2L227.749 443.144L227.684 443.61H228.155V443.2ZM243.005 443.2V443.61H243.478L243.412 443.142L243.005 443.2ZM235.655 391.3L236.062 391.242L236.012 390.89H235.655V391.3ZM235.355 391.3V390.89H234.998L234.949 391.244L235.355 391.3ZM207.905 478L208.311 478.066L225.411 373.066L225.005 373L224.6 372.934L207.5 477.934L207.905 478ZM225.005 373V373.41H247.355V373V372.59H225.005V373ZM247.355 373L246.95 373.066L264.05 478.066L264.455 478L264.861 477.934L247.761 372.934L247.355 373ZM264.455 478V477.59H247.955V478V478.41H264.455V478ZM247.955 478L248.362 477.942L245.362 457.092L244.955 457.15L244.549 457.208L247.549 478.058L247.955 478ZM244.955 457.15H244.545V457.45H244.955H245.366V457.15H244.955ZM244.955 457.45V457.04H226.205V457.45V457.86H244.955V457.45ZM226.205 457.45L225.799 457.391L222.799 477.941L223.205 478L223.612 478.059L226.612 457.509L226.205 457.45ZM223.205 478V477.59H207.905V478V478.41H223.205V478ZM228.155 443.2V443.61H243.005V443.2V442.79H228.155V443.2ZM243.005 443.2L243.412 443.142L236.062 391.242L235.655 391.3L235.249 391.358L242.599 443.258L243.005 443.2ZM235.655 391.3V390.89H235.355V391.3V391.71H235.655V391.3ZM235.355 391.3L234.949 391.244L227.749 443.144L228.155 443.2L228.562 443.256L235.762 391.356L235.355 391.3ZM270.961 478H270.55V478.41H270.961V478ZM270.961 373V372.59H270.55V373H270.961ZM309.061 424.3L308.905 423.92L308.65 424.024V424.3H309.061ZM309.061 424.6H308.65V424.903L308.939 424.992L309.061 424.6ZM321.811 478V478.41H322.43L322.189 477.84L321.811 478ZM305.011 478L304.621 478.13L304.715 478.41H305.011V478ZM287.461 433V432.59H287.05V433H287.461ZM287.461 478V478.41H287.871V478H287.461ZM287.461 418H287.05V418.41H287.461V418ZM287.461 388V387.59H287.05V388H287.461ZM270.961 478H271.371V373H270.961H270.55V478H270.961ZM270.961 373V373.41H295.411V373V372.59H270.961V373ZM295.411 373V373.41C303.905 373.41 309.89 375.386 313.756 379.289C317.624 383.193 319.45 389.103 319.45 397.15H319.861H320.271C320.271 388.997 318.422 382.832 314.34 378.711C310.256 374.589 304.016 372.59 295.411 372.59V373ZM319.861 397.15H319.45V403.6H319.861H320.271V397.15H319.861ZM319.861 403.6H319.45C319.45 408.961 318.593 413.314 316.852 416.687C315.116 420.049 312.491 422.457 308.905 423.92L309.061 424.3L309.216 424.68C312.98 423.143 315.755 420.601 317.582 417.063C319.403 413.536 320.271 409.039 320.271 403.6H319.861ZM309.061 424.3H308.65V424.6H309.061H309.471V424.3H309.061ZM309.061 424.6L308.939 424.992C312.945 426.23 315.595 428.732 317.256 432.382C318.926 436.054 319.6 440.897 319.6 446.8H320.011H320.421C320.421 440.853 319.745 435.871 318.003 432.043C316.251 428.193 313.426 425.52 309.182 424.208L309.061 424.6ZM320.011 446.8H319.6V465.25H320.011H320.421V446.8H320.011ZM320.011 465.25H319.6C319.6 470.35 319.747 474.176 321.433 478.16L321.811 478L322.189 477.84C320.574 474.024 320.421 470.35 320.421 465.25H320.011ZM321.811 478V477.59H305.011V478V478.41H321.811V478ZM305.011 478L305.4 477.87C304.95 476.522 304.586 475.465 304.329 473.685C304.071 471.896 303.921 469.369 303.921 465.1H303.511H303.1C303.1 469.381 303.25 471.954 303.517 473.802C303.785 475.66 304.171 476.778 304.621 478.13L305.011 478ZM303.511 465.1H303.921V445.9H303.511H303.1V465.1H303.511ZM303.511 445.9H303.921C303.921 441.009 303.212 437.657 301.465 435.533C299.698 433.385 296.956 432.59 293.161 432.59V433V433.41C296.866 433.41 299.298 434.19 300.831 436.054C302.384 437.943 303.1 441.041 303.1 445.9H303.511ZM293.161 433V432.59H287.461V433V433.41H293.161V433ZM287.461 433H287.05V478H287.461H287.871V433H287.461ZM287.461 478V477.59H270.961V478V478.41H287.461V478ZM287.461 418V418.41H293.461V418V417.59H287.461V418ZM293.461 418V418.41C296.587 418.41 299.192 417.725 301.009 415.889C302.823 414.054 303.771 411.151 303.771 406.9H303.361H302.95C302.95 411.049 302.023 413.696 300.425 415.311C298.829 416.925 296.485 417.59 293.461 417.59V418ZM303.361 406.9H303.771V398.8H303.361H302.95V406.9H303.361ZM303.361 398.8H303.771C303.771 395.019 303.131 392.207 301.678 390.336C300.207 388.441 297.964 387.59 294.961 387.59V388V388.41C297.807 388.41 299.764 389.209 301.03 390.839C302.315 392.493 302.95 395.081 302.95 398.8H303.361ZM294.961 388V387.59H287.461V388V388.41H294.961V388ZM287.461 388H287.05V418H287.461H287.871V388H287.461Z" fill="#F4E046" mask="url(#path-13-outside-7_1553_6870)"/>
<mask id="path-15-outside-8_1553_6870" maskUnits="userSpaceOnUse" x="348.082" y="372" width="300" height="107" fill="black">
<rect fill="white" x="348.082" y="372" width="300" height="107"/>
<path d="M349.232 478V373H365.732V463H392.882V478H349.232ZM395.53 478L412.63 373H434.98L452.08 478H435.58L432.58 457.15V457.45H413.83L410.83 478H395.53ZM415.78 443.2H430.63L423.28 391.3H422.98L415.78 443.2ZM458.586 478V373H482.136L492.636 448.15H492.936L503.436 373H526.986V478H511.386V398.5H511.086L499.086 478H485.286L473.286 398.5H472.986V478H458.586ZM533.448 478L550.548 373H572.898L589.998 478H573.498L570.498 457.15V457.45H551.748L548.748 478H533.448ZM553.698 443.2H568.548L561.198 391.3H560.898L553.698 443.2ZM596.504 478V373H620.954C638.054 373 645.404 380.95 645.404 397.15V403.6C645.404 414.4 641.954 421.3 634.604 424.3V424.6C642.854 427.15 645.554 434.95 645.554 446.8V465.25C645.554 470.35 645.704 474.1 647.354 478H630.554C629.654 475.3 629.054 473.65 629.054 465.1V445.9C629.054 436.15 626.204 433 618.704 433H613.004V478H596.504ZM613.004 418H619.004C625.154 418 628.904 415.3 628.904 406.9V398.8C628.904 391.3 626.354 388 620.504 388H613.004V418Z"/>
</mask>
<path d="M349.232 478H348.822V478.41H349.232V478ZM349.232 373V372.59H348.822V373H349.232ZM365.732 373H366.142V372.59H365.732V373ZM365.732 463H365.322V463.41H365.732V463ZM392.882 463H393.292V462.59H392.882V463ZM392.882 478V478.41H393.292V478H392.882ZM349.232 478H349.642V373H349.232H348.822V478H349.232ZM349.232 373V373.41H365.732V373V372.59H349.232V373ZM365.732 373H365.322V463H365.732H366.142V373H365.732ZM365.732 463V463.41H392.882V463V462.59H365.732V463ZM392.882 463H392.472V478H392.882H393.292V463H392.882ZM392.882 478V477.59H349.232V478V478.41H392.882V478ZM395.53 478L395.125 477.934L395.048 478.41H395.53V478ZM412.63 373V372.59H412.281L412.225 372.934L412.63 373ZM434.98 373L435.386 372.934L435.329 372.59H434.98V373ZM452.08 478V478.41H452.563L452.486 477.934L452.08 478ZM435.58 478L435.174 478.058L435.225 478.41H435.58V478ZM432.58 457.15L432.987 457.092L432.17 457.15H432.58ZM432.58 457.45V457.86H432.991V457.45H432.58ZM413.83 457.45V457.04H413.476L413.424 457.391L413.83 457.45ZM410.83 478V478.41H411.185L411.237 478.059L410.83 478ZM415.78 443.2L415.374 443.144L415.309 443.61H415.78V443.2ZM430.63 443.2V443.61H431.103L431.037 443.142L430.63 443.2ZM423.28 391.3L423.687 391.242L423.637 390.89H423.28V391.3ZM422.98 391.3V390.89H422.623L422.574 391.244L422.98 391.3ZM395.53 478L395.936 478.066L413.036 373.066L412.63 373L412.225 372.934L395.125 477.934L395.53 478ZM412.63 373V373.41H434.98V373V372.59H412.63V373ZM434.98 373L434.575 373.066L451.675 478.066L452.08 478L452.486 477.934L435.386 372.934L434.98 373ZM452.08 478V477.59H435.58V478V478.41H452.08V478ZM435.58 478L435.987 477.942L432.987 457.092L432.58 457.15L432.174 457.208L435.174 478.058L435.58 478ZM432.58 457.15H432.17V457.45H432.58H432.991V457.15H432.58ZM432.58 457.45V457.04H413.83V457.45V457.86H432.58V457.45ZM413.83 457.45L413.424 457.391L410.424 477.941L410.83 478L411.237 478.059L414.237 457.509L413.83 457.45ZM410.83 478V477.59H395.53V478V478.41H410.83V478ZM415.78 443.2V443.61H430.63V443.2V442.79H415.78V443.2ZM430.63 443.2L431.037 443.142L423.687 391.242L423.28 391.3L422.874 391.358L430.224 443.258L430.63 443.2ZM423.28 391.3V390.89H422.98V391.3V391.71H423.28V391.3ZM422.98 391.3L422.574 391.244L415.374 443.144L415.78 443.2L416.187 443.256L423.387 391.356L422.98 391.3ZM458.586 478H458.175V478.41H458.586V478ZM458.586 373V372.59H458.175V373H458.586ZM482.136 373L482.542 372.943L482.493 372.59H482.136V373ZM492.636 448.15L492.229 448.207L492.278 448.56H492.636V448.15ZM492.936 448.15V448.56H493.293L493.342 448.207L492.936 448.15ZM503.436 373V372.59H503.078L503.029 372.943L503.436 373ZM526.986 373H527.396V372.59H526.986V373ZM526.986 478V478.41H527.396V478H526.986ZM511.386 478H510.975V478.41H511.386V478ZM511.386 398.5H511.796V398.09H511.386V398.5ZM511.086 398.5V398.09H510.732L510.68 398.439L511.086 398.5ZM499.086 478V478.41H499.439L499.491 478.061L499.086 478ZM485.286 478L484.88 478.061L484.932 478.41H485.286V478ZM473.286 398.5L473.691 398.439L473.639 398.09H473.286V398.5ZM472.986 398.5V398.09H472.575V398.5H472.986ZM472.986 478V478.41H473.396V478H472.986ZM458.586 478H458.996V373H458.586H458.175V478H458.586ZM458.586 373V373.41H482.136V373V372.59H458.586V373ZM482.136 373L481.729 373.057L492.229 448.207L492.636 448.15L493.042 448.093L482.542 372.943L482.136 373ZM492.636 448.15V448.56H492.936V448.15V447.74H492.636V448.15ZM492.936 448.15L493.342 448.207L503.842 373.057L503.436 373L503.029 372.943L492.529 448.093L492.936 448.15ZM503.436 373V373.41H526.986V373V372.59H503.436V373ZM526.986 373H526.575V478H526.986H527.396V373H526.986ZM526.986 478V477.59H511.386V478V478.41H526.986V478ZM511.386 478H511.796V398.5H511.386H510.975V478H511.386ZM511.386 398.5V398.09H511.086V398.5V398.91H511.386V398.5ZM511.086 398.5L510.68 398.439L498.68 477.939L499.086 478L499.491 478.061L511.491 398.561L511.086 398.5ZM499.086 478V477.59H485.286V478V478.41H499.086V478ZM485.286 478L485.691 477.939L473.691 398.439L473.286 398.5L472.88 398.561L484.88 478.061L485.286 478ZM473.286 398.5V398.09H472.986V398.5V398.91H473.286V398.5ZM472.986 398.5H472.575V478H472.986H473.396V398.5H472.986ZM472.986 478V477.59H458.586V478V478.41H472.986V478ZM533.448 478L533.043 477.934L532.966 478.41H533.448V478ZM550.548 373V372.59H550.199L550.143 372.934L550.548 373ZM572.898 373L573.304 372.934L573.247 372.59H572.898V373ZM589.998 478V478.41H590.481L590.404 477.934L589.998 478ZM573.498 478L573.092 478.058L573.143 478.41H573.498V478ZM570.498 457.15L570.905 457.092L570.088 457.15H570.498ZM570.498 457.45V457.86H570.909V457.45H570.498ZM551.748 457.45V457.04H551.394L551.342 457.391L551.748 457.45ZM548.748 478V478.41H549.103L549.155 478.059L548.748 478ZM553.698 443.2L553.292 443.144L553.227 443.61H553.698V443.2ZM568.548 443.2V443.61H569.021L568.955 443.142L568.548 443.2ZM561.198 391.3L561.605 391.242L561.555 390.89H561.198V391.3ZM560.898 391.3V390.89H560.541L560.492 391.244L560.898 391.3ZM533.448 478L533.854 478.066L550.954 373.066L550.548 373L550.143 372.934L533.043 477.934L533.448 478ZM550.548 373V373.41H572.898V373V372.59H550.548V373ZM572.898 373L572.493 373.066L589.593 478.066L589.998 478L590.404 477.934L573.304 372.934L572.898 373ZM589.998 478V477.59H573.498V478V478.41H589.998V478ZM573.498 478L573.905 477.942L570.905 457.092L570.498 457.15L570.092 457.208L573.092 478.058L573.498 478ZM570.498 457.15H570.088V457.45H570.498H570.909V457.15H570.498ZM570.498 457.45V457.04H551.748V457.45V457.86H570.498V457.45ZM551.748 457.45L551.342 457.391L548.342 477.941L548.748 478L549.155 478.059L552.155 457.509L551.748 457.45ZM548.748 478V477.59H533.448V478V478.41H548.748V478ZM553.698 443.2V443.61H568.548V443.2V442.79H553.698V443.2ZM568.548 443.2L568.955 443.142L561.605 391.242L561.198 391.3L560.792 391.358L568.142 443.258L568.548 443.2ZM561.198 391.3V390.89H560.898V391.3V391.71H561.198V391.3ZM560.898 391.3L560.492 391.244L553.292 443.144L553.698 443.2L554.105 443.256L561.305 391.356L560.898 391.3ZM596.504 478H596.093V478.41H596.504V478ZM596.504 373V372.59H596.093V373H596.504ZM634.604 424.3L634.448 423.92L634.193 424.024V424.3H634.604ZM634.604 424.6H634.193V424.903L634.482 424.992L634.604 424.6ZM647.354 478V478.41H647.973L647.732 477.84L647.354 478ZM630.554 478L630.164 478.13L630.258 478.41H630.554V478ZM613.004 433V432.59H612.593V433H613.004ZM613.004 478V478.41H613.414V478H613.004ZM613.004 418H612.593V418.41H613.004V418ZM613.004 388V387.59H612.593V388H613.004ZM596.504 478H596.914V373H596.504H596.093V478H596.504ZM596.504 373V373.41H620.954V373V372.59H596.504V373ZM620.954 373V373.41C629.448 373.41 635.433 375.386 639.299 379.289C643.167 383.193 644.993 389.103 644.993 397.15H645.404H645.814C645.814 388.997 643.965 382.832 639.883 378.711C635.799 374.589 629.559 372.59 620.954 372.59V373ZM645.404 397.15H644.993V403.6H645.404H645.814V397.15H645.404ZM645.404 403.6H644.993C644.993 408.961 644.136 413.314 642.395 416.687C640.659 420.049 638.034 422.457 634.448 423.92L634.604 424.3L634.759 424.68C638.523 423.143 641.298 420.601 643.124 417.063C644.946 413.536 645.814 409.039 645.814 403.6H645.404ZM634.604 424.3H634.193V424.6H634.604H635.014V424.3H634.604ZM634.604 424.6L634.482 424.992C638.488 426.23 641.138 428.732 642.799 432.382C644.469 436.054 645.143 440.897 645.143 446.8H645.554H645.964C645.964 440.853 645.288 435.871 643.546 432.043C641.794 428.193 638.969 425.52 634.725 424.208L634.604 424.6ZM645.554 446.8H645.143V465.25H645.554H645.964V446.8H645.554ZM645.554 465.25H645.143C645.143 470.35 645.29 474.176 646.976 478.16L647.354 478L647.732 477.84C646.117 474.024 645.964 470.35 645.964 465.25H645.554ZM647.354 478V477.59H630.554V478V478.41H647.354V478ZM630.554 478L630.943 477.87C630.493 476.522 630.129 475.465 629.872 473.685C629.614 471.896 629.464 469.369 629.464 465.1H629.054H628.643C628.643 469.381 628.793 471.954 629.06 473.802C629.328 475.66 629.714 476.778 630.164 478.13L630.554 478ZM629.054 465.1H629.464V445.9H629.054H628.643V465.1H629.054ZM629.054 445.9H629.464C629.464 441.009 628.755 437.657 627.008 435.533C625.241 433.385 622.499 432.59 618.704 432.59V433V433.41C622.408 433.41 624.841 434.19 626.374 436.054C627.927 437.943 628.643 441.041 628.643 445.9H629.054ZM618.704 433V432.59H613.004V433V433.41H618.704V433ZM613.004 433H612.593V478H613.004H613.414V433H613.004ZM613.004 478V477.59H596.504V478V478.41H613.004V478ZM613.004 418V418.41H619.004V418V417.59H613.004V418ZM619.004 418V418.41C622.13 418.41 624.735 417.725 626.552 415.889C628.366 414.054 629.314 411.151 629.314 406.9H628.904H628.493C628.493 411.049 627.566 413.696 625.968 415.311C624.372 416.925 622.027 417.59 619.004 417.59V418ZM628.904 406.9H629.314V398.8H628.904H628.493V406.9H628.904ZM628.904 398.8H629.314C629.314 395.019 628.674 392.207 627.221 390.336C625.75 388.441 623.507 387.59 620.504 387.59V388V388.41C623.35 388.41 625.307 389.209 626.573 390.839C627.858 392.493 628.493 395.081 628.493 398.8H628.904ZM620.504 388V387.59H613.004V388V388.41H620.504V388ZM613.004 388H612.593V418H613.004H613.414V388H613.004Z" fill="#F4E046" mask="url(#path-15-outside-8_1553_6870)"/>
</g>
<defs>
<clipPath id="clip0_1553_6870">
<rect width="410" height="490" fill="white"/>
</clipPath>
</defs>
</svg>
