<svg width="1280" height="787" viewBox="0 0 1280 787" fill="none" xmlns="http://www.w3.org/2000/svg">
<g clip-path="url(#clip0_1649_7530)">
<mask id="path-1-inside-1_1649_7530" fill="white">
<path d="M0 761.3V600.3H37.49C63.71 600.3 74.98 612.49 74.98 637.33V647.22C74.98 663.78 69.69 674.36 58.42 678.96V679.42C71.07 683.33 75.21 695.29 75.21 713.46V741.75C75.21 749.57 75.44 755.32 77.97 761.3H52.21C50.83 757.16 49.91 754.63 49.91 741.52V712.08C49.91 697.13 45.54 692.3 34.04 692.3H25.3V761.3H0ZM25.3 669.3H34.5C43.93 669.3 49.68 665.16 49.68 652.28V639.86C49.68 628.36 45.77 623.3 36.8 623.3H25.3V669.3ZM90.4637 761.3V600.3H159.464V623.3H115.764V665.85H150.494V688.85H115.764V738.3H159.464V761.3H90.4637ZM246.238 776.25C236.808 776.25 228.068 772.8 225.078 760.84C220.248 762.68 214.498 763.6 208.288 763.6C183.448 763.6 169.878 748.88 169.878 723.12V638.48C169.878 612.72 183.448 598 208.288 598C233.128 598 246.698 612.72 246.698 638.48V723.12C246.698 734.16 244.168 742.9 239.568 749.57C241.408 752.79 244.398 753.25 248.998 753.25H252.908V776.25H246.238ZM208.288 740.6C216.338 740.6 221.398 736.23 221.398 724.73V636.87C221.398 625.37 216.338 621 208.288 621C200.238 621 195.178 625.37 195.178 636.87V724.73C195.178 736.23 200.238 740.6 208.288 740.6ZM298.308 763.6C273.468 763.6 260.588 748.88 260.588 723.12V600.3H285.888V724.96C285.888 736.46 290.718 740.6 298.768 740.6C306.818 740.6 311.648 736.46 311.648 724.96V600.3H336.028V723.12C336.028 748.88 323.148 763.6 298.308 763.6ZM351.747 761.3V600.3H420.747V623.3H377.047V665.85H411.777V688.85H377.047V738.3H420.747V761.3H351.747ZM466.341 763.6C441.501 763.6 429.081 748.88 429.081 723.12V713.92H453.001V724.96C453.001 736.46 458.061 740.6 466.111 740.6C474.161 740.6 479.221 736.46 479.221 724.5C479.221 711.16 474.161 702.65 457.601 688.16C436.441 669.53 429.541 656.42 429.541 638.02C429.541 612.72 442.651 598 467.261 598C491.871 598 504.061 612.72 504.061 638.48V645.15H480.141V636.87C480.141 625.37 475.541 621 467.491 621C459.441 621 454.841 625.37 454.841 636.41C454.841 648.14 460.131 656.65 476.691 671.14C497.851 689.77 504.521 702.65 504.521 722.66C504.521 748.88 491.181 763.6 466.341 763.6ZM536.507 761.3V623.3H510.057V600.3H588.257V623.3H561.807V761.3H536.507Z"/>
</mask>
<path d="M0 761.3V600.3H37.49C63.71 600.3 74.98 612.49 74.98 637.33V647.22C74.98 663.78 69.69 674.36 58.42 678.96V679.42C71.07 683.33 75.21 695.29 75.21 713.46V741.75C75.21 749.57 75.44 755.32 77.97 761.3H52.21C50.83 757.16 49.91 754.63 49.91 741.52V712.08C49.91 697.13 45.54 692.3 34.04 692.3H25.3V761.3H0ZM25.3 669.3H34.5C43.93 669.3 49.68 665.16 49.68 652.28V639.86C49.68 628.36 45.77 623.3 36.8 623.3H25.3V669.3ZM90.4637 761.3V600.3H159.464V623.3H115.764V665.85H150.494V688.85H115.764V738.3H159.464V761.3H90.4637ZM246.238 776.25C236.808 776.25 228.068 772.8 225.078 760.84C220.248 762.68 214.498 763.6 208.288 763.6C183.448 763.6 169.878 748.88 169.878 723.12V638.48C169.878 612.72 183.448 598 208.288 598C233.128 598 246.698 612.72 246.698 638.48V723.12C246.698 734.16 244.168 742.9 239.568 749.57C241.408 752.79 244.398 753.25 248.998 753.25H252.908V776.25H246.238ZM208.288 740.6C216.338 740.6 221.398 736.23 221.398 724.73V636.87C221.398 625.37 216.338 621 208.288 621C200.238 621 195.178 625.37 195.178 636.87V724.73C195.178 736.23 200.238 740.6 208.288 740.6ZM298.308 763.6C273.468 763.6 260.588 748.88 260.588 723.12V600.3H285.888V724.96C285.888 736.46 290.718 740.6 298.768 740.6C306.818 740.6 311.648 736.46 311.648 724.96V600.3H336.028V723.12C336.028 748.88 323.148 763.6 298.308 763.6ZM351.747 761.3V600.3H420.747V623.3H377.047V665.85H411.777V688.85H377.047V738.3H420.747V761.3H351.747ZM466.341 763.6C441.501 763.6 429.081 748.88 429.081 723.12V713.92H453.001V724.96C453.001 736.46 458.061 740.6 466.111 740.6C474.161 740.6 479.221 736.46 479.221 724.5C479.221 711.16 474.161 702.65 457.601 688.16C436.441 669.53 429.541 656.42 429.541 638.02C429.541 612.72 442.651 598 467.261 598C491.871 598 504.061 612.72 504.061 638.48V645.15H480.141V636.87C480.141 625.37 475.541 621 467.491 621C459.441 621 454.841 625.37 454.841 636.41C454.841 648.14 460.131 656.65 476.691 671.14C497.851 689.77 504.521 702.65 504.521 722.66C504.521 748.88 491.181 763.6 466.341 763.6ZM536.507 761.3V623.3H510.057V600.3H588.257V623.3H561.807V761.3H536.507Z" stroke="#F4E046" stroke-width="2" mask="url(#path-1-inside-1_1649_7530)"/>
<mask id="path-2-outside-2_1649_7530" maskUnits="userSpaceOnUse" x="617.258" y="597" width="591" height="181" fill="black">
<rect fill="white" x="617.258" y="597" width="591" height="181"/>
<path d="M618.258 761.3V600.3H655.748C681.968 600.3 693.238 612.49 693.238 637.33V647.22C693.238 663.78 687.948 674.36 676.678 678.96V679.42C689.328 683.33 693.468 695.29 693.468 713.46V741.75C693.468 749.57 693.698 755.32 696.228 761.3H670.468C669.088 757.16 668.168 754.63 668.168 741.52V712.08C668.168 697.13 663.798 692.3 652.298 692.3H643.558V761.3H618.258ZM643.558 669.3H652.758C662.188 669.3 667.938 665.16 667.938 652.28V639.86C667.938 628.36 664.028 623.3 655.058 623.3H643.558V669.3Z"/>
<path d="M708.721 761.3V600.3H777.721V623.3H734.021V665.85H768.751V688.85H734.021V738.3H777.721V761.3H708.721Z"/>
<path d="M864.496 776.25C855.066 776.25 846.326 772.8 843.336 760.84C838.506 762.68 832.756 763.6 826.546 763.6C801.706 763.6 788.136 748.88 788.136 723.12V638.48C788.136 612.72 801.706 598 826.546 598C851.386 598 864.956 612.72 864.956 638.48V723.12C864.956 734.16 862.426 742.9 857.826 749.57C859.666 752.79 862.656 753.25 867.256 753.25H871.166V776.25H864.496ZM826.546 740.6C834.596 740.6 839.656 736.23 839.656 724.73V636.87C839.656 625.37 834.596 621 826.546 621C818.496 621 813.436 625.37 813.436 636.87V724.73C813.436 736.23 818.496 740.6 826.546 740.6Z"/>
<path d="M916.566 763.6C891.726 763.6 878.846 748.88 878.846 723.12V600.3H904.146V724.96C904.146 736.46 908.976 740.6 917.026 740.6C925.076 740.6 929.906 736.46 929.906 724.96V600.3H954.286V723.12C954.286 748.88 941.406 763.6 916.566 763.6Z"/>
<path d="M970.005 761.3V600.3H1039.01V623.3H995.305V665.85H1030.04V688.85H995.305V738.3H1039.01V761.3H970.005Z"/>
<path d="M1084.6 763.6C1059.76 763.6 1047.34 748.88 1047.34 723.12V713.92H1071.26V724.96C1071.26 736.46 1076.32 740.6 1084.37 740.6C1092.42 740.6 1097.48 736.46 1097.48 724.5C1097.48 711.16 1092.42 702.65 1075.86 688.16C1054.7 669.53 1047.8 656.42 1047.8 638.02C1047.8 612.72 1060.91 598 1085.52 598C1110.13 598 1122.32 612.72 1122.32 638.48V645.15H1098.4V636.87C1098.4 625.37 1093.8 621 1085.75 621C1077.7 621 1073.1 625.37 1073.1 636.41C1073.1 648.14 1078.39 656.65 1094.95 671.14C1116.11 689.77 1122.78 702.65 1122.78 722.66C1122.78 748.88 1109.44 763.6 1084.6 763.6Z"/>
<path d="M1154.77 761.3V623.3H1128.32V600.3H1206.52V623.3H1180.07V761.3H1154.77Z"/>
</mask>
<path d="M618.258 761.3V600.3H655.748C681.968 600.3 693.238 612.49 693.238 637.33V647.22C693.238 663.78 687.948 674.36 676.678 678.96V679.42C689.328 683.33 693.468 695.29 693.468 713.46V741.75C693.468 749.57 693.698 755.32 696.228 761.3H670.468C669.088 757.16 668.168 754.63 668.168 741.52V712.08C668.168 697.13 663.798 692.3 652.298 692.3H643.558V761.3H618.258ZM643.558 669.3H652.758C662.188 669.3 667.938 665.16 667.938 652.28V639.86C667.938 628.36 664.028 623.3 655.058 623.3H643.558V669.3Z" fill="#F4E046"/>
<path d="M708.721 761.3V600.3H777.721V623.3H734.021V665.85H768.751V688.85H734.021V738.3H777.721V761.3H708.721Z" fill="#F4E046"/>
<path d="M864.496 776.25C855.066 776.25 846.326 772.8 843.336 760.84C838.506 762.68 832.756 763.6 826.546 763.6C801.706 763.6 788.136 748.88 788.136 723.12V638.48C788.136 612.72 801.706 598 826.546 598C851.386 598 864.956 612.72 864.956 638.48V723.12C864.956 734.16 862.426 742.9 857.826 749.57C859.666 752.79 862.656 753.25 867.256 753.25H871.166V776.25H864.496ZM826.546 740.6C834.596 740.6 839.656 736.23 839.656 724.73V636.87C839.656 625.37 834.596 621 826.546 621C818.496 621 813.436 625.37 813.436 636.87V724.73C813.436 736.23 818.496 740.6 826.546 740.6Z" fill="#F4E046"/>
<path d="M916.566 763.6C891.726 763.6 878.846 748.88 878.846 723.12V600.3H904.146V724.96C904.146 736.46 908.976 740.6 917.026 740.6C925.076 740.6 929.906 736.46 929.906 724.96V600.3H954.286V723.12C954.286 748.88 941.406 763.6 916.566 763.6Z" fill="#F4E046"/>
<path d="M970.005 761.3V600.3H1039.01V623.3H995.305V665.85H1030.04V688.85H995.305V738.3H1039.01V761.3H970.005Z" fill="#F4E046"/>
<path d="M1084.6 763.6C1059.76 763.6 1047.34 748.88 1047.34 723.12V713.92H1071.26V724.96C1071.26 736.46 1076.32 740.6 1084.37 740.6C1092.42 740.6 1097.48 736.46 1097.48 724.5C1097.48 711.16 1092.42 702.65 1075.86 688.16C1054.7 669.53 1047.8 656.42 1047.8 638.02C1047.8 612.72 1060.91 598 1085.52 598C1110.13 598 1122.32 612.72 1122.32 638.48V645.15H1098.4V636.87C1098.4 625.37 1093.8 621 1085.75 621C1077.7 621 1073.1 625.37 1073.1 636.41C1073.1 648.14 1078.39 656.65 1094.95 671.14C1116.11 689.77 1122.78 702.65 1122.78 722.66C1122.78 748.88 1109.44 763.6 1084.6 763.6Z" fill="#F4E046"/>
<path d="M1154.77 761.3V623.3H1128.32V600.3H1206.52V623.3H1180.07V761.3H1154.77Z" fill="#F4E046"/>
<path d="M618.258 761.3V600.3H655.748C681.968 600.3 693.238 612.49 693.238 637.33V647.22C693.238 663.78 687.948 674.36 676.678 678.96V679.42C689.328 683.33 693.468 695.29 693.468 713.46V741.75C693.468 749.57 693.698 755.32 696.228 761.3H670.468C669.088 757.16 668.168 754.63 668.168 741.52V712.08C668.168 697.13 663.798 692.3 652.298 692.3H643.558V761.3H618.258ZM643.558 669.3H652.758C662.188 669.3 667.938 665.16 667.938 652.28V639.86C667.938 628.36 664.028 623.3 655.058 623.3H643.558V669.3Z" stroke="#F4E046" stroke-width="2" mask="url(#path-2-outside-2_1649_7530)"/>
<path d="M708.721 761.3V600.3H777.721V623.3H734.021V665.85H768.751V688.85H734.021V738.3H777.721V761.3H708.721Z" stroke="#F4E046" stroke-width="2" mask="url(#path-2-outside-2_1649_7530)"/>
<path d="M864.496 776.25C855.066 776.25 846.326 772.8 843.336 760.84C838.506 762.68 832.756 763.6 826.546 763.6C801.706 763.6 788.136 748.88 788.136 723.12V638.48C788.136 612.72 801.706 598 826.546 598C851.386 598 864.956 612.72 864.956 638.48V723.12C864.956 734.16 862.426 742.9 857.826 749.57C859.666 752.79 862.656 753.25 867.256 753.25H871.166V776.25H864.496ZM826.546 740.6C834.596 740.6 839.656 736.23 839.656 724.73V636.87C839.656 625.37 834.596 621 826.546 621C818.496 621 813.436 625.37 813.436 636.87V724.73C813.436 736.23 818.496 740.6 826.546 740.6Z" stroke="#F4E046" stroke-width="2" mask="url(#path-2-outside-2_1649_7530)"/>
<path d="M916.566 763.6C891.726 763.6 878.846 748.88 878.846 723.12V600.3H904.146V724.96C904.146 736.46 908.976 740.6 917.026 740.6C925.076 740.6 929.906 736.46 929.906 724.96V600.3H954.286V723.12C954.286 748.88 941.406 763.6 916.566 763.6Z" stroke="#F4E046" stroke-width="2" mask="url(#path-2-outside-2_1649_7530)"/>
<path d="M970.005 761.3V600.3H1039.01V623.3H995.305V665.85H1030.04V688.85H995.305V738.3H1039.01V761.3H970.005Z" stroke="#F4E046" stroke-width="2" mask="url(#path-2-outside-2_1649_7530)"/>
<path d="M1084.6 763.6C1059.76 763.6 1047.34 748.88 1047.34 723.12V713.92H1071.26V724.96C1071.26 736.46 1076.32 740.6 1084.37 740.6C1092.42 740.6 1097.48 736.46 1097.48 724.5C1097.48 711.16 1092.42 702.65 1075.86 688.16C1054.7 669.53 1047.8 656.42 1047.8 638.02C1047.8 612.72 1060.91 598 1085.52 598C1110.13 598 1122.32 612.72 1122.32 638.48V645.15H1098.4V636.87C1098.4 625.37 1093.8 621 1085.75 621C1077.7 621 1073.1 625.37 1073.1 636.41C1073.1 648.14 1078.39 656.65 1094.95 671.14C1116.11 689.77 1122.78 702.65 1122.78 722.66C1122.78 748.88 1109.44 763.6 1084.6 763.6Z" stroke="#F4E046" stroke-width="2" mask="url(#path-2-outside-2_1649_7530)"/>
<path d="M1154.77 761.3V623.3H1128.32V600.3H1206.52V623.3H1180.07V761.3H1154.77Z" stroke="#F4E046" stroke-width="2" mask="url(#path-2-outside-2_1649_7530)"/>
<mask id="path-3-inside-3_1649_7530" fill="white">
<path d="M1236.52 761.3V600.3H1274.01C1300.23 600.3 1311.5 612.49 1311.5 637.33V647.22C1311.5 663.78 1306.21 674.36 1294.94 678.96V679.42C1307.59 683.33 1311.73 695.29 1311.73 713.46V741.75C1311.73 749.57 1311.96 755.32 1314.49 761.3H1288.73C1287.35 757.16 1286.43 754.63 1286.43 741.52V712.08C1286.43 697.13 1282.06 692.3 1270.56 692.3H1261.82V761.3H1236.52ZM1261.82 669.3H1271.02C1280.45 669.3 1286.2 665.16 1286.2 652.28V639.86C1286.2 628.36 1282.29 623.3 1273.32 623.3H1261.82V669.3ZM1326.98 761.3V600.3H1395.98V623.3H1352.28V665.85H1387.01V688.85H1352.28V738.3H1395.98V761.3H1326.98ZM1482.75 776.25C1473.32 776.25 1464.58 772.8 1461.59 760.84C1456.76 762.68 1451.01 763.6 1444.8 763.6C1419.96 763.6 1406.39 748.88 1406.39 723.12V638.48C1406.39 612.72 1419.96 598 1444.8 598C1469.64 598 1483.21 612.72 1483.21 638.48V723.12C1483.21 734.16 1480.68 742.9 1476.08 749.57C1477.92 752.79 1480.91 753.25 1485.51 753.25H1489.42V776.25H1482.75ZM1444.8 740.6C1452.85 740.6 1457.91 736.23 1457.91 724.73V636.87C1457.91 625.37 1452.85 621 1444.8 621C1436.75 621 1431.69 625.37 1431.69 636.87V724.73C1431.69 736.23 1436.75 740.6 1444.8 740.6ZM1534.82 763.6C1509.98 763.6 1497.1 748.88 1497.1 723.12V600.3H1522.4V724.96C1522.4 736.46 1527.23 740.6 1535.28 740.6C1543.33 740.6 1548.16 736.46 1548.16 724.96V600.3H1572.54V723.12C1572.54 748.88 1559.66 763.6 1534.82 763.6ZM1588.26 761.3V600.3H1657.26V623.3H1613.56V665.85H1648.29V688.85H1613.56V738.3H1657.26V761.3H1588.26ZM1702.86 763.6C1678.02 763.6 1665.6 748.88 1665.6 723.12V713.92H1689.52V724.96C1689.52 736.46 1694.58 740.6 1702.63 740.6C1710.68 740.6 1715.74 736.46 1715.74 724.5C1715.74 711.16 1710.68 702.65 1694.12 688.16C1672.96 669.53 1666.06 656.42 1666.06 638.02C1666.06 612.72 1679.17 598 1703.78 598C1728.39 598 1740.58 612.72 1740.58 638.48V645.15H1716.66V636.87C1716.66 625.37 1712.06 621 1704.01 621C1695.96 621 1691.36 625.37 1691.36 636.41C1691.36 648.14 1696.65 656.65 1713.21 671.14C1734.37 689.77 1741.04 702.65 1741.04 722.66C1741.04 748.88 1727.7 763.6 1702.86 763.6ZM1773.02 761.3V623.3H1746.57V600.3H1824.77V623.3H1798.32V761.3H1773.02Z"/>
</mask>
<path d="M1236.52 761.3V600.3H1274.01C1300.23 600.3 1311.5 612.49 1311.5 637.33V647.22C1311.5 663.78 1306.21 674.36 1294.94 678.96V679.42C1307.59 683.33 1311.73 695.29 1311.73 713.46V741.75C1311.73 749.57 1311.96 755.32 1314.49 761.3H1288.73C1287.35 757.16 1286.43 754.63 1286.43 741.52V712.08C1286.43 697.13 1282.06 692.3 1270.56 692.3H1261.82V761.3H1236.52ZM1261.82 669.3H1271.02C1280.45 669.3 1286.2 665.16 1286.2 652.28V639.86C1286.2 628.36 1282.29 623.3 1273.32 623.3H1261.82V669.3ZM1326.98 761.3V600.3H1395.98V623.3H1352.28V665.85H1387.01V688.85H1352.28V738.3H1395.98V761.3H1326.98ZM1482.75 776.25C1473.32 776.25 1464.58 772.8 1461.59 760.84C1456.76 762.68 1451.01 763.6 1444.8 763.6C1419.96 763.6 1406.39 748.88 1406.39 723.12V638.48C1406.39 612.72 1419.96 598 1444.8 598C1469.64 598 1483.21 612.72 1483.21 638.48V723.12C1483.21 734.16 1480.68 742.9 1476.08 749.57C1477.92 752.79 1480.91 753.25 1485.51 753.25H1489.42V776.25H1482.75ZM1444.8 740.6C1452.85 740.6 1457.91 736.23 1457.91 724.73V636.87C1457.91 625.37 1452.85 621 1444.8 621C1436.75 621 1431.69 625.37 1431.69 636.87V724.73C1431.69 736.23 1436.75 740.6 1444.8 740.6ZM1534.82 763.6C1509.98 763.6 1497.1 748.88 1497.1 723.12V600.3H1522.4V724.96C1522.4 736.46 1527.23 740.6 1535.28 740.6C1543.33 740.6 1548.16 736.46 1548.16 724.96V600.3H1572.54V723.12C1572.54 748.88 1559.66 763.6 1534.82 763.6ZM1588.26 761.3V600.3H1657.26V623.3H1613.56V665.85H1648.29V688.85H1613.56V738.3H1657.26V761.3H1588.26ZM1702.86 763.6C1678.02 763.6 1665.6 748.88 1665.6 723.12V713.92H1689.52V724.96C1689.52 736.46 1694.58 740.6 1702.63 740.6C1710.68 740.6 1715.74 736.46 1715.74 724.5C1715.74 711.16 1710.68 702.65 1694.12 688.16C1672.96 669.53 1666.06 656.42 1666.06 638.02C1666.06 612.72 1679.17 598 1703.78 598C1728.39 598 1740.58 612.72 1740.58 638.48V645.15H1716.66V636.87C1716.66 625.37 1712.06 621 1704.01 621C1695.96 621 1691.36 625.37 1691.36 636.41C1691.36 648.14 1696.65 656.65 1713.21 671.14C1734.37 689.77 1741.04 702.65 1741.04 722.66C1741.04 748.88 1727.7 763.6 1702.86 763.6ZM1773.02 761.3V623.3H1746.57V600.3H1824.77V623.3H1798.32V761.3H1773.02Z" stroke="#F4E046" stroke-width="2" mask="url(#path-3-inside-3_1649_7530)"/>
<mask id="path-4-inside-4_1649_7530" fill="white">
<path d="M48 573.3V412.3H85.49C111.71 412.3 122.98 424.49 122.98 449.33V459.22C122.98 475.78 117.69 486.36 106.42 490.96V491.42C119.07 495.33 123.21 507.29 123.21 525.46V553.75C123.21 561.57 123.44 567.32 125.97 573.3H100.21C98.83 569.16 97.91 566.63 97.91 553.52V524.08C97.91 509.13 93.54 504.3 82.04 504.3H73.3V573.3H48ZM73.3 481.3H82.5C91.93 481.3 97.68 477.16 97.68 464.28V451.86C97.68 440.36 93.77 435.3 84.8 435.3H73.3V481.3ZM138.464 573.3V412.3H207.464V435.3H163.764V477.85H198.494V500.85H163.764V550.3H207.464V573.3H138.464ZM294.238 588.25C284.808 588.25 276.068 584.8 273.078 572.84C268.248 574.68 262.498 575.6 256.288 575.6C231.448 575.6 217.878 560.88 217.878 535.12V450.48C217.878 424.72 231.448 410 256.288 410C281.128 410 294.698 424.72 294.698 450.48V535.12C294.698 546.16 292.168 554.9 287.568 561.57C289.408 564.79 292.398 565.25 296.998 565.25H300.908V588.25H294.238ZM256.288 552.6C264.338 552.6 269.398 548.23 269.398 536.73V448.87C269.398 437.37 264.338 433 256.288 433C248.238 433 243.178 437.37 243.178 448.87V536.73C243.178 548.23 248.238 552.6 256.288 552.6ZM346.308 575.6C321.468 575.6 308.588 560.88 308.588 535.12V412.3H333.888V536.96C333.888 548.46 338.718 552.6 346.768 552.6C354.818 552.6 359.648 548.46 359.648 536.96V412.3H384.028V535.12C384.028 560.88 371.148 575.6 346.308 575.6ZM399.747 573.3V412.3H468.747V435.3H425.047V477.85H459.777V500.85H425.047V550.3H468.747V573.3H399.747ZM514.341 575.6C489.501 575.6 477.081 560.88 477.081 535.12V525.92H501.001V536.96C501.001 548.46 506.061 552.6 514.111 552.6C522.161 552.6 527.221 548.46 527.221 536.5C527.221 523.16 522.161 514.65 505.601 500.16C484.441 481.53 477.541 468.42 477.541 450.02C477.541 424.72 490.651 410 515.261 410C539.871 410 552.061 424.72 552.061 450.48V457.15H528.141V448.87C528.141 437.37 523.541 433 515.491 433C507.441 433 502.841 437.37 502.841 448.41C502.841 460.14 508.131 468.65 524.691 483.14C545.851 501.77 552.521 514.65 552.521 534.66C552.521 560.88 539.181 575.6 514.341 575.6ZM584.507 573.3V435.3H558.057V412.3H636.257V435.3H609.807V573.3H584.507Z"/>
</mask>
<path d="M48 573.3V412.3H85.49C111.71 412.3 122.98 424.49 122.98 449.33V459.22C122.98 475.78 117.69 486.36 106.42 490.96V491.42C119.07 495.33 123.21 507.29 123.21 525.46V553.75C123.21 561.57 123.44 567.32 125.97 573.3H100.21C98.83 569.16 97.91 566.63 97.91 553.52V524.08C97.91 509.13 93.54 504.3 82.04 504.3H73.3V573.3H48ZM73.3 481.3H82.5C91.93 481.3 97.68 477.16 97.68 464.28V451.86C97.68 440.36 93.77 435.3 84.8 435.3H73.3V481.3ZM138.464 573.3V412.3H207.464V435.3H163.764V477.85H198.494V500.85H163.764V550.3H207.464V573.3H138.464ZM294.238 588.25C284.808 588.25 276.068 584.8 273.078 572.84C268.248 574.68 262.498 575.6 256.288 575.6C231.448 575.6 217.878 560.88 217.878 535.12V450.48C217.878 424.72 231.448 410 256.288 410C281.128 410 294.698 424.72 294.698 450.48V535.12C294.698 546.16 292.168 554.9 287.568 561.57C289.408 564.79 292.398 565.25 296.998 565.25H300.908V588.25H294.238ZM256.288 552.6C264.338 552.6 269.398 548.23 269.398 536.73V448.87C269.398 437.37 264.338 433 256.288 433C248.238 433 243.178 437.37 243.178 448.87V536.73C243.178 548.23 248.238 552.6 256.288 552.6ZM346.308 575.6C321.468 575.6 308.588 560.88 308.588 535.12V412.3H333.888V536.96C333.888 548.46 338.718 552.6 346.768 552.6C354.818 552.6 359.648 548.46 359.648 536.96V412.3H384.028V535.12C384.028 560.88 371.148 575.6 346.308 575.6ZM399.747 573.3V412.3H468.747V435.3H425.047V477.85H459.777V500.85H425.047V550.3H468.747V573.3H399.747ZM514.341 575.6C489.501 575.6 477.081 560.88 477.081 535.12V525.92H501.001V536.96C501.001 548.46 506.061 552.6 514.111 552.6C522.161 552.6 527.221 548.46 527.221 536.5C527.221 523.16 522.161 514.65 505.601 500.16C484.441 481.53 477.541 468.42 477.541 450.02C477.541 424.72 490.651 410 515.261 410C539.871 410 552.061 424.72 552.061 450.48V457.15H528.141V448.87C528.141 437.37 523.541 433 515.491 433C507.441 433 502.841 437.37 502.841 448.41C502.841 460.14 508.131 468.65 524.691 483.14C545.851 501.77 552.521 514.65 552.521 534.66C552.521 560.88 539.181 575.6 514.341 575.6ZM584.507 573.3V435.3H558.057V412.3H636.257V435.3H609.807V573.3H584.507Z" stroke="#F4E046" stroke-width="2" mask="url(#path-4-inside-4_1649_7530)"/>
<mask id="path-5-inside-5_1649_7530" fill="white">
<path d="M666.258 573.3V412.3H703.748C729.968 412.3 741.238 424.49 741.238 449.33V459.22C741.238 475.78 735.948 486.36 724.678 490.96V491.42C737.328 495.33 741.468 507.29 741.468 525.46V553.75C741.468 561.57 741.698 567.32 744.228 573.3H718.468C717.088 569.16 716.168 566.63 716.168 553.52V524.08C716.168 509.13 711.798 504.3 700.298 504.3H691.558V573.3H666.258ZM691.558 481.3H700.758C710.188 481.3 715.938 477.16 715.938 464.28V451.86C715.938 440.36 712.028 435.3 703.058 435.3H691.558V481.3Z"/>
<path d="M756.721 573.3V412.3H825.721V435.3H782.021V477.85H816.751V500.85H782.021V550.3H825.721V573.3H756.721Z"/>
<path d="M912.496 588.25C903.066 588.25 894.326 584.8 891.336 572.84C886.506 574.68 880.756 575.6 874.546 575.6C849.706 575.6 836.136 560.88 836.136 535.12V450.48C836.136 424.72 849.706 410 874.546 410C899.386 410 912.956 424.72 912.956 450.48V535.12C912.956 546.16 910.426 554.9 905.826 561.57C907.666 564.79 910.656 565.25 915.256 565.25H919.166V588.25H912.496ZM874.546 552.6C882.596 552.6 887.656 548.23 887.656 536.73V448.87C887.656 437.37 882.596 433 874.546 433C866.496 433 861.436 437.37 861.436 448.87V536.73C861.436 548.23 866.496 552.6 874.546 552.6Z"/>
<path d="M964.566 575.6C939.726 575.6 926.846 560.88 926.846 535.12V412.3H952.146V536.96C952.146 548.46 956.976 552.6 965.026 552.6C973.076 552.6 977.906 548.46 977.906 536.96V412.3H1002.29V535.12C1002.29 560.88 989.406 575.6 964.566 575.6Z"/>
<path d="M1018.01 573.3V412.3H1087.01V435.3H1043.31V477.85H1078.04V500.85H1043.31V550.3H1087.01V573.3H1018.01Z"/>
<path d="M1132.6 575.6C1107.76 575.6 1095.34 560.88 1095.34 535.12V525.92H1119.26V536.96C1119.26 548.46 1124.32 552.6 1132.37 552.6C1140.42 552.6 1145.48 548.46 1145.48 536.5C1145.48 523.16 1140.42 514.65 1123.86 500.16C1102.7 481.53 1095.8 468.42 1095.8 450.02C1095.8 424.72 1108.91 410 1133.52 410C1158.13 410 1170.32 424.72 1170.32 450.48V457.15H1146.4V448.87C1146.4 437.37 1141.8 433 1133.75 433C1125.7 433 1121.1 437.37 1121.1 448.41C1121.1 460.14 1126.39 468.65 1142.95 483.14C1164.11 501.77 1170.78 514.65 1170.78 534.66C1170.78 560.88 1157.44 575.6 1132.6 575.6Z"/>
<path d="M1202.77 573.3V435.3H1176.32V412.3H1254.52V435.3H1228.07V573.3H1202.77Z"/>
</mask>
<path d="M666.258 573.3V412.3H703.748C729.968 412.3 741.238 424.49 741.238 449.33V459.22C741.238 475.78 735.948 486.36 724.678 490.96V491.42C737.328 495.33 741.468 507.29 741.468 525.46V553.75C741.468 561.57 741.698 567.32 744.228 573.3H718.468C717.088 569.16 716.168 566.63 716.168 553.52V524.08C716.168 509.13 711.798 504.3 700.298 504.3H691.558V573.3H666.258ZM691.558 481.3H700.758C710.188 481.3 715.938 477.16 715.938 464.28V451.86C715.938 440.36 712.028 435.3 703.058 435.3H691.558V481.3Z" stroke="#F4E046" stroke-width="2" mask="url(#path-5-inside-5_1649_7530)"/>
<path d="M756.721 573.3V412.3H825.721V435.3H782.021V477.85H816.751V500.85H782.021V550.3H825.721V573.3H756.721Z" stroke="#F4E046" stroke-width="2" mask="url(#path-5-inside-5_1649_7530)"/>
<path d="M912.496 588.25C903.066 588.25 894.326 584.8 891.336 572.84C886.506 574.68 880.756 575.6 874.546 575.6C849.706 575.6 836.136 560.88 836.136 535.12V450.48C836.136 424.72 849.706 410 874.546 410C899.386 410 912.956 424.72 912.956 450.48V535.12C912.956 546.16 910.426 554.9 905.826 561.57C907.666 564.79 910.656 565.25 915.256 565.25H919.166V588.25H912.496ZM874.546 552.6C882.596 552.6 887.656 548.23 887.656 536.73V448.87C887.656 437.37 882.596 433 874.546 433C866.496 433 861.436 437.37 861.436 448.87V536.73C861.436 548.23 866.496 552.6 874.546 552.6Z" stroke="#F4E046" stroke-width="2" mask="url(#path-5-inside-5_1649_7530)"/>
<path d="M964.566 575.6C939.726 575.6 926.846 560.88 926.846 535.12V412.3H952.146V536.96C952.146 548.46 956.976 552.6 965.026 552.6C973.076 552.6 977.906 548.46 977.906 536.96V412.3H1002.29V535.12C1002.29 560.88 989.406 575.6 964.566 575.6Z" stroke="#F4E046" stroke-width="2" mask="url(#path-5-inside-5_1649_7530)"/>
<path d="M1018.01 573.3V412.3H1087.01V435.3H1043.31V477.85H1078.04V500.85H1043.31V550.3H1087.01V573.3H1018.01Z" stroke="#F4E046" stroke-width="2" mask="url(#path-5-inside-5_1649_7530)"/>
<path d="M1132.6 575.6C1107.76 575.6 1095.34 560.88 1095.34 535.12V525.92H1119.26V536.96C1119.26 548.46 1124.32 552.6 1132.37 552.6C1140.42 552.6 1145.48 548.46 1145.48 536.5C1145.48 523.16 1140.42 514.65 1123.86 500.16C1102.7 481.53 1095.8 468.42 1095.8 450.02C1095.8 424.72 1108.91 410 1133.52 410C1158.13 410 1170.32 424.72 1170.32 450.48V457.15H1146.4V448.87C1146.4 437.37 1141.8 433 1133.75 433C1125.7 433 1121.1 437.37 1121.1 448.41C1121.1 460.14 1126.39 468.65 1142.95 483.14C1164.11 501.77 1170.78 514.65 1170.78 534.66C1170.78 560.88 1157.44 575.6 1132.6 575.6Z" stroke="#F4E046" stroke-width="2" mask="url(#path-5-inside-5_1649_7530)"/>
<path d="M1202.77 573.3V435.3H1176.32V412.3H1254.52V435.3H1228.07V573.3H1202.77Z" stroke="#F4E046" stroke-width="2" mask="url(#path-5-inside-5_1649_7530)"/>
<mask id="path-6-inside-6_1649_7530" fill="white">
<path d="M48 185.3V24.3H85.49C111.71 24.3 122.98 36.49 122.98 61.33V71.22C122.98 87.78 117.69 98.36 106.42 102.96V103.42C119.07 107.33 123.21 119.29 123.21 137.46V165.75C123.21 173.57 123.44 179.32 125.97 185.3H100.21C98.83 181.16 97.91 178.63 97.91 165.52V136.08C97.91 121.13 93.54 116.3 82.04 116.3H73.3V185.3H48ZM73.3 93.3H82.5C91.93 93.3 97.68 89.16 97.68 76.28V63.86C97.68 52.36 93.77 47.3 84.8 47.3H73.3V93.3ZM138.464 185.3V24.3H207.464V47.3H163.764V89.85H198.494V112.85H163.764V162.3H207.464V185.3H138.464ZM294.238 200.25C284.808 200.25 276.068 196.8 273.078 184.84C268.248 186.68 262.498 187.6 256.288 187.6C231.448 187.6 217.878 172.88 217.878 147.12V62.48C217.878 36.72 231.448 22 256.288 22C281.128 22 294.698 36.72 294.698 62.48V147.12C294.698 158.16 292.168 166.9 287.568 173.57C289.408 176.79 292.398 177.25 296.998 177.25H300.908V200.25H294.238ZM256.288 164.6C264.338 164.6 269.398 160.23 269.398 148.73V60.87C269.398 49.37 264.338 45 256.288 45C248.238 45 243.178 49.37 243.178 60.87V148.73C243.178 160.23 248.238 164.6 256.288 164.6ZM346.308 187.6C321.468 187.6 308.588 172.88 308.588 147.12V24.3H333.888V148.96C333.888 160.46 338.718 164.6 346.768 164.6C354.818 164.6 359.648 160.46 359.648 148.96V24.3H384.028V147.12C384.028 172.88 371.148 187.6 346.308 187.6ZM399.747 185.3V24.3H468.747V47.3H425.047V89.85H459.777V112.85H425.047V162.3H468.747V185.3H399.747ZM514.341 187.6C489.501 187.6 477.081 172.88 477.081 147.12V137.92H501.001V148.96C501.001 160.46 506.061 164.6 514.111 164.6C522.161 164.6 527.221 160.46 527.221 148.5C527.221 135.16 522.161 126.65 505.601 112.16C484.441 93.53 477.541 80.42 477.541 62.02C477.541 36.72 490.651 22 515.261 22C539.871 22 552.061 36.72 552.061 62.48V69.15H528.141V60.87C528.141 49.37 523.541 45 515.491 45C507.441 45 502.841 49.37 502.841 60.41C502.841 72.14 508.131 80.65 524.691 95.14C545.851 113.77 552.521 126.65 552.521 146.66C552.521 172.88 539.181 187.6 514.341 187.6ZM584.507 185.3V47.3H558.057V24.3H636.257V47.3H609.807V185.3H584.507Z"/>
</mask>
<path d="M48 185.3V24.3H85.49C111.71 24.3 122.98 36.49 122.98 61.33V71.22C122.98 87.78 117.69 98.36 106.42 102.96V103.42C119.07 107.33 123.21 119.29 123.21 137.46V165.75C123.21 173.57 123.44 179.32 125.97 185.3H100.21C98.83 181.16 97.91 178.63 97.91 165.52V136.08C97.91 121.13 93.54 116.3 82.04 116.3H73.3V185.3H48ZM73.3 93.3H82.5C91.93 93.3 97.68 89.16 97.68 76.28V63.86C97.68 52.36 93.77 47.3 84.8 47.3H73.3V93.3ZM138.464 185.3V24.3H207.464V47.3H163.764V89.85H198.494V112.85H163.764V162.3H207.464V185.3H138.464ZM294.238 200.25C284.808 200.25 276.068 196.8 273.078 184.84C268.248 186.68 262.498 187.6 256.288 187.6C231.448 187.6 217.878 172.88 217.878 147.12V62.48C217.878 36.72 231.448 22 256.288 22C281.128 22 294.698 36.72 294.698 62.48V147.12C294.698 158.16 292.168 166.9 287.568 173.57C289.408 176.79 292.398 177.25 296.998 177.25H300.908V200.25H294.238ZM256.288 164.6C264.338 164.6 269.398 160.23 269.398 148.73V60.87C269.398 49.37 264.338 45 256.288 45C248.238 45 243.178 49.37 243.178 60.87V148.73C243.178 160.23 248.238 164.6 256.288 164.6ZM346.308 187.6C321.468 187.6 308.588 172.88 308.588 147.12V24.3H333.888V148.96C333.888 160.46 338.718 164.6 346.768 164.6C354.818 164.6 359.648 160.46 359.648 148.96V24.3H384.028V147.12C384.028 172.88 371.148 187.6 346.308 187.6ZM399.747 185.3V24.3H468.747V47.3H425.047V89.85H459.777V112.85H425.047V162.3H468.747V185.3H399.747ZM514.341 187.6C489.501 187.6 477.081 172.88 477.081 147.12V137.92H501.001V148.96C501.001 160.46 506.061 164.6 514.111 164.6C522.161 164.6 527.221 160.46 527.221 148.5C527.221 135.16 522.161 126.65 505.601 112.16C484.441 93.53 477.541 80.42 477.541 62.02C477.541 36.72 490.651 22 515.261 22C539.871 22 552.061 36.72 552.061 62.48V69.15H528.141V60.87C528.141 49.37 523.541 45 515.491 45C507.441 45 502.841 49.37 502.841 60.41C502.841 72.14 508.131 80.65 524.691 95.14C545.851 113.77 552.521 126.65 552.521 146.66C552.521 172.88 539.181 187.6 514.341 187.6ZM584.507 185.3V47.3H558.057V24.3H636.257V47.3H609.807V185.3H584.507Z" stroke="#F4E046" stroke-width="2" mask="url(#path-6-inside-6_1649_7530)"/>
<mask id="path-7-inside-7_1649_7530" fill="white">
<path d="M666.258 185.3V24.3H703.748C729.968 24.3 741.238 36.49 741.238 61.33V71.22C741.238 87.78 735.948 98.36 724.678 102.96V103.42C737.328 107.33 741.468 119.29 741.468 137.46V165.75C741.468 173.57 741.698 179.32 744.228 185.3H718.468C717.088 181.16 716.168 178.63 716.168 165.52V136.08C716.168 121.13 711.798 116.3 700.298 116.3H691.558V185.3H666.258ZM691.558 93.3H700.758C710.188 93.3 715.938 89.16 715.938 76.28V63.86C715.938 52.36 712.028 47.3 703.058 47.3H691.558V93.3Z"/>
<path d="M756.721 185.3V24.3H825.721V47.3H782.021V89.85H816.751V112.85H782.021V162.3H825.721V185.3H756.721Z"/>
<path d="M912.496 200.25C903.066 200.25 894.326 196.8 891.336 184.84C886.506 186.68 880.756 187.6 874.546 187.6C849.706 187.6 836.136 172.88 836.136 147.12V62.48C836.136 36.72 849.706 22 874.546 22C899.386 22 912.956 36.72 912.956 62.48V147.12C912.956 158.16 910.426 166.9 905.826 173.57C907.666 176.79 910.656 177.25 915.256 177.25H919.166V200.25H912.496ZM874.546 164.6C882.596 164.6 887.656 160.23 887.656 148.73V60.87C887.656 49.37 882.596 45 874.546 45C866.496 45 861.436 49.37 861.436 60.87V148.73C861.436 160.23 866.496 164.6 874.546 164.6Z"/>
<path d="M964.566 187.6C939.726 187.6 926.846 172.88 926.846 147.12V24.3H952.146V148.96C952.146 160.46 956.976 164.6 965.026 164.6C973.076 164.6 977.906 160.46 977.906 148.96V24.3H1002.29V147.12C1002.29 172.88 989.406 187.6 964.566 187.6Z"/>
<path d="M1018.01 185.3V24.3H1087.01V47.3H1043.31V89.85H1078.04V112.85H1043.31V162.3H1087.01V185.3H1018.01Z"/>
<path d="M1132.6 187.6C1107.76 187.6 1095.34 172.88 1095.34 147.12V137.92H1119.26V148.96C1119.26 160.46 1124.32 164.6 1132.37 164.6C1140.42 164.6 1145.48 160.46 1145.48 148.5C1145.48 135.16 1140.42 126.65 1123.86 112.16C1102.7 93.53 1095.8 80.42 1095.8 62.02C1095.8 36.72 1108.91 22 1133.52 22C1158.13 22 1170.32 36.72 1170.32 62.48V69.15H1146.4V60.87C1146.4 49.37 1141.8 45 1133.75 45C1125.7 45 1121.1 49.37 1121.1 60.41C1121.1 72.14 1126.39 80.65 1142.95 95.14C1164.11 113.77 1170.78 126.65 1170.78 146.66C1170.78 172.88 1157.44 187.6 1132.6 187.6Z"/>
<path d="M1202.77 185.3V47.3H1176.32V24.3H1254.52V47.3H1228.07V185.3H1202.77Z"/>
</mask>
<path d="M666.258 185.3V24.3H703.748C729.968 24.3 741.238 36.49 741.238 61.33V71.22C741.238 87.78 735.948 98.36 724.678 102.96V103.42C737.328 107.33 741.468 119.29 741.468 137.46V165.75C741.468 173.57 741.698 179.32 744.228 185.3H718.468C717.088 181.16 716.168 178.63 716.168 165.52V136.08C716.168 121.13 711.798 116.3 700.298 116.3H691.558V185.3H666.258ZM691.558 93.3H700.758C710.188 93.3 715.938 89.16 715.938 76.28V63.86C715.938 52.36 712.028 47.3 703.058 47.3H691.558V93.3Z" stroke="#F4E046" stroke-width="2" mask="url(#path-7-inside-7_1649_7530)"/>
<path d="M756.721 185.3V24.3H825.721V47.3H782.021V89.85H816.751V112.85H782.021V162.3H825.721V185.3H756.721Z" stroke="#F4E046" stroke-width="2" mask="url(#path-7-inside-7_1649_7530)"/>
<path d="M912.496 200.25C903.066 200.25 894.326 196.8 891.336 184.84C886.506 186.68 880.756 187.6 874.546 187.6C849.706 187.6 836.136 172.88 836.136 147.12V62.48C836.136 36.72 849.706 22 874.546 22C899.386 22 912.956 36.72 912.956 62.48V147.12C912.956 158.16 910.426 166.9 905.826 173.57C907.666 176.79 910.656 177.25 915.256 177.25H919.166V200.25H912.496ZM874.546 164.6C882.596 164.6 887.656 160.23 887.656 148.73V60.87C887.656 49.37 882.596 45 874.546 45C866.496 45 861.436 49.37 861.436 60.87V148.73C861.436 160.23 866.496 164.6 874.546 164.6Z" stroke="#F4E046" stroke-width="2" mask="url(#path-7-inside-7_1649_7530)"/>
<path d="M964.566 187.6C939.726 187.6 926.846 172.88 926.846 147.12V24.3H952.146V148.96C952.146 160.46 956.976 164.6 965.026 164.6C973.076 164.6 977.906 160.46 977.906 148.96V24.3H1002.29V147.12C1002.29 172.88 989.406 187.6 964.566 187.6Z" stroke="#F4E046" stroke-width="2" mask="url(#path-7-inside-7_1649_7530)"/>
<path d="M1018.01 185.3V24.3H1087.01V47.3H1043.31V89.85H1078.04V112.85H1043.31V162.3H1087.01V185.3H1018.01Z" stroke="#F4E046" stroke-width="2" mask="url(#path-7-inside-7_1649_7530)"/>
<path d="M1132.6 187.6C1107.76 187.6 1095.34 172.88 1095.34 147.12V137.92H1119.26V148.96C1119.26 160.46 1124.32 164.6 1132.37 164.6C1140.42 164.6 1145.48 160.46 1145.48 148.5C1145.48 135.16 1140.42 126.65 1123.86 112.16C1102.7 93.53 1095.8 80.42 1095.8 62.02C1095.8 36.72 1108.91 22 1133.52 22C1158.13 22 1170.32 36.72 1170.32 62.48V69.15H1146.4V60.87C1146.4 49.37 1141.8 45 1133.75 45C1125.7 45 1121.1 49.37 1121.1 60.41C1121.1 72.14 1126.39 80.65 1142.95 95.14C1164.11 113.77 1170.78 126.65 1170.78 146.66C1170.78 172.88 1157.44 187.6 1132.6 187.6Z" stroke="#F4E046" stroke-width="2" mask="url(#path-7-inside-7_1649_7530)"/>
<path d="M1202.77 185.3V47.3H1176.32V24.3H1254.52V47.3H1228.07V185.3H1202.77Z" stroke="#F4E046" stroke-width="2" mask="url(#path-7-inside-7_1649_7530)"/>
<mask id="path-8-inside-8_1649_7530" fill="white">
<path d="M-100 373.3V212.3H-62.51C-36.29 212.3 -25.02 224.49 -25.02 249.33V259.22C-25.02 275.78 -30.31 286.36 -41.58 290.96V291.42C-28.93 295.33 -24.79 307.29 -24.79 325.46V353.75C-24.79 361.57 -24.56 367.32 -22.03 373.3H-47.79C-49.17 369.16 -50.09 366.63 -50.09 353.52V324.08C-50.09 309.13 -54.46 304.3 -65.96 304.3H-74.7V373.3H-100ZM-74.7 281.3H-65.5C-56.07 281.3 -50.32 277.16 -50.32 264.28V251.86C-50.32 240.36 -54.23 235.3 -63.2 235.3H-74.7V281.3ZM-9.53633 373.3V212.3H59.4637V235.3H15.7637V277.85H50.4937V300.85H15.7637V350.3H59.4637V373.3H-9.53633ZM146.238 388.25C136.808 388.25 128.068 384.8 125.078 372.84C120.248 374.68 114.498 375.6 108.288 375.6C83.4484 375.6 69.8784 360.88 69.8784 335.12V250.48C69.8784 224.72 83.4484 210 108.288 210C133.128 210 146.698 224.72 146.698 250.48V335.12C146.698 346.16 144.168 354.9 139.568 361.57C141.408 364.79 144.398 365.25 148.998 365.25H152.908V388.25H146.238ZM108.288 352.6C116.338 352.6 121.398 348.23 121.398 336.73V248.87C121.398 237.37 116.338 233 108.288 233C100.238 233 95.1784 237.37 95.1784 248.87V336.73C95.1784 348.23 100.238 352.6 108.288 352.6ZM198.308 375.6C173.468 375.6 160.588 360.88 160.588 335.12V212.3H185.888V336.96C185.888 348.46 190.718 352.6 198.768 352.6C206.818 352.6 211.648 348.46 211.648 336.96V212.3H236.028V335.12C236.028 360.88 223.148 375.6 198.308 375.6ZM251.747 373.3V212.3H320.747V235.3H277.047V277.85H311.777V300.85H277.047V350.3H320.747V373.3H251.747ZM366.341 375.6C341.501 375.6 329.081 360.88 329.081 335.12V325.92H353.001V336.96C353.001 348.46 358.061 352.6 366.111 352.6C374.161 352.6 379.221 348.46 379.221 336.5C379.221 323.16 374.161 314.65 357.601 300.16C336.441 281.53 329.541 268.42 329.541 250.02C329.541 224.72 342.651 210 367.261 210C391.871 210 404.061 224.72 404.061 250.48V257.15H380.141V248.87C380.141 237.37 375.541 233 367.491 233C359.441 233 354.841 237.37 354.841 248.41C354.841 260.14 360.131 268.65 376.691 283.14C397.851 301.77 404.521 314.65 404.521 334.66C404.521 360.88 391.181 375.6 366.341 375.6ZM436.507 373.3V235.3H410.057V212.3H488.257V235.3H461.807V373.3H436.507Z"/>
</mask>
<path d="M-100 373.3V212.3H-62.51C-36.29 212.3 -25.02 224.49 -25.02 249.33V259.22C-25.02 275.78 -30.31 286.36 -41.58 290.96V291.42C-28.93 295.33 -24.79 307.29 -24.79 325.46V353.75C-24.79 361.57 -24.56 367.32 -22.03 373.3H-47.79C-49.17 369.16 -50.09 366.63 -50.09 353.52V324.08C-50.09 309.13 -54.46 304.3 -65.96 304.3H-74.7V373.3H-100ZM-74.7 281.3H-65.5C-56.07 281.3 -50.32 277.16 -50.32 264.28V251.86C-50.32 240.36 -54.23 235.3 -63.2 235.3H-74.7V281.3ZM-9.53633 373.3V212.3H59.4637V235.3H15.7637V277.85H50.4937V300.85H15.7637V350.3H59.4637V373.3H-9.53633ZM146.238 388.25C136.808 388.25 128.068 384.8 125.078 372.84C120.248 374.68 114.498 375.6 108.288 375.6C83.4484 375.6 69.8784 360.88 69.8784 335.12V250.48C69.8784 224.72 83.4484 210 108.288 210C133.128 210 146.698 224.72 146.698 250.48V335.12C146.698 346.16 144.168 354.9 139.568 361.57C141.408 364.79 144.398 365.25 148.998 365.25H152.908V388.25H146.238ZM108.288 352.6C116.338 352.6 121.398 348.23 121.398 336.73V248.87C121.398 237.37 116.338 233 108.288 233C100.238 233 95.1784 237.37 95.1784 248.87V336.73C95.1784 348.23 100.238 352.6 108.288 352.6ZM198.308 375.6C173.468 375.6 160.588 360.88 160.588 335.12V212.3H185.888V336.96C185.888 348.46 190.718 352.6 198.768 352.6C206.818 352.6 211.648 348.46 211.648 336.96V212.3H236.028V335.12C236.028 360.88 223.148 375.6 198.308 375.6ZM251.747 373.3V212.3H320.747V235.3H277.047V277.85H311.777V300.85H277.047V350.3H320.747V373.3H251.747ZM366.341 375.6C341.501 375.6 329.081 360.88 329.081 335.12V325.92H353.001V336.96C353.001 348.46 358.061 352.6 366.111 352.6C374.161 352.6 379.221 348.46 379.221 336.5C379.221 323.16 374.161 314.65 357.601 300.16C336.441 281.53 329.541 268.42 329.541 250.02C329.541 224.72 342.651 210 367.261 210C391.871 210 404.061 224.72 404.061 250.48V257.15H380.141V248.87C380.141 237.37 375.541 233 367.491 233C359.441 233 354.841 237.37 354.841 248.41C354.841 260.14 360.131 268.65 376.691 283.14C397.851 301.77 404.521 314.65 404.521 334.66C404.521 360.88 391.181 375.6 366.341 375.6ZM436.507 373.3V235.3H410.057V212.3H488.257V235.3H461.807V373.3H436.507Z" stroke="#F4E046" stroke-width="2" mask="url(#path-8-inside-8_1649_7530)"/>
<mask id="path-9-inside-9_1649_7530" fill="white">
<path d="M518.258 373.3V212.3H555.748C581.968 212.3 593.238 224.49 593.238 249.33V259.22C593.238 275.78 587.948 286.36 576.678 290.96V291.42C589.328 295.33 593.468 307.29 593.468 325.46V353.75C593.468 361.57 593.698 367.32 596.228 373.3H570.468C569.088 369.16 568.168 366.63 568.168 353.52V324.08C568.168 309.13 563.798 304.3 552.298 304.3H543.558V373.3H518.258ZM543.558 281.3H552.758C562.188 281.3 567.938 277.16 567.938 264.28V251.86C567.938 240.36 564.028 235.3 555.058 235.3H543.558V281.3Z"/>
<path d="M608.721 373.3V212.3H677.721V235.3H634.021V277.85H668.751V300.85H634.021V350.3H677.721V373.3H608.721Z"/>
<path d="M764.496 388.25C755.066 388.25 746.326 384.8 743.336 372.84C738.506 374.68 732.756 375.6 726.546 375.6C701.706 375.6 688.136 360.88 688.136 335.12V250.48C688.136 224.72 701.706 210 726.546 210C751.386 210 764.956 224.72 764.956 250.48V335.12C764.956 346.16 762.426 354.9 757.826 361.57C759.666 364.79 762.656 365.25 767.256 365.25H771.166V388.25H764.496ZM726.546 352.6C734.596 352.6 739.656 348.23 739.656 336.73V248.87C739.656 237.37 734.596 233 726.546 233C718.496 233 713.436 237.37 713.436 248.87V336.73C713.436 348.23 718.496 352.6 726.546 352.6Z"/>
<path d="M816.566 375.6C791.726 375.6 778.846 360.88 778.846 335.12V212.3H804.146V336.96C804.146 348.46 808.976 352.6 817.026 352.6C825.076 352.6 829.906 348.46 829.906 336.96V212.3H854.286V335.12C854.286 360.88 841.406 375.6 816.566 375.6Z"/>
<path d="M870.005 373.3V212.3H939.005V235.3H895.305V277.85H930.035V300.85H895.305V350.3H939.005V373.3H870.005Z"/>
<path d="M984.599 375.6C959.759 375.6 947.339 360.88 947.339 335.12V325.92H971.259V336.96C971.259 348.46 976.319 352.6 984.369 352.6C992.419 352.6 997.479 348.46 997.479 336.5C997.479 323.16 992.419 314.65 975.859 300.16C954.699 281.53 947.799 268.42 947.799 250.02C947.799 224.72 960.909 210 985.519 210C1010.13 210 1022.32 224.72 1022.32 250.48V257.15H998.399V248.87C998.399 237.37 993.799 233 985.749 233C977.699 233 973.099 237.37 973.099 248.41C973.099 260.14 978.389 268.65 994.949 283.14C1016.11 301.77 1022.78 314.65 1022.78 334.66C1022.78 360.88 1009.44 375.6 984.599 375.6Z"/>
<path d="M1054.77 373.3V235.3H1028.32V212.3H1106.52V235.3H1080.07V373.3H1054.77Z"/>
</mask>
<path d="M518.258 373.3V212.3H555.748C581.968 212.3 593.238 224.49 593.238 249.33V259.22C593.238 275.78 587.948 286.36 576.678 290.96V291.42C589.328 295.33 593.468 307.29 593.468 325.46V353.75C593.468 361.57 593.698 367.32 596.228 373.3H570.468C569.088 369.16 568.168 366.63 568.168 353.52V324.08C568.168 309.13 563.798 304.3 552.298 304.3H543.558V373.3H518.258ZM543.558 281.3H552.758C562.188 281.3 567.938 277.16 567.938 264.28V251.86C567.938 240.36 564.028 235.3 555.058 235.3H543.558V281.3Z" stroke="#F4E046" stroke-width="2" mask="url(#path-9-inside-9_1649_7530)"/>
<path d="M608.721 373.3V212.3H677.721V235.3H634.021V277.85H668.751V300.85H634.021V350.3H677.721V373.3H608.721Z" stroke="#F4E046" stroke-width="2" mask="url(#path-9-inside-9_1649_7530)"/>
<path d="M764.496 388.25C755.066 388.25 746.326 384.8 743.336 372.84C738.506 374.68 732.756 375.6 726.546 375.6C701.706 375.6 688.136 360.88 688.136 335.12V250.48C688.136 224.72 701.706 210 726.546 210C751.386 210 764.956 224.72 764.956 250.48V335.12C764.956 346.16 762.426 354.9 757.826 361.57C759.666 364.79 762.656 365.25 767.256 365.25H771.166V388.25H764.496ZM726.546 352.6C734.596 352.6 739.656 348.23 739.656 336.73V248.87C739.656 237.37 734.596 233 726.546 233C718.496 233 713.436 237.37 713.436 248.87V336.73C713.436 348.23 718.496 352.6 726.546 352.6Z" stroke="#F4E046" stroke-width="2" mask="url(#path-9-inside-9_1649_7530)"/>
<path d="M816.566 375.6C791.726 375.6 778.846 360.88 778.846 335.12V212.3H804.146V336.96C804.146 348.46 808.976 352.6 817.026 352.6C825.076 352.6 829.906 348.46 829.906 336.96V212.3H854.286V335.12C854.286 360.88 841.406 375.6 816.566 375.6Z" stroke="#F4E046" stroke-width="2" mask="url(#path-9-inside-9_1649_7530)"/>
<path d="M870.005 373.3V212.3H939.005V235.3H895.305V277.85H930.035V300.85H895.305V350.3H939.005V373.3H870.005Z" stroke="#F4E046" stroke-width="2" mask="url(#path-9-inside-9_1649_7530)"/>
<path d="M984.599 375.6C959.759 375.6 947.339 360.88 947.339 335.12V325.92H971.259V336.96C971.259 348.46 976.319 352.6 984.369 352.6C992.419 352.6 997.479 348.46 997.479 336.5C997.479 323.16 992.419 314.65 975.859 300.16C954.699 281.53 947.799 268.42 947.799 250.02C947.799 224.72 960.909 210 985.519 210C1010.13 210 1022.32 224.72 1022.32 250.48V257.15H998.399V248.87C998.399 237.37 993.799 233 985.749 233C977.699 233 973.099 237.37 973.099 248.41C973.099 260.14 978.389 268.65 994.949 283.14C1016.11 301.77 1022.78 314.65 1022.78 334.66C1022.78 360.88 1009.44 375.6 984.599 375.6Z" stroke="#F4E046" stroke-width="2" mask="url(#path-9-inside-9_1649_7530)"/>
<path d="M1054.77 373.3V235.3H1028.32V212.3H1106.52V235.3H1080.07V373.3H1054.77Z" stroke="#F4E046" stroke-width="2" mask="url(#path-9-inside-9_1649_7530)"/>
<mask id="path-10-inside-10_1649_7530" fill="white">
<path d="M1136.52 373.3V212.3H1174.01C1200.23 212.3 1211.5 224.49 1211.5 249.33V259.22C1211.5 275.78 1206.21 286.36 1194.94 290.96V291.42C1207.59 295.33 1211.73 307.29 1211.73 325.46V353.75C1211.73 361.57 1211.96 367.32 1214.49 373.3H1188.73C1187.35 369.16 1186.43 366.63 1186.43 353.52V324.08C1186.43 309.13 1182.06 304.3 1170.56 304.3H1161.82V373.3H1136.52ZM1161.82 281.3H1171.02C1180.45 281.3 1186.2 277.16 1186.2 264.28V251.86C1186.2 240.36 1182.29 235.3 1173.32 235.3H1161.82V281.3Z"/>
<path d="M1226.98 373.3V212.3H1295.98V235.3H1252.28V277.85H1287.01V300.85H1252.28V350.3H1295.98V373.3H1226.98Z"/>
<path d="M1382.75 388.25C1373.32 388.25 1364.58 384.8 1361.59 372.84C1356.76 374.68 1351.01 375.6 1344.8 375.6C1319.96 375.6 1306.39 360.88 1306.39 335.12V250.48C1306.39 224.72 1319.96 210 1344.8 210C1369.64 210 1383.21 224.72 1383.21 250.48V335.12C1383.21 346.16 1380.68 354.9 1376.08 361.57C1377.92 364.79 1380.91 365.25 1385.51 365.25H1389.42V388.25H1382.75ZM1344.8 352.6C1352.85 352.6 1357.91 348.23 1357.91 336.73V248.87C1357.91 237.37 1352.85 233 1344.8 233C1336.75 233 1331.69 237.37 1331.69 248.87V336.73C1331.69 348.23 1336.75 352.6 1344.8 352.6Z"/>
<path d="M1434.82 375.6C1409.98 375.6 1397.1 360.88 1397.1 335.12V212.3H1422.4V336.96C1422.4 348.46 1427.23 352.6 1435.28 352.6C1443.33 352.6 1448.16 348.46 1448.16 336.96V212.3H1472.54V335.12C1472.54 360.88 1459.66 375.6 1434.82 375.6Z"/>
<path d="M1488.26 373.3V212.3H1557.26V235.3H1513.56V277.85H1548.29V300.85H1513.56V350.3H1557.26V373.3H1488.26Z"/>
<path d="M1602.86 375.6C1578.02 375.6 1565.6 360.88 1565.6 335.12V325.92H1589.52V336.96C1589.52 348.46 1594.58 352.6 1602.63 352.6C1610.68 352.6 1615.74 348.46 1615.74 336.5C1615.74 323.16 1610.68 314.65 1594.12 300.16C1572.96 281.53 1566.06 268.42 1566.06 250.02C1566.06 224.72 1579.17 210 1603.78 210C1628.39 210 1640.58 224.72 1640.58 250.48V257.15H1616.66V248.87C1616.66 237.37 1612.06 233 1604.01 233C1595.96 233 1591.36 237.37 1591.36 248.41C1591.36 260.14 1596.65 268.65 1613.21 283.14C1634.37 301.77 1641.04 314.65 1641.04 334.66C1641.04 360.88 1627.7 375.6 1602.86 375.6Z"/>
<path d="M1673.02 373.3V235.3H1646.57V212.3H1724.77V235.3H1698.32V373.3H1673.02Z"/>
</mask>
<path d="M1136.52 373.3V212.3H1174.01C1200.23 212.3 1211.5 224.49 1211.5 249.33V259.22C1211.5 275.78 1206.21 286.36 1194.94 290.96V291.42C1207.59 295.33 1211.73 307.29 1211.73 325.46V353.75C1211.73 361.57 1211.96 367.32 1214.49 373.3H1188.73C1187.35 369.16 1186.43 366.63 1186.43 353.52V324.08C1186.43 309.13 1182.06 304.3 1170.56 304.3H1161.82V373.3H1136.52ZM1161.82 281.3H1171.02C1180.45 281.3 1186.2 277.16 1186.2 264.28V251.86C1186.2 240.36 1182.29 235.3 1173.32 235.3H1161.82V281.3Z" stroke="#F4E046" stroke-width="2" mask="url(#path-10-inside-10_1649_7530)"/>
<path d="M1226.98 373.3V212.3H1295.98V235.3H1252.28V277.85H1287.01V300.85H1252.28V350.3H1295.98V373.3H1226.98Z" stroke="#F4E046" stroke-width="2" mask="url(#path-10-inside-10_1649_7530)"/>
<path d="M1382.75 388.25C1373.32 388.25 1364.58 384.8 1361.59 372.84C1356.76 374.68 1351.01 375.6 1344.8 375.6C1319.96 375.6 1306.39 360.88 1306.39 335.12V250.48C1306.39 224.72 1319.96 210 1344.8 210C1369.64 210 1383.21 224.72 1383.21 250.48V335.12C1383.21 346.16 1380.68 354.9 1376.08 361.57C1377.92 364.79 1380.91 365.25 1385.51 365.25H1389.42V388.25H1382.75ZM1344.8 352.6C1352.85 352.6 1357.91 348.23 1357.91 336.73V248.87C1357.91 237.37 1352.85 233 1344.8 233C1336.75 233 1331.69 237.37 1331.69 248.87V336.73C1331.69 348.23 1336.75 352.6 1344.8 352.6Z" stroke="#F4E046" stroke-width="2" mask="url(#path-10-inside-10_1649_7530)"/>
<path d="M1434.82 375.6C1409.98 375.6 1397.1 360.88 1397.1 335.12V212.3H1422.4V336.96C1422.4 348.46 1427.23 352.6 1435.28 352.6C1443.33 352.6 1448.16 348.46 1448.16 336.96V212.3H1472.54V335.12C1472.54 360.88 1459.66 375.6 1434.82 375.6Z" stroke="#F4E046" stroke-width="2" mask="url(#path-10-inside-10_1649_7530)"/>
<path d="M1488.26 373.3V212.3H1557.26V235.3H1513.56V277.85H1548.29V300.85H1513.56V350.3H1557.26V373.3H1488.26Z" stroke="#F4E046" stroke-width="2" mask="url(#path-10-inside-10_1649_7530)"/>
<path d="M1602.86 375.6C1578.02 375.6 1565.6 360.88 1565.6 335.12V325.92H1589.52V336.96C1589.52 348.46 1594.58 352.6 1602.63 352.6C1610.68 352.6 1615.74 348.46 1615.74 336.5C1615.74 323.16 1610.68 314.65 1594.12 300.16C1572.96 281.53 1566.06 268.42 1566.06 250.02C1566.06 224.72 1579.17 210 1603.78 210C1628.39 210 1640.58 224.72 1640.58 250.48V257.15H1616.66V248.87C1616.66 237.37 1612.06 233 1604.01 233C1595.96 233 1591.36 237.37 1591.36 248.41C1591.36 260.14 1596.65 268.65 1613.21 283.14C1634.37 301.77 1641.04 314.65 1641.04 334.66C1641.04 360.88 1627.7 375.6 1602.86 375.6Z" stroke="#F4E046" stroke-width="2" mask="url(#path-10-inside-10_1649_7530)"/>
<path d="M1673.02 373.3V235.3H1646.57V212.3H1724.77V235.3H1698.32V373.3H1673.02Z" stroke="#F4E046" stroke-width="2" mask="url(#path-10-inside-10_1649_7530)"/>
</g>
<defs>
<clipPath id="clip0_1649_7530">
<rect width="1280" height="787" fill="white"/>
</clipPath>
</defs>
</svg>
