<svg width="1280" height="787" viewBox="0 0 1280 787" fill="none" xmlns="http://www.w3.org/2000/svg">
<g clip-path="url(#clip0_1174_5634)">
<mask id="path-1-inside-1_1174_5634" fill="white">
<path d="M13 670.3V509.3H50.49C76.71 509.3 87.98 521.49 87.98 546.33V556.22C87.98 572.78 82.69 583.36 71.42 587.96V588.42C84.07 592.33 88.21 604.29 88.21 622.46V650.75C88.21 658.57 88.44 664.32 90.97 670.3H65.21C63.83 666.16 62.91 663.63 62.91 650.52V621.08C62.91 606.13 58.54 601.3 47.04 601.3H38.3V670.3H13ZM38.3 578.3H47.5C56.93 578.3 62.68 574.16 62.68 561.28V548.86C62.68 537.36 58.77 532.3 49.8 532.3H38.3V578.3ZM103.464 670.3V509.3H172.464V532.3H128.764V574.85H163.494V597.85H128.764V647.3H172.464V670.3H103.464ZM259.238 685.25C249.808 685.25 241.068 681.8 238.078 669.84C233.248 671.68 227.498 672.6 221.288 672.6C196.448 672.6 182.878 657.88 182.878 632.12V547.48C182.878 521.72 196.448 507 221.288 507C246.128 507 259.698 521.72 259.698 547.48V632.12C259.698 643.16 257.168 651.9 252.568 658.57C254.408 661.79 257.398 662.25 261.998 662.25H265.908V685.25H259.238ZM221.288 649.6C229.338 649.6 234.398 645.23 234.398 633.73V545.87C234.398 534.37 229.338 530 221.288 530C213.238 530 208.178 534.37 208.178 545.87V633.73C208.178 645.23 213.238 649.6 221.288 649.6ZM311.308 672.6C286.468 672.6 273.588 657.88 273.588 632.12V509.3H298.888V633.96C298.888 645.46 303.718 649.6 311.768 649.6C319.818 649.6 324.648 645.46 324.648 633.96V509.3H349.028V632.12C349.028 657.88 336.148 672.6 311.308 672.6ZM364.747 670.3V509.3H433.747V532.3H390.047V574.85H424.777V597.85H390.047V647.3H433.747V670.3H364.747ZM479.341 672.6C454.501 672.6 442.081 657.88 442.081 632.12V622.92H466.001V633.96C466.001 645.46 471.061 649.6 479.111 649.6C487.161 649.6 492.221 645.46 492.221 633.5C492.221 620.16 487.161 611.65 470.601 597.16C449.441 578.53 442.541 565.42 442.541 547.02C442.541 521.72 455.651 507 480.261 507C504.871 507 517.061 521.72 517.061 547.48V554.15H493.141V545.87C493.141 534.37 488.541 530 480.491 530C472.441 530 467.841 534.37 467.841 545.41C467.841 557.14 473.131 565.65 489.691 580.14C510.851 598.77 517.521 611.65 517.521 631.66C517.521 657.88 504.181 672.6 479.341 672.6ZM549.507 670.3V532.3H523.057V509.3H601.257V532.3H574.807V670.3H549.507Z"/>
</mask>
<path d="M13 670.3V509.3H50.49C76.71 509.3 87.98 521.49 87.98 546.33V556.22C87.98 572.78 82.69 583.36 71.42 587.96V588.42C84.07 592.33 88.21 604.29 88.21 622.46V650.75C88.21 658.57 88.44 664.32 90.97 670.3H65.21C63.83 666.16 62.91 663.63 62.91 650.52V621.08C62.91 606.13 58.54 601.3 47.04 601.3H38.3V670.3H13ZM38.3 578.3H47.5C56.93 578.3 62.68 574.16 62.68 561.28V548.86C62.68 537.36 58.77 532.3 49.8 532.3H38.3V578.3ZM103.464 670.3V509.3H172.464V532.3H128.764V574.85H163.494V597.85H128.764V647.3H172.464V670.3H103.464ZM259.238 685.25C249.808 685.25 241.068 681.8 238.078 669.84C233.248 671.68 227.498 672.6 221.288 672.6C196.448 672.6 182.878 657.88 182.878 632.12V547.48C182.878 521.72 196.448 507 221.288 507C246.128 507 259.698 521.72 259.698 547.48V632.12C259.698 643.16 257.168 651.9 252.568 658.57C254.408 661.79 257.398 662.25 261.998 662.25H265.908V685.25H259.238ZM221.288 649.6C229.338 649.6 234.398 645.23 234.398 633.73V545.87C234.398 534.37 229.338 530 221.288 530C213.238 530 208.178 534.37 208.178 545.87V633.73C208.178 645.23 213.238 649.6 221.288 649.6ZM311.308 672.6C286.468 672.6 273.588 657.88 273.588 632.12V509.3H298.888V633.96C298.888 645.46 303.718 649.6 311.768 649.6C319.818 649.6 324.648 645.46 324.648 633.96V509.3H349.028V632.12C349.028 657.88 336.148 672.6 311.308 672.6ZM364.747 670.3V509.3H433.747V532.3H390.047V574.85H424.777V597.85H390.047V647.3H433.747V670.3H364.747ZM479.341 672.6C454.501 672.6 442.081 657.88 442.081 632.12V622.92H466.001V633.96C466.001 645.46 471.061 649.6 479.111 649.6C487.161 649.6 492.221 645.46 492.221 633.5C492.221 620.16 487.161 611.65 470.601 597.16C449.441 578.53 442.541 565.42 442.541 547.02C442.541 521.72 455.651 507 480.261 507C504.871 507 517.061 521.72 517.061 547.48V554.15H493.141V545.87C493.141 534.37 488.541 530 480.491 530C472.441 530 467.841 534.37 467.841 545.41C467.841 557.14 473.131 565.65 489.691 580.14C510.851 598.77 517.521 611.65 517.521 631.66C517.521 657.88 504.181 672.6 479.341 672.6ZM549.507 670.3V532.3H523.057V509.3H601.257V532.3H574.807V670.3H549.507Z" stroke="#F4E046" stroke-width="2" mask="url(#path-1-inside-1_1174_5634)"/>
<path d="M631.258 670.3V509.3H668.748C694.968 509.3 706.238 521.49 706.238 546.33V556.22C706.238 572.78 700.948 583.36 689.678 587.96V588.42C702.328 592.33 706.468 604.29 706.468 622.46V650.75C706.468 658.57 706.698 664.32 709.228 670.3H683.468C682.088 666.16 681.168 663.63 681.168 650.52V621.08C681.168 606.13 676.798 601.3 665.298 601.3H656.558V670.3H631.258ZM656.558 578.3H665.758C675.188 578.3 680.938 574.16 680.938 561.28V548.86C680.938 537.36 677.028 532.3 668.058 532.3H656.558V578.3Z" fill="#F4E046"/>
<path d="M721.721 670.3V509.3H790.721V532.3H747.021V574.85H781.751V597.85H747.021V647.3H790.721V670.3H721.721Z" fill="#F4E046"/>
<path d="M877.496 685.25C868.066 685.25 859.326 681.8 856.336 669.84C851.506 671.68 845.756 672.6 839.546 672.6C814.706 672.6 801.136 657.88 801.136 632.12V547.48C801.136 521.72 814.706 507 839.546 507C864.386 507 877.956 521.72 877.956 547.48V632.12C877.956 643.16 875.426 651.9 870.826 658.57C872.666 661.79 875.656 662.25 880.256 662.25H884.166V685.25H877.496ZM839.546 649.6C847.596 649.6 852.656 645.23 852.656 633.73V545.87C852.656 534.37 847.596 530 839.546 530C831.496 530 826.436 534.37 826.436 545.87V633.73C826.436 645.23 831.496 649.6 839.546 649.6Z" fill="#F4E046"/>
<path d="M929.566 672.6C904.726 672.6 891.846 657.88 891.846 632.12V509.3H917.146V633.96C917.146 645.46 921.976 649.6 930.026 649.6C938.076 649.6 942.906 645.46 942.906 633.96V509.3H967.286V632.12C967.286 657.88 954.406 672.6 929.566 672.6Z" fill="#F4E046"/>
<path d="M983.005 670.3V509.3H1052.01V532.3H1008.31V574.85H1043.04V597.85H1008.31V647.3H1052.01V670.3H983.005Z" fill="#F4E046"/>
<path d="M1097.6 672.6C1072.76 672.6 1060.34 657.88 1060.34 632.12V622.92H1084.26V633.96C1084.26 645.46 1089.32 649.6 1097.37 649.6C1105.42 649.6 1110.48 645.46 1110.48 633.5C1110.48 620.16 1105.42 611.65 1088.86 597.16C1067.7 578.53 1060.8 565.42 1060.8 547.02C1060.8 521.72 1073.91 507 1098.52 507C1123.13 507 1135.32 521.72 1135.32 547.48V554.15H1111.4V545.87C1111.4 534.37 1106.8 530 1098.75 530C1090.7 530 1086.1 534.37 1086.1 545.41C1086.1 557.14 1091.39 565.65 1107.95 580.14C1129.11 598.77 1135.78 611.65 1135.78 631.66C1135.78 657.88 1122.44 672.6 1097.6 672.6Z" fill="#F4E046"/>
<path d="M1167.77 670.3V532.3H1141.32V509.3H1219.52V532.3H1193.07V670.3H1167.77Z" fill="#F4E046"/>
<mask id="path-3-inside-2_1174_5634" fill="white">
<path d="M1249.52 670.3V509.3H1287.01C1313.23 509.3 1324.5 521.49 1324.5 546.33V556.22C1324.5 572.78 1319.21 583.36 1307.94 587.96V588.42C1320.59 592.33 1324.73 604.29 1324.73 622.46V650.75C1324.73 658.57 1324.96 664.32 1327.49 670.3H1301.73C1300.35 666.16 1299.43 663.63 1299.43 650.52V621.08C1299.43 606.13 1295.06 601.3 1283.56 601.3H1274.82V670.3H1249.52ZM1274.82 578.3H1284.02C1293.45 578.3 1299.2 574.16 1299.2 561.28V548.86C1299.2 537.36 1295.29 532.3 1286.32 532.3H1274.82V578.3ZM1339.98 670.3V509.3H1408.98V532.3H1365.28V574.85H1400.01V597.85H1365.28V647.3H1408.98V670.3H1339.98ZM1495.75 685.25C1486.32 685.25 1477.58 681.8 1474.59 669.84C1469.76 671.68 1464.01 672.6 1457.8 672.6C1432.96 672.6 1419.39 657.88 1419.39 632.12V547.48C1419.39 521.72 1432.96 507 1457.8 507C1482.64 507 1496.21 521.72 1496.21 547.48V632.12C1496.21 643.16 1493.68 651.9 1489.08 658.57C1490.92 661.79 1493.91 662.25 1498.51 662.25H1502.42V685.25H1495.75ZM1457.8 649.6C1465.85 649.6 1470.91 645.23 1470.91 633.73V545.87C1470.91 534.37 1465.85 530 1457.8 530C1449.75 530 1444.69 534.37 1444.69 545.87V633.73C1444.69 645.23 1449.75 649.6 1457.8 649.6ZM1547.82 672.6C1522.98 672.6 1510.1 657.88 1510.1 632.12V509.3H1535.4V633.96C1535.4 645.46 1540.23 649.6 1548.28 649.6C1556.33 649.6 1561.16 645.46 1561.16 633.96V509.3H1585.54V632.12C1585.54 657.88 1572.66 672.6 1547.82 672.6ZM1601.26 670.3V509.3H1670.26V532.3H1626.56V574.85H1661.29V597.85H1626.56V647.3H1670.26V670.3H1601.26ZM1715.86 672.6C1691.02 672.6 1678.6 657.88 1678.6 632.12V622.92H1702.52V633.96C1702.52 645.46 1707.58 649.6 1715.63 649.6C1723.68 649.6 1728.74 645.46 1728.74 633.5C1728.74 620.16 1723.68 611.65 1707.12 597.16C1685.96 578.53 1679.06 565.42 1679.06 547.02C1679.06 521.72 1692.17 507 1716.78 507C1741.39 507 1753.58 521.72 1753.58 547.48V554.15H1729.66V545.87C1729.66 534.37 1725.06 530 1717.01 530C1708.96 530 1704.36 534.37 1704.36 545.41C1704.36 557.14 1709.65 565.65 1726.21 580.14C1747.37 598.77 1754.04 611.65 1754.04 631.66C1754.04 657.88 1740.7 672.6 1715.86 672.6ZM1786.02 670.3V532.3H1759.57V509.3H1837.77V532.3H1811.32V670.3H1786.02Z"/>
</mask>
<path d="M1249.52 670.3V509.3H1287.01C1313.23 509.3 1324.5 521.49 1324.5 546.33V556.22C1324.5 572.78 1319.21 583.36 1307.94 587.96V588.42C1320.59 592.33 1324.73 604.29 1324.73 622.46V650.75C1324.73 658.57 1324.96 664.32 1327.49 670.3H1301.73C1300.35 666.16 1299.43 663.63 1299.43 650.52V621.08C1299.43 606.13 1295.06 601.3 1283.56 601.3H1274.82V670.3H1249.52ZM1274.82 578.3H1284.02C1293.45 578.3 1299.2 574.16 1299.2 561.28V548.86C1299.2 537.36 1295.29 532.3 1286.32 532.3H1274.82V578.3ZM1339.98 670.3V509.3H1408.98V532.3H1365.28V574.85H1400.01V597.85H1365.28V647.3H1408.98V670.3H1339.98ZM1495.75 685.25C1486.32 685.25 1477.58 681.8 1474.59 669.84C1469.76 671.68 1464.01 672.6 1457.8 672.6C1432.96 672.6 1419.39 657.88 1419.39 632.12V547.48C1419.39 521.72 1432.96 507 1457.8 507C1482.64 507 1496.21 521.72 1496.21 547.48V632.12C1496.21 643.16 1493.68 651.9 1489.08 658.57C1490.92 661.79 1493.91 662.25 1498.51 662.25H1502.42V685.25H1495.75ZM1457.8 649.6C1465.85 649.6 1470.91 645.23 1470.91 633.73V545.87C1470.91 534.37 1465.85 530 1457.8 530C1449.75 530 1444.69 534.37 1444.69 545.87V633.73C1444.69 645.23 1449.75 649.6 1457.8 649.6ZM1547.82 672.6C1522.98 672.6 1510.1 657.88 1510.1 632.12V509.3H1535.4V633.96C1535.4 645.46 1540.23 649.6 1548.28 649.6C1556.33 649.6 1561.16 645.46 1561.16 633.96V509.3H1585.54V632.12C1585.54 657.88 1572.66 672.6 1547.82 672.6ZM1601.26 670.3V509.3H1670.26V532.3H1626.56V574.85H1661.29V597.85H1626.56V647.3H1670.26V670.3H1601.26ZM1715.86 672.6C1691.02 672.6 1678.6 657.88 1678.6 632.12V622.92H1702.52V633.96C1702.52 645.46 1707.58 649.6 1715.63 649.6C1723.68 649.6 1728.74 645.46 1728.74 633.5C1728.74 620.16 1723.68 611.65 1707.12 597.16C1685.96 578.53 1679.06 565.42 1679.06 547.02C1679.06 521.72 1692.17 507 1716.78 507C1741.39 507 1753.58 521.72 1753.58 547.48V554.15H1729.66V545.87C1729.66 534.37 1725.06 530 1717.01 530C1708.96 530 1704.36 534.37 1704.36 545.41C1704.36 557.14 1709.65 565.65 1726.21 580.14C1747.37 598.77 1754.04 611.65 1754.04 631.66C1754.04 657.88 1740.7 672.6 1715.86 672.6ZM1786.02 670.3V532.3H1759.57V509.3H1837.77V532.3H1811.32V670.3H1786.02Z" stroke="#F4E046" stroke-width="2" mask="url(#path-3-inside-2_1174_5634)"/>
<mask id="path-4-inside-3_1174_5634" fill="white">
<path d="M-162 476.3V315.3H-124.51C-98.29 315.3 -87.02 327.49 -87.02 352.33V362.22C-87.02 378.78 -92.31 389.36 -103.58 393.96V394.42C-90.93 398.33 -86.79 410.29 -86.79 428.46V456.75C-86.79 464.57 -86.56 470.32 -84.03 476.3H-109.79C-111.17 472.16 -112.09 469.63 -112.09 456.52V427.08C-112.09 412.13 -116.46 407.3 -127.96 407.3H-136.7V476.3H-162ZM-136.7 384.3H-127.5C-118.07 384.3 -112.32 380.16 -112.32 367.28V354.86C-112.32 343.36 -116.23 338.3 -125.2 338.3H-136.7V384.3ZM-71.5363 476.3V315.3H-2.53633V338.3H-46.2363V380.85H-11.5063V403.85H-46.2363V453.3H-2.53633V476.3H-71.5363ZM84.2384 491.25C74.8083 491.25 66.0684 487.8 63.0784 475.84C58.2484 477.68 52.4984 478.6 46.2884 478.6C21.4484 478.6 7.87836 463.88 7.87836 438.12V353.48C7.87836 327.72 21.4484 313 46.2884 313C71.1284 313 84.6983 327.72 84.6983 353.48V438.12C84.6983 449.16 82.1684 457.9 77.5684 464.57C79.4084 467.79 82.3984 468.25 86.9984 468.25H90.9084V491.25H84.2384ZM46.2884 455.6C54.3384 455.6 59.3983 451.23 59.3983 439.73V351.87C59.3983 340.37 54.3384 336 46.2884 336C38.2384 336 33.1784 340.37 33.1784 351.87V439.73C33.1784 451.23 38.2384 455.6 46.2884 455.6ZM136.308 478.6C111.468 478.6 98.5882 463.88 98.5882 438.12V315.3H123.888V439.96C123.888 451.46 128.718 455.6 136.768 455.6C144.818 455.6 149.648 451.46 149.648 439.96V315.3H174.028V438.12C174.028 463.88 161.148 478.6 136.308 478.6ZM189.747 476.3V315.3H258.747V338.3H215.047V380.85H249.777V403.85H215.047V453.3H258.747V476.3H189.747ZM304.341 478.6C279.501 478.6 267.081 463.88 267.081 438.12V428.92H291.001V439.96C291.001 451.46 296.061 455.6 304.111 455.6C312.161 455.6 317.221 451.46 317.221 439.5C317.221 426.16 312.161 417.65 295.601 403.16C274.441 384.53 267.541 371.42 267.541 353.02C267.541 327.72 280.651 313 305.261 313C329.871 313 342.061 327.72 342.061 353.48V360.15H318.141V351.87C318.141 340.37 313.541 336 305.491 336C297.441 336 292.841 340.37 292.841 351.41C292.841 363.14 298.131 371.65 314.691 386.14C335.851 404.77 342.521 417.65 342.521 437.66C342.521 463.88 329.181 478.6 304.341 478.6ZM374.507 476.3V338.3H348.057V315.3H426.257V338.3H399.807V476.3H374.507Z"/>
</mask>
<path d="M-162 476.3V315.3H-124.51C-98.29 315.3 -87.02 327.49 -87.02 352.33V362.22C-87.02 378.78 -92.31 389.36 -103.58 393.96V394.42C-90.93 398.33 -86.79 410.29 -86.79 428.46V456.75C-86.79 464.57 -86.56 470.32 -84.03 476.3H-109.79C-111.17 472.16 -112.09 469.63 -112.09 456.52V427.08C-112.09 412.13 -116.46 407.3 -127.96 407.3H-136.7V476.3H-162ZM-136.7 384.3H-127.5C-118.07 384.3 -112.32 380.16 -112.32 367.28V354.86C-112.32 343.36 -116.23 338.3 -125.2 338.3H-136.7V384.3ZM-71.5363 476.3V315.3H-2.53633V338.3H-46.2363V380.85H-11.5063V403.85H-46.2363V453.3H-2.53633V476.3H-71.5363ZM84.2384 491.25C74.8083 491.25 66.0684 487.8 63.0784 475.84C58.2484 477.68 52.4984 478.6 46.2884 478.6C21.4484 478.6 7.87836 463.88 7.87836 438.12V353.48C7.87836 327.72 21.4484 313 46.2884 313C71.1284 313 84.6983 327.72 84.6983 353.48V438.12C84.6983 449.16 82.1684 457.9 77.5684 464.57C79.4084 467.79 82.3984 468.25 86.9984 468.25H90.9084V491.25H84.2384ZM46.2884 455.6C54.3384 455.6 59.3983 451.23 59.3983 439.73V351.87C59.3983 340.37 54.3384 336 46.2884 336C38.2384 336 33.1784 340.37 33.1784 351.87V439.73C33.1784 451.23 38.2384 455.6 46.2884 455.6ZM136.308 478.6C111.468 478.6 98.5882 463.88 98.5882 438.12V315.3H123.888V439.96C123.888 451.46 128.718 455.6 136.768 455.6C144.818 455.6 149.648 451.46 149.648 439.96V315.3H174.028V438.12C174.028 463.88 161.148 478.6 136.308 478.6ZM189.747 476.3V315.3H258.747V338.3H215.047V380.85H249.777V403.85H215.047V453.3H258.747V476.3H189.747ZM304.341 478.6C279.501 478.6 267.081 463.88 267.081 438.12V428.92H291.001V439.96C291.001 451.46 296.061 455.6 304.111 455.6C312.161 455.6 317.221 451.46 317.221 439.5C317.221 426.16 312.161 417.65 295.601 403.16C274.441 384.53 267.541 371.42 267.541 353.02C267.541 327.72 280.651 313 305.261 313C329.871 313 342.061 327.72 342.061 353.48V360.15H318.141V351.87C318.141 340.37 313.541 336 305.491 336C297.441 336 292.841 340.37 292.841 351.41C292.841 363.14 298.131 371.65 314.691 386.14C335.851 404.77 342.521 417.65 342.521 437.66C342.521 463.88 329.181 478.6 304.341 478.6ZM374.507 476.3V338.3H348.057V315.3H426.257V338.3H399.807V476.3H374.507Z" stroke="#F4E046" stroke-width="2" mask="url(#path-4-inside-3_1174_5634)"/>
<mask id="path-5-inside-4_1174_5634" fill="white">
<path d="M456.258 476.3V315.3H493.748C519.968 315.3 531.238 327.49 531.238 352.33V362.22C531.238 378.78 525.948 389.36 514.678 393.96V394.42C527.328 398.33 531.468 410.29 531.468 428.46V456.75C531.468 464.57 531.698 470.32 534.228 476.3H508.468C507.088 472.16 506.168 469.63 506.168 456.52V427.08C506.168 412.13 501.798 407.3 490.298 407.3H481.558V476.3H456.258ZM481.558 384.3H490.758C500.188 384.3 505.938 380.16 505.938 367.28V354.86C505.938 343.36 502.028 338.3 493.058 338.3H481.558V384.3ZM546.721 476.3V315.3H615.721V338.3H572.021V380.85H606.751V403.85H572.021V453.3H615.721V476.3H546.721ZM702.496 491.25C693.066 491.25 684.326 487.8 681.336 475.84C676.506 477.68 670.756 478.6 664.546 478.6C639.706 478.6 626.136 463.88 626.136 438.12V353.48C626.136 327.72 639.706 313 664.546 313C689.386 313 702.956 327.72 702.956 353.48V438.12C702.956 449.16 700.426 457.9 695.826 464.57C697.666 467.79 700.656 468.25 705.256 468.25H709.166V491.25H702.496ZM664.546 455.6C672.596 455.6 677.656 451.23 677.656 439.73V351.87C677.656 340.37 672.596 336 664.546 336C656.496 336 651.436 340.37 651.436 351.87V439.73C651.436 451.23 656.496 455.6 664.546 455.6ZM754.566 478.6C729.726 478.6 716.846 463.88 716.846 438.12V315.3H742.146V439.96C742.146 451.46 746.976 455.6 755.026 455.6C763.076 455.6 767.906 451.46 767.906 439.96V315.3H792.286V438.12C792.286 463.88 779.406 478.6 754.566 478.6ZM808.005 476.3V315.3H877.005V338.3H833.305V380.85H868.035V403.85H833.305V453.3H877.005V476.3H808.005ZM922.599 478.6C897.759 478.6 885.339 463.88 885.339 438.12V428.92H909.259V439.96C909.259 451.46 914.319 455.6 922.369 455.6C930.419 455.6 935.479 451.46 935.479 439.5C935.479 426.16 930.419 417.65 913.859 403.16C892.699 384.53 885.799 371.42 885.799 353.02C885.799 327.72 898.909 313 923.519 313C948.129 313 960.319 327.72 960.319 353.48V360.15H936.399V351.87C936.399 340.37 931.799 336 923.749 336C915.699 336 911.099 340.37 911.099 351.41C911.099 363.14 916.389 371.65 932.949 386.14C954.109 404.77 960.779 417.65 960.779 437.66C960.779 463.88 947.439 478.6 922.599 478.6ZM992.765 476.3V338.3H966.315V315.3H1044.52V338.3H1018.07V476.3H992.765Z"/>
</mask>
<path d="M456.258 476.3V315.3H493.748C519.968 315.3 531.238 327.49 531.238 352.33V362.22C531.238 378.78 525.948 389.36 514.678 393.96V394.42C527.328 398.33 531.468 410.29 531.468 428.46V456.75C531.468 464.57 531.698 470.32 534.228 476.3H508.468C507.088 472.16 506.168 469.63 506.168 456.52V427.08C506.168 412.13 501.798 407.3 490.298 407.3H481.558V476.3H456.258ZM481.558 384.3H490.758C500.188 384.3 505.938 380.16 505.938 367.28V354.86C505.938 343.36 502.028 338.3 493.058 338.3H481.558V384.3ZM546.721 476.3V315.3H615.721V338.3H572.021V380.85H606.751V403.85H572.021V453.3H615.721V476.3H546.721ZM702.496 491.25C693.066 491.25 684.326 487.8 681.336 475.84C676.506 477.68 670.756 478.6 664.546 478.6C639.706 478.6 626.136 463.88 626.136 438.12V353.48C626.136 327.72 639.706 313 664.546 313C689.386 313 702.956 327.72 702.956 353.48V438.12C702.956 449.16 700.426 457.9 695.826 464.57C697.666 467.79 700.656 468.25 705.256 468.25H709.166V491.25H702.496ZM664.546 455.6C672.596 455.6 677.656 451.23 677.656 439.73V351.87C677.656 340.37 672.596 336 664.546 336C656.496 336 651.436 340.37 651.436 351.87V439.73C651.436 451.23 656.496 455.6 664.546 455.6ZM754.566 478.6C729.726 478.6 716.846 463.88 716.846 438.12V315.3H742.146V439.96C742.146 451.46 746.976 455.6 755.026 455.6C763.076 455.6 767.906 451.46 767.906 439.96V315.3H792.286V438.12C792.286 463.88 779.406 478.6 754.566 478.6ZM808.005 476.3V315.3H877.005V338.3H833.305V380.85H868.035V403.85H833.305V453.3H877.005V476.3H808.005ZM922.599 478.6C897.759 478.6 885.339 463.88 885.339 438.12V428.92H909.259V439.96C909.259 451.46 914.319 455.6 922.369 455.6C930.419 455.6 935.479 451.46 935.479 439.5C935.479 426.16 930.419 417.65 913.859 403.16C892.699 384.53 885.799 371.42 885.799 353.02C885.799 327.72 898.909 313 923.519 313C948.129 313 960.319 327.72 960.319 353.48V360.15H936.399V351.87C936.399 340.37 931.799 336 923.749 336C915.699 336 911.099 340.37 911.099 351.41C911.099 363.14 916.389 371.65 932.949 386.14C954.109 404.77 960.779 417.65 960.779 437.66C960.779 463.88 947.439 478.6 922.599 478.6ZM992.765 476.3V338.3H966.315V315.3H1044.52V338.3H1018.07V476.3H992.765Z" stroke="#F4E046" stroke-width="2" mask="url(#path-5-inside-4_1174_5634)"/>
<mask id="path-6-inside-5_1174_5634" fill="white">
<path d="M1074.52 476.3V315.3H1112.01C1138.23 315.3 1149.5 327.49 1149.5 352.33V362.22C1149.5 378.78 1144.21 389.36 1132.94 393.96V394.42C1145.59 398.33 1149.73 410.29 1149.73 428.46V456.75C1149.73 464.57 1149.96 470.32 1152.49 476.3H1126.73C1125.35 472.16 1124.43 469.63 1124.43 456.52V427.08C1124.43 412.13 1120.06 407.3 1108.56 407.3H1099.82V476.3H1074.52ZM1099.82 384.3H1109.02C1118.45 384.3 1124.2 380.16 1124.2 367.28V354.86C1124.2 343.36 1120.29 338.3 1111.32 338.3H1099.82V384.3Z"/>
<path d="M1164.98 476.3V315.3H1233.98V338.3H1190.28V380.85H1225.01V403.85H1190.28V453.3H1233.98V476.3H1164.98Z"/>
<path d="M1320.75 491.25C1311.32 491.25 1302.58 487.8 1299.59 475.84C1294.76 477.68 1289.01 478.6 1282.8 478.6C1257.96 478.6 1244.39 463.88 1244.39 438.12V353.48C1244.39 327.72 1257.96 313 1282.8 313C1307.64 313 1321.21 327.72 1321.21 353.48V438.12C1321.21 449.16 1318.68 457.9 1314.08 464.57C1315.92 467.79 1318.91 468.25 1323.51 468.25H1327.42V491.25H1320.75ZM1282.8 455.6C1290.85 455.6 1295.91 451.23 1295.91 439.73V351.87C1295.91 340.37 1290.85 336 1282.8 336C1274.75 336 1269.69 340.37 1269.69 351.87V439.73C1269.69 451.23 1274.75 455.6 1282.8 455.6Z"/>
<path d="M1372.82 478.6C1347.98 478.6 1335.1 463.88 1335.1 438.12V315.3H1360.4V439.96C1360.4 451.46 1365.23 455.6 1373.28 455.6C1381.33 455.6 1386.16 451.46 1386.16 439.96V315.3H1410.54V438.12C1410.54 463.88 1397.66 478.6 1372.82 478.6Z"/>
<path d="M1426.26 476.3V315.3H1495.26V338.3H1451.56V380.85H1486.29V403.85H1451.56V453.3H1495.26V476.3H1426.26Z"/>
<path d="M1540.86 478.6C1516.02 478.6 1503.6 463.88 1503.6 438.12V428.92H1527.52V439.96C1527.52 451.46 1532.58 455.6 1540.63 455.6C1548.68 455.6 1553.74 451.46 1553.74 439.5C1553.74 426.16 1548.68 417.65 1532.12 403.16C1510.96 384.53 1504.06 371.42 1504.06 353.02C1504.06 327.72 1517.17 313 1541.78 313C1566.39 313 1578.58 327.72 1578.58 353.48V360.15H1554.66V351.87C1554.66 340.37 1550.06 336 1542.01 336C1533.96 336 1529.36 340.37 1529.36 351.41C1529.36 363.14 1534.65 371.65 1551.21 386.14C1572.37 404.77 1579.04 417.65 1579.04 437.66C1579.04 463.88 1565.7 478.6 1540.86 478.6Z"/>
<path d="M1611.02 476.3V338.3H1584.57V315.3H1662.77V338.3H1636.32V476.3H1611.02Z"/>
</mask>
<path d="M1074.52 476.3V315.3H1112.01C1138.23 315.3 1149.5 327.49 1149.5 352.33V362.22C1149.5 378.78 1144.21 389.36 1132.94 393.96V394.42C1145.59 398.33 1149.73 410.29 1149.73 428.46V456.75C1149.73 464.57 1149.96 470.32 1152.49 476.3H1126.73C1125.35 472.16 1124.43 469.63 1124.43 456.52V427.08C1124.43 412.13 1120.06 407.3 1108.56 407.3H1099.82V476.3H1074.52ZM1099.82 384.3H1109.02C1118.45 384.3 1124.2 380.16 1124.2 367.28V354.86C1124.2 343.36 1120.29 338.3 1111.32 338.3H1099.82V384.3Z" stroke="#F4E046" stroke-width="2" mask="url(#path-6-inside-5_1174_5634)"/>
<path d="M1164.98 476.3V315.3H1233.98V338.3H1190.28V380.85H1225.01V403.85H1190.28V453.3H1233.98V476.3H1164.98Z" stroke="#F4E046" stroke-width="2" mask="url(#path-6-inside-5_1174_5634)"/>
<path d="M1320.75 491.25C1311.32 491.25 1302.58 487.8 1299.59 475.84C1294.76 477.68 1289.01 478.6 1282.8 478.6C1257.96 478.6 1244.39 463.88 1244.39 438.12V353.48C1244.39 327.72 1257.96 313 1282.8 313C1307.64 313 1321.21 327.72 1321.21 353.48V438.12C1321.21 449.16 1318.68 457.9 1314.08 464.57C1315.92 467.79 1318.91 468.25 1323.51 468.25H1327.42V491.25H1320.75ZM1282.8 455.6C1290.85 455.6 1295.91 451.23 1295.91 439.73V351.87C1295.91 340.37 1290.85 336 1282.8 336C1274.75 336 1269.69 340.37 1269.69 351.87V439.73C1269.69 451.23 1274.75 455.6 1282.8 455.6Z" stroke="#F4E046" stroke-width="2" mask="url(#path-6-inside-5_1174_5634)"/>
<path d="M1372.82 478.6C1347.98 478.6 1335.1 463.88 1335.1 438.12V315.3H1360.4V439.96C1360.4 451.46 1365.23 455.6 1373.28 455.6C1381.33 455.6 1386.16 451.46 1386.16 439.96V315.3H1410.54V438.12C1410.54 463.88 1397.66 478.6 1372.82 478.6Z" stroke="#F4E046" stroke-width="2" mask="url(#path-6-inside-5_1174_5634)"/>
<path d="M1426.26 476.3V315.3H1495.26V338.3H1451.56V380.85H1486.29V403.85H1451.56V453.3H1495.26V476.3H1426.26Z" stroke="#F4E046" stroke-width="2" mask="url(#path-6-inside-5_1174_5634)"/>
<path d="M1540.86 478.6C1516.02 478.6 1503.6 463.88 1503.6 438.12V428.92H1527.52V439.96C1527.52 451.46 1532.58 455.6 1540.63 455.6C1548.68 455.6 1553.74 451.46 1553.74 439.5C1553.74 426.16 1548.68 417.65 1532.12 403.16C1510.96 384.53 1504.06 371.42 1504.06 353.02C1504.06 327.72 1517.17 313 1541.78 313C1566.39 313 1578.58 327.72 1578.58 353.48V360.15H1554.66V351.87C1554.66 340.37 1550.06 336 1542.01 336C1533.96 336 1529.36 340.37 1529.36 351.41C1529.36 363.14 1534.65 371.65 1551.21 386.14C1572.37 404.77 1579.04 417.65 1579.04 437.66C1579.04 463.88 1565.7 478.6 1540.86 478.6Z" stroke="#F4E046" stroke-width="2" mask="url(#path-6-inside-5_1174_5634)"/>
<path d="M1611.02 476.3V338.3H1584.57V315.3H1662.77V338.3H1636.32V476.3H1611.02Z" stroke="#F4E046" stroke-width="2" mask="url(#path-6-inside-5_1174_5634)"/>
<mask id="path-7-inside-6_1174_5634" fill="white">
<path d="M-162 864.3V703.3H-124.51C-98.29 703.3 -87.02 715.49 -87.02 740.33V750.22C-87.02 766.78 -92.31 777.36 -103.58 781.96V782.42C-90.93 786.33 -86.79 798.29 -86.79 816.46V844.75C-86.79 852.57 -86.56 858.32 -84.03 864.3H-109.79C-111.17 860.16 -112.09 857.63 -112.09 844.52V815.08C-112.09 800.13 -116.46 795.3 -127.96 795.3H-136.7V864.3H-162ZM-136.7 772.3H-127.5C-118.07 772.3 -112.32 768.16 -112.32 755.28V742.86C-112.32 731.36 -116.23 726.3 -125.2 726.3H-136.7V772.3ZM-71.5363 864.3V703.3H-2.53633V726.3H-46.2363V768.85H-11.5063V791.85H-46.2363V841.3H-2.53633V864.3H-71.5363ZM84.2384 879.25C74.8084 879.25 66.0684 875.8 63.0784 863.84C58.2484 865.68 52.4984 866.6 46.2884 866.6C21.4484 866.6 7.87836 851.88 7.87836 826.12V741.48C7.87836 715.72 21.4484 701 46.2884 701C71.1284 701 84.6983 715.72 84.6983 741.48V826.12C84.6983 837.16 82.1684 845.9 77.5684 852.57C79.4084 855.79 82.3984 856.25 86.9984 856.25H90.9084V879.25H84.2384ZM46.2884 843.6C54.3384 843.6 59.3983 839.23 59.3983 827.73V739.87C59.3983 728.37 54.3384 724 46.2884 724C38.2384 724 33.1784 728.37 33.1784 739.87V827.73C33.1784 839.23 38.2384 843.6 46.2884 843.6ZM136.308 866.6C111.468 866.6 98.5882 851.88 98.5882 826.12V703.3H123.888V827.96C123.888 839.46 128.718 843.6 136.768 843.6C144.818 843.6 149.648 839.46 149.648 827.96V703.3H174.028V826.12C174.028 851.88 161.148 866.6 136.308 866.6ZM189.747 864.3V703.3H258.747V726.3H215.047V768.85H249.777V791.85H215.047V841.3H258.747V864.3H189.747ZM304.341 866.6C279.501 866.6 267.081 851.88 267.081 826.12V816.92H291.001V827.96C291.001 839.46 296.061 843.6 304.111 843.6C312.161 843.6 317.221 839.46 317.221 827.5C317.221 814.16 312.161 805.65 295.601 791.16C274.441 772.53 267.541 759.42 267.541 741.02C267.541 715.72 280.651 701 305.261 701C329.871 701 342.061 715.72 342.061 741.48V748.15H318.141V739.87C318.141 728.37 313.541 724 305.491 724C297.441 724 292.841 728.37 292.841 739.41C292.841 751.14 298.131 759.65 314.691 774.14C335.851 792.77 342.521 805.65 342.521 825.66C342.521 851.88 329.181 866.6 304.341 866.6ZM374.507 864.3V726.3H348.057V703.3H426.257V726.3H399.807V864.3H374.507Z"/>
</mask>
<path d="M-162 864.3V703.3H-124.51C-98.29 703.3 -87.02 715.49 -87.02 740.33V750.22C-87.02 766.78 -92.31 777.36 -103.58 781.96V782.42C-90.93 786.33 -86.79 798.29 -86.79 816.46V844.75C-86.79 852.57 -86.56 858.32 -84.03 864.3H-109.79C-111.17 860.16 -112.09 857.63 -112.09 844.52V815.08C-112.09 800.13 -116.46 795.3 -127.96 795.3H-136.7V864.3H-162ZM-136.7 772.3H-127.5C-118.07 772.3 -112.32 768.16 -112.32 755.28V742.86C-112.32 731.36 -116.23 726.3 -125.2 726.3H-136.7V772.3ZM-71.5363 864.3V703.3H-2.53633V726.3H-46.2363V768.85H-11.5063V791.85H-46.2363V841.3H-2.53633V864.3H-71.5363ZM84.2384 879.25C74.8084 879.25 66.0684 875.8 63.0784 863.84C58.2484 865.68 52.4984 866.6 46.2884 866.6C21.4484 866.6 7.87836 851.88 7.87836 826.12V741.48C7.87836 715.72 21.4484 701 46.2884 701C71.1284 701 84.6983 715.72 84.6983 741.48V826.12C84.6983 837.16 82.1684 845.9 77.5684 852.57C79.4084 855.79 82.3984 856.25 86.9984 856.25H90.9084V879.25H84.2384ZM46.2884 843.6C54.3384 843.6 59.3983 839.23 59.3983 827.73V739.87C59.3983 728.37 54.3384 724 46.2884 724C38.2384 724 33.1784 728.37 33.1784 739.87V827.73C33.1784 839.23 38.2384 843.6 46.2884 843.6ZM136.308 866.6C111.468 866.6 98.5882 851.88 98.5882 826.12V703.3H123.888V827.96C123.888 839.46 128.718 843.6 136.768 843.6C144.818 843.6 149.648 839.46 149.648 827.96V703.3H174.028V826.12C174.028 851.88 161.148 866.6 136.308 866.6ZM189.747 864.3V703.3H258.747V726.3H215.047V768.85H249.777V791.85H215.047V841.3H258.747V864.3H189.747ZM304.341 866.6C279.501 866.6 267.081 851.88 267.081 826.12V816.92H291.001V827.96C291.001 839.46 296.061 843.6 304.111 843.6C312.161 843.6 317.221 839.46 317.221 827.5C317.221 814.16 312.161 805.65 295.601 791.16C274.441 772.53 267.541 759.42 267.541 741.02C267.541 715.72 280.651 701 305.261 701C329.871 701 342.061 715.72 342.061 741.48V748.15H318.141V739.87C318.141 728.37 313.541 724 305.491 724C297.441 724 292.841 728.37 292.841 739.41C292.841 751.14 298.131 759.65 314.691 774.14C335.851 792.77 342.521 805.65 342.521 825.66C342.521 851.88 329.181 866.6 304.341 866.6ZM374.507 864.3V726.3H348.057V703.3H426.257V726.3H399.807V864.3H374.507Z" stroke="#F4E046" stroke-width="2" mask="url(#path-7-inside-6_1174_5634)"/>
<mask id="path-8-inside-7_1174_5634" fill="white">
<path d="M456.258 864.3V703.3H493.748C519.968 703.3 531.238 715.49 531.238 740.33V750.22C531.238 766.78 525.948 777.36 514.678 781.96V782.42C527.328 786.33 531.468 798.29 531.468 816.46V844.75C531.468 852.57 531.698 858.32 534.228 864.3H508.468C507.088 860.16 506.168 857.63 506.168 844.52V815.08C506.168 800.13 501.798 795.3 490.298 795.3H481.558V864.3H456.258ZM481.558 772.3H490.758C500.188 772.3 505.938 768.16 505.938 755.28V742.86C505.938 731.36 502.028 726.3 493.058 726.3H481.558V772.3ZM546.721 864.3V703.3H615.721V726.3H572.021V768.85H606.751V791.85H572.021V841.3H615.721V864.3H546.721ZM702.496 879.25C693.066 879.25 684.326 875.8 681.336 863.84C676.506 865.68 670.756 866.6 664.546 866.6C639.706 866.6 626.136 851.88 626.136 826.12V741.48C626.136 715.72 639.706 701 664.546 701C689.386 701 702.956 715.72 702.956 741.48V826.12C702.956 837.16 700.426 845.9 695.826 852.57C697.666 855.79 700.656 856.25 705.256 856.25H709.166V879.25H702.496ZM664.546 843.6C672.596 843.6 677.656 839.23 677.656 827.73V739.87C677.656 728.37 672.596 724 664.546 724C656.496 724 651.436 728.37 651.436 739.87V827.73C651.436 839.23 656.496 843.6 664.546 843.6ZM754.566 866.6C729.726 866.6 716.846 851.88 716.846 826.12V703.3H742.146V827.96C742.146 839.46 746.976 843.6 755.026 843.6C763.076 843.6 767.906 839.46 767.906 827.96V703.3H792.286V826.12C792.286 851.88 779.406 866.6 754.566 866.6ZM808.005 864.3V703.3H877.005V726.3H833.305V768.85H868.035V791.85H833.305V841.3H877.005V864.3H808.005ZM922.599 866.6C897.759 866.6 885.339 851.88 885.339 826.12V816.92H909.259V827.96C909.259 839.46 914.319 843.6 922.369 843.6C930.419 843.6 935.479 839.46 935.479 827.5C935.479 814.16 930.419 805.65 913.859 791.16C892.699 772.53 885.799 759.42 885.799 741.02C885.799 715.72 898.909 701 923.519 701C948.129 701 960.319 715.72 960.319 741.48V748.15H936.399V739.87C936.399 728.37 931.799 724 923.749 724C915.699 724 911.099 728.37 911.099 739.41C911.099 751.14 916.389 759.65 932.949 774.14C954.109 792.77 960.779 805.65 960.779 825.66C960.779 851.88 947.439 866.6 922.599 866.6ZM992.765 864.3V726.3H966.315V703.3H1044.52V726.3H1018.07V864.3H992.765Z"/>
</mask>
<path d="M456.258 864.3V703.3H493.748C519.968 703.3 531.238 715.49 531.238 740.33V750.22C531.238 766.78 525.948 777.36 514.678 781.96V782.42C527.328 786.33 531.468 798.29 531.468 816.46V844.75C531.468 852.57 531.698 858.32 534.228 864.3H508.468C507.088 860.16 506.168 857.63 506.168 844.52V815.08C506.168 800.13 501.798 795.3 490.298 795.3H481.558V864.3H456.258ZM481.558 772.3H490.758C500.188 772.3 505.938 768.16 505.938 755.28V742.86C505.938 731.36 502.028 726.3 493.058 726.3H481.558V772.3ZM546.721 864.3V703.3H615.721V726.3H572.021V768.85H606.751V791.85H572.021V841.3H615.721V864.3H546.721ZM702.496 879.25C693.066 879.25 684.326 875.8 681.336 863.84C676.506 865.68 670.756 866.6 664.546 866.6C639.706 866.6 626.136 851.88 626.136 826.12V741.48C626.136 715.72 639.706 701 664.546 701C689.386 701 702.956 715.72 702.956 741.48V826.12C702.956 837.16 700.426 845.9 695.826 852.57C697.666 855.79 700.656 856.25 705.256 856.25H709.166V879.25H702.496ZM664.546 843.6C672.596 843.6 677.656 839.23 677.656 827.73V739.87C677.656 728.37 672.596 724 664.546 724C656.496 724 651.436 728.37 651.436 739.87V827.73C651.436 839.23 656.496 843.6 664.546 843.6ZM754.566 866.6C729.726 866.6 716.846 851.88 716.846 826.12V703.3H742.146V827.96C742.146 839.46 746.976 843.6 755.026 843.6C763.076 843.6 767.906 839.46 767.906 827.96V703.3H792.286V826.12C792.286 851.88 779.406 866.6 754.566 866.6ZM808.005 864.3V703.3H877.005V726.3H833.305V768.85H868.035V791.85H833.305V841.3H877.005V864.3H808.005ZM922.599 866.6C897.759 866.6 885.339 851.88 885.339 826.12V816.92H909.259V827.96C909.259 839.46 914.319 843.6 922.369 843.6C930.419 843.6 935.479 839.46 935.479 827.5C935.479 814.16 930.419 805.65 913.859 791.16C892.699 772.53 885.799 759.42 885.799 741.02C885.799 715.72 898.909 701 923.519 701C948.129 701 960.319 715.72 960.319 741.48V748.15H936.399V739.87C936.399 728.37 931.799 724 923.749 724C915.699 724 911.099 728.37 911.099 739.41C911.099 751.14 916.389 759.65 932.949 774.14C954.109 792.77 960.779 805.65 960.779 825.66C960.779 851.88 947.439 866.6 922.599 866.6ZM992.765 864.3V726.3H966.315V703.3H1044.52V726.3H1018.07V864.3H992.765Z" stroke="#F4E046" stroke-width="2" mask="url(#path-8-inside-7_1174_5634)"/>
<mask id="path-9-inside-8_1174_5634" fill="white">
<path d="M1074.52 864.3V703.3H1112.01C1138.23 703.3 1149.5 715.49 1149.5 740.33V750.22C1149.5 766.78 1144.21 777.36 1132.94 781.96V782.42C1145.59 786.33 1149.73 798.29 1149.73 816.46V844.75C1149.73 852.57 1149.96 858.32 1152.49 864.3H1126.73C1125.35 860.16 1124.43 857.63 1124.43 844.52V815.08C1124.43 800.13 1120.06 795.3 1108.56 795.3H1099.82V864.3H1074.52ZM1099.82 772.3H1109.02C1118.45 772.3 1124.2 768.16 1124.2 755.28V742.86C1124.2 731.36 1120.29 726.3 1111.32 726.3H1099.82V772.3Z"/>
<path d="M1164.98 864.3V703.3H1233.98V726.3H1190.28V768.85H1225.01V791.85H1190.28V841.3H1233.98V864.3H1164.98Z"/>
<path d="M1320.75 879.25C1311.32 879.25 1302.58 875.8 1299.59 863.84C1294.76 865.68 1289.01 866.6 1282.8 866.6C1257.96 866.6 1244.39 851.88 1244.39 826.12V741.48C1244.39 715.72 1257.96 701 1282.8 701C1307.64 701 1321.21 715.72 1321.21 741.48V826.12C1321.21 837.16 1318.68 845.9 1314.08 852.57C1315.92 855.79 1318.91 856.25 1323.51 856.25H1327.42V879.25H1320.75ZM1282.8 843.6C1290.85 843.6 1295.91 839.23 1295.91 827.73V739.87C1295.91 728.37 1290.85 724 1282.8 724C1274.75 724 1269.69 728.37 1269.69 739.87V827.73C1269.69 839.23 1274.75 843.6 1282.8 843.6Z"/>
<path d="M1372.82 866.6C1347.98 866.6 1335.1 851.88 1335.1 826.12V703.3H1360.4V827.96C1360.4 839.46 1365.23 843.6 1373.28 843.6C1381.33 843.6 1386.16 839.46 1386.16 827.96V703.3H1410.54V826.12C1410.54 851.88 1397.66 866.6 1372.82 866.6Z"/>
<path d="M1426.26 864.3V703.3H1495.26V726.3H1451.56V768.85H1486.29V791.85H1451.56V841.3H1495.26V864.3H1426.26Z"/>
<path d="M1540.86 866.6C1516.02 866.6 1503.6 851.88 1503.6 826.12V816.92H1527.52V827.96C1527.52 839.46 1532.58 843.6 1540.63 843.6C1548.68 843.6 1553.74 839.46 1553.74 827.5C1553.74 814.16 1548.68 805.65 1532.12 791.16C1510.96 772.53 1504.06 759.42 1504.06 741.02C1504.06 715.72 1517.17 701 1541.78 701C1566.39 701 1578.58 715.72 1578.58 741.48V748.15H1554.66V739.87C1554.66 728.37 1550.06 724 1542.01 724C1533.96 724 1529.36 728.37 1529.36 739.41C1529.36 751.14 1534.65 759.65 1551.21 774.14C1572.37 792.77 1579.04 805.65 1579.04 825.66C1579.04 851.88 1565.7 866.6 1540.86 866.6Z"/>
<path d="M1611.02 864.3V726.3H1584.57V703.3H1662.77V726.3H1636.32V864.3H1611.02Z"/>
</mask>
<path d="M1074.52 864.3V703.3H1112.01C1138.23 703.3 1149.5 715.49 1149.5 740.33V750.22C1149.5 766.78 1144.21 777.36 1132.94 781.96V782.42C1145.59 786.33 1149.73 798.29 1149.73 816.46V844.75C1149.73 852.57 1149.96 858.32 1152.49 864.3H1126.73C1125.35 860.16 1124.43 857.63 1124.43 844.52V815.08C1124.43 800.13 1120.06 795.3 1108.56 795.3H1099.82V864.3H1074.52ZM1099.82 772.3H1109.02C1118.45 772.3 1124.2 768.16 1124.2 755.28V742.86C1124.2 731.36 1120.29 726.3 1111.32 726.3H1099.82V772.3Z" stroke="#F4E046" stroke-width="2" mask="url(#path-9-inside-8_1174_5634)"/>
<path d="M1164.98 864.3V703.3H1233.98V726.3H1190.28V768.85H1225.01V791.85H1190.28V841.3H1233.98V864.3H1164.98Z" stroke="#F4E046" stroke-width="2" mask="url(#path-9-inside-8_1174_5634)"/>
<path d="M1320.75 879.25C1311.32 879.25 1302.58 875.8 1299.59 863.84C1294.76 865.68 1289.01 866.6 1282.8 866.6C1257.96 866.6 1244.39 851.88 1244.39 826.12V741.48C1244.39 715.72 1257.96 701 1282.8 701C1307.64 701 1321.21 715.72 1321.21 741.48V826.12C1321.21 837.16 1318.68 845.9 1314.08 852.57C1315.92 855.79 1318.91 856.25 1323.51 856.25H1327.42V879.25H1320.75ZM1282.8 843.6C1290.85 843.6 1295.91 839.23 1295.91 827.73V739.87C1295.91 728.37 1290.85 724 1282.8 724C1274.75 724 1269.69 728.37 1269.69 739.87V827.73C1269.69 839.23 1274.75 843.6 1282.8 843.6Z" stroke="#F4E046" stroke-width="2" mask="url(#path-9-inside-8_1174_5634)"/>
<path d="M1372.82 866.6C1347.98 866.6 1335.1 851.88 1335.1 826.12V703.3H1360.4V827.96C1360.4 839.46 1365.23 843.6 1373.28 843.6C1381.33 843.6 1386.16 839.46 1386.16 827.96V703.3H1410.54V826.12C1410.54 851.88 1397.66 866.6 1372.82 866.6Z" stroke="#F4E046" stroke-width="2" mask="url(#path-9-inside-8_1174_5634)"/>
<path d="M1426.26 864.3V703.3H1495.26V726.3H1451.56V768.85H1486.29V791.85H1451.56V841.3H1495.26V864.3H1426.26Z" stroke="#F4E046" stroke-width="2" mask="url(#path-9-inside-8_1174_5634)"/>
<path d="M1540.86 866.6C1516.02 866.6 1503.6 851.88 1503.6 826.12V816.92H1527.52V827.96C1527.52 839.46 1532.58 843.6 1540.63 843.6C1548.68 843.6 1553.74 839.46 1553.74 827.5C1553.74 814.16 1548.68 805.65 1532.12 791.16C1510.96 772.53 1504.06 759.42 1504.06 741.02C1504.06 715.72 1517.17 701 1541.78 701C1566.39 701 1578.58 715.72 1578.58 741.48V748.15H1554.66V739.87C1554.66 728.37 1550.06 724 1542.01 724C1533.96 724 1529.36 728.37 1529.36 739.41C1529.36 751.14 1534.65 759.65 1551.21 774.14C1572.37 792.77 1579.04 805.65 1579.04 825.66C1579.04 851.88 1565.7 866.6 1540.86 866.6Z" stroke="#F4E046" stroke-width="2" mask="url(#path-9-inside-8_1174_5634)"/>
<path d="M1611.02 864.3V726.3H1584.57V703.3H1662.77V726.3H1636.32V864.3H1611.02Z" stroke="#F4E046" stroke-width="2" mask="url(#path-9-inside-8_1174_5634)"/>
<mask id="path-10-inside-9_1174_5634" fill="white">
<path d="M16 94.3V-66.7H53.49C79.71 -66.7 90.98 -54.51 90.98 -29.67V-19.78C90.98 -3.21999 85.69 7.36 74.42 11.96V12.42C87.07 16.33 91.21 28.29 91.21 46.46V74.75C91.21 82.57 91.44 88.32 93.97 94.3H68.21C66.83 90.16 65.91 87.63 65.91 74.52V45.08C65.91 30.13 61.54 25.3 50.04 25.3H41.3V94.3H16ZM41.3 2.30001H50.5C59.93 2.30001 65.68 -1.84 65.68 -14.72V-27.14C65.68 -38.64 61.77 -43.7 52.8 -43.7H41.3V2.30001ZM106.464 94.3V-66.7H175.464V-43.7H131.764V-1.14999H166.494V21.85H131.764V71.3H175.464V94.3H106.464ZM262.238 109.25C252.808 109.25 244.068 105.8 241.078 93.84C236.248 95.68 230.498 96.6 224.288 96.6C199.448 96.6 185.878 81.88 185.878 56.12V-28.52C185.878 -54.28 199.448 -69 224.288 -69C249.128 -69 262.698 -54.28 262.698 -28.52V56.12C262.698 67.16 260.168 75.9 255.568 82.57C257.408 85.79 260.398 86.25 264.998 86.25H268.908V109.25H262.238ZM224.288 73.6C232.338 73.6 237.398 69.23 237.398 57.73V-30.13C237.398 -41.63 232.338 -46 224.288 -46C216.238 -46 211.178 -41.63 211.178 -30.13V57.73C211.178 69.23 216.238 73.6 224.288 73.6ZM314.308 96.6C289.468 96.6 276.588 81.88 276.588 56.12V-66.7H301.888V57.96C301.888 69.46 306.718 73.6 314.768 73.6C322.818 73.6 327.648 69.46 327.648 57.96V-66.7H352.028V56.12C352.028 81.88 339.148 96.6 314.308 96.6ZM367.747 94.3V-66.7H436.747V-43.7H393.047V-1.14999H427.777V21.85H393.047V71.3H436.747V94.3H367.747ZM482.341 96.6C457.501 96.6 445.081 81.88 445.081 56.12V46.92H469.001V57.96C469.001 69.46 474.061 73.6 482.111 73.6C490.161 73.6 495.221 69.46 495.221 57.5C495.221 44.16 490.161 35.65 473.601 21.16C452.441 2.53001 445.541 -10.58 445.541 -28.98C445.541 -54.28 458.651 -69 483.261 -69C507.871 -69 520.061 -54.28 520.061 -28.52V-21.85H496.141V-30.13C496.141 -41.63 491.541 -46 483.491 -46C475.441 -46 470.841 -41.63 470.841 -30.59C470.841 -18.86 476.131 -10.35 492.691 4.14001C513.851 22.77 520.521 35.65 520.521 55.66C520.521 81.88 507.181 96.6 482.341 96.6ZM552.507 94.3V-43.7H526.057V-66.7H604.257V-43.7H577.807V94.3H552.507Z"/>
</mask>
<path d="M16 94.3V-66.7H53.49C79.71 -66.7 90.98 -54.51 90.98 -29.67V-19.78C90.98 -3.21999 85.69 7.36 74.42 11.96V12.42C87.07 16.33 91.21 28.29 91.21 46.46V74.75C91.21 82.57 91.44 88.32 93.97 94.3H68.21C66.83 90.16 65.91 87.63 65.91 74.52V45.08C65.91 30.13 61.54 25.3 50.04 25.3H41.3V94.3H16ZM41.3 2.30001H50.5C59.93 2.30001 65.68 -1.84 65.68 -14.72V-27.14C65.68 -38.64 61.77 -43.7 52.8 -43.7H41.3V2.30001ZM106.464 94.3V-66.7H175.464V-43.7H131.764V-1.14999H166.494V21.85H131.764V71.3H175.464V94.3H106.464ZM262.238 109.25C252.808 109.25 244.068 105.8 241.078 93.84C236.248 95.68 230.498 96.6 224.288 96.6C199.448 96.6 185.878 81.88 185.878 56.12V-28.52C185.878 -54.28 199.448 -69 224.288 -69C249.128 -69 262.698 -54.28 262.698 -28.52V56.12C262.698 67.16 260.168 75.9 255.568 82.57C257.408 85.79 260.398 86.25 264.998 86.25H268.908V109.25H262.238ZM224.288 73.6C232.338 73.6 237.398 69.23 237.398 57.73V-30.13C237.398 -41.63 232.338 -46 224.288 -46C216.238 -46 211.178 -41.63 211.178 -30.13V57.73C211.178 69.23 216.238 73.6 224.288 73.6ZM314.308 96.6C289.468 96.6 276.588 81.88 276.588 56.12V-66.7H301.888V57.96C301.888 69.46 306.718 73.6 314.768 73.6C322.818 73.6 327.648 69.46 327.648 57.96V-66.7H352.028V56.12C352.028 81.88 339.148 96.6 314.308 96.6ZM367.747 94.3V-66.7H436.747V-43.7H393.047V-1.14999H427.777V21.85H393.047V71.3H436.747V94.3H367.747ZM482.341 96.6C457.501 96.6 445.081 81.88 445.081 56.12V46.92H469.001V57.96C469.001 69.46 474.061 73.6 482.111 73.6C490.161 73.6 495.221 69.46 495.221 57.5C495.221 44.16 490.161 35.65 473.601 21.16C452.441 2.53001 445.541 -10.58 445.541 -28.98C445.541 -54.28 458.651 -69 483.261 -69C507.871 -69 520.061 -54.28 520.061 -28.52V-21.85H496.141V-30.13C496.141 -41.63 491.541 -46 483.491 -46C475.441 -46 470.841 -41.63 470.841 -30.59C470.841 -18.86 476.131 -10.35 492.691 4.14001C513.851 22.77 520.521 35.65 520.521 55.66C520.521 81.88 507.181 96.6 482.341 96.6ZM552.507 94.3V-43.7H526.057V-66.7H604.257V-43.7H577.807V94.3H552.507Z" stroke="#F4E046" stroke-width="2" mask="url(#path-10-inside-9_1174_5634)"/>
<mask id="path-11-inside-10_1174_5634" fill="white">
<path d="M634.258 94.3V-66.7H671.748C697.968 -66.7 709.238 -54.51 709.238 -29.67V-19.78C709.238 -3.21999 703.948 7.36 692.678 11.96V12.42C705.328 16.33 709.468 28.29 709.468 46.46V74.75C709.468 82.57 709.698 88.32 712.228 94.3H686.468C685.088 90.16 684.168 87.63 684.168 74.52V45.08C684.168 30.13 679.798 25.3 668.298 25.3H659.558V94.3H634.258ZM659.558 2.30001H668.758C678.188 2.30001 683.938 -1.84 683.938 -14.72V-27.14C683.938 -38.64 680.028 -43.7 671.058 -43.7H659.558V2.30001Z"/>
<path d="M724.721 94.3V-66.7H793.721V-43.7H750.021V-1.14999H784.751V21.85H750.021V71.3H793.721V94.3H724.721Z"/>
<path d="M880.496 109.25C871.066 109.25 862.326 105.8 859.336 93.84C854.506 95.68 848.756 96.6 842.546 96.6C817.706 96.6 804.136 81.88 804.136 56.12V-28.52C804.136 -54.28 817.706 -69 842.546 -69C867.386 -69 880.956 -54.28 880.956 -28.52V56.12C880.956 67.16 878.426 75.9 873.826 82.57C875.666 85.79 878.656 86.25 883.256 86.25H887.166V109.25H880.496ZM842.546 73.6C850.596 73.6 855.656 69.23 855.656 57.73V-30.13C855.656 -41.63 850.596 -46 842.546 -46C834.496 -46 829.436 -41.63 829.436 -30.13V57.73C829.436 69.23 834.496 73.6 842.546 73.6Z"/>
<path d="M932.566 96.6C907.726 96.6 894.846 81.88 894.846 56.12V-66.7H920.146V57.96C920.146 69.46 924.976 73.6 933.026 73.6C941.076 73.6 945.906 69.46 945.906 57.96V-66.7H970.286V56.12C970.286 81.88 957.406 96.6 932.566 96.6Z"/>
<path d="M986.005 94.3V-66.7H1055.01V-43.7H1011.31V-1.14999H1046.04V21.85H1011.31V71.3H1055.01V94.3H986.005Z"/>
<path d="M1100.6 96.6C1075.76 96.6 1063.34 81.88 1063.34 56.12V46.92H1087.26V57.96C1087.26 69.46 1092.32 73.6 1100.37 73.6C1108.42 73.6 1113.48 69.46 1113.48 57.5C1113.48 44.16 1108.42 35.65 1091.86 21.16C1070.7 2.53001 1063.8 -10.58 1063.8 -28.98C1063.8 -54.28 1076.91 -69 1101.52 -69C1126.13 -69 1138.32 -54.28 1138.32 -28.52V-21.85H1114.4V-30.13C1114.4 -41.63 1109.8 -46 1101.75 -46C1093.7 -46 1089.1 -41.63 1089.1 -30.59C1089.1 -18.86 1094.39 -10.35 1110.95 4.14001C1132.11 22.77 1138.78 35.65 1138.78 55.66C1138.78 81.88 1125.44 96.6 1100.6 96.6Z"/>
<path d="M1170.77 94.3V-43.7H1144.32V-66.7H1222.52V-43.7H1196.07V94.3H1170.77Z"/>
</mask>
<path d="M634.258 94.3V-66.7H671.748C697.968 -66.7 709.238 -54.51 709.238 -29.67V-19.78C709.238 -3.21999 703.948 7.36 692.678 11.96V12.42C705.328 16.33 709.468 28.29 709.468 46.46V74.75C709.468 82.57 709.698 88.32 712.228 94.3H686.468C685.088 90.16 684.168 87.63 684.168 74.52V45.08C684.168 30.13 679.798 25.3 668.298 25.3H659.558V94.3H634.258ZM659.558 2.30001H668.758C678.188 2.30001 683.938 -1.84 683.938 -14.72V-27.14C683.938 -38.64 680.028 -43.7 671.058 -43.7H659.558V2.30001Z" stroke="#F4E046" stroke-width="2" mask="url(#path-11-inside-10_1174_5634)"/>
<path d="M724.721 94.3V-66.7H793.721V-43.7H750.021V-1.14999H784.751V21.85H750.021V71.3H793.721V94.3H724.721Z" stroke="#F4E046" stroke-width="2" mask="url(#path-11-inside-10_1174_5634)"/>
<path d="M880.496 109.25C871.066 109.25 862.326 105.8 859.336 93.84C854.506 95.68 848.756 96.6 842.546 96.6C817.706 96.6 804.136 81.88 804.136 56.12V-28.52C804.136 -54.28 817.706 -69 842.546 -69C867.386 -69 880.956 -54.28 880.956 -28.52V56.12C880.956 67.16 878.426 75.9 873.826 82.57C875.666 85.79 878.656 86.25 883.256 86.25H887.166V109.25H880.496ZM842.546 73.6C850.596 73.6 855.656 69.23 855.656 57.73V-30.13C855.656 -41.63 850.596 -46 842.546 -46C834.496 -46 829.436 -41.63 829.436 -30.13V57.73C829.436 69.23 834.496 73.6 842.546 73.6Z" stroke="#F4E046" stroke-width="2" mask="url(#path-11-inside-10_1174_5634)"/>
<path d="M932.566 96.6C907.726 96.6 894.846 81.88 894.846 56.12V-66.7H920.146V57.96C920.146 69.46 924.976 73.6 933.026 73.6C941.076 73.6 945.906 69.46 945.906 57.96V-66.7H970.286V56.12C970.286 81.88 957.406 96.6 932.566 96.6Z" stroke="#F4E046" stroke-width="2" mask="url(#path-11-inside-10_1174_5634)"/>
<path d="M986.005 94.3V-66.7H1055.01V-43.7H1011.31V-1.14999H1046.04V21.85H1011.31V71.3H1055.01V94.3H986.005Z" stroke="#F4E046" stroke-width="2" mask="url(#path-11-inside-10_1174_5634)"/>
<path d="M1100.6 96.6C1075.76 96.6 1063.34 81.88 1063.34 56.12V46.92H1087.26V57.96C1087.26 69.46 1092.32 73.6 1100.37 73.6C1108.42 73.6 1113.48 69.46 1113.48 57.5C1113.48 44.16 1108.42 35.65 1091.86 21.16C1070.7 2.53001 1063.8 -10.58 1063.8 -28.98C1063.8 -54.28 1076.91 -69 1101.52 -69C1126.13 -69 1138.32 -54.28 1138.32 -28.52V-21.85H1114.4V-30.13C1114.4 -41.63 1109.8 -46 1101.75 -46C1093.7 -46 1089.1 -41.63 1089.1 -30.59C1089.1 -18.86 1094.39 -10.35 1110.95 4.14001C1132.11 22.77 1138.78 35.65 1138.78 55.66C1138.78 81.88 1125.44 96.6 1100.6 96.6Z" stroke="#F4E046" stroke-width="2" mask="url(#path-11-inside-10_1174_5634)"/>
<path d="M1170.77 94.3V-43.7H1144.32V-66.7H1222.52V-43.7H1196.07V94.3H1170.77Z" stroke="#F4E046" stroke-width="2" mask="url(#path-11-inside-10_1174_5634)"/>
<mask id="path-12-inside-11_1174_5634" fill="white">
<path d="M-100 282.3V121.3H-62.51C-36.29 121.3 -25.02 133.49 -25.02 158.33V168.22C-25.02 184.78 -30.31 195.36 -41.58 199.96V200.42C-28.93 204.33 -24.79 216.29 -24.79 234.46V262.75C-24.79 270.57 -24.56 276.32 -22.03 282.3H-47.79C-49.17 278.16 -50.09 275.63 -50.09 262.52V233.08C-50.09 218.13 -54.46 213.3 -65.96 213.3H-74.7V282.3H-100ZM-74.7 190.3H-65.5C-56.07 190.3 -50.32 186.16 -50.32 173.28V160.86C-50.32 149.36 -54.23 144.3 -63.2 144.3H-74.7V190.3ZM-9.53633 282.3V121.3H59.4637V144.3H15.7637V186.85H50.4937V209.85H15.7637V259.3H59.4637V282.3H-9.53633ZM146.238 297.25C136.808 297.25 128.068 293.8 125.078 281.84C120.248 283.68 114.498 284.6 108.288 284.6C83.4484 284.6 69.8784 269.88 69.8784 244.12V159.48C69.8784 133.72 83.4484 119 108.288 119C133.128 119 146.698 133.72 146.698 159.48V244.12C146.698 255.16 144.168 263.9 139.568 270.57C141.408 273.79 144.398 274.25 148.998 274.25H152.908V297.25H146.238ZM108.288 261.6C116.338 261.6 121.398 257.23 121.398 245.73V157.87C121.398 146.37 116.338 142 108.288 142C100.238 142 95.1784 146.37 95.1784 157.87V245.73C95.1784 257.23 100.238 261.6 108.288 261.6ZM198.308 284.6C173.468 284.6 160.588 269.88 160.588 244.12V121.3H185.888V245.96C185.888 257.46 190.718 261.6 198.768 261.6C206.818 261.6 211.648 257.46 211.648 245.96V121.3H236.028V244.12C236.028 269.88 223.148 284.6 198.308 284.6ZM251.747 282.3V121.3H320.747V144.3H277.047V186.85H311.777V209.85H277.047V259.3H320.747V282.3H251.747ZM366.341 284.6C341.501 284.6 329.081 269.88 329.081 244.12V234.92H353.001V245.96C353.001 257.46 358.061 261.6 366.111 261.6C374.161 261.6 379.221 257.46 379.221 245.5C379.221 232.16 374.161 223.65 357.601 209.16C336.441 190.53 329.541 177.42 329.541 159.02C329.541 133.72 342.651 119 367.261 119C391.871 119 404.061 133.72 404.061 159.48V166.15H380.141V157.87C380.141 146.37 375.541 142 367.491 142C359.441 142 354.841 146.37 354.841 157.41C354.841 169.14 360.131 177.65 376.691 192.14C397.851 210.77 404.521 223.65 404.521 243.66C404.521 269.88 391.181 284.6 366.341 284.6ZM436.507 282.3V144.3H410.057V121.3H488.257V144.3H461.807V282.3H436.507Z"/>
</mask>
<path d="M-100 282.3V121.3H-62.51C-36.29 121.3 -25.02 133.49 -25.02 158.33V168.22C-25.02 184.78 -30.31 195.36 -41.58 199.96V200.42C-28.93 204.33 -24.79 216.29 -24.79 234.46V262.75C-24.79 270.57 -24.56 276.32 -22.03 282.3H-47.79C-49.17 278.16 -50.09 275.63 -50.09 262.52V233.08C-50.09 218.13 -54.46 213.3 -65.96 213.3H-74.7V282.3H-100ZM-74.7 190.3H-65.5C-56.07 190.3 -50.32 186.16 -50.32 173.28V160.86C-50.32 149.36 -54.23 144.3 -63.2 144.3H-74.7V190.3ZM-9.53633 282.3V121.3H59.4637V144.3H15.7637V186.85H50.4937V209.85H15.7637V259.3H59.4637V282.3H-9.53633ZM146.238 297.25C136.808 297.25 128.068 293.8 125.078 281.84C120.248 283.68 114.498 284.6 108.288 284.6C83.4484 284.6 69.8784 269.88 69.8784 244.12V159.48C69.8784 133.72 83.4484 119 108.288 119C133.128 119 146.698 133.72 146.698 159.48V244.12C146.698 255.16 144.168 263.9 139.568 270.57C141.408 273.79 144.398 274.25 148.998 274.25H152.908V297.25H146.238ZM108.288 261.6C116.338 261.6 121.398 257.23 121.398 245.73V157.87C121.398 146.37 116.338 142 108.288 142C100.238 142 95.1784 146.37 95.1784 157.87V245.73C95.1784 257.23 100.238 261.6 108.288 261.6ZM198.308 284.6C173.468 284.6 160.588 269.88 160.588 244.12V121.3H185.888V245.96C185.888 257.46 190.718 261.6 198.768 261.6C206.818 261.6 211.648 257.46 211.648 245.96V121.3H236.028V244.12C236.028 269.88 223.148 284.6 198.308 284.6ZM251.747 282.3V121.3H320.747V144.3H277.047V186.85H311.777V209.85H277.047V259.3H320.747V282.3H251.747ZM366.341 284.6C341.501 284.6 329.081 269.88 329.081 244.12V234.92H353.001V245.96C353.001 257.46 358.061 261.6 366.111 261.6C374.161 261.6 379.221 257.46 379.221 245.5C379.221 232.16 374.161 223.65 357.601 209.16C336.441 190.53 329.541 177.42 329.541 159.02C329.541 133.72 342.651 119 367.261 119C391.871 119 404.061 133.72 404.061 159.48V166.15H380.141V157.87C380.141 146.37 375.541 142 367.491 142C359.441 142 354.841 146.37 354.841 157.41C354.841 169.14 360.131 177.65 376.691 192.14C397.851 210.77 404.521 223.65 404.521 243.66C404.521 269.88 391.181 284.6 366.341 284.6ZM436.507 282.3V144.3H410.057V121.3H488.257V144.3H461.807V282.3H436.507Z" stroke="#F4E046" stroke-width="2" mask="url(#path-12-inside-11_1174_5634)"/>
<mask id="path-13-inside-12_1174_5634" fill="white">
<path d="M518.258 282.3V121.3H555.748C581.968 121.3 593.238 133.49 593.238 158.33V168.22C593.238 184.78 587.948 195.36 576.678 199.96V200.42C589.328 204.33 593.468 216.29 593.468 234.46V262.75C593.468 270.57 593.698 276.32 596.228 282.3H570.468C569.088 278.16 568.168 275.63 568.168 262.52V233.08C568.168 218.13 563.798 213.3 552.298 213.3H543.558V282.3H518.258ZM543.558 190.3H552.758C562.188 190.3 567.938 186.16 567.938 173.28V160.86C567.938 149.36 564.028 144.3 555.058 144.3H543.558V190.3Z"/>
<path d="M608.721 282.3V121.3H677.721V144.3H634.021V186.85H668.751V209.85H634.021V259.3H677.721V282.3H608.721Z"/>
<path d="M764.496 297.25C755.066 297.25 746.326 293.8 743.336 281.84C738.506 283.68 732.756 284.6 726.546 284.6C701.706 284.6 688.136 269.88 688.136 244.12V159.48C688.136 133.72 701.706 119 726.546 119C751.386 119 764.956 133.72 764.956 159.48V244.12C764.956 255.16 762.426 263.9 757.826 270.57C759.666 273.79 762.656 274.25 767.256 274.25H771.166V297.25H764.496ZM726.546 261.6C734.596 261.6 739.656 257.23 739.656 245.73V157.87C739.656 146.37 734.596 142 726.546 142C718.496 142 713.436 146.37 713.436 157.87V245.73C713.436 257.23 718.496 261.6 726.546 261.6Z"/>
<path d="M816.566 284.6C791.726 284.6 778.846 269.88 778.846 244.12V121.3H804.146V245.96C804.146 257.46 808.976 261.6 817.026 261.6C825.076 261.6 829.906 257.46 829.906 245.96V121.3H854.286V244.12C854.286 269.88 841.406 284.6 816.566 284.6Z"/>
<path d="M870.005 282.3V121.3H939.005V144.3H895.305V186.85H930.035V209.85H895.305V259.3H939.005V282.3H870.005Z"/>
<path d="M984.599 284.6C959.759 284.6 947.339 269.88 947.339 244.12V234.92H971.259V245.96C971.259 257.46 976.319 261.6 984.369 261.6C992.419 261.6 997.479 257.46 997.479 245.5C997.479 232.16 992.419 223.65 975.859 209.16C954.699 190.53 947.799 177.42 947.799 159.02C947.799 133.72 960.909 119 985.519 119C1010.13 119 1022.32 133.72 1022.32 159.48V166.15H998.399V157.87C998.399 146.37 993.799 142 985.749 142C977.699 142 973.099 146.37 973.099 157.41C973.099 169.14 978.389 177.65 994.949 192.14C1016.11 210.77 1022.78 223.65 1022.78 243.66C1022.78 269.88 1009.44 284.6 984.599 284.6Z"/>
<path d="M1054.77 282.3V144.3H1028.32V121.3H1106.52V144.3H1080.07V282.3H1054.77Z"/>
</mask>
<path d="M518.258 282.3V121.3H555.748C581.968 121.3 593.238 133.49 593.238 158.33V168.22C593.238 184.78 587.948 195.36 576.678 199.96V200.42C589.328 204.33 593.468 216.29 593.468 234.46V262.75C593.468 270.57 593.698 276.32 596.228 282.3H570.468C569.088 278.16 568.168 275.63 568.168 262.52V233.08C568.168 218.13 563.798 213.3 552.298 213.3H543.558V282.3H518.258ZM543.558 190.3H552.758C562.188 190.3 567.938 186.16 567.938 173.28V160.86C567.938 149.36 564.028 144.3 555.058 144.3H543.558V190.3Z" stroke="#F4E046" stroke-width="2" mask="url(#path-13-inside-12_1174_5634)"/>
<path d="M608.721 282.3V121.3H677.721V144.3H634.021V186.85H668.751V209.85H634.021V259.3H677.721V282.3H608.721Z" stroke="#F4E046" stroke-width="2" mask="url(#path-13-inside-12_1174_5634)"/>
<path d="M764.496 297.25C755.066 297.25 746.326 293.8 743.336 281.84C738.506 283.68 732.756 284.6 726.546 284.6C701.706 284.6 688.136 269.88 688.136 244.12V159.48C688.136 133.72 701.706 119 726.546 119C751.386 119 764.956 133.72 764.956 159.48V244.12C764.956 255.16 762.426 263.9 757.826 270.57C759.666 273.79 762.656 274.25 767.256 274.25H771.166V297.25H764.496ZM726.546 261.6C734.596 261.6 739.656 257.23 739.656 245.73V157.87C739.656 146.37 734.596 142 726.546 142C718.496 142 713.436 146.37 713.436 157.87V245.73C713.436 257.23 718.496 261.6 726.546 261.6Z" stroke="#F4E046" stroke-width="2" mask="url(#path-13-inside-12_1174_5634)"/>
<path d="M816.566 284.6C791.726 284.6 778.846 269.88 778.846 244.12V121.3H804.146V245.96C804.146 257.46 808.976 261.6 817.026 261.6C825.076 261.6 829.906 257.46 829.906 245.96V121.3H854.286V244.12C854.286 269.88 841.406 284.6 816.566 284.6Z" stroke="#F4E046" stroke-width="2" mask="url(#path-13-inside-12_1174_5634)"/>
<path d="M870.005 282.3V121.3H939.005V144.3H895.305V186.85H930.035V209.85H895.305V259.3H939.005V282.3H870.005Z" stroke="#F4E046" stroke-width="2" mask="url(#path-13-inside-12_1174_5634)"/>
<path d="M984.599 284.6C959.759 284.6 947.339 269.88 947.339 244.12V234.92H971.259V245.96C971.259 257.46 976.319 261.6 984.369 261.6C992.419 261.6 997.479 257.46 997.479 245.5C997.479 232.16 992.419 223.65 975.859 209.16C954.699 190.53 947.799 177.42 947.799 159.02C947.799 133.72 960.909 119 985.519 119C1010.13 119 1022.32 133.72 1022.32 159.48V166.15H998.399V157.87C998.399 146.37 993.799 142 985.749 142C977.699 142 973.099 146.37 973.099 157.41C973.099 169.14 978.389 177.65 994.949 192.14C1016.11 210.77 1022.78 223.65 1022.78 243.66C1022.78 269.88 1009.44 284.6 984.599 284.6Z" stroke="#F4E046" stroke-width="2" mask="url(#path-13-inside-12_1174_5634)"/>
<path d="M1054.77 282.3V144.3H1028.32V121.3H1106.52V144.3H1080.07V282.3H1054.77Z" stroke="#F4E046" stroke-width="2" mask="url(#path-13-inside-12_1174_5634)"/>
<mask id="path-14-inside-13_1174_5634" fill="white">
<path d="M1136.52 282.3V121.3H1174.01C1200.23 121.3 1211.5 133.49 1211.5 158.33V168.22C1211.5 184.78 1206.21 195.36 1194.94 199.96V200.42C1207.59 204.33 1211.73 216.29 1211.73 234.46V262.75C1211.73 270.57 1211.96 276.32 1214.49 282.3H1188.73C1187.35 278.16 1186.43 275.63 1186.43 262.52V233.08C1186.43 218.13 1182.06 213.3 1170.56 213.3H1161.82V282.3H1136.52ZM1161.82 190.3H1171.02C1180.45 190.3 1186.2 186.16 1186.2 173.28V160.86C1186.2 149.36 1182.29 144.3 1173.32 144.3H1161.82V190.3Z"/>
<path d="M1226.98 282.3V121.3H1295.98V144.3H1252.28V186.85H1287.01V209.85H1252.28V259.3H1295.98V282.3H1226.98Z"/>
<path d="M1382.75 297.25C1373.32 297.25 1364.58 293.8 1361.59 281.84C1356.76 283.68 1351.01 284.6 1344.8 284.6C1319.96 284.6 1306.39 269.88 1306.39 244.12V159.48C1306.39 133.72 1319.96 119 1344.8 119C1369.64 119 1383.21 133.72 1383.21 159.48V244.12C1383.21 255.16 1380.68 263.9 1376.08 270.57C1377.92 273.79 1380.91 274.25 1385.51 274.25H1389.42V297.25H1382.75ZM1344.8 261.6C1352.85 261.6 1357.91 257.23 1357.91 245.73V157.87C1357.91 146.37 1352.85 142 1344.8 142C1336.75 142 1331.69 146.37 1331.69 157.87V245.73C1331.69 257.23 1336.75 261.6 1344.8 261.6Z"/>
<path d="M1434.82 284.6C1409.98 284.6 1397.1 269.88 1397.1 244.12V121.3H1422.4V245.96C1422.4 257.46 1427.23 261.6 1435.28 261.6C1443.33 261.6 1448.16 257.46 1448.16 245.96V121.3H1472.54V244.12C1472.54 269.88 1459.66 284.6 1434.82 284.6Z"/>
<path d="M1488.26 282.3V121.3H1557.26V144.3H1513.56V186.85H1548.29V209.85H1513.56V259.3H1557.26V282.3H1488.26Z"/>
<path d="M1602.86 284.6C1578.02 284.6 1565.6 269.88 1565.6 244.12V234.92H1589.52V245.96C1589.52 257.46 1594.58 261.6 1602.63 261.6C1610.68 261.6 1615.74 257.46 1615.74 245.5C1615.74 232.16 1610.68 223.65 1594.12 209.16C1572.96 190.53 1566.06 177.42 1566.06 159.02C1566.06 133.72 1579.17 119 1603.78 119C1628.39 119 1640.58 133.72 1640.58 159.48V166.15H1616.66V157.87C1616.66 146.37 1612.06 142 1604.01 142C1595.96 142 1591.36 146.37 1591.36 157.41C1591.36 169.14 1596.65 177.65 1613.21 192.14C1634.37 210.77 1641.04 223.65 1641.04 243.66C1641.04 269.88 1627.7 284.6 1602.86 284.6Z"/>
<path d="M1673.02 282.3V144.3H1646.57V121.3H1724.77V144.3H1698.32V282.3H1673.02Z"/>
</mask>
<path d="M1136.52 282.3V121.3H1174.01C1200.23 121.3 1211.5 133.49 1211.5 158.33V168.22C1211.5 184.78 1206.21 195.36 1194.94 199.96V200.42C1207.59 204.33 1211.73 216.29 1211.73 234.46V262.75C1211.73 270.57 1211.96 276.32 1214.49 282.3H1188.73C1187.35 278.16 1186.43 275.63 1186.43 262.52V233.08C1186.43 218.13 1182.06 213.3 1170.56 213.3H1161.82V282.3H1136.52ZM1161.82 190.3H1171.02C1180.45 190.3 1186.2 186.16 1186.2 173.28V160.86C1186.2 149.36 1182.29 144.3 1173.32 144.3H1161.82V190.3Z" stroke="#F4E046" stroke-width="2" mask="url(#path-14-inside-13_1174_5634)"/>
<path d="M1226.98 282.3V121.3H1295.98V144.3H1252.28V186.85H1287.01V209.85H1252.28V259.3H1295.98V282.3H1226.98Z" stroke="#F4E046" stroke-width="2" mask="url(#path-14-inside-13_1174_5634)"/>
<path d="M1382.75 297.25C1373.32 297.25 1364.58 293.8 1361.59 281.84C1356.76 283.68 1351.01 284.6 1344.8 284.6C1319.96 284.6 1306.39 269.88 1306.39 244.12V159.48C1306.39 133.72 1319.96 119 1344.8 119C1369.64 119 1383.21 133.72 1383.21 159.48V244.12C1383.21 255.16 1380.68 263.9 1376.08 270.57C1377.92 273.79 1380.91 274.25 1385.51 274.25H1389.42V297.25H1382.75ZM1344.8 261.6C1352.85 261.6 1357.91 257.23 1357.91 245.73V157.87C1357.91 146.37 1352.85 142 1344.8 142C1336.75 142 1331.69 146.37 1331.69 157.87V245.73C1331.69 257.23 1336.75 261.6 1344.8 261.6Z" stroke="#F4E046" stroke-width="2" mask="url(#path-14-inside-13_1174_5634)"/>
<path d="M1434.82 284.6C1409.98 284.6 1397.1 269.88 1397.1 244.12V121.3H1422.4V245.96C1422.4 257.46 1427.23 261.6 1435.28 261.6C1443.33 261.6 1448.16 257.46 1448.16 245.96V121.3H1472.54V244.12C1472.54 269.88 1459.66 284.6 1434.82 284.6Z" stroke="#F4E046" stroke-width="2" mask="url(#path-14-inside-13_1174_5634)"/>
<path d="M1488.26 282.3V121.3H1557.26V144.3H1513.56V186.85H1548.29V209.85H1513.56V259.3H1557.26V282.3H1488.26Z" stroke="#F4E046" stroke-width="2" mask="url(#path-14-inside-13_1174_5634)"/>
<path d="M1602.86 284.6C1578.02 284.6 1565.6 269.88 1565.6 244.12V234.92H1589.52V245.96C1589.52 257.46 1594.58 261.6 1602.63 261.6C1610.68 261.6 1615.74 257.46 1615.74 245.5C1615.74 232.16 1610.68 223.65 1594.12 209.16C1572.96 190.53 1566.06 177.42 1566.06 159.02C1566.06 133.72 1579.17 119 1603.78 119C1628.39 119 1640.58 133.72 1640.58 159.48V166.15H1616.66V157.87C1616.66 146.37 1612.06 142 1604.01 142C1595.96 142 1591.36 146.37 1591.36 157.41C1591.36 169.14 1596.65 177.65 1613.21 192.14C1634.37 210.77 1641.04 223.65 1641.04 243.66C1641.04 269.88 1627.7 284.6 1602.86 284.6Z" stroke="#F4E046" stroke-width="2" mask="url(#path-14-inside-13_1174_5634)"/>
<path d="M1673.02 282.3V144.3H1646.57V121.3H1724.77V144.3H1698.32V282.3H1673.02Z" stroke="#F4E046" stroke-width="2" mask="url(#path-14-inside-13_1174_5634)"/>
</g>
<defs>
<clipPath id="clip0_1174_5634">
<rect width="1280" height="787" fill="white"/>
</clipPath>
</defs>
</svg>
