<svg width="100" height="279" viewBox="0 0 100 279" fill="none" xmlns="http://www.w3.org/2000/svg">
<path d="M99.3044 277.666L1.30469 278.127L1.23242 262.759L85.2322 262.364L85.1133 237.077L99.1132 237.011L99.3044 277.666Z" fill="#3C1F1F"/>
<path d="M99.1016 234.544L1.02701 219.079L0.929118 198.262L98.854 181.875L98.9262 197.242L79.4794 200.128L79.7594 200.127L79.8415 217.59L99.0346 220.294L99.1016 234.544ZM66.533 215.837L66.468 202.006L18.0603 209.079L18.0616 209.358L66.533 215.837Z" fill="#3C1F1F"/>
<path d="M98.8255 175.816L0.82573 176.277L0.722584 154.343L70.8164 144.233L70.8151 143.954L0.629292 134.504L0.526146 112.57L98.5259 112.109L98.5942 126.639L24.3944 126.988L24.3957 127.267L98.6481 138.095L98.7085 150.948L24.5613 162.473L24.5626 162.753L98.7624 162.404L98.8255 175.816Z" fill="#3C1F1F"/>
<path d="M98.4976 106.09L0.422942 90.6238L0.325052 69.8074L98.2499 53.4198L98.3222 68.7877L78.8754 71.6733L79.1554 71.672L79.2375 89.1355L98.4306 91.8395L98.4976 106.09ZM65.929 87.3818L65.8639 73.5508L17.4563 80.6242L17.4576 80.9037L65.929 87.3818Z" fill="#3C1F1F"/>
<path d="M98.2214 47.3611L0.221664 47.8219L0.114576 25.0496C0.0396793 9.12288 7.42747 2.24231 22.5474 2.17121L28.5674 2.1429C38.6474 2.09549 45.1025 5.27849 47.9347 12.111L48.2147 12.1097C50.5585 4.41456 57.8267 1.86558 68.8866 1.81357L86.1066 1.73259C90.8666 1.7102 94.3659 1.55404 97.9987 0.000140534L98.0723 15.6474C95.5562 16.4975 94.0189 17.0636 86.0389 17.1011L68.1189 17.1854C59.0189 17.2282 56.0914 19.8965 56.1243 26.8819L56.1492 32.1907L98.1491 31.9932L98.2214 47.3611ZM42.1493 32.2566L42.123 26.6683C42.0961 20.9403 39.5597 17.4594 31.7197 17.4963L24.1597 17.5318C17.1597 17.5647 14.0909 19.9543 14.1165 25.4029L14.1494 32.3883L42.1493 32.2566Z" fill="#3C1F1F"/>
</svg>
