<svg width="158" height="56" viewBox="0 0 158 56" fill="none" xmlns="http://www.w3.org/2000/svg">
<path d="M0.765625 55.2273V0H9.4442V47.3377H23.7244V55.2273H0.765625Z" fill="#F31E1D"/>
<path d="M25.1174 55.2273L34.1116 0H45.8671L54.8612 55.2273H46.1827L44.6047 44.2607V44.4185H34.7427L33.1648 55.2273H25.1174ZM35.7684 36.9234H43.5791L39.7132 9.62533H39.5554L35.7684 36.9234Z" fill="#F31E1D"/>
<path d="M58.2827 55.2273V0H70.6694L76.1921 39.527H76.3499L81.8727 0H94.2594V55.2273H86.0542V13.4123H85.8964L79.5847 55.2273H72.3262L66.0145 13.4123H65.8568V55.2273H58.2827Z" fill="#F31E1D"/>
<path d="M97.6587 55.2273L106.653 0H118.408L127.403 55.2273H118.724L117.146 44.2607V44.4185H107.284L105.706 55.2273H97.6587ZM108.31 36.9234H116.12L112.254 9.62533H112.097L108.31 36.9234Z" fill="#F31E1D"/>
<path d="M130.824 55.2273V0H143.684C152.678 0 156.544 4.1815 156.544 12.7023V16.0948C156.544 21.7753 154.73 25.4045 150.864 26.9825V27.1403C155.203 28.4815 156.623 32.5841 156.623 38.8169V48.5211C156.623 51.2036 156.702 53.176 157.57 55.2273H148.733C148.26 53.8071 147.944 52.9393 147.944 48.4422V38.3435C147.944 33.2153 146.445 31.5584 142.501 31.5584H139.503V55.2273H130.824ZM139.503 23.6688H142.658C145.893 23.6688 147.866 22.2487 147.866 17.8305V13.5701C147.866 9.62533 146.524 7.88961 143.447 7.88961H139.503V23.6688Z" fill="#F31E1D"/>
</svg>
