<svg width="574" height="202" viewBox="0 0 574 202" fill="none" xmlns="http://www.w3.org/2000/svg">
<path d="M0.815308 202V0.274902H32.5149V173.182H84.6752V202H0.815308Z" fill="#3C1F1F"/>
<path d="M89.7634 202L122.616 0.274902H165.554L198.407 202H166.707L160.943 161.943V162.519H124.921L119.158 202H89.7634ZM128.667 135.142H157.197L143.076 35.4327H142.5L128.667 135.142Z" fill="#3C1F1F"/>
<path d="M210.904 202V0.274902H256.148L276.321 144.652H276.897L297.069 0.274902H342.313V202H312.343V49.2652H311.767L288.712 202H262.2L239.146 49.2652H238.569V202H210.904Z" fill="#3C1F1F"/>
<path d="M354.73 202L387.582 0.274902H430.521L463.373 202H431.674L425.91 161.943V162.519H389.888L384.124 202H354.73ZM393.634 135.142H422.164L408.043 35.4327H407.467L393.634 135.142Z" fill="#3C1F1F"/>
<path d="M475.871 202V0.274902H522.844C555.696 0.274902 569.817 15.5484 569.817 46.6716V59.0633C569.817 79.8121 563.189 93.0684 549.068 98.8319V99.4083C564.918 104.307 570.105 119.293 570.105 142.059V177.505C570.105 187.303 570.393 194.507 573.563 202H541.287C539.558 196.813 538.405 193.643 538.405 177.216V140.33C538.405 121.598 532.93 115.546 518.521 115.546H507.57V202H475.871ZM507.57 86.7284H519.097C530.913 86.7284 538.117 81.5412 538.117 65.4032V49.8416C538.117 35.4327 533.218 29.0928 521.979 29.0928H507.57V86.7284Z" fill="#3C1F1F"/>
</svg>
